<svg xmlns="http://www.w3.org/2000/svg" xmlns:xlink="http://www.w3.org/1999/xlink" viewBox="0 0 6080 2420">
    <defs>
        <symbol id="logo">
            <style>
                /* <![CDATA[ */
                    path {
                        stroke:#000;
                        stroke-width:15;
                        stroke-linejoin:round;
                    }
                /* ]]> */
            </style>
            <!--<rect x="0" y="0" width="6080" height="2420" fill="yellow" />-->
            <path fill="#000" d="M4166 2110l-173 100 346 200v-300zm-866-500l173-100-173-100zm-520-300l-173 100 173 100zm-866 500l-173 100 346 200v-300zm3291-300l-173 100v200l346 200 173-100v-200zM529 1010l-174 100 520 300v-400zm3290-300v200h-346l520 300 173-100-173-100h346zM1568 410l-173 100v100h173l346 200V610z" />
            <path fill="#6b472c" d="M4166 1710v400h173v-100l173-100v-200zM3473 510v400h346V510zm-520 900v200h347v-200zM1048 310v200l173 100h174V310zm1732 600v200h347V910zm-866 500v400h173v-100l174-100v-200zM529 610v400h346V610zm1385-200v400l347-200zM875 1010v400l346-200z" />
            <path fill="#503622" d="M4859 1910l-347 200v300h173l174-100zm-693-200l-347 200v200l174 100 173-100zM3819 310l-173 100 173 100zm-2771 0L875 410l173 100zm520-300l-173 100v400l173-100zm1212 900l-346 200v200l173 100 173-100zm-866 500l-346 200v200l173 100 173-100zm3291-300l-693 400 347 200 346-200zM3473 510l-346 200 346 200zM529 610L9 910l346 200 174-100zm2078 1000l-346 200v300h173l173-100zm3118-200l-174 100v400l174-100z" />
            <path fill="#9e704e" d="M4859 1910v400l173-100v-200zm-347-200v200l173-100zM875 610v400l173-100V710zm1732 1000v400l173-100v-200zm3118-200v400l346-200zM3819 310v400l520 300 346-200zM1568 10v400l346 200V210zm1559 900v200l173 100v200l173 100 173-100v-200zm2078 200v400l346 200v-400zm-2944 300v200l173-100zm2078 600v400h173v-300zm-1559-700v200l173 100v-200zm-693 400v400h174v-300z" />
        </symbol>
    </defs>
    <use xlink:href="#logo" />
</svg>