<svg xmlns="http://www.w3.org/2000/svg" id="svg1030" width="394.77mm" height="184.29" version="1.1" viewBox="0 0 394.77 48.76"><path id="rect1120-1-0-5-4-1-6-6-2-3-6-67-6-1-9" fill="#e50202" d="m29.802 0.15467c-0.51032 0-0.92402 0.41369-0.92402 0.92402v4.6323c0 0.35736-0.42257 0.54651-0.68894 0.3083l-6.2609-5.5968c-0.39232-0.35067-0.98545-0.35067-1.3778 0l-19.861 17.754c-0.43833 0.3918-0.68892 0.95182-0.68896 1.5397v27.886c0 0.51031 0.4137 0.92402 0.92401 0.92402h40.629c0.51032 0 0.92402-0.41371 0.92402-0.92402v-27.886c-5e-5 -0.58791-0.25063-1.1479-0.68896-1.5397l-2.5675-2.2952c-0.43831-0.39186-0.68884-0.95195-0.6888-1.5399v-13.263c0-0.51033-0.4137-0.92402-0.92402-0.92402zm-6.8237 13.427c-0.35475 0.0808-0.84192 0.0251-1.1764 0.14799l-0.20018-0.0285c0.45445-0.0585 0.91418-0.081 1.3766-0.1197zm-2.0189 0.2122-8.73e-4 8.73e-4v3e-3h-7e-3c-0.23463 0.13057-0.46675 0.23392-0.68668 0.3883 0.90219-0.21512 0.85919 0.0875 1.7812-0.0345-0.32342 0.0471-0.71685 0.1752-0.65406 0.22438 1.0308 0.11935 1.1889-0.31864 2.1425 0l-0.06042-0.28169c1.3248 0.47833 1.6017 0.39755 3.0411 1.161 0.5059 0.0248 0.55665-0.31174 1.3205 0 0.13433 0.23591-0.03096 0.27934 0.90657 0.83755 0.10462-0.0414-0.18691-0.30639-0.41764-0.51751 1.8852 1.0079 3.935 3.1557 4.5598 5.4545-0.58488-1.0784-0.06062 0.55042-0.26154 0.46592 0.26068 0.70325 0.47458 1.4294 0.60669 2.1798-0.17311-0.61545-0.55082-2.1007-1.2125-3.0593-0.05403 0.61878-0.8523-0.42674-0.41584 0.93485 0.33283 0.48226 0.06711-0.48964 0.4772 0.36741 6e-3 0.40734 0.16232 0.81242 0.25252 1.3433-0.14042-0.0231-0.31337-0.58641-0.4166-0.42953 0.14234 0.66776 0.37675 1.0154 0.46592 1.0666-0.04584 0.11179-0.16403-0.10394-0.17205 0.35026 0.05463 1.0456 0.29311 0.6043 0.40546 0.65406-0.11394 0.51439-0.57463 1.1195-0.34726 2.0048-0.06522-0.26808-0.19299-0.53794-0.28981-0.79198-0.08978 0.75576 0.16789 0.90345-0.18107 1.8195 0.25155-0.82571 0.22384-1.5706-0.01389-1.2117 0.10471 1.1736-0.9289 2.0747-0.81709 2.8167l-0.29988-0.41448c-0.81385 1.1799-0.01958 0.64983-0.5736 1.5438 0.20314-0.35122-0.10651-0.14472 0.15792-0.54247-0.17563 0.01201-0.78318 0.74714-1.3394 1.1804-2.1868 1.753-4.797 1.9825-7.3242 1.0385-2e-3 0-2e-3 0.0021-3e-3 3e-3 -2e-3 8e-3 -5e-3 0.01479-8e-3 0.02209-2e-3 0.12149 0.49263 0.50217 0.86552 0.69407 0.96283 0.3559 2.0516 0.36989 2.9085 0.33822-1.8517 0.77455-5.3885-0.78702-6.5453-2.8582 0.26171 0.057 1.1585 1.4563 1.8295 1.6836-0.3967-0.31791-0.70394-0.72292-0.98824-1.1391 0.53593 0.616 1.1884 1.1187 1.9001 1.452-0.01937-0.0734 0.01208-0.1219 0.02996-0.17069 0-9e-3 2e-3 -0.01611 8e-3 -0.02209 0.01488-0.0597-5e-3 -0.1254-0.17822-0.24184-2.1421-1.6418-3.4082-3.0372-2.9686-6.2676 0.32669-0.2466 0.41359-1.5939 1.1633-2.066 0.45694-1.0096 1.8254-1.9403 3.2888-1.9634 1.494-0.0822 2.7551 0.79769 3.3884 1.6273-1.153-1.0745-3.0398-1.4017-4.6494-0.60489-1.6457 0.74011-2.622 2.5529-2.4797 4.3577 0.0611-0.0899 0.11555-0.0349 0.14498-0.25778-0.0503 3.5076 3.7799 6.0785 6.5373 4.7813l0.03326 0.0732c1.118-0.30496 0.97264-0.55657 1.7037-1.0586-0.05703 0.1178-0.49194 0.41772-0.23236 0.42352 0.35556-0.0943 1.4665-1.1276 2.0126-1.6131 0.25049-0.54029-0.13336-0.29272 0.21641-0.97199l0.42772-0.21356c0.23752-0.687 0.50132-1.075 0.47193-1.8748l-0.25056 0.52622c0.36716-1.1117 0.15554-2.3215 0.20726-3.3681l-0.10258-0.0272c-0.08978-2.6326-2.3652-5.4308-4.3906-6.3773-1.7456-0.80645-4.4332-0.94552-5.675-0.33809 0.17103-0.1513 0.85223-0.21447 0.64714-0.33101-1.944 0.19316-1.5097 0.67806-2.9999 1.0588-0.40875 0.39469 1.193-0.31654 0.33102 0.19521-0.79935 0.22049-1.1714-0.1399-2.3558 1.0858 0.10541 0.17059 0.75154-0.50417 0.21235 0.17325-1.1131-0.13824-3.5162 2.5464-4.0265 3.4365l0.26664 0.0463c-0.43818 1.0977-1.0143 1.7979-1.0928 2.4555-0.11311 1.617-0.67753 4.565 0.10663 5.4716l-0.0764 0.75679c0.10768 0.21472 0.18923 0.43363 0.32304 0.6351l-0.17521 0.01519c0.8249 2.6018 0.88628 0.0479 1.9754 2.7503-0.15797-0.0532-0.31733-0.11097-0.54743-0.42156-0.0272 0.23694 0.3347 0.94861 0.76595 1.5035l-0.18212 0.20815c0.23994 0.43598 0.46143 0.53119 0.62789 0.68337-0.89614-0.48907 0.83114 1.6132 0.98719 1.881l0.13791-0.24573c-0.0198 0.35259 0.25278 0.80762 0.76475 1.4393l0.42576-0.01551c0.1757 0.34711 0.81804 0.97389 1.2075 1.0033l-0.25943 0.33825c0.97764 0.30966 0.47472 0.40992 1.6764 0.83514l-0.24243-0.42758c0.61271 0.53178 0.80235 0.99644 1.6674 1.4038 1.1992 0.41811 1.3583 0.25273 2.5895 0.60473-1.0434-0.0304-2.2698-0.01921-3.0946-0.31388-5.6278-1.5243-10.777-8.1266-10.401-14.926-0.0864-1.3767 0.13773-3.097-0.0915-3.4397 0.32168-1.0476 0.69326-2.3242 1.443-3.8444-0.054-0.10184 0.12404 0.29735 0.50517-0.35222 0.2312-0.50782 0.42004-1.0674 0.71153-1.5609l0.14903-0.0342c0.14993-0.87083 2.0322-2.2069 2.5923-2.8793l0.0392 0.25672c1.2223-1.1462 3.4009-1.9146 4.6273-2.4618-0.32104 0.35537 0.71357-0.033 1.465-0.0806 3e-3 -2e-3 5e-3 -3e-3 8e-3 -4e-3zm0.7449 0.17235c0.88159 0.0251 0.81605 0.0835 0.52728 0.1468l-0.01388 0.0232-0.17415 0.0154 0.18693-0.0384c0.04284-0.0631-0.26315-0.0995-0.52712-0.14679zm-11.642 6.0058c-6e-3 0.29559 0.49646-0.29189 0.13596 0.52036-0.67269 0.47039-0.0589 0.1931-0.13596-0.52036zm-0.54849 2.2654c-0.0592 0.27527-0.0877 0.56094-0.24259 1.0365 0.0451-0.37241-0.1857-0.48903 0.24259-1.0365zm17.625 3.3069c0.06112 0 0.10535 0.15048 0.0755 0.5957-0.08918 0.35863-0.16248-0.22065-0.25461-0.26861 0.03925-0.16999 0.11801-0.3256 0.17912-0.32709zm5.4091 1.5005c-0.13207 1.0151-0.44767 2.0174-0.93485 2.9334 0.44096-0.86807 0.72816-1.805 0.86146-2.7513zm-5.728 0.33748c-0.0762 0.45891-0.29117 0.90234-0.58488 1.3078 0.03565-0.34954-0.82094 0.15127 0.17325-1.1-0.08639 0.35257-0.92457 1.2805 0 0.69842 0.16706-0.29779 0.34498-0.57969 0.41163-0.90627zm-2.0168 1.9067c-0.14433 0.1369-0.30565 0.27828-0.48396 0.4175-0.6457-0.0993-1.2344-0.34735-0.73978-0.35418 0.41225 0.0376 0.82158 0.0349 1.2237-0.0633zm-6.2418 0.0645c0.11392 0.22822 0.21643 0.45693 0.38847 0.64714l0.15174 0.44861c-0.20786-0.35038-0.43134-0.69473-0.54037-1.0958zm-0.3799 0.67722c0.40821 0.78803 0.63018 1.0293 0.92884 1.6122-0.41514-0.34517-0.67347-0.82364-0.99847-1.2651z"/><g id="g942-5-5-1-0-3" transform="matrix(.66063 0 0 .66063 1099.4 -851.69)"><path id="path30-6-5-3-6-3-3-2-6-7" fill="#ff8c00" stroke-width="1.889" d="m-1514.1 1326.1c0 5.2884-0.9444 10.199-2.6443 14.543-1.6998 4.3441-4.3441 8.3104-7.7438 11.521-3.2108 3.2109-7.366 5.8551-11.899 7.5549-4.722 1.8887-9.8215 2.6443-15.488 2.6443h-28.331v-72.905h28.331c5.6662 0 10.766 0.9444 15.488 2.8331 4.7217 1.8887 8.6881 4.3441 11.899 7.5549 3.3997 3.2109 5.8551 7.1772 7.7438 11.521 1.8887 4.3442 2.6443 9.4437 2.6443 14.732zm-17.376 0c0-3.5886-0.3777-6.7995-1.3221-9.8214-0.9444-2.8331-2.2665-5.2885-3.9663-7.3661-1.6999-2.0776-3.9664-3.5885-6.4217-4.7218-2.4553-1.1332-5.4774-1.6998-8.6881-1.6998h-11.332v46.84h11.332c3.2107 0 6.0438-0.5666 8.6881-1.6998 2.4553-1.1333 4.7218-2.6442 6.4217-4.7218 1.6998-2.0777 3.0219-4.533 3.9663-7.3661 0.9444-2.6442 1.3221-5.8551 1.3221-9.4436z" class="st25"/><path id="path32-2-9-8-1-5-56-9-3-4" fill="#ffd42a" stroke-width="1.852" d="m-1483.7 1309.9c3.3341 0 6.4831 0.5558 9.2617 1.4819 2.7784 1.1114 5.1864 2.5933 7.224 4.6308 2.0375 2.0376 3.5195 4.4456 4.6308 7.4093 1.1115 2.9638 1.6671 6.1127 1.6671 9.8174 0 1.1114 0 2.0375-0.1851 2.7785-0.381 2.0826-1.5174 2.7779-3.3343 2.7785h-29.082c0.5557 4.2603 1.8523 7.4093 3.8899 9.2616 2.0377 1.8524 4.8161 2.9637 8.1503 2.9637 1.8524 0 3.3342-0.1852 4.6309-0.5557 1.2966-0.3704 2.408-0.9261 3.3341-1.4818 0.9262-0.5557 1.8523-0.9262 2.7785-1.4819 1.8964-0.7921 4.1892-0.7026 5.3717 0.741l4.4456 5.3717c-1.4818 1.8523-3.3341 3.3342-5.0012 4.4456-1.6672 1.1114-3.7047 2.0375-5.557 2.5932s-3.8899 1.1114-5.7422 1.2967c-1.8523 0.1852-3.7048 0.3704-5.5571 0.3704-3.5194 0-6.8536-0.5557-10.002-1.6671-3.149-1.1114-5.9274-2.9637-8.1502-5.1865-2.4081-2.2228-4.2605-5.1865-5.5571-8.5207s-2.0376-7.4093-2.0376-11.855c0-3.3342 0.5558-6.6684 1.6671-9.6321 1.1115-2.9637 2.7785-5.7422 5.0013-7.965s4.8161-4.0751 7.965-5.3718c2.7785-1.667 6.2981-2.2228 10.188-2.2228zm0.3705 10.373c-2.9638 0-5.1866 0.7409-6.8537 2.408s-2.7785 4.0751-3.149 7.2241h19.079c0-1.2966-0.1852-2.408-0.5557-3.5194-0.3704-1.1114-0.7409-2.2228-1.4818-3.149-0.741-0.9261-1.6671-1.6671-2.7785-2.2228-1.2967-0.3705-2.5933-0.7409-4.2603-0.7409z" class="st25"/><path id="path34-6-4-5-8-6-29-3-2-5" fill="#008026" stroke-width="1.852" d="m-1455.4 1361.9v-72.42h15.189v26.852c1.8523-1.8523 4.0751-3.3342 6.4832-4.4456 2.408-1.1114 5.1865-1.6671 8.5207-1.6671 2.5932 0 5.1865 0.5557 7.4093 1.6671s4.2603 2.7785 5.9274 5.0013 2.9638 5.0013 3.8899 8.1503c0.9262 3.1489 1.4819 6.8536 1.4819 10.929 0 3.8899-0.5557 7.4093-1.6671 10.558-1.1114 3.1489-2.5933 6.1127-4.4456 8.5207s-4.2604 4.2603-6.8536 5.557c-2.5933 1.2966-5.557 2.0375-8.8912 2.0375-2.6844 0.038-5.2122-0.5821-7.4093-1.6671-0.9262-0.5557-1.8523-1.1114-2.7785-1.8523s-1.6671-1.4818-2.408-2.408c-0.3461 2.7314-1.5783 5.3095-4.2604 5.3717h-10.188zm24.821-40.381c-1.1114 0-2.0375 0.1853-2.9637 0.3705s-1.6671 0.5557-2.5933 0.9262c-0.9261 0.3704-1.4818 0.9261-2.2228 1.4818-0.7409 0.5557-1.2966 1.2967-2.0375 2.0376v21.672c1.1114 1.2967 2.408 2.2228 3.7046 2.5933 1.2967 0.5557 2.7785 0.7409 4.2604 0.7409s2.7785-0.1852 3.8899-0.9261c1.1114-0.5557 2.2228-1.4819 3.1489-2.5933 0.9262-1.2966 1.4819-2.7785 2.0376-4.816 0.5557-2.0376 0.7409-4.2604 0.7409-7.2241 0-2.5933-0.1852-5.0013-0.5557-6.8536-0.3704-1.8524-0.9261-3.3342-1.6671-4.4456-0.7409-1.1114-1.4818-1.8524-2.5932-2.4081-0.741-0.1852-1.8524-0.5557-3.149-0.5557z" class="st25"/></g><g id="g933-9-12-1-0-2" transform="matrix(.65996 0 0 .65996 1217.1 -905.42)"><path id="path40-7-0-8-0-2-9-9-6-5" fill="#fab0c8" stroke-width="1.852" d="m-1454.1 1445.5v-50.569h9.4468c1.7029 0.01 3.2702 0.7902 3.7047 2.408l0.9262 2.9638c0.9261-0.9262 2.0375-1.8524 2.9637-2.5933 1.1114-0.7409 2.2228-1.4819 3.3342-2.0376s2.408-0.9261 3.8899-1.2966c1.4818-0.3705 2.9637-0.5557 4.6308-0.5557 2.7785 0 5.1865 0.5557 7.4093 1.4819 2.2228 0.9261 3.8899 2.2228 5.3718 4.0751 1.4818 1.6671 2.5932 3.7046 3.3342 6.1127 0.7409 2.408 1.1114 5.0013 1.1114 7.7797v32.416h-15.189v-32.23c0-2.408-0.5557-4.4456-1.6671-5.7422-1.1114-1.4819-2.7785-2.0376-5.0013-2.0376-1.6671 0-3.149 0.3705-4.6308 1.1114-1.4819 0.7409-2.9638 1.6671-4.2604 2.9637v35.935h-15.374z" class="st25"/><path id="path42-9-9-1-2-7-3-4-1-4" fill="#74d7ee" stroke-width="1.852" d="m-1396 1405.3-3.3342-0.741c-2.0177-0.4047-3.8661-1.8559-3.8899-3.7046v-6.1127h7.2241v-2.9637c0-2.9638 0.5557-5.557 1.4819-7.965 0.9261-2.4081 2.2228-4.4456 4.0751-6.1127 1.6671-1.6671 3.8899-2.9638 6.4831-3.8899 2.5933-0.9262 5.3718-1.2967 8.5207-1.2967 1.2967 0 2.4081 0 3.5195 0.1853 1.1114 0.1852 2.2228 0.3704 3.3342 0.7409l-0.3705 7.4093c-0.095 1.8782-2.2991 2.9405-3.7047 2.9638-1.2966 0-2.5932 0.1852-3.5194 0.3704-1.1114 0.1853-1.8523 0.741-2.5933 1.4819-0.7409 0.7409-1.2966 1.4818-1.667 2.5932-0.3705 1.1114-0.5557 2.4081-0.5557 4.0752v2.408h12.04v10.373h-11.484v40.381h-15.56z" class="st25"/><g id="g4-2-1-0-3-0-6-7-5-7" fill="#91399f" transform="matrix(.098765 0 0 .098765 -1510.2 1394.9)"><path id="path2-0-0-3-7-9-0-8-5-4" fill="#91399f" d="m437.02 74.98c-48.353-48.352-112.64-74.98-181.02-74.98s-132.67 26.628-181.02 74.98-74.98 112.64-74.98 181.02 26.628 132.67 74.98 181.02 112.64 74.98 181.02 74.98 132.67-26.628 181.02-74.98 74.98-112.64 74.98-181.02-26.628-132.67-74.98-181.02zm-2.132 315.68c-15.31-10.361-31.336-19.314-47.952-26.789 7.339-28.617 11.697-59.688 12.784-91.87h79.702c-3.144 44.336-19.244 85.147-44.534 118.66zm-402.31-118.66h79.702c1.088 32.183 5.446 63.254 12.784 91.87-16.616 7.475-32.642 16.427-47.952 26.789-25.29-33.512-41.39-74.323-44.534-118.66zm44.53-150.65c15.31 10.362 31.336 19.315 47.954 26.79-7.338 28.615-11.695 59.683-12.783 91.864h-79.701c3.144-44.334 19.243-85.142 44.53-118.65zm283.52-42.581c-5.863-10.992-12.198-20.911-18.935-29.713 27.069 11.25 51.473 27.658 71.977 47.997-11.625 7.638-23.702 14.369-36.155 20.185-4.886-13.664-10.528-26.547-16.887-38.469zm-12.965 50.404c-29.211 9.792-60.039 14.831-91.662 14.831s-62.451-5.039-91.662-14.831c20.463-58.253 54.273-97.169 91.662-97.169s71.199 38.916 91.662 97.169zm-203.36 110.83c1.056-28.342 4.885-55.421 10.937-80.116 32.136 10.644 66.018 16.116 100.76 16.116s68.624-5.472 100.76-16.116c6.053 24.695 9.881 51.773 10.937 80.116zm223.39 32c-1.057 28.344-4.885 55.424-10.938 80.12-32.139-10.646-66.02-16.12-100.76-16.12s-68.62 5.474-100.76 16.12c-6.053-24.696-9.882-51.776-10.938-80.12zm-216.32-193.24c-6.358 11.922-12 24.805-16.887 38.468-12.452-5.815-24.53-12.547-36.155-20.185 20.503-20.34 44.907-36.747 71.977-47.997-6.737 8.803-13.073 18.722-18.935 29.714zm-16.886 316.01c4.886 13.661 10.528 26.542 16.885 38.462 5.863 10.992 12.198 20.911 18.935 29.713-27.067-11.25-51.469-27.655-71.971-47.992 11.625-7.637 23.701-14.368 36.151-20.183zm29.853-11.938c29.213-9.794 60.04-14.835 91.66-14.835s62.447 5.041 91.66 14.835c-20.463 58.251-54.272 97.165-91.66 97.165s-71.197-38.914-91.66-97.165zm196.29 50.4c6.357-11.92 11.999-24.801 16.885-38.462 12.451 5.815 24.527 12.547 36.151 20.183-20.502 20.337-44.904 36.743-71.971 47.992 6.737-8.802 13.073-18.721 18.935-29.713zm39.093-193.24c-1.088-32.18-5.445-63.249-12.783-91.864 16.618-7.475 32.645-16.428 47.954-26.79 25.287 33.511 41.386 74.319 44.53 118.65z"/></g><path id="path36-1-9-4-2-1-70-4-4-4" fill="#004dff" stroke-width="1.89" d="m-1523.1 1426.1c0.3885 0.1777 0.7766 0.3552 1.169 0.7189l7.0695 6.7306c-2.9849 3.7861-6.5629 6.8409-10.935 8.7966-4.3713 1.9555-9.7243 3.0024-15.867 3.1359-5.5663 0.1209-10.77-0.6961-15.228-2.4597-4.458-1.7637-8.357-4.2835-11.501-7.3783-3.1443-3.0947-5.7301-6.9458-7.3734-11.562-1.831-4.4256-2.7107-9.2442-2.8355-14.637-0.1249-5.3928 0.7228-10.249 2.5387-14.754 1.8159-4.505 4.4127-8.4685 7.6025-11.701 3.1899-3.2323 7.3523-5.9279 12.108-7.8917 4.7553-1.9643 9.9165-3.0068 15.675-3.132 2.6874-0.059 5.3786 0.069 7.8871 0.5727 2.5081 0.5037 4.8244 1.0115 6.9571 1.8954 2.1329 0.8839 4.074 1.772 6.0194 2.8461 1.7534 1.0782 3.511 2.3425 4.8889 3.8009l-5.5814 7.7501c-0.3754 0.3802-0.7463 0.9465-1.3134 1.3309-1.9224 1.0921-3.846 0.4451-5.5837-0.6226-0.5844-0.3595-1.361-0.7147-1.9498-1.2602-0.7764-0.3554-1.557-0.8967-2.7172-1.2433-0.9686-0.3511-2.1286-0.698-3.4765-0.8548-1.3483-0.1566-2.8879-0.3094-4.8073-0.2676-3.0712 0.067-5.9373 0.6874-8.5988 1.8616-2.6613 1.1743-4.7383 2.708-6.6104 4.7953-1.8718 2.0875-3.1594 4.5342-4.2464 7.3489-0.8953 2.8103-1.3977 5.9843-1.316 9.5177 0.087 3.7195 0.7353 6.8684 1.7639 9.823 1.0244 2.7685 2.616 5.1527 4.3909 7.1609 1.7749 2.0081 3.9206 3.4498 6.2456 4.3297 2.3247 0.8798 5.025 1.3791 7.7122 1.3206 1.5355-0.033 3.0712-0.066 4.2185-0.2779 1.3392-0.2148 2.4865-0.4259 3.6296-0.8229 1.1432-0.3971 2.0942-0.7897 3.0367-1.5546 0.9468-0.5788 1.8892-1.3435 3.0195-2.2983 1.0805-0.8583 2.7176-1.5861 4.009-1.0177z" class="st25"/></g><g id="g987-3-62-5-7-3" transform="matrix(.66713 0 0 .66713 1372.6 -918.68)"><path id="path48-6-4-8-2-5-3-6-6-0-6-0" fill="#603914" stroke-width="1.616" d="m-1553.5 1377.4c3.5555 0 6.7878 0.4848 9.5352 1.6161 2.9091 0.9697 5.1717 2.4242 7.2727 4.3636 1.9393 1.7778 3.5555 4.0404 4.5252 6.6262 1.1313 2.5858 1.6161 5.3333 1.6161 8.404 0 2.5858-0.3232 5.01-1.1313 7.2726s-1.7778 4.3636-3.0707 6.303c-1.2929 1.9393-2.7474 4.0403-4.5252 5.8181-1.6161 1.9394-3.5555 3.7171-5.3332 5.6565l-12.051 12.776c3.6199 0.099 4.9468-0.1574 8.3339-0.1703h13.414c3.0544 0.024 5.2986 2.1408 5.3333 4.8484v8.8888h-50.262v-4.8484c0.085-2.3651 1.0519-4.5463 2.7475-5.9797l20.687-20.848c1.7778-1.7777 3.2323-3.3939 4.6868-5.01 1.2929-1.6162 2.4242-3.2323 3.2323-4.6869 0.8081-1.6161 1.4545-3.0706 1.9394-4.6868 0.4848-1.6161 0.6464-3.2323 0.6464-5.01 0-2.9091-0.6464-5.0101-2.1009-6.6262-1.293-1.4545-3.394-2.2626-6.1414-2.2626-1.1313 0-2.2626 0.1616-3.0707 0.4848-0.9697 0.3233-1.7777 0.8081-2.5858 1.293-0.8081 0.4848-1.4545 1.2929-1.9394 1.9393-0.4848 0.8081-0.9697 1.6162-1.2929 2.4242-1.0199 3.715-4.3619 4.3983-7.4343 4.0404l-8.0807-1.4545c0.4849-3.5555 1.4546-6.6262 3.0707-9.3737 1.4545-2.5858 3.3939-4.8484 5.4949-6.6262 2.2626-1.7777 4.6868-3.0706 7.5959-3.8787 2.5858-0.9697 5.6565-1.2929 8.8888-1.2929z" class="st15"/><path id="path50-1-4-9-6-9-6-0-1-3-5-7" fill="#010101" stroke-width="1.599" d="m-1465.8 1413.8c0 6.2207-0.6407 11.484-1.9224 16.11-1.2815 4.4661-3.2038 8.2942-5.6068 11.325-2.403 3.0307-5.1263 5.2637-8.3302 6.6992-3.204 1.4355-6.7283 2.2331-10.573 2.2331-3.8447 0-7.2088-0.7976-10.413-2.2331-3.204-1.4355-5.9273-3.6685-8.3302-6.6992-2.4031-3.0306-4.1652-6.6992-5.4467-11.325-1.2816-4.4661-1.9224-9.8893-1.9224-16.11 0-6.2206 0.6408-11.484 1.9224-16.11 1.2815-4.4662 3.2039-8.2943 5.4467-11.325 2.4029-3.0306 5.1262-5.1041 8.3302-6.6992 3.2039-1.4356 6.7282-2.233 10.413-2.233 3.8448 0 7.2089 0.7974 10.573 2.233 3.2039 1.4356 6.0874 3.6686 8.3302 6.6992 2.403 3.0306 4.1651 6.6992 5.6068 11.325 1.2817 4.6256 1.9224 9.8892 1.9224 16.11zm-15.539 0c0-4.9446-0.3203-8.9322-0.9612-11.963-0.6407-3.1901-1.4417-5.5827-2.4029-7.3373s-2.2428-3.0306-3.5243-3.6686c-1.2816-0.638-2.5631-0.957-4.005-0.957-1.2815 0-2.5631 0.319-3.8447 0.957-1.2815 0.638-2.4029 1.914-3.3641 3.6686s-1.7622 4.3066-2.4029 7.3373c-0.6409 3.19-0.9612 7.1776-0.9612 11.963 0 4.9448 0.3203 8.9323 0.9612 11.963 0.6407 3.0306 1.4417 5.5827 2.4029 7.3372s2.0826 3.0307 3.3641 3.6686c1.2816 0.638 2.5632 0.9571 3.8447 0.9571 1.2817 0 2.7234-0.3191 4.005-0.9571 1.2815-0.6379 2.4029-1.9141 3.5243-3.6686 0.9612-1.7545 1.9224-4.3066 2.4029-7.3372 0.6409-3.0306 0.9612-7.0181 0.9612-11.963z" class="st15"/></g></svg>