<?xml version="1.0" encoding="UTF-8" standalone="no"?>
<!-- Generator: Adobe Illustrator 26.0.3, SVG Export Plug-In . SVG Version: 6.00 Build 0)  -->

<svg
   version="1.1"
   id="Layer_1"
   x="0px"
   y="0px"
   viewBox="0 0 618.77714 193.49999"
   xml:space="preserve"
   sodipodi:docname="logo.svg"
   width="618.77716"
   height="193.5"
   inkscape:version="1.1.1 (3bf5ae0d25, 2021-09-20)"
   xmlns:inkscape="http://www.inkscape.org/namespaces/inkscape"
   xmlns:sodipodi="http://sodipodi.sourceforge.net/DTD/sodipodi-0.dtd"
   xmlns="http://www.w3.org/2000/svg"
   xmlns:svg="http://www.w3.org/2000/svg"><defs
   id="defs75" /><sodipodi:namedview
   id="namedview73"
   pagecolor="#ffffff"
   bordercolor="#666666"
   borderopacity="1.0"
   inkscape:pageshadow="2"
   inkscape:pageopacity="0.0"
   inkscape:pagecheckerboard="0"
   showgrid="false"
   inkscape:zoom="2.0105941"
   inkscape:cx="306.87446"
   inkscape:cy="123.09794"
   inkscape:window-width="1495"
   inkscape:window-height="1082"
   inkscape:window-x="0"
   inkscape:window-y="0"
   inkscape:window-maximized="0"
   inkscape:current-layer="Layer_1" />
<style
   type="text/css"
   id="style2">
	.st0{fill:#3D3C3B;}
	.st1{fill:#F79422;}
	.st2{fill:#F79422;stroke:#F79422;stroke-width:0.5862;stroke-miterlimit:10;}
	.st3{fill:none;}
</style>
<polygon
   class="st0"
   points="90.4,210.7 63.7,228.3 90.4,245.9 117.1,228.3 "
   id="polygon4"
   transform="translate(-7.6,-93.8)" />
<polygon
   class="st1"
   points="7.6,236.8 25,246.9 53.2,228.3 26.5,210.7 7.6,223.1 "
   id="polygon6"
   transform="translate(-7.6,-93.8)" />
<polygon
   class="st0"
   points="164.9,158.2 191.3,175.6 191.3,140.4 164.9,123 "
   id="polygon8"
   transform="translate(-7.6,-93.8)" />
<polygon
   class="st0"
   points="29.3,201.9 55.7,184.5 55.7,149.3 29.3,166.7 "
   id="polygon10"
   transform="translate(-7.6,-93.8)" />
<polygon
   class="st0"
   points="63.7,144 90.4,161.6 117.1,144 90.4,126.4 "
   id="polygon12"
   transform="translate(-7.6,-93.8)" />
<polygon
   class="st1"
   points="149.6,249.7 125.2,233.6 125.2,263.9 "
   id="polygon14"
   transform="translate(-7.6,-93.8)" />
<polygon
   class="st1"
   points="159.7,207.2 171.6,215.1 171.6,199.4 "
   id="polygon16"
   transform="translate(-7.6,-93.8)" />
<polygon
   class="st1"
   points="171.6,222.1 154.4,210.7 127.7,228.3 155.2,246.4 171.6,236.8 "
   id="polygon18"
   transform="translate(-7.6,-93.8)" />
<polygon
   class="st1"
   points="34.7,124.8 58.5,140.5 87.7,121.3 87.7,93.8 "
   id="polygon20"
   transform="translate(-7.6,-93.8)" />
<polygon
   class="st1"
   points="93.2,121.3 122.4,140.5 145.5,125.4 93.2,94.8 "
   id="polygon22"
   transform="translate(-7.6,-93.8)" />
<polygon
   class="st1"
   points="93.2,282.6 119.6,267.2 119.6,233.6 93.2,251 "
   id="polygon24"
   transform="translate(-7.6,-93.8)" />
<polygon
   class="st1"
   points="55.7,264.9 55.7,233.6 30.5,250.2 "
   id="polygon26"
   transform="translate(-7.6,-93.8)" />
<polygon
   class="st1"
   points="87.7,251 61.3,233.6 61.3,268.2 87.7,283.6 "
   id="polygon28"
   transform="translate(-7.6,-93.8)" />
<polygon
   class="st1"
   points="7.6,191.3 23.7,201.9 23.7,163.5 53.2,144 29.1,128.1 7.6,140.7 "
   id="polygon30"
   transform="translate(-7.6,-93.8)" />
<polygon
   class="st1"
   points="21.2,207.2 7.6,198.3 7.6,216.2 "
   id="polygon32"
   transform="translate(-7.6,-93.8)" />
<polygon
   class="st0"
   points="61.3,187.8 31.8,207.2 58.5,224.8 87.7,205.6 87.7,166.7 61.3,149.3 "
   id="polygon34"
   transform="translate(-7.6,-93.8)" />
<polygon
   class="st1"
   points="160.1,199.4 181.6,185.2 188.1,180.9 159.2,161.9 159.2,123.8 131.2,142.2 131.2,180.3 "
   id="polygon36"
   transform="translate(-7.6,-93.8)" />
<g
   id="g40"
   transform="translate(-7.6,-93.8)">
	<polygon
   class="st0"
   points="341.2,203.8 386.7,203.8 386.7,192.5 353.4,192.5 353.4,138.9 341.2,138.9 "
   id="polygon38" />
</g>
<g
   id="g56"
   transform="translate(-7.6,-93.8)">
	<path
   class="st0"
   d="m 205.8,253.5 c 0,-20.1 13.5,-33.3 33.7,-33.3 7.3,0 16.3,2.5 21.1,6.1 l -1,11.1 c -5.1,-4 -13.1,-6.8 -19.5,-6.8 -12.6,0 -21.2,9.2 -21.2,22.8 0,13.8 8.6,23.1 21.2,23.1 7.7,0 14.3,-3.4 18,-6.7 l 5.1,9.6 c -7.1,5 -14.8,7.7 -23.7,7.7 -20.3,-0.2 -33.7,-13.5 -33.7,-33.6 z"
   id="path42" />
	<path
   class="st0"
   d="m 300.6,286.9 c -18.6,0 -33.5,-12.2 -33.5,-33.5 0,-21.2 14.9,-33.4 33.5,-33.4 18.6,0 33.5,12.2 33.5,33.5 0,21.3 -14.9,33.4 -33.5,33.4 z m 0,-56.3 c -11.2,0 -20.4,8.5 -20.4,22.9 0,14.8 9.2,23 20.4,23 11.2,0 20.4,-8.2 20.4,-22.9 0,-14.5 -9.2,-23 -20.4,-23 z"
   id="path44" />
	<path
   class="st0"
   d="m 357.9,246.1 v 40 h -12.8 v -66.5 h 2 l 41.5,41.3 V 221 h 12.8 v 66.3 h -2 z"
   id="path46" />
	<path
   class="st2"
   d="m 413.4,237.5 -0.9,-10.6 c 2.5,-2.2 8.8,-6.2 18.1,-6.2 12.6,0 20.4,7.5 20.4,19.2 0,10.6 -7.3,21.8 -19.4,36 H 454 l -2.6,10.2 h -39.9 v -2.5 c 26.8,-29.1 26.9,-38.1 26.9,-42.7 0,-5 -2.8,-9.7 -9.7,-9.7 -5.7,0 -11.4,3 -15.3,6.3 z"
   id="path48" />
	<path
   class="st2"
   d="m 494.5,286.9 c -18.7,0 -33.7,-12.1 -33.7,-33.2 0,-21 15,-33.1 33.7,-33.1 18.7,0 33.7,12.1 33.7,33.2 0,21.1 -14.9,33.1 -33.7,33.1 z m 0,-55.8 c -11.2,0 -20.5,8.4 -20.5,22.7 0,14.7 9.3,22.8 20.5,22.8 11.2,0 20.5,-8.1 20.5,-22.7 0,-14.4 -9.2,-22.8 -20.5,-22.8 z"
   id="path50" />
	<path
   class="st2"
   d="m 537.1,237.5 -0.9,-10.6 c 2.5,-2.2 8.8,-6.2 18.1,-6.2 12.6,0 20.4,7.5 20.4,19.2 0,10.6 -7.3,21.8 -19.4,36 h 22.5 l -2.6,10.2 h -39.9 v -2.5 c 26.8,-29.1 26.9,-38.1 26.9,-42.7 0,-5 -2.8,-9.7 -9.7,-9.7 -5.9,0 -11.6,3 -15.4,6.3 z"
   id="path52" />
	<path
   class="st2"
   d="m 585.4,237.5 -0.9,-10.6 c 2.5,-2.2 8.8,-6.2 18.1,-6.2 12.6,0 20.4,7.5 20.4,19.2 0,10.6 -7.3,21.8 -19.4,36 H 626 l -2.6,10.2 h -39.9 v -2.5 c 26.8,-29.1 26.9,-38.1 26.9,-42.7 0,-5 -2.8,-9.7 -9.7,-9.7 -5.7,0 -11.4,3 -15.3,6.3 z"
   id="path54" />
</g>
<path
   class="st3"
   d="M 456.4,56.6 H 437.7 V 80 h 18.7 c 16,0 15.9,-23.4 0,-23.4 z"
   id="path58" />
<path
   class="st0"
   d="m 296.7,100.7 c -16.3,0 -22.7,-11.4 -22.8,-22.4 -0.1,-11.1 6.8,-23 22.8,-23 5.8,0 11.6,2 16,6.2 l 8.3,-8 c -6.8,-6.7 -15.3,-10.1 -24.3,-10.1 -23.9,0 -35.2,17.6 -35.1,34.9 0.1,17.2 10.5,34.1 35.1,34.1 9.5,0 18.3,-3.1 25.1,-9.8 L 313.3,94 c -4.3,4.4 -10.8,6.7 -16.6,6.7 z"
   id="path60" />
<path
   class="st0"
   d="M 198.5,110.9 H 248 V 98.6 H 210.9 V 83.7 h 35.8 V 72.1 H 210.9 V 56.8 H 248 V 44.7 h -49.5 c 0,22.1 0,44.2 0,66.2 z"
   id="path62" />
<path
   class="st0"
   d="m 563.2,110.9 h 49.5 V 98.6 H 575.6 V 83.7 h 35.8 V 72.1 H 575.6 V 56.8 h 37.1 V 44.7 h -49.5 c 0,22.1 0,44.2 0,66.2 z"
   id="path64" />
<rect
   x="395.19998"
   y="44.700001"
   class="st0"
   width="12.4"
   height="66.300003"
   id="rect66" />
<path
   class="st0"
   d="m 521.2,70.5 c -7.9,-0.9 -14.7,-2.6 -14.7,-8.3 0,-4.9 4.4,-8.8 13.7,-8.8 7.2,0 13.4,3.6 15.7,7.4 l 9.9,-5.1 c -5,-10.2 -15.7,-13.1 -26,-13.1 -12.2,0.1 -25.6,5.7 -25.6,19.3 0,14.8 12.5,18.4 26,20 8.8,0.9 15.3,3.5 15.3,9.7 0,7.2 -7.4,9.9 -15.2,9.9 -8,0 -15.7,-3.2 -18.6,-10.5 l -10.4,5.4 c 4.9,12.1 15.3,16.3 28.8,16.3 14.7,0 27.8,-6.3 27.8,-21.1 0,-15.8 -12.9,-19.4 -26.7,-21.1 z"
   id="path68" />
<path
   class="st0"
   d="m 456.4,44.7 c -10.4,-0.1 -20.8,0 -31.2,0 V 111 h 12.5 V 91.5 h 18.7 c 32.4,0 32.3,-46.8 0,-46.8 z m 0,35.3 H 437.7 V 56.6 h 18.7 c 15.9,0 16,23.4 0,23.4 z"
   id="path70" />
</svg>
