<?xml version="1.0" encoding="UTF-8" standalone="no"?>
<svg
   xmlns:dc="http://purl.org/dc/elements/1.1/"
   xmlns:cc="http://creativecommons.org/ns#"
   xmlns:rdf="http://www.w3.org/1999/02/22-rdf-syntax-ns#"
   xmlns:svg="http://www.w3.org/2000/svg"
   xmlns="http://www.w3.org/2000/svg"
   xmlns:sodipodi="http://sodipodi.sourceforge.net/DTD/sodipodi-0.dtd"
   xmlns:inkscape="http://www.inkscape.org/namespaces/inkscape"
   class="logo"
   version="1.1"
   x="0px"
   y="0px"
   width="882.867px"
   height="307.008px"
   viewBox="0 0 882.867 307.008"
   enable-background="new 0 0 882.867 307.008"
   id="svg4"
   sodipodi:docname="2022-typo3campvienna.svg"
   inkscape:version="0.92.5 (2060ec1f9f, 2020-04-08)">
  <metadata
     id="metadata10">
    <rdf:RDF>
      <cc:Work
         rdf:about="">
        <dc:format>image/svg+xml</dc:format>
        <dc:type
           rdf:resource="http://purl.org/dc/dcmitype/StillImage" />
      </cc:Work>
    </rdf:RDF>
  </metadata>
  <defs
     id="defs8" />
  <sodipodi:namedview
     pagecolor="#ffffff"
     bordercolor="#666666"
     borderopacity="1"
     objecttolerance="10"
     gridtolerance="10"
     guidetolerance="10"
     inkscape:pageopacity="0"
     inkscape:pageshadow="2"
     inkscape:window-width="1825"
     inkscape:window-height="1124"
     id="namedview6"
     showgrid="false"
     inkscape:zoom="0.44627333"
     inkscape:cx="445.91506"
     inkscape:cy="153.504"
     inkscape:window-x="46"
     inkscape:window-y="27"
     inkscape:window-maximized="0"
     inkscape:current-layer="svg4" />
  <path
     d="m 659.214,186.382 c -0.585,-0.08 -1.398,-0.127 -2.413,-0.127 -0.989,0 -1.78,0.03 -2.366,0.076 -0.589,0.051 -1.048,0.144 -1.381,0.273 -0.332,0.131 -0.56,0.312 -0.69,0.543 -0.126,0.228 -0.244,0.522 -0.345,0.885 l -17.793,53.581 h -0.047 l -18.298,-53.678 c -0.126,-0.329 -0.27,-0.603 -0.413,-0.812 -0.147,-0.22 -0.37,-0.388 -0.669,-0.519 -0.295,-0.13 -0.707,-0.223 -1.259,-0.273 -0.539,-0.046 -1.271,-0.076 -2.189,-0.076 -1.116,0 -2.009,0.034 -2.665,0.102 -0.657,0.067 -1.129,0.215 -1.428,0.446 -0.299,0.228 -0.438,0.564 -0.417,1.011 0.013,0.441 0.152,1.027 0.417,1.747 l 20.854,59.252 c 0.102,0.261 0.203,0.488 0.316,0.665 0.113,0.186 0.27,0.337 0.476,0.472 0.193,0.131 0.43,0.24 0.707,0.32 0.286,0.084 0.615,0.155 1.015,0.219 0.392,0.067 0.859,0.109 1.402,0.126 0.548,0.013 1.175,0.025 1.898,0.025 0.956,0 1.752,-0.025 2.396,-0.075 0.636,-0.051 1.162,-0.14 1.574,-0.27 0.404,-0.135 0.732,-0.312 0.96,-0.548 0.231,-0.227 0.413,-0.521 0.543,-0.884 l 20.804,-59.257 c 0.266,-0.715 0.417,-1.305 0.467,-1.747 0.047,-0.442 -0.033,-0.778 -0.244,-1.011 -0.219,-0.231 -0.614,-0.382 -1.212,-0.466 z m 18.045,17.228 c -0.299,-0.131 -0.711,-0.228 -1.237,-0.295 -0.522,-0.067 -1.196,-0.101 -2.021,-0.101 -0.783,0 -1.439,0.033 -1.97,0.101 -0.526,0.067 -0.943,0.164 -1.255,0.295 -0.312,0.131 -0.53,0.295 -0.645,0.492 -0.113,0.198 -0.168,0.413 -0.168,0.645 v 44.36 c 0,0.266 0.055,0.488 0.168,0.669 0.114,0.182 0.333,0.333 0.645,0.468 0.312,0.131 0.729,0.228 1.255,0.295 0.53,0.067 1.187,0.101 1.97,0.101 0.825,0 1.499,-0.033 2.021,-0.101 0.526,-0.067 0.938,-0.164 1.237,-0.295 0.291,-0.135 0.51,-0.286 0.636,-0.468 0.135,-0.181 0.198,-0.403 0.198,-0.669 v -44.36 c 0,-0.231 -0.063,-0.446 -0.198,-0.645 -0.126,-0.197 -0.345,-0.361 -0.636,-0.492 z m 49.143,5.104 c -1.574,-1.896 -3.592,-3.395 -6.037,-4.514 -2.451,-1.116 -5.415,-1.676 -8.896,-1.676 -3.251,0 -6.194,0.568 -8.825,1.701 -2.632,1.137 -4.872,2.762 -6.729,4.884 -1.856,2.117 -3.275,4.698 -4.261,7.738 -0.989,3.04 -1.482,6.467 -1.482,10.273 0,4.013 0.48,7.528 1.432,10.551 0.956,3.023 2.362,5.541 4.236,7.541 1.873,2.009 4.185,3.516 6.926,4.534 2.745,1.023 5.945,1.533 9.591,1.533 2.102,0 4.084,-0.16 5.937,-0.472 1.861,-0.312 3.499,-0.665 4.909,-1.062 1.406,-0.392 2.556,-0.791 3.448,-1.204 0.889,-0.412 1.424,-0.707 1.604,-0.888 0.177,-0.182 0.324,-0.367 0.442,-0.568 0.113,-0.194 0.193,-0.413 0.248,-0.666 0.047,-0.244 0.089,-0.521 0.122,-0.833 0.034,-0.316 0.046,-0.683 0.046,-1.112 0,-0.589 -0.024,-1.09 -0.071,-1.503 -0.05,-0.408 -0.122,-0.732 -0.223,-0.964 -0.105,-0.228 -0.24,-0.4 -0.421,-0.514 -0.182,-0.118 -0.388,-0.173 -0.623,-0.173 -0.393,0 -0.981,0.173 -1.756,0.519 -0.779,0.345 -1.769,0.728 -2.973,1.157 -1.204,0.426 -2.636,0.812 -4.286,1.158 -1.65,0.345 -3.532,0.518 -5.646,0.518 -2.673,0 -4.93,-0.379 -6.787,-1.133 -1.844,-0.758 -3.352,-1.84 -4.501,-3.254 -1.157,-1.411 -1.982,-3.107 -2.483,-5.082 -0.493,-1.971 -0.737,-4.186 -0.737,-6.648 h 29.216 c 0.825,0 1.558,-0.273 2.198,-0.816 0.652,-0.544 0.968,-1.453 0.968,-2.732 v -1.482 c 0,-2.893 -0.37,-5.612 -1.107,-8.159 -0.737,-2.544 -1.896,-4.766 -3.479,-6.652 z m -27.797,13.877 c 0.059,-1.811 0.379,-3.541 0.939,-5.204 0.56,-1.659 1.352,-3.111 2.383,-4.362 1.019,-1.246 2.299,-2.248 3.818,-3.006 1.516,-0.758 3.289,-1.137 5.306,-1.137 3.937,0 6.904,1.221 8.904,3.65 1.996,2.434 2.952,5.785 2.847,10.059 z m 132.5,-14.543 c -1.251,-1.676 -2.88,-3.015 -4.901,-4.021 -2.024,-0.998 -4.514,-1.503 -7.469,-1.503 -2.526,0 -5.036,0.652 -7.52,1.945 -2.48,1.305 -4.973,3.347 -7.465,6.143 v -5.865 c 0,-0.266 -0.056,-0.488 -0.173,-0.665 -0.118,-0.181 -0.304,-0.346 -0.568,-0.497 -0.262,-0.151 -0.632,-0.244 -1.107,-0.295 -0.48,-0.05 -1.074,-0.075 -1.798,-0.075 -0.758,0 -1.368,0.025 -1.827,0.075 -0.459,0.051 -0.838,0.144 -1.137,0.295 -0.291,0.151 -0.493,0.316 -0.59,0.497 -0.101,0.177 -0.147,0.399 -0.147,0.665 v 44.36 c 0,0.266 0.055,0.488 0.177,0.669 0.109,0.182 0.324,0.333 0.636,0.468 0.312,0.131 0.729,0.228 1.259,0.295 0.526,0.067 1.184,0.101 1.975,0.101 0.817,0 1.495,-0.033 2.021,-0.101 0.521,-0.067 0.935,-0.164 1.229,-0.295 0.29,-0.135 0.509,-0.286 0.644,-0.468 0.131,-0.181 0.198,-0.403 0.198,-0.669 v -31.005 c 2.231,-2.796 4.366,-4.914 6.404,-6.357 2.033,-1.449 4.075,-2.173 6.113,-2.173 1.574,0 2.964,0.299 4.164,0.893 1.2,0.59 2.181,1.44 2.931,2.56 0.758,1.12 1.33,2.451 1.73,3.996 0.391,1.545 0.589,3.583 0.589,6.109 v 25.978 c 0,0.266 0.067,0.488 0.198,0.669 0.126,0.182 0.345,0.333 0.64,0.468 0.299,0.131 0.703,0.228 1.233,0.295 0.526,0.067 1.204,0.101 2.021,0.101 0.791,0 1.448,-0.033 1.966,-0.101 0.53,-0.067 0.943,-0.164 1.238,-0.295 0.299,-0.135 0.509,-0.286 0.644,-0.468 0.127,-0.181 0.198,-0.403 0.198,-0.669 v -27.064 c 0,-3.153 -0.273,-5.853 -0.821,-8.108 -0.538,-2.25 -1.431,-4.212 -2.685,-5.888 z m 50.824,3.945 c -0.624,-2.076 -1.626,-3.807 -3.007,-5.199 -1.377,-1.398 -3.183,-2.459 -5.423,-3.184 -2.231,-0.725 -4.942,-1.086 -8.13,-1.086 -1.71,0 -3.402,0.16 -5.078,0.472 -1.676,0.312 -3.221,0.707 -4.631,1.179 -1.415,0.479 -2.665,1.006 -3.747,1.583 -1.091,0.572 -1.857,1.073 -2.295,1.499 -0.446,0.43 -0.725,0.88 -0.838,1.355 -0.113,0.48 -0.177,1.129 -0.177,1.949 0,0.493 0.033,0.943 0.101,1.352 0.067,0.413 0.177,0.75 0.32,1.015 0.147,0.261 0.324,0.459 0.518,0.594 0.198,0.126 0.43,0.193 0.69,0.193 0.392,0 0.994,-0.235 1.803,-0.716 0.804,-0.476 1.802,-1.002 3.006,-1.574 1.2,-0.577 2.594,-1.104 4.189,-1.574 1.596,-0.48 3.394,-0.721 5.397,-0.721 1.874,0 3.448,0.224 4.732,0.67 1.28,0.438 2.328,1.103 3.133,1.971 0.804,0.871 1.385,1.962 1.743,3.275 0.366,1.313 0.547,2.829 0.547,4.539 v 3.447 h -6.113 c -3.448,0 -6.552,0.308 -9.317,0.914 -2.762,0.606 -5.095,1.516 -7.002,2.736 -1.898,1.213 -3.368,2.741 -4.383,4.581 -1.02,1.84 -1.528,4.009 -1.528,6.51 0,2.135 0.366,4.042 1.107,5.718 0.74,1.676 1.772,3.09 3.107,4.239 1.33,1.149 2.942,2.029 4.829,2.64 1.895,0.606 4.004,0.91 6.336,0.91 2.657,0 5.179,-0.577 7.562,-1.727 2.387,-1.153 4.543,-2.762 6.483,-4.829 v 4.434 c 0,0.396 0.118,0.69 0.346,0.888 0.231,0.198 0.602,0.346 1.111,0.442 0.505,0.102 1.188,0.151 2.046,0.151 0.889,0 1.558,-0.05 2.017,-0.151 0.459,-0.097 0.825,-0.244 1.091,-0.442 0.257,-0.197 0.392,-0.492 0.392,-0.888 v -29.923 c 10e-4,-2.757 -0.31,-5.174 -0.937,-7.242 z m -7.146,26.323 c -2.008,2.235 -3.92,3.891 -5.738,4.977 -1.827,1.086 -3.811,1.63 -5.945,1.63 -2.632,0 -4.674,-0.687 -6.135,-2.047 -1.461,-1.364 -2.193,-3.199 -2.193,-5.498 0,-1.348 0.253,-2.539 0.758,-3.571 0.514,-1.035 1.313,-1.928 2.396,-2.665 1.082,-0.736 2.446,-1.297 4.093,-1.676 1.642,-0.379 3.574,-0.568 5.814,-0.568 h 6.951 v 9.418 z M 674.055,184.929 c -1.94,0 -3.275,0.346 -3.991,1.032 -0.732,0.69 -1.09,1.991 -1.09,3.895 0,1.873 0.354,3.149 1.064,3.818 0.703,0.674 2.009,1.015 3.916,1.015 1.94,0 3.271,-0.345 3.995,-1.035 0.716,-0.691 1.082,-1.987 1.082,-3.895 0,-1.874 -0.354,-3.146 -1.061,-3.819 -0.702,-0.674 -2.007,-1.011 -3.915,-1.011 z m 104.012,23.119 c -1.25,-1.676 -2.888,-3.015 -4.909,-4.021 -2.017,-0.998 -4.505,-1.503 -7.465,-1.503 -2.53,0 -5.035,0.652 -7.516,1.945 -2.484,1.305 -4.973,3.347 -7.469,6.143 v -5.865 c 0,-0.266 -0.06,-0.488 -0.173,-0.665 -0.118,-0.181 -0.308,-0.346 -0.568,-0.497 -0.266,-0.151 -0.632,-0.244 -1.111,-0.295 -0.472,-0.05 -1.074,-0.075 -1.798,-0.075 -0.758,0 -1.369,0.025 -1.819,0.075 -0.467,0.051 -0.838,0.144 -1.137,0.295 -0.299,0.151 -0.492,0.316 -0.594,0.497 -0.097,0.177 -0.143,0.399 -0.143,0.665 v 44.36 c 0,0.266 0.055,0.488 0.168,0.669 0.114,0.182 0.333,0.333 0.645,0.468 0.312,0.131 0.728,0.228 1.255,0.295 0.521,0.067 1.187,0.101 1.97,0.101 0.825,0 1.495,-0.033 2.021,-0.101 0.526,-0.068 0.935,-0.164 1.233,-0.295 0.295,-0.135 0.514,-0.286 0.64,-0.468 0.131,-0.181 0.198,-0.403 0.198,-0.669 v -31.005 c 2.235,-2.796 4.366,-4.914 6.412,-6.357 2.033,-1.449 4.071,-2.173 6.113,-2.173 1.575,0 2.96,0.299 4.16,0.893 1.204,0.59 2.177,1.44 2.935,2.56 0.758,1.12 1.33,2.451 1.722,3.996 0.396,1.545 0.598,3.583 0.598,6.109 v 25.978 c 0,0.266 0.06,0.488 0.194,0.669 0.13,0.182 0.345,0.333 0.644,0.468 0.291,0.131 0.703,0.228 1.23,0.295 0.521,0.067 1.199,0.101 2.024,0.101 0.783,0 1.44,-0.033 1.967,-0.101 0.527,-0.068 0.938,-0.164 1.233,-0.295 0.295,-0.135 0.514,-0.286 0.64,-0.468 0.131,-0.181 0.198,-0.403 0.198,-0.669 v -27.064 c 0,-3.153 -0.273,-5.853 -0.812,-8.108 -0.542,-2.25 -1.44,-4.212 -2.686,-5.888 z m -563.378,29.633 v -35.468 c 0,-30.66 -17.102,-47.55 -48.166,-47.55 -22.328,0 -37.22,7.354 -41.257,9.605 l -2.619,1.466 7.995,27.704 4.206,-2.493 c 5.815,-3.452 16.139,-6.938 26.075,-6.938 8.332,0 13.145,2.282 14.37,6.804 -37.704,1.027 -59.218,16.396 -59.218,42.513 0,16.917 12.808,34.899 36.546,34.899 10.66,0 20.07,-3.158 27.148,-9.002 l 1.234,6.716 h 36.285 l -1.027,-4.603 c -1.024,-4.618 -1.572,-12.799 -1.572,-23.653 z m -38.048,-12.447 c 0,1.546 -0.168,3.049 -0.479,4.35 -1.727,5.153 -7.061,8.88 -12.749,8.88 -3.949,0 -8.665,-1.432 -8.665,-8.252 0,-7.466 7.359,-11.537 21.894,-12.118 v 7.14 z M 86.666,186.5 c 6.521,0 11.936,0.935 16.096,2.778 l 4.261,1.898 6.632,-31.186 -3.053,-1.146 c -6.98,-2.618 -16.475,-4.183 -25.389,-4.183 -36.996,0 -61.858,23.188 -61.858,57.713 0,33.923 22.568,55.847 57.501,55.847 11.823,0 23.262,-1.975 29.855,-5.149 l 2.535,-1.221 -4.951,-30.828 -4.472,1.944 c -4.652,2.018 -10.054,3.002 -16.534,3.002 -14.589,0 -24.012,-9.751 -24.012,-24.892 -0.093,-7.292 2.248,-13.733 6.577,-18.121 4.176,-4.225 9.987,-6.456 16.812,-6.456 z m 389.958,-31.837 c -12.627,0 -23.301,3.955 -31.317,11.525 l -0.951,-9.243 H 409.62 l 0.168,3.947 c 0.425,9.869 0.825,20.799 0.825,33.851 v 112.265 h 39.093 v -45.514 c 5.995,4.303 14.059,6.729 22.972,6.729 23.999,0 49.829,-18.193 49.829,-58.128 0.001,-36.391 -23.084,-55.432 -45.883,-55.432 z m -11.621,81.725 c -7.061,0 -12.984,-4.808 -14.762,-11.97 -0.374,-1.878 -0.534,-3.672 -0.534,-5.818 v -13.898 c 0,-1.655 0.189,-3.406 0.534,-4.779 1.668,-7.54 8.055,-13.01 15.183,-13.01 16.312,0 17.578,18.854 17.578,24.635 0,15.556 -6.724,24.84 -17.999,24.84 z m -109.73,-81.725 c -7.608,0 -14.521,1.785 -21.186,5.496 -3.971,2.312 -7.583,5.322 -10.951,9.146 -5.933,-9.263 -16.265,-14.642 -28.63,-14.642 -13.288,0 -22.319,5.139 -28.319,11.079 l -0.792,-8.797 H 231.22 l 0.185,3.955 c 0.429,9.432 0.825,19.864 0.825,32.185 v 72.852 h 38.259 v -62.688 c 0,-1.865 0.101,-4.581 0.952,-6.636 l 0.055,-0.126 c 0.547,-1.461 3.659,-8.745 11.187,-8.745 9.044,0 10.942,9.562 10.942,17.583 v 60.612 h 38.264 v -63.105 c 0,-2.066 0.341,-4.736 0.859,-6.707 1.04,-2.656 4.104,-8.383 11.124,-8.383 2.758,0 11.153,0 11.153,19.448 v 58.747 h 38.26 v -63.518 c -0.001,-29.902 -14.211,-47.756 -38.012,-47.756 z m 395.924,-50.714 c -2.109,0.624 -3.794,0.84 -5.991,0.84 -18.055,0 -44.566,-63.08 -44.566,-84.07 0,-7.736 1.84,-10.313 4.416,-12.521 -22.087,2.577 -48.608,10.68 -57.079,20.993 -1.84,2.577 -2.943,6.625 -2.943,11.778 0,32.782 34.988,107.17 59.66,107.17 11.414,0 30.672,-18.778 46.503,-44.19 z M 739.678,5.985 c -9.57,0 -13.254,1.844 -13.254,11.42 0,20.993 18.782,62.974 33.876,62.974 8.476,0 25.048,-31.672 25.048,-57.82 0,-12.89 -22.833,-16.574 -45.67,-16.574 z M 241.413,1.634 h -38.512 v 33.255 c 0,32.234 -16.265,32.234 -21.608,32.234 -17.523,0 -21.203,-17.527 -21.203,-32.234 V 1.634 h -38.503 v 31.009 c 0,42.238 18.647,58.953 39.388,64.496 v 49.979 h 37.876 V 97.455 c 27.603,-6.568 42.562,-28.854 42.562,-64.406 z m 187.074,148.027 h 0.207 c 43.223,0 71.15,-29.931 71.15,-76.262 0,-20.122 -6.303,-38.426 -17.747,-51.539 C 469.609,7.558 451.85,0 430.735,0 c -41.657,0 -70.747,31.192 -70.747,75.852 10e-4,43.459 28.172,73.809 68.499,73.809 z m 1.427,-117.487 c 20.29,0 29.376,21.22 29.376,42.246 0,26.161 -11.524,43.068 -29.376,43.068 h -0.202 c -20.433,0 -29.582,-21.321 -29.582,-42.451 0,-21.336 9.212,-42.863 29.784,-42.863 z M 290,98.529 c 1.983,0.172 4.257,0.254 6.901,0.254 20.079,0 36.495,-5.357 47.476,-15.496 8.942,-8.265 13.662,-20.517 13.662,-35.426 0,-14.197 -5.802,-26.799 -15.911,-34.588 -9.89,-8.105 -24.487,-12.046 -44.613,-12.046 -6.581,0 -45.708,0.44 -45.708,0.44 l -0.114,145.748 H 290 Z m 0,-65.732 c 1.882,-0.221 4.783,-0.417 9.145,-0.417 9.393,0 20.588,2.861 20.588,16.502 0,11.785 -8.396,18.544 -23.035,18.544 -2.787,0 -4.939,-0.08 -6.699,-0.263 V 32.797 Z M 37.186,147.415 H 75.69 V 35.854 h 37.598 V 2.249 H 0 V 35.854 H 37.186 Z M 581.869,72.143 c 11.621,-6.625 17.895,-17.162 17.895,-30.412 0,-18.33 -14.736,-36.828 -47.652,-36.828 -18.345,0 -34.854,5.326 -43.085,10.602 l -2.324,1.493 8.425,29.881 4.193,-2.587 c 4.851,-2.983 15.672,-7.417 25.633,-7.417 4.774,0 15.89,0.992 15.89,10.168 0,9.155 -12.425,11.6 -19.771,11.6 h -15.78 v 29.723 h 16.396 c 10.529,0 22.832,4.055 22.832,15.481 0,8.539 -7.886,13.844 -20.584,13.844 -12,0 -24.247,-5.038 -29.043,-7.703 l -4.168,-2.314 -8.304,30.803 2.4,1.452 c 7.772,4.708 22.724,9.732 41.358,9.732 34.743,0 58.077,-17.755 58.077,-44.181 -10e-4,-14.982 -8.679,-27.481 -22.388,-33.337 z"
     id="path2"
     inkscape:connector-curvature="0"
     style="fill:#231f20" />
</svg>
