<?xml version="1.0" encoding="UTF-8" standalone="no"?>
<svg
   xmlns:dc="http://purl.org/dc/elements/1.1/"
   xmlns:cc="http://creativecommons.org/ns#"
   xmlns:rdf="http://www.w3.org/1999/02/22-rdf-syntax-ns#"
   xmlns:svg="http://www.w3.org/2000/svg"
   xmlns="http://www.w3.org/2000/svg"
   xmlns:sodipodi="http://sodipodi.sourceforge.net/DTD/sodipodi-0.dtd"
   xmlns:inkscape="http://www.inkscape.org/namespaces/inkscape"
   id="Ebene_1"
   data-name="Ebene 1"
   width="207.62"
   height="42.52"
   version="1.1"
   sodipodi:docname="2022-univention-summit.svg"
   inkscape:version="0.92.5 (2060ec1f9f, 2020-04-08)">
  <metadata
     id="metadata11">
    <rdf:RDF>
      <cc:Work
         rdf:about="">
        <dc:format>image/svg+xml</dc:format>
        <dc:type
           rdf:resource="http://purl.org/dc/dcmitype/StillImage" />
      </cc:Work>
    </rdf:RDF>
  </metadata>
  <sodipodi:namedview
     pagecolor="#ffffff"
     bordercolor="#666666"
     borderopacity="1"
     objecttolerance="10"
     gridtolerance="10"
     guidetolerance="10"
     inkscape:pageopacity="0"
     inkscape:pageshadow="2"
     inkscape:window-width="1920"
     inkscape:window-height="1173"
     id="namedview9"
     showgrid="false"
     inkscape:zoom="1.8976978"
     inkscape:cx="104.86391"
     inkscape:cy="21.26"
     inkscape:window-x="0"
     inkscape:window-y="27"
     inkscape:window-maximized="1"
     inkscape:current-layer="Ebene_1" />
  <defs
     id="defs4">
    <style
       id="style2">.cls-1{fill:#fff}</style>
  </defs>
  <path
     class="cls-1"
     d="M78.12 0h2.44a.67.67 0 0 1 .67.67v2.48a.67.67 0 0 1-.68.68h-2.43a.67.67 0 0 1-.67-.67V.71a.67.67 0 0 1 .63-.71zM164.11 0h-2.44a.67.67 0 0 0-.67.67v2.49a.67.67 0 0 0 .67.67h2.44a.67.67 0 0 0 .67-.67V.72a.67.67 0 0 0-.62-.72zM21.2.5H8.48a4.24 4.24 0 0 0-4.24 4.24h3.82v12.33c.08.94 1.45 2 4.28 2.15 2.32.15 4.5-.72 5.05-2V4.76a4.54 4.54 0 0 1 3.72 3.39 2.44 2.44 0 0 1 .07.46v13.1h-3.79v-1.85a4.81 4.81 0 0 1-2.65 1.85H8.48a4.2 4.2 0 0 1-4.24-4.14V4.75A4.24 4.24 0 0 0 0 9v12.71A4.25 4.25 0 0 0 4.19 26H17a4.24 4.24 0 0 0 4.24-4.24 4.24 4.24 0 0 0 4.24-4.24V4.75A4.24 4.24 0 0 0 21.25.5zM199.49 4.86c-2.42.07-3.85 0-5 1.87a4.66 4.66 0 0 0-3.78-1.83v16.8h3.87V9.62c.06-1.36 2.3-2.42 5-2.25s4.17 1.2 4.25 2.13v12.22h3.79V9.1c-.32-3-1.49-4.44-8-4.24M84.15 4.89c.27.55 6.95 14 7.43 14.76a4.93 4.93 0 0 0 3 2.08 10.91 10.91 0 0 0 2.91 0c.15-.1 5.15-13.11 5.25-13.42A3.44 3.44 0 0 0 101.29 5C99 10.62 97 16.14 95.63 19.4c-2.33-4.6-4.44-9.13-6.32-12.25a4.4 4.4 0 0 0-3.16-2.27h-2zM64.78 5c-2.42.07-3.85 0-5 1.87A4.64 4.64 0 0 0 56 5v16.8h3.87V9.72c.06-1.36 2.3-2.42 5-2.25s4 1.19 4.13 2.13v12.21h3.78V9.2c-.32-3-1.49-4.44-8-4.24M136.22 5c-2.41.07-3.85 0-5 1.87A4.63 4.63 0 0 0 127.41 5v16.8h3.86V9.72c.06-1.36 2.3-2.42 5-2.25s4.17 1.2 4.25 2.13v12.21h3.78V9.2c-.32-3-1.49-4.44-8-4.24M153.63 5.09V0h-1.42v.94a4.2 4.2 0 0 1-4.2 4.2h-.71v2.42h2.57v14.25h3.76V7.61h4.19V5.09zM182.38 16.77a2.52 2.52 0 0 1-2.52 2.52h-4.2a2.52 2.52 0 0 1-2.53-2.51V10a2.52 2.52 0 0 1 2.52-2.52h4.21a2.52 2.52 0 0 1 2.52 2.52v6.77zM182 5h-8.41a4.22 4.22 0 0 0-4.2 4.2v8.41a4.2 4.2 0 0 0 4.2 4.2H182a4.2 4.2 0 0 0 4.2-4.2V9.2A4.2 4.2 0 0 0 182 5M112.27 7.35h4.2A2.52 2.52 0 0 1 119 9.86v1.34h-9.25V9.87a2.52 2.52 0 0 1 2.52-2.52m10.38 6.24h.17V9.13a4.21 4.21 0 0 0-4.2-4.2h-8.42a4.2 4.2 0 0 0-4.2 4.2v8.41c0 2.32 1.48 4.48 8 4.36 5.29-.1 8.56-.43 8.78-4.06h-4c-.27.49-1.33 1.69-4.79 1.55-3.7-.15-4.31-1.39-4.31-2.79v-3h13zM81.2 21.78V9.12a4.24 4.24 0 0 0-3.75-4.24v16.9zM47.48 4.87V17.2c-.21 1.29-2.38 2.26-4.94 2.1-2.81-.18-4.17-1.2-4.25-2.13V5h-3.78v12.57c.32 3 1.49 4.44 8 4.24 2.37-.07 3.8 0 5-1.78v1.75h3.75V9.12a4.24 4.24 0 0 0-3.75-4.24M161 4.87v16.91h3.76V9.12A4.24 4.24 0 0 0 161 4.87zM156.4 29.31c-1.88.06-3.55 0-4.48 1.45-.71-1.05-2.23-1.55-5.68-1.45-1.89.06-3 0-3.93 1.46a3.66 3.66 0 0 0-3-1.43v13.12h3V33c0-1.06 1.79-1.89 3.87-1.76s3.26.93 3.32 1.66v9.54h3V33c0-1.06 1.79-1.89 3.87-1.76s3.26.93 3.32 1.66v9.54h3v-9.82c-.3-2.31-1.21-3.47-6.29-3.31zM183 29.31c-1.88.06-3.55 0-4.48 1.45-.71-1.05-2.23-1.55-5.68-1.45-1.89.06-3 0-3.93 1.46a3.66 3.66 0 0 0-3-1.43v13.12h3L169 33c0-1.06 1.79-1.89 3.87-1.76s3.26.93 3.32 1.66v9.54h3V33c0-1.06 1.79-1.89 3.87-1.76s3.26.93 3.32 1.66v9.54h3v-9.82c-.38-2.31-1.3-3.47-6.38-3.31zM204.22 29.46v-4h-1.11v.73a3.28 3.28 0 0 1-3.28 3.28h-.55v1.93h2v11.12h2.93V31.43h3.27v-2h-3.27zM132.85 29.22v9.63c-.17 1-1.86 1.77-3.86 1.64-2.19-.14-3.25-.93-3.32-1.66v-9.54h-3v9.85c.25 2.31 1.17 3.46 6.24 3.31 1.85-.06 3 0 3.88-1.39v1.37h2.93v-9.9a3.31 3.31 0 0 0-2.93-3.31M193.84 25.49h1.9a.53.53 0 0 1 .53.53v1.91a.52.52 0 0 1-.52.52h-1.91a.52.52 0 0 1-.52-.52V26a.53.53 0 0 1 .52-.51zM193.31 29.26v13.2h2.93v-9.88a3.31 3.31 0 0 0-2.93-3.32zM111.47 31.07h3.19a1.92 1.92 0 0 1 1.92 1.93h2.9v-.58a3.2 3.2 0 0 0-3.19-3.19h-6.39a3.19 3.19 0 0 0-3.19 3.19v1.13a3.19 3.19 0 0 0 3.19 3.19h4.82a1.92 1.92 0 0 1 0 3.83h-3.19a1.92 1.92 0 0 1-1.92-1.92v-.5h-2.9v1.06a3.21 3.21 0 0 0 3.2 3.19h6.39a3.19 3.19 0 0 0 3.19-3.19v-1.12a3.19 3.19 0 0 0-3.19-3.19h-4.82a1.92 1.92 0 0 1 0-3.83z"
     id="path6"
     style="fill:#000000;fill-opacity:1" />
</svg>
