<svg width="184" height="61" viewBox="0 0 184 61" fill="none" xmlns="http://www.w3.org/2000/svg">
<path d="M0 30.0813C0 25.6332 0.816744 21.562 2.45023 17.8678C4.08372 14.1736 6.3706 11.0072 9.31088 8.36848C12.2763 5.70464 15.8197 3.64393 19.9411 2.18636C24.0877 0.728787 28.674 0 33.7001 0C38.7011 0 43.2749 0.728787 47.4214 2.18636C51.568 3.64393 55.1114 5.70464 58.0516 8.36848C61.017 11.0072 63.3165 14.1736 64.95 17.8678C66.5835 21.562 67.4002 25.6332 67.4002 30.0813C67.4002 34.5545 66.5835 38.6634 64.95 42.4079C63.3165 46.1272 61.017 49.3313 58.0516 52.0203C55.1114 54.7093 51.568 56.8077 47.4214 58.3155C43.2749 59.7982 38.7011 60.5396 33.7001 60.5396C28.674 60.5396 24.0877 59.7982 19.9411 58.3155C15.8197 56.8077 12.2763 54.7093 9.31088 52.0203C6.3706 49.3313 4.08372 46.1272 2.45023 42.4079C0.816744 38.6634 0 34.5545 0 30.0813ZM11.9496 30.0813C11.9496 33.1221 12.4899 35.8613 13.5705 38.299C14.6763 40.7367 16.1967 42.8225 18.1317 44.5565C20.0919 46.2654 22.3913 47.5848 25.0301 48.5146C27.6939 49.4444 30.5839 49.9093 33.7001 49.9093C36.8163 49.9093 39.6938 49.4444 42.3325 48.5146C44.9963 47.5848 47.2958 46.2654 49.2308 44.5565C51.1659 42.8225 52.6863 40.7367 53.792 38.299C54.8978 35.8613 55.4506 33.1221 55.4506 30.0813C55.4506 27.0405 54.8978 24.3138 53.792 21.9013C52.6863 19.4888 51.1659 17.4532 49.2308 15.7946C47.2958 14.1108 44.9963 12.8292 42.3325 11.9496C39.6938 11.07 36.8163 10.6302 33.7001 10.6302C30.5839 10.6302 27.6939 11.07 25.0301 11.9496C22.3913 12.8292 20.0919 14.1108 18.1317 15.7946C16.1967 17.4532 14.6763 19.4888 13.5705 21.9013C12.4899 24.3138 11.9496 27.0405 11.9496 30.0813Z" fill="white"/>
<path fill-rule="evenodd" clip-rule="evenodd" d="M126.45 10.6538H164.964L142.949 25.4215L142.912 34.2423C147.862 32.9607 152.16 32.2444 155.804 32.0937C159.473 31.9429 162.501 32.2193 164.888 32.923C167.301 33.6015 169.098 34.6319 170.279 36.014C171.46 37.3711 172.051 38.9166 172.051 40.6506C172.051 41.9323 171.724 43.126 171.07 44.2317C170.417 45.3375 169.412 46.2924 168.055 47.0966C166.698 47.9008 164.976 48.5416 162.89 49.0191C160.805 49.4715 158.329 49.6976 155.464 49.6976C152.248 49.6976 148.943 49.3709 145.55 48.7175C143.427 48.2896 141.383 47.7068 139.419 46.9691V58.0768C140.297 58.3437 141.185 58.5915 142.082 58.82C146.128 59.8253 150.539 60.3279 155.314 60.3279C159.812 60.3279 163.833 59.863 167.376 58.9331C170.945 58.0033 173.96 56.6965 176.423 55.0127C178.886 53.3039 180.758 51.2557 182.04 48.8683C183.347 46.4558 184 43.7794 184 40.8391C184 38.3512 183.498 36.0266 182.492 33.8654C181.487 31.7041 180.029 29.8319 178.12 28.2487C176.21 26.6655 173.86 25.4215 171.07 24.5168C168.281 23.6121 165.115 23.1597 161.571 23.1597L180.947 10.4276V0H126.45V10.6538Z" fill="#3EB778"/>
<path fill-rule="evenodd" clip-rule="evenodd" d="M107.243 0H113.481V10.6302H108.75C104.931 10.6302 101.525 11.1077 98.5348 12.0627C95.5442 12.9925 93.0186 14.3119 90.9579 16.0207C88.9223 17.7045 87.3642 19.7275 86.2836 22.0898C85.2281 24.4269 84.7004 27.0028 84.7004 29.8174C84.7004 32.7326 85.2533 35.409 86.359 37.8467C87.4647 40.2843 89.0605 42.3953 91.1464 44.1796C93.2573 45.9387 95.8207 47.3209 98.8363 48.3261C101.877 49.3062 105.307 49.7962 109.127 49.7962C110.861 49.7962 112.583 49.6706 114.292 49.4193C116.001 49.168 117.647 48.8287 119.23 48.4015C120.838 47.9491 122.384 47.4214 123.866 46.8183C124.764 46.4378 125.625 46.0389 126.45 45.6215V57.3508C125.143 57.8478 123.779 58.295 122.359 58.6925C118.137 59.8485 113.651 60.4265 108.901 60.4265C102.845 60.4265 97.5295 59.6474 92.9558 58.0893C88.382 56.5061 84.5622 54.3449 81.4962 51.6056C78.4303 48.8413 76.1183 45.5994 74.5602 41.8801C73.0272 38.1357 72.2607 34.1148 72.2607 29.8174C72.2607 25.6206 73.0524 21.7128 74.6356 18.094C76.2188 14.4501 78.5057 11.2962 81.4962 8.63235C84.5119 5.94338 88.181 3.83241 92.5034 2.29945C96.851 0.766483 101.764 0 107.243 0Z" fill="white"/>
</svg>
