<?xml version="1.0" encoding="UTF-8" standalone="no"?>
<svg
   xmlns:dc="http://purl.org/dc/elements/1.1/"
   xmlns:cc="http://creativecommons.org/ns#"
   xmlns:rdf="http://www.w3.org/1999/02/22-rdf-syntax-ns#"
   xmlns:svg="http://www.w3.org/2000/svg"
   xmlns="http://www.w3.org/2000/svg"
   xmlns:sodipodi="http://sodipodi.sourceforge.net/DTD/sodipodi-0.dtd"
   xmlns:inkscape="http://www.inkscape.org/namespaces/inkscape"
   viewBox="0 0 793.7 311.81"
   version="1.1"
   id="svg965"
   sodipodi:docname="hiddenservice-logo-bw.svg"
   inkscape:version="1.0.1 (c497b03c, 2020-09-10)">
  <metadata
     id="metadata969">
    <rdf:RDF>
      <cc:Work
         rdf:about="">
        <dc:format>image/svg+xml</dc:format>
        <dc:type
           rdf:resource="http://purl.org/dc/dcmitype/StillImage" />
        <dc:title></dc:title>
      </cc:Work>
    </rdf:RDF>
  </metadata>
  <sodipodi:namedview
     pagecolor="#ffffff"
     bordercolor="#666666"
     borderopacity="1"
     objecttolerance="10"
     gridtolerance="10"
     guidetolerance="10"
     inkscape:pageopacity="0"
     inkscape:pageshadow="2"
     inkscape:window-width="1802"
     inkscape:window-height="1333"
     id="namedview967"
     showgrid="false"
     inkscape:zoom="1.068163"
     inkscape:cx="382.03804"
     inkscape:cy="142.99169"
     inkscape:window-x="0"
     inkscape:window-y="23"
     inkscape:window-maximized="0"
     inkscape:current-layer="svg965" />
  <defs
     id="defs835">
    <rect
       x="383.21501"
       y="137.78517"
       width="401.87342"
       height="288.4877"
       id="rect973" />
    <style
       id="style833">.a{fill:#f79520;}.b{fill:#ad621b;}.c{fill:#6d6e71;}.d{fill:#434345;}.e{fill:#58595b;}.f{fill:#4b9042;}.g{fill:#5ab547;}.h{fill:#417e3c;}</style>
  </defs>
  <path
     class="a"
     d="M360.54,117.08l-.36-.08-.09,0a9.06,9.06,0,0,1-2.65-1,7.13,7.13,0,0,1-1.11-.83c-2.8-2.29-5.81-4.53-8.94-6.63a116.4,116.4,0,0,0-12.24-7.19A107.49,107.49,0,0,0,325,96.82a154.42,154.42,0,0,0-16.25-4.63c-1.84-.41-3.68-.79-5.47-1.13l-.14,0-1.42-.26-2.24-.38c-.63-.11-1.25-.2-1.87-.29a152.28,152.28,0,0,0-22.37-1.66c-2.32.07-4.65.21-6.91.4-2.85.25-5.78.59-8.72,1l-.57.09,6.2,21.5a1.32,1.32,0,1,1-2.53.72l-2.22-7.68,0-.12a1.5,1.5,0,0,1-.15-.32l-3.76-13.3-.15-.38-.4.07c-1.77.3-3.64.65-5.7,1.07-4.43.89-8.6,1.88-11.95,2.68-6.61,1.57-14.84,3.53-23.93,6.64L214,101l2.52,8.9a1.26,1.26,0,0,1,0,.58l0,.11,2.28,8.67a1.32,1.32,0,0,1-2.53.73l-4.75-18.11-.52.19a147.32,147.32,0,0,0-25,11.87c-1.73,1-3.32,2-4.87,3l-.31.2,7.92,28a1.09,1.09,0,0,1,0,.26,1.31,1.31,0,0,1-1,1.36,1.35,1.35,0,0,1-.77,0,1.39,1.39,0,0,1-.86-.9l-7.68-27.17-1.36,1c-1.37,1-2.58,1.83-3.7,2.67A147.49,147.49,0,0,0,156,137.59l-.34.34.33.35c.46.48.88,1,1.27,1.45a13,13,0,0,1,2.36,4.25l.09.25a8.62,8.62,0,0,1,.33,2.64,8.09,8.09,0,0,1-.07.86,7.22,7.22,0,0,1-.35,1.44,7.44,7.44,0,0,1-.86,1.65,13.38,13.38,0,0,1-1,1.3l-.48.57a4,4,0,0,0-.26.32,13.26,13.26,0,0,0-1.38,2.24,13.84,13.84,0,0,0-1.36,4.33l-.1.53a8.06,8.06,0,0,1-2.07,4.31c-.1.11-.21.23-.33.34a8.43,8.43,0,0,1-1.15.92l-.39.26-.57.35.5.45c.22.19.43.39.64.61a10.94,10.94,0,0,1,1.7,2.27,8.12,8.12,0,0,1,.79,1.88,9.46,9.46,0,0,1,.32,2.49,8.09,8.09,0,0,0,.23,2c0,.11.06.23.1.36s.11.39.19.61a9.53,9.53,0,0,0,1.28,2.6c.2.3.41.57.63.86s.54.7.81,1.11a8.36,8.36,0,0,1,.75,1.36c.08.17.15.34.22.53a4.39,4.39,0,0,1,.18.58,8.21,8.21,0,0,1,.29,1.46,8.3,8.3,0,0,1,.06.84,5,5,0,0,1,0,.54v.71l.67-.22a9.18,9.18,0,0,1,5.1-.35,6.69,6.69,0,0,1,3.42,1.94l.54.57a20.38,20.38,0,0,0,1.76,1.68c.22.19.45.38.71.58s.36.28.56.42a19.37,19.37,0,0,0,3.88,2.24l.69.32.41.2a12.49,12.49,0,0,1,2.61,1.73,16.51,16.51,0,0,1,5,8.24c.05.17.09.35.14.53l.09.36.37,0,3.8.19c3.54.14,7.16.22,10.75.22,2.94,0,5.92,0,8.85-.15,1.88-.07,3.76-.15,5.63-.26l1.93-.1,6.56-.43,2.57-.2.61-.05-3.32-11.74a2.38,2.38,0,0,1-.05-.26,1.32,1.32,0,0,1,1-1.36,1.35,1.35,0,0,1,1.63.9l3.45,12.23.42,0a210.88,210.88,0,0,0,25.35-3.83c3.16-.69,6.3-1.45,9.32-2.27l.49-.14-4.05-14.33a1.31,1.31,0,0,1,.9-1.62,1.26,1.26,0,0,1,.72,0,1.31,1.31,0,0,1,.91.9l4.06,14.34.48-.14c5.28-1.55,10.56-3.38,15.68-5.42,2.21-.88,4.26-1.75,6.28-2.65l2.4-1.08c1.25-.56,2.59-1.18,4-1.84,2.18-1,4.17-2,6.07-3l.35-.19-6-21.14a1.32,1.32,0,0,1,.26-1.21,1.32,1.32,0,0,1,2.28.49l5.81,20.57.56-.32a111.29,111.29,0,0,0,20.38-14.64q1.62-1.49,3.19-3c1.55-1.52,3.3-3.26,5.15-5.27.54-.58,1.08-1.18,1.64-1.82s1.11-1.29,1.69-2,1.15-1.41,1.73-2.17c.92-1.18,1.82-2.4,2.69-3.64,2.64-3.78,5-7.15,7-10.08,1.39-2.07,2.51-3.82,3.54-5.5a116,116,0,0,0,6.31-11.84,10.82,10.82,0,0,1,3.55-3.9l.93-.68Zm-41,12.46-7.15,10.2a1.34,1.34,0,0,1-1.83.32,1.25,1.25,0,0,1-.51-.72,1.32,1.32,0,0,1,.18-1.11l6.5-9.26-10.38-4.49a1.31,1.31,0,0,1-.69-1.73,1.31,1.31,0,0,1,1.21-.8,1.35,1.35,0,0,1,.52.11L318.85,127l21.87-6.18a1.32,1.32,0,0,1,.71,2.54l-21.69,6.13Zm-72,28.43-16.35-3.54-33,9.67a1.31,1.31,0,1,1-.74-2.52l32.84-9.64.12,0,11.84-11.82a1.3,1.3,0,0,1,.93-.38,1.28,1.28,0,0,1,.93.38,1.32,1.32,0,0,1,0,1.87l-10.37,10.34,14.32,3.11a1.32,1.32,0,1,1-.56,2.57Zm50.92-9.8h0a30.83,30.83,0,0,1-16.53,10.41,34.25,34.25,0,0,1-8.69,1.15,28.18,28.18,0,0,1-10.82-2.06c-5.48-2.27-9.25-6.17-10.61-11l-.06-.25c-1.3-4.92,0-10.26,3.75-15A30.83,30.83,0,0,1,272,121a34.18,34.18,0,0,1,8.69-1.14,28.07,28.07,0,0,1,10.82,2.06,19.64,19.64,0,0,1,7.55,5.31,15,15,0,0,1,3,5.66l.07.25C303.52,138.07,302.18,143.41,298.47,148.17Z"
     id="path837"
     style="fill:#b3b3b3" />
  <path
     class="b"
     d="M358.41,112.76a119.45,119.45,0,0,0-21.84-14.28A110.82,110.82,0,0,0,324,93.09a149,149,0,0,0-46.52-7.85,232.76,232.76,0,0,0-39.83,5.91c-16.14,3.84-40.87,9.78-66.13,28.64a150.51,150.51,0,0,0-20.36,18.32c3.52,2.88,5,5.19,5.51,7a5.27,5.27,0,0,1,.17,2.21c-.33,2.35-2.07,2.56-4.06,6.55-2.32,4.67-1,6.56-3.21,8.64-2.79,2.64-7,1.56-7.19,2.78a.53.53,0,0,0,0,.22c.33,1.19,5.14,1.77,7.32,5.67a5.32,5.32,0,0,1,.52,1.19c.39,1.39-.06,2.39.64,4.86.07.24.15.5.24.77,1.35,4,3.17,4.56,3.83,6.88a6.31,6.31,0,0,1,.19,1c.42,3.6-1.95,6.12-1.66,7.13a.49.49,0,0,0,.14.24c1.17,1,5.3-4.19,9.75-3.17,2.09.48,1.92,1.8,5.85,4.67s5.2,2.45,7.4,4.34a13.19,13.19,0,0,1,4,6.71,24,24,0,0,1,.63,3,261.46,261.46,0,0,0,33.69.1c17.59-1.08,44.35-3,74.5-16.4,10.27-4.57,25.61-11.57,40.21-26a105.55,105.55,0,0,0,13.3-15.36c9.23-13.18,12.34-17.82,17.09-27.88,1.46-3.1,8.54-6.4,19.91-10.9C371.79,113.28,361.68,115.89,358.41,112.76Zm-1.67,8.9C352.08,131.54,349,136.1,340,149a102,102,0,0,1-12.88,14.85,110.11,110.11,0,0,1-23.43,17.56l-5.64-20a1.82,1.82,0,0,0-3.5,1l5.87,20.76c-4.75,2.52-9,4.42-12.44,5.94a174.28,174.28,0,0,1-21.89,8l-3.92-13.85a1.82,1.82,0,1,0-3.5,1l3.92,13.84A202.19,202.19,0,0,1,228,204.27l-3.34-11.82a1.82,1.82,0,1,0-3.5,1l3.15,11.15c-3.5.28-6.71.48-9.57.65a258,258,0,0,1-30.46.08c0-.19-.09-.37-.14-.55a16.92,16.92,0,0,0-5.14-8.48,14.55,14.55,0,0,0-3.82-2.33,18.84,18.84,0,0,1-3.8-2.18,19.45,19.45,0,0,1-3-2.63,7.77,7.77,0,0,0-4.21-2.65,9.72,9.72,0,0,0-5.37.36,10.2,10.2,0,0,0-.07-1.44,10.38,10.38,0,0,0-.3-1.55,10.74,10.74,0,0,0-2.05-3.74,10.12,10.12,0,0,1-1.84-3.32c-.07-.21-.13-.4-.18-.59a7.65,7.65,0,0,1-.31-2.24,9.83,9.83,0,0,0-.34-2.62,8.58,8.58,0,0,0-.84-2,11.65,11.65,0,0,0-2.44-3,9.57,9.57,0,0,0,1.62-1.24,8.94,8.94,0,0,0,2.67-5.54,13.65,13.65,0,0,1,3.36-7.15,8.45,8.45,0,0,0,2.34-4.63,9,9,0,0,0-.27-3.7,15,15,0,0,0-3.83-6.16,145.82,145.82,0,0,1,17.36-15.23q2.24-1.68,4.47-3.21l7.49,26.5a1.82,1.82,0,0,0,3.5-1l-7.82-27.63a146,146,0,0,1,29.83-14.85l4.6,17.57a1.82,1.82,0,1,0,3.5-1l-4.67-17.8a246.59,246.59,0,0,1,23.89-6.62c5.18-1.24,11.06-2.63,17.61-3.75l6.17,21.38a1.81,1.81,0,0,0,3.49-1l-6-21A125.84,125.84,0,0,1,274.56,89a152,152,0,0,1,52,8.94,78.45,78.45,0,0,1,8.36,3.83A116.47,116.47,0,0,1,356,115.49a9,9,0,0,0,4.44,2.08A11.07,11.07,0,0,0,356.74,121.66Z"
     id="path839"
     style="fill:#4d4d4d" />
  <path
     class="c"
     d="M312.84,73.44a1.26,1.26,0,0,1-.26-.13c-.95-.63-1.48-2.66-.69-4.85a5.54,5.54,0,0,1,2.24-2.9l.3-.18-.07-.34A30.72,30.72,0,0,0,305.87,49c-4.47-4.37-10.05-7-17.08-8.11-.6-1.11-1.09-2-1.46-2.73l-.31-.59c-.39-.74-.66-1.24-1.07-2,0,0-1-1.72-1.92-3.23-4.43-7-20.41-13.59-21.08-13.87a85.26,85.26,0,0,0-9.34-3.35,51.63,51.63,0,0,0-14-2.38c-4.41,0-7.27,1.07-8.25,3.11-1.31,2.72.89,6.58,6.2,10.89l.18.14.22,0c1.89-.31,3.77-.57,5.58-.75a81.39,81.39,0,0,1,13.13-.34c7.31.43,10.24,1.42,12.14,2.33a24.23,24.23,0,0,1,3.38,2l.24.16a46,46,0,0,1,8.74,7.53.83.83,0,0,1-.06.92,1,1,0,0,1-1.1.1,30.1,30.1,0,0,0-7.8-6.43c-.49-.31-.95-.6-1.38-.89a27.32,27.32,0,0,0-3.3-1.93c-1.85-.88-4.72-1.84-11.93-2.27a81.14,81.14,0,0,0-13,.34c-1,.1-2.1.24-2.1.24s-4.1.53-7.67,1.32c-.19,0-18.23,4.46-17.93,10.2.2,3.73,6.61,6.42,16.73,7a81.44,81.44,0,0,0,13-.34,84.71,84.71,0,0,0,11.74-2l.1,0,.09,0c.95.41,1.93.81,2.89,1.19s1.95.73,3.09,1.13a5.43,5.43,0,0,0-1.52,2.6c-.5,1.67-14.63,3.4-28,4.11-9.71.52-24.39,1.3-32.72,11a24,24,0,0,0-2.75,3.92,13.18,13.18,0,0,0-5.12-4.4,13.64,13.64,0,0,0-5.85-1.33,12.45,12.45,0,0,0-8.3,3c-4.15,3.7-4.06,9-4,11.48,0,2.19.12,7.33,4.25,11.09a12.47,12.47,0,0,0,4.17,2.5l.2.07.19-.09a23,23,0,0,0,4.18-2.66A22.46,22.46,0,0,0,191,83.79a.88.88,0,0,1,1.22-.16.86.86,0,0,1,.16,1.21,24.11,24.11,0,0,1-8.59,7l-.17.09-.08.17c-1.39,3.41-3.48,8.27-5.5,12.09-1.27,2.41-2.26,4.21-3,5.52-.49.84-.91,1.51-1.26,2.09l-.07.11c-.42.68-.78,1.27-1.1,1.85l-.49.88,1-.14a20,20,0,0,1,2.66-.21,20.42,20.42,0,0,1,4.74.5.82.82,0,0,1,.54.38.83.83,0,0,1,.12.65.89.89,0,0,1-1,.66,19.16,19.16,0,0,0-4.34-.46,19,19,0,0,0-4.2.54l-.27.07-.18.56c-2.36,7.44-2.42,19.19,3.62,21.88a6.39,6.39,0,0,0,2.18.52h.41c4.85,0,9.82-4.87,10.76-5.85,5.34-5.53,6.27-13.11,6.43-16.12a28.77,28.77,0,0,0-.14-4.33,8.89,8.89,0,0,1,.35-4.39A32.3,32.3,0,0,1,197,104a45.17,45.17,0,0,0,12.33,2.07,47.41,47.41,0,0,0,23.18-5.59,51.06,51.06,0,0,0,13.38-10l.33-.35-.33-.35a12.15,12.15,0,0,0-4.28-2.89,12.48,12.48,0,0,0-4.08-.86,1.1,1.1,0,0,1-1-1.13,1.12,1.12,0,0,1,1.19-1l.34,0a5,5,0,0,1,.63,0,9.17,9.17,0,0,1,3.73,1.06A19.24,19.24,0,0,1,249.31,90l.13.16c.21.26.61.76,1.34,1.77.53.71,1.07,1.45,1.81,2.34a38.47,38.47,0,0,0,6.5,6l.5.37.26-.56A14.3,14.3,0,0,1,261,98a15.84,15.84,0,0,1,1.9-2.36.87.87,0,0,1,1.24,1.22,14.32,14.32,0,0,0-1.7,2.1,13.73,13.73,0,0,0-1.14,2.1.83.83,0,0,1-.08.12l-.28.43.43.27c7.13,4.54,14.15,5.84,18,3.19,3.19-2.18,5-7.21,3.47-9.6a3.64,3.64,0,0,0-1.82-1.29,21.94,21.94,0,0,1-2.65-1.38,24.6,24.6,0,0,1-3.83-2.87,32.24,32.24,0,0,1-5.92-6.82,1.1,1.1,0,0,1,.32-1.52,1.15,1.15,0,0,1,1.52.32A30.38,30.38,0,0,0,276,88.24v0a22,22,0,0,0,3.27,2.5,15.17,15.17,0,0,0,8.1,2,32.12,32.12,0,0,0,9.42-1.58c7.43-2.4,12.7-6.54,15.65-12.3a21.12,21.12,0,0,0,1.74-4.76l.18-.75-.76.14A1.48,1.48,0,0,1,312.84,73.44Z"
     id="path841" />
  <path
     class="d"
     d="M316.67,65.23a32.87,32.87,0,0,0-9.24-17.87,31.82,31.82,0,0,0-17.19-8.53l-.94-1.76-.3-.56c-.39-.75-.67-1.28-1.1-2h0c-.31-.64-.9-1.63-2-3.35-4.71-7.44-20.25-14-22.1-14.73A89.48,89.48,0,0,0,254.24,13a53.91,53.91,0,0,0-14.65-2.48c-5.41,0-8.86,1.48-10.26,4.38-1.15,2.38-1.15,6.28,4.66,11.73-.56.11-1.12.22-1.68.35a63.59,63.59,0,0,0-10.85,3.64c-3.9,1.73-9.06,4.54-8.83,8.86.27,5.11,7.13,8.44,18.83,9.13,1.43.09,2.92.13,4.42.13a89.83,89.83,0,0,0,9-.47,87.28,87.28,0,0,0,11.41-1.92l2.37,1,.51.2,0,.06c-.94.39-4.09,1.34-13.85,2.31-6.36.64-12.33,1-12.39,1-10.09.54-25.34,1.36-34.3,11.74-.45.53-.89,1.09-1.31,1.66a15.36,15.36,0,0,0-3.89-2.69A15.8,15.8,0,0,0,186.57,60a14.63,14.63,0,0,0-9.78,3.63C171.87,68,172,74.13,172,76.77c0,2.27.14,8.29,5,12.7a14.77,14.77,0,0,0,4.14,2.65c-1.46,3.54-3.29,7.7-5.07,11.06-1.25,2.38-2.23,4.16-3,5.43-.49.83-.9,1.5-1.26,2.09l0,.07a22.46,22.46,0,0,0-2.79,5.77c-2.59,8.17-2.8,21.2,4.85,24.6a8.62,8.62,0,0,0,2.94.71h.55c5.75,0,11.31-5.44,12.37-6.53,5.86-6.07,6.88-14.3,7-17.56a31,31,0,0,0-.15-4.65,6.86,6.86,0,0,1,.24-3.46,23.57,23.57,0,0,1,1.31-3,47.39,47.39,0,0,0,11.15,1.64l1.25,0a49.68,49.68,0,0,0,23-5.86,53.14,53.14,0,0,0,14-10.42l.34-.35c.22.28.56.72,1.09,1.45s1.12,1.53,1.92,2.48c6.34,7.54,16.22,13,23.48,13a10.9,10.9,0,0,0,6.31-1.79,12,12,0,0,0,4.35-5.81,8.33,8.33,0,0,0,.08-6.21,21.49,21.49,0,0,0,2.3.11,34.31,34.31,0,0,0,10.1-1.69c8-2.59,13.73-7.1,17-13.4a24.23,24.23,0,0,0,2.5-8.8,5.86,5.86,0,0,0,.28-.67C318.05,68.19,317.6,66.15,316.67,65.23Zm-20,25.44a31.64,31.64,0,0,1-9.26,1.56,14.85,14.85,0,0,1-7.84-1.93,18.82,18.82,0,0,1-3.22-2.44,29.6,29.6,0,0,1-5.42-6.26,1.6,1.6,0,0,0-1.34-.72,1.62,1.62,0,0,0-.87.25,1.6,1.6,0,0,0-.47,2.21,33,33,0,0,0,6,6.93,24.38,24.38,0,0,0,3.9,2.91c2.73,1.67,3.69,1.55,4.31,2.52,1.32,2-.24,6.81-3.33,8.92a8.33,8.33,0,0,1-4.77,1.31c-3.79,0-8.4-1.77-12.7-4.51a1.28,1.28,0,0,0,.11-.2,13.56,13.56,0,0,1,2.75-4,1.37,1.37,0,1,0-2-1.92,17,17,0,0,0-2,2.43,16.56,16.56,0,0,0-1.21,2.18,37.71,37.71,0,0,1-6.42-6c-.74-.88-1.28-1.61-1.8-2.33-.91-1.25-1.32-1.73-1.47-1.92-2.29-3-6.23-4.82-7-5.21a9.37,9.37,0,0,0-4-1.11c-.47,0-.77.07-1,.07h-.09a1.59,1.59,0,0,0-.1,3.18h0a11.9,11.9,0,0,1,3.88.82,11.62,11.62,0,0,1,4.11,2.78,50.85,50.85,0,0,1-13.25,9.89,47,47,0,0,1-21.76,5.55h-1.18a44.77,44.77,0,0,1-12.58-2.17,34.6,34.6,0,0,0-2.54,5.35,9.55,9.55,0,0,0-.37,4.59,28.06,28.06,0,0,1,.14,4.26c-.15,3-1.07,10.4-6.29,15.8-.64.67-5.67,5.7-10.4,5.7H177a5.58,5.58,0,0,1-2-.48c-5.78-2.57-5.66-14-3.35-21.27l.09-.29a18.2,18.2,0,0,1,4.09-.53A17.71,17.71,0,0,1,180,117a1.37,1.37,0,0,0,.6-2.67A21.06,21.06,0,0,0,173,114c.32-.57.68-1.15,1.1-1.83s.81-1.32,1.33-2.2c.77-1.31,1.76-3.12,3-5.55,2-3.77,4-8.51,5.53-12.13a25.17,25.17,0,0,0,4.63-2.94,24.68,24.68,0,0,0,4.13-4.23,1.37,1.37,0,1,0-2.16-1.67,21.92,21.92,0,0,1-7.77,6.37,11.84,11.84,0,0,1-4-2.41c-4-3.6-4.05-8.59-4.08-10.72,0-2.45-.14-7.55,3.84-11.09a12,12,0,0,1,8-2.93A13,13,0,0,1,192.2,64a12.68,12.68,0,0,1,5.37,4.93,23.54,23.54,0,0,1,3.09-4.57c8-9.32,21.88-10.24,32.37-10.8,0,0,27.58-1.47,28.47-4.47a4.86,4.86,0,0,1,1.81-2.72,1.57,1.57,0,0,1,.31-.18c-1.35-.46-2.68-.93-4-1.44-1-.37-1.93-.77-2.88-1.18l-.24-.1-.26.06a83.7,83.7,0,0,1-11.67,2,84.5,84.5,0,0,1-8.7.46q-2.17,0-4.26-.12c-9.7-.58-16.08-3.15-16.26-6.56-.24-4.53,13.63-8.83,17.53-9.69,3.6-.78,7.64-1.3,7.64-1.3s1.06-.14,2.08-.24a84.16,84.16,0,0,1,8.69-.46q2.17,0,4.26.12c7.11.42,9.92,1.36,11.74,2.23a24.41,24.41,0,0,1,3.23,1.89c2.46,1.63,5.88,3.39,9.08,7.22a1.42,1.42,0,0,0,.9.32,1.23,1.23,0,0,0,1-.42,1.32,1.32,0,0,0,.09-1.53,46.66,46.66,0,0,0-9.11-7.81,24.44,24.44,0,0,0-3.44-2c-1.95-.93-4.94-1.94-12.33-2.38-1.42-.09-2.87-.13-4.35-.13a87.64,87.64,0,0,0-8.86.47q-2.85.3-5.61.76c-4.86-3.94-7.3-7.73-6.07-10.28.92-1.91,3.76-2.83,7.8-2.83a51.29,51.29,0,0,1,13.88,2.36,88.82,88.82,0,0,1,9.29,3.33s16.45,6.74,20.85,13.67c1,1.52,1.91,3.22,1.91,3.22.5.89.79,1.45,1.37,2.54.39.75.92,1.75,1.58,2.95a29.85,29.85,0,0,1,17,8,30.21,30.21,0,0,1,8.35,15.82,6,6,0,0,0-2.45,3.16c-.89,2.45-.25,4.69.88,5.44a1.81,1.81,0,0,0,.37.18,2,2,0,0,0,1.05.06A20.47,20.47,0,0,1,312,78.62C307.72,87,299.41,89.78,296.66,90.67Z"
     id="path843" />
  <path
     class="d"
     d="M298,63.35a1.4,1.4,0,0,1-.41,0c-1.36,0-3.12-1.51-3.73-4-.67-2.78.45-5.1,1.88-5.44a1.84,1.84,0,0,1,.41,0c1.36,0,3.12,1.51,3.73,4C300.55,60.69,299.43,63,298,63.35Z"
     id="path845" />
  <path
     class="d"
     d="M288.12,72.39l-1.2-.53-.68-.3a5.52,5.52,0,0,0-2.26-.51,4.44,4.44,0,0,0-3.14,1.29l-.26,0a4.93,4.93,0,0,1-2-.6c-3-1.42-6.11-2.73-9.17-4.09-1.7-.76-2-1.41-1.64-3.2a1.49,1.49,0,0,0-1-2,1.89,1.89,0,0,0-.51-.07,1.58,1.58,0,0,0-1.44,1.19,5.31,5.31,0,0,0,2.69,6.59l.24.11,5.32,2.35c1.81.81,3.61,1.64,5.44,2.4a1.65,1.65,0,0,1,.8.6,4.73,4.73,0,0,0,3,4.68l.32.14a7.77,7.77,0,0,0,1.51.66l.09,0a5.51,5.51,0,0,0,2.13.45,4.82,4.82,0,0,0,1.74-9.23Zm-5.81,3.78a2,2,0,0,1,.18-1,2.23,2.23,0,0,1,.41-.62,6.15,6.15,0,0,0,.67-.42,1.84,1.84,0,0,1,.41,0,2.67,2.67,0,0,1,1,.25l1.85.82a1.66,1.66,0,0,1,1,2.35,1.6,1.6,0,0,1-1.51,1.15,2.5,2.5,0,0,1-1-.22l-.92-.41-.93-.41a2.57,2.57,0,0,1-.83-.56A2.08,2.08,0,0,1,282.31,76.17Z"
     id="path847" />
  <path
     class="d"
     d="M267.45,61.72a6.81,6.81,0,0,0,1.82.78,7.17,7.17,0,0,0,2,.26,9.57,9.57,0,0,0,3.83-.85,14.73,14.73,0,0,0,6.44-5.86c3.56-5.83,3-12.47-1.38-15.11a7.23,7.23,0,0,0-3.83-1.06,10.45,10.45,0,0,0-5.77,1.93,10.45,10.45,0,0,0-6.66,10.87,12.21,12.21,0,0,0-.09,2.33A8.08,8.08,0,0,0,267.45,61.72Zm8.39-18.08a3.85,3.85,0,0,1,.48,0,3.75,3.75,0,0,1,1,.13,3.41,3.41,0,0,1,.86.36c2.46,1.51,2.53,6.09.14,10a10.87,10.87,0,0,1-4.75,4.39,6.12,6.12,0,0,1-2.35.54,3.53,3.53,0,0,1-1.85-.5,3.7,3.7,0,0,1-1.52-2h.32c2.37,0,5.08-1.71,6.82-4.56S277.06,45.74,275.84,43.64Zm-8.15,3.91a7,7,0,0,1,3.64-3.12l.4-.12.35-.24c.2-.14.41-.26.62-.38l.77,1.33c.64,1.09.57,3.36-.79,5.58s-3.29,3.26-4.49,3.26h-.14l-1.52-.1q0-.34.06-.72l.05-.42-.07-.41A7.06,7.06,0,0,1,267.69,47.55Z"
     id="path849" />
  <path
     class="e"
     d="M192.2,64a13,13,0,0,0-5.63-1.28,12,12,0,0,0-8,2.93c-4,3.54-3.89,8.64-3.84,11.09,0,2.13.12,7.12,4.08,10.72a11.84,11.84,0,0,0,4,2.41,21.92,21.92,0,0,0,7.77-6.37,1.37,1.37,0,0,1,1.88-.27,28.57,28.57,0,0,0,3.33-6.76,31.56,31.56,0,0,0,1.74-7.54A12.68,12.68,0,0,0,192.2,64Z"
     id="path851" />
  <path
     class="e"
     d="M171.7,117.08l-.09.29c-2.31,7.27-2.43,18.7,3.35,21.27a5.58,5.58,0,0,0,2,.48h.39c4.73,0,9.76-5,10.4-5.7a21.89,21.89,0,0,0,5.08-8.94,20.2,20.2,0,0,0-9.24-7.79,18.25,18.25,0,0,0-2-.69,1.37,1.37,0,0,1-1.62,1,17.71,17.71,0,0,0-4.22-.45A18.2,18.2,0,0,0,171.7,117.08Z"
     id="path853" />
  <path
     class="e"
     d="M267.69,47.55a7,7,0,0,1,3.64-3.12l.4-.12.35-.24c.2-.14.41-.26.62-.38l.77,1.33c.64,1.09.57,3.36-.79,5.58s-3.29,3.26-4.49,3.26h-.14l-1.52-.1q0-.34.06-.72l.05-.42-.07-.41A7.06,7.06,0,0,1,267.69,47.55Z"
     id="path855" />
  <path
     class="e"
     d="M275.84,43.64a3.85,3.85,0,0,1,.48,0,3.75,3.75,0,0,1,1,.13,3.41,3.41,0,0,1,.86.36c2.46,1.51,2.53,6.09.14,10a10.87,10.87,0,0,1-4.75,4.39,6.12,6.12,0,0,1-2.35.54,3.53,3.53,0,0,1-1.85-.5,3.7,3.7,0,0,1-1.52-2h.32c2.37,0,5.08-1.71,6.82-4.56S277.06,45.74,275.84,43.64Z"
     id="path857" />
  <path
     class="e"
     d="M288.47,41.3c-.66-1.2-1.19-2.2-1.58-2.95-.58-1.09-.87-1.65-1.37-2.54,0,0-.95-1.7-1.91-3.22-4.4-6.93-20.85-13.67-20.85-13.67a88.82,88.82,0,0,0-9.29-3.33,51.29,51.29,0,0,0-13.88-2.36c-4,0-6.88.92-7.8,2.83-1.23,2.55,1.21,6.34,6.07,10.28q2.76-.46,5.61-.76a87.64,87.64,0,0,1,8.86-.47c1.48,0,2.93,0,4.35.13,7.39.44,10.38,1.45,12.33,2.38a24.44,24.44,0,0,1,3.44,2,46.66,46.66,0,0,1,9.11,7.81,1.32,1.32,0,0,1-.09,1.53,1.23,1.23,0,0,1-1,.42,1.43,1.43,0,0,1-.29,0h0c.57.39,1.08.54,3.54,1,2,.4,3.26.63,4.7.9a42.92,42.92,0,0,1,5.34,1.19,18.15,18.15,0,0,0,2.28.77A35.77,35.77,0,0,0,288.47,41.3Z"
     id="path859" />
  <path
     class="e"
     d="M279.13,104.62c3.09-2.11,4.65-6.87,3.33-8.92-.62-1-1.58-.85-4.31-2.52a23,23,0,0,1-2.81-2,18.11,18.11,0,0,0-10.81,4.07,1.38,1.38,0,0,1,0,1.9,13.56,13.56,0,0,0-2.75,4,1.28,1.28,0,0,1-.11.2c4.3,2.74,8.91,4.51,12.7,4.51A8.33,8.33,0,0,0,279.13,104.62Z"
     id="path861" />
  <path
     class="b"
     d="M312.82,140,319.87,130l21.7-6.13a1.82,1.82,0,0,0-1-3.5l-21.7,6.14-11.27-4.88a1.82,1.82,0,0,0-1.44,3.34l9.82,4.24-6.14,8.76a1.78,1.78,0,0,0-.26,1.54,1.73,1.73,0,0,0,.7,1A1.81,1.81,0,0,0,312.82,140Z"
     id="path945"
     style="fill:#666666" />
  <path
     class="f"
     d="M149.76,146.13h0a8.56,8.56,0,0,0-1.13-2.34l-.1-.16c-1.55-2.72-3.17-5.43-4.79-8.06-5.52-8.91-7.84-11.44-8.95-12.65a35.86,35.86,0,0,0-10.22-7.74,86.45,86.45,0,0,0-11-4.19c-2.21-.67-4.48-1.26-6.74-1.75l-.74-.16.14.74c.17.91.53,2.67,1,4.37l.16.55a56,56,0,0,0,3,8,18.58,18.58,0,0,1,.88,2.14,3.26,3.26,0,0,1-1.43,3.82c-.58.35-2.65,1.28-4.62-1.3-.32-.42-.7-1-1.22-1.74a77.16,77.16,0,0,0-7.1-9.1c-.2-.22-.4-.43-.61-.64l-1.22-1.28.37,1.73c1.58,7.23.86,8.73-1.48,9.55s-3.77-1-4.65-2.39a11.78,11.78,0,0,0-2.67-3.24c-1.33-1-3.31-2-11.44-1.79a101.29,101.29,0,0,0-13,1.25l-.64.11.27.59a34.93,34.93,0,0,0,5.54,8.67,65,65,0,0,0,5.84,5.67c2.53,2.26,3.8,3.39,4.23,4.9a3.46,3.46,0,0,1-.38,2.8,3.15,3.15,0,0,1-1.26,1.2l-.85.45.85.44c19.25,10.07,35.55,10.69,48.67,11.2,6.93.26,12.91.49,17.9,2.12l.1,0a7.37,7.37,0,0,0,2.17.46h.09l.37,0,.21-.85a21.93,21.93,0,0,1,1.34-4.18,19.1,19.1,0,0,1,2.44-4.11c.62-.83.73-1,.8-1.48A4,4,0,0,0,149.76,146.13Z"
     id="path949"
     style="fill:#666666" />
  <path
     class="g"
     d="M148.94,188.54a7.19,7.19,0,0,0-1.28-2,18.91,18.91,0,0,1-3.47-6.42l-.06-.22a19.78,19.78,0,0,1-.66-6.19,9.81,9.81,0,0,0,0-1.65l0-.19-.16-.12a4.56,4.56,0,0,0-3-.32l-12.87.49c-5.9.23-12.8-.25-27.22-3.32a215.83,215.83,0,0,1-22.46-6.09c-8.42-2.68-13.5-4.3-22-3.53-1,.09-2.06.21-3.09.37l-1.1.16.86.72c1.61,1.34,2.1,2.18,2.34,3a3.42,3.42,0,0,1-.19,2.44c-1.16,2.44-3.81,2-5.74,1.74l-.66-.1a59.5,59.5,0,0,0-6.5-.56l-.53,0v.53a6.52,6.52,0,0,0,.25,1.65,10.21,10.21,0,0,0,1.2,2.53,8.9,8.9,0,0,1,1,2,3.78,3.78,0,0,1-.58,3.32c-1.48,2-3.74,1.47-5.09,1.17-.46-.1-1-.23-1.65-.31l-1.52-.21,1.1,1.06c.22.21.43.4.65.59a5.43,5.43,0,0,1,1.88,2.56,3.73,3.73,0,0,1,0,2c-.72,2.5-3.22,2.76-4.73,2.92-.52.06-1.07.12-1.66.22l-2.14.38,2.28.65c1.12.3,3,.81,3.56,2.84a3.94,3.94,0,0,1,.1.47c.37,2.62-2,3.84-3.2,4.49a14.38,14.38,0,0,0-2.72,1.73c-.18.16-.36.32-.53.5l-.54.54.71.27a20.47,20.47,0,0,0,2,.68,25.5,25.5,0,0,0,4.9.79c1.71.14,4.06.34,4.74,2.75l.08.35c.48,2.87-2.15,4-4.71,5.06-1.66.71-3.95,1.67-6.79,3.18-1.22.65-2.12,1.18-3.49,2l-1.85,1.09-1.12.67,1.29.25c.33.07.61.1.89.14a4.74,4.74,0,0,1,3.54,1.8,4.37,4.37,0,0,1,.64,1.32c.61,2.16.09,5.32-7.74,13.72-1.31,1.41-2.7,2.79-4.12,4.1l-.69.64.91.22a42.38,42.38,0,0,0,5.23.91c2.35.26,4.63.31,6.64.36,4.54.1,7.54.16,8.38,3.12l.06.25c.48,2.3-1.32,3.64-2.09,4.21a7.91,7.91,0,0,0-1.33,1.17l-.73.86,1.12,0c1,0,2.06-.1,3.07-.21A52.94,52.94,0,0,0,47,246.23c3.09-.85,6-1.66,7.51,1a3.61,3.61,0,0,1,.32.76c.56,2-.69,3.43-1.7,4.59a22.23,22.23,0,0,0-2.42,3.23c-.17.27-.33.56-.48.84l-.42.77.88,0c1.21-.06,2.43-.15,3.64-.29A68.26,68.26,0,0,0,67.71,254c4.13-1.3,7.4-2.33,9.31.45a3.75,3.75,0,0,1,.55,1.16c.6,2.11-.49,3.76-2.3,6.5-.7,1.06-1.57,2.38-2.52,4-.55.91-1.09,1.86-1.6,2.8l-.7,1.31,1.35-.61a76.45,76.45,0,0,0,10.86-6.09A78.13,78.13,0,0,0,96,252.15c17.75-18.55,50.44-58.87,50.77-59.27l.29-.31a5.35,5.35,0,0,0,2-3.37A1.81,1.81,0,0,0,148.94,188.54Z"
     id="path951"
     style="fill:#808080" />
  <path
     class="b"
     d="M271.91,120.52a31.37,31.37,0,0,0-16.8,10.59c-3.81,4.89-5.18,10.38-3.84,15.46a2.5,2.5,0,0,1,.07.26c1.41,5,5.26,9,10.89,11.3a33.1,33.1,0,0,0,36.63-9.65c3.82-4.89,5.18-10.38,3.84-15.46,0-.09-.05-.18-.07-.27a15.58,15.58,0,0,0-3.14-5.84,20.3,20.3,0,0,0-7.75-5.46A31.43,31.43,0,0,0,271.91,120.52Zm18.95,4.13a16.51,16.51,0,0,1,6.45,4.5,11.61,11.61,0,0,1,2.4,4.44l.06.2c1,3.94-.12,8.33-3.24,12.34a30.54,30.54,0,0,1-33.42,8.81c-4.62-1.92-7.76-5.1-8.85-8.95l0-.19c-1-4,.11-8.33,3.24-12.35a30.49,30.49,0,0,1,33.41-8.8Z"
     id="path953"
     style="fill:#666666" />
  <path
     class="f"
     d="M174,204.4a2.64,2.64,0,0,0-1-1.65,5.14,5.14,0,0,0-1.47-.54A20.15,20.15,0,0,1,166.2,200a22.06,22.06,0,0,1-4.81-3.68c-.25-.23-.53-.51-.71-.65l-.19-.16-.24.06a5.57,5.57,0,0,0-2.34,1.72,52.46,52.46,0,0,0-4.39,5.59l-.9,1.25a112.14,112.14,0,0,1-8,9.47,104.46,104.46,0,0,0-7.61,9c-6.66,9.22-15.61,20.2-26.6,32.64l-.76.85,1.15,0c.73,0,1.31-.09,1.82-.15a5.85,5.85,0,0,1,4.27.71,5.38,5.38,0,0,1,2.19,3.1c.61,2.18.2,4.81-.33,8.13-.25,1.61-.51,3.27-.68,5a43.37,43.37,0,0,0,.12,8.81l.11,1L119,282c2.25-2,4.49-4.13,6.65-6.24,3-2.94,4.52-4.41,5.49-5.52.73-.84,1.44-1.71,2.07-2.47,2.7-3.28,4.48-5.21,7-3.76a3.28,3.28,0,0,1,1.55,2,4.3,4.3,0,0,1,.1,1.67,9.32,9.32,0,0,0,0,1.13,6.48,6.48,0,0,0,0,.65l.12,1,.74-.73c.41-.42.82-.85,1.21-1.3a38.32,38.32,0,0,0,4.07-5.83c1.21-2,2.71-4.59,5.52-3.72a3.55,3.55,0,0,1,2.38,2.5,10.22,10.22,0,0,1,.22,2.72,27.92,27.92,0,0,0,.32,4.94l.16.91.68-.63a49.58,49.58,0,0,0,4.72-5,51.84,51.84,0,0,0,6.52-10.4c2.43-5.17,2.69-8.18,3.79-20.9.29-3.34.65-7.5,1.12-12.48l.13-1.33C174.27,212.52,174.78,207.22,174,204.4Z"
     id="path955"
     style="fill:#666666" />
  <path
     class="b"
     d="M262.64,139.9a1.53,1.53,0,0,1-.71-.18,1.59,1.59,0,0,1-.68-2.15,21,21,0,0,1,25.82-10,1.59,1.59,0,1,1-1.09,3,17.77,17.77,0,0,0-21.9,8.51A1.6,1.6,0,0,1,262.64,139.9Z"
     id="path957"
     style="fill:#666666" />
  <path
     class="h"
     d="M149.27,146.27a3.49,3.49,0,0,1,.13,1.44c-.06.35-.09.43-.71,1.26a19.69,19.69,0,0,0-2.5,4.21,22.63,22.63,0,0,0-1.37,4.27c0,.15-.07.33-.11.48a6.51,6.51,0,0,1-2.09-.43l-.09,0c-5.06-1.65-11.09-1.89-18.06-2.15-13.06-.5-29.28-1.13-48.44-11.14a3.8,3.8,0,0,0,1.46-1.38,4,4,0,0,0,.43-3.2c-.47-1.66-1.78-2.82-4.38-5.14a65.51,65.51,0,0,1-5.8-5.63,34.66,34.66,0,0,1-5.46-8.54,100.4,100.4,0,0,1,13-1.25c8-.25,9.86.7,11.12,1.68a11.2,11.2,0,0,1,2.55,3.11c.56.9,2.26,3.65,5.24,2.6,2.83-1,3.34-3.1,1.81-10.13.21.21.41.43.61.64a76.5,76.5,0,0,1,7,9c.5.73.9,1.31,1.24,1.75,2.27,3,4.79,1.72,5.27,1.43a3.74,3.74,0,0,0,1.65-4.38,16.9,16.9,0,0,0-.91-2.22,55.78,55.78,0,0,1-3-8l-.15-.55c-.45-1.69-.81-3.47-1-4.33,2.26.49,4.5,1.07,6.7,1.74a84.91,84.91,0,0,1,10.94,4.16,35.4,35.4,0,0,1,10.06,7.63c1.1,1.2,3.4,3.7,8.89,12.58,1.62,2.62,3.23,5.32,4.79,8l0,.1.06.1a8.16,8.16,0,0,1,1.07,2.2m3.5-1a11.75,11.75,0,0,0-1.53-3.21c-1.92-3.35-3.59-6.12-4.85-8.15-5.51-8.91-7.91-11.6-9.3-13.12a40.24,40.24,0,0,0-5.35-4.84,39.57,39.57,0,0,0-5.8-3.6,90.06,90.06,0,0,0-23.55-7.14c.15,1.43.35,3,.64,4.6,0,0,.47,2.65,1.15,5.18,0,.2.11.4.16.6a89.46,89.46,0,0,0,3.93,10.18c0,.15,0,.24,0,.26-.4.24-3.56-5.67-9-11.58a58.59,58.59,0,0,0-9.58-8.26c3.52,13,3.9,16.59,3.3,16.8s-1.42-2.84-4.34-5.13c-2.34-1.84-5.37-2.71-13.48-2.47a105.52,105.52,0,0,0-17.8,2.1A38.86,38.86,0,0,0,65,131.22c4,4.54,9,8.09,9.41,9.37a.36.36,0,0,1,0,.29c-.31.5-2-.45-5-.27a14.3,14.3,0,0,0-4.62,1.09,105.54,105.54,0,0,0,9.1,5.44c30.37,16.08,54,9.37,67.55,13.78.93.3,3.77,1.3,5.64,0,1.53-1.1.92-2.67,2.48-6.23s3.1-3.94,3.47-6.38a6.94,6.94,0,0,0-.22-3Z"
     id="path959"
     style="fill:#4d4d4d" />
  <path
     class="h"
     d="M173.5,204.54h0c.77,2.72.27,8-.37,14.65l-.12,1.33c-.48,5-.84,9.2-1.13,12.56-1.09,12.58-1.35,15.57-3.74,20.66A51.68,51.68,0,0,1,161.68,264a47.54,47.54,0,0,1-4.67,5,26.69,26.69,0,0,1-.32-4.85,10.49,10.49,0,0,0-.24-2.85,4,4,0,0,0-2.71-2.85c-3.19-1-4.87,1.87-6.1,3.94a37.34,37.34,0,0,1-4,5.76c-.38.44-.78.86-1.19,1.27a5.68,5.68,0,0,1,0-.61,8.42,8.42,0,0,1,0-1.07,4.73,4.73,0,0,0-.12-1.85,3.8,3.8,0,0,0-1.78-2.28c-3.05-1.73-5.19.87-7.66,3.88-.63.76-1.34,1.63-2.07,2.46-.95,1.09-2.46,2.56-5.46,5.49-2.16,2.11-4.38,4.19-6.63,6.23a42.37,42.37,0,0,1-.12-8.71c.16-1.71.42-3.37.68-5,.53-3.38.95-6.06.31-8.34a5.94,5.94,0,0,0-2.39-3.39,6.38,6.38,0,0,0-4.61-.79c-.51.06-1.07.13-1.77.15,11-12.46,19.94-23.43,26.63-32.67a103.16,103.16,0,0,1,7.57-9,111.63,111.63,0,0,0,8-9.52l.9-1.25a52.81,52.81,0,0,1,4.35-5.54,5.37,5.37,0,0,1,2.1-1.58c.17.14.45.42.68.65a23.49,23.49,0,0,0,4.9,3.74,21.16,21.16,0,0,0,5.43,2.24,4.75,4.75,0,0,1,1.32.46c.15.11.51.35.8,1.38m3.5-1a5.81,5.81,0,0,0-2.26-3.39c-1.72-1.17-3.3-.73-7-2.85-4.31-2.48-4.63-4.5-6.77-4.84-3.77-.59-7.36,4.95-10.91,9.84-4.74,6.52-10.87,11.95-15.6,18.49-5.58,7.72-14.82,19.54-30.79,37.31a21.59,21.59,0,0,0,5.76,1.1c3.55.18,4.62-.66,5.72.06a2.3,2.3,0,0,1,.9,1.35c.67,2.37-.63,6.9-1.11,12a47.69,47.69,0,0,0,1.32,16c3.75-3.23,7.64-6.77,11.59-10.62,3.07-3,4.61-4.5,5.66-5.7,2.57-2.94,4.64-5.88,5.2-5.57a.23.23,0,0,1,.08.11c.07.25-.1.84-.06,2.06a13.64,13.64,0,0,0,.39,2.66c.08.36.17.72.27,1.06a18.74,18.74,0,0,0,1.14,3,30.62,30.62,0,0,0,5.81-5.13c4-4.56,5.37-8.91,6.32-8.62a.45.45,0,0,1,.27.36c.29,1-.24,4.08.68,8.41.13.59.26,1.14.41,1.65a26.56,26.56,0,0,0,1,2.95,52,52,0,0,0,9.42-8.94,55.34,55.34,0,0,0,6.94-11.06c3.38-7.19,2.94-10.64,5.2-34.42.75-8,1.38-13.73.37-17.31Z"
     id="path961"
     style="fill:#4d4d4d" />
  <path
     class="h"
     d="M148.46,188.68a1.22,1.22,0,0,1,0,.49,4.87,4.87,0,0,1-1.82,3l-.17.16-.16.19c-.33.41-33.08,40.79-50.74,59.24a77.82,77.82,0,0,1-13.23,11.33,75.41,75.41,0,0,1-10.79,6c.51-.94,1-1.87,1.58-2.79,1-1.6,1.83-2.92,2.52-4,1.82-2.76,3-4.58,2.36-6.91h0a4.48,4.48,0,0,0-.61-1.31c-2.13-3.08-5.72-1.95-9.88-.64a67.9,67.9,0,0,1-13.31,3.06c-1.2.14-2.41.23-3.61.29.15-.28.3-.55.46-.82a21.59,21.59,0,0,1,2.38-3.16c1-1.18,2.43-2.81,1.8-5a4.19,4.19,0,0,0-.36-.87c-1.69-3-4.94-2.12-8.09-1.25a51.86,51.86,0,0,1-8.59,1.79q-1.52.17-3,.21a7,7,0,0,1,1.24-1.09c.78-.58,2.83-2.11,2.29-4.73l0-.15,0-.12c-.94-3.32-4.26-3.39-8.84-3.49-2,0-4.29-.1-6.6-.35a41.12,41.12,0,0,1-5.17-.91c1.43-1.32,2.82-2.7,4.15-4.13,8-8.58,8.5-11.89,7.85-14.2a5.08,5.08,0,0,0-.72-1.48,5.17,5.17,0,0,0-3.87-2L24.6,215l1.84-1.09c1.36-.79,2.26-1.31,3.48-2,2.81-1.49,5.09-2.45,6.75-3.16,2.6-1.1,5.55-2.34,5-5.6l0-.22-.05-.19c-.78-2.74-3.43-3-5.18-3.11a24.28,24.28,0,0,1-4.81-.78,20.26,20.26,0,0,1-1.95-.65c.17-.16.33-.32.51-.47a13.65,13.65,0,0,1,2.62-1.66c1.26-.67,3.88-2,3.47-5a4.54,4.54,0,0,0-.12-.53c-.65-2.31-2.77-2.89-3.91-3.2l-.18-.05c.57-.1,1.12-.16,1.63-.21,1.52-.16,4.33-.46,5.15-3.28a4.17,4.17,0,0,0,0-2.27,5.83,5.83,0,0,0-2-2.79c-.21-.19-.42-.37-.63-.58.59.08,1.13.2,1.62.31,1.36.3,3.91.87,5.59-1.36a4.23,4.23,0,0,0,.66-3.76,9.45,9.45,0,0,0-1-2.15,10,10,0,0,1-1.15-2.42,5.88,5.88,0,0,1-.23-1.52,56.24,56.24,0,0,1,6.45.56l.65.1c2,.3,4.95.75,6.27-2a4,4,0,0,0,.23-2.78,6.5,6.5,0,0,0-2.52-3.29c1-.15,2.05-.27,3.07-.37,8.39-.75,13.44.85,21.8,3.52a216.67,216.67,0,0,0,22.51,6.1c14.47,3.08,21.39,3.56,27.34,3.33l12.6-.47h.15l.16,0a4.13,4.13,0,0,1,2.62.23,10.57,10.57,0,0,1,0,1.55,20.3,20.3,0,0,0,.68,6.34l.06.22a19.16,19.16,0,0,0,3.56,6.58,7.42,7.42,0,0,1,1.19,1.86h0m3.5-1c-.73-2.58-3.44-4-4.76-8.48l-.06-.18c-1-3.65-.19-6.09-.72-8a3.31,3.31,0,0,0-.93-1.53c-1.52-1.46-3.88-1.46-5.62-1.24l-12.59.47c-6,.23-12.75-.34-26.46-3.25-24.84-5.28-30.31-11-45.39-9.69a57.08,57.08,0,0,0-11.65,2.31c3.73,2.32,7.64,4.92,7.93,6a.36.36,0,0,1,0,.23c-.19.4-1.41.14-3.12-.11a63.12,63.12,0,0,0-10.07-.62,11.11,11.11,0,0,0-.17,6.17v0c.63,2.22,1.92,3.68,2.17,4.55a.6.6,0,0,1-.06.58c-.47.63-2.05-.26-4.74-.45a14.68,14.68,0,0,0-5.29.61l.16.64a11.23,11.23,0,0,0,1.74,3.59c1.35,1.84,2.8,2.56,3,3.21a.42.42,0,0,1,0,.27c-.24.87-2.59.41-5.6,1.32a14.33,14.33,0,0,0-4.93,2.67,11.7,11.7,0,0,0,3.79,3.1c2.17,1.08,3.88,1,4.06,1.65a.11.11,0,0,0,0,.05c.11.84-2.42,1.33-4.85,3.4a13.14,13.14,0,0,0-3.41,4.62,23.73,23.73,0,0,0,6.24,2.77c4.26,1.18,7.27.7,7.46,1.37v0c.13.79-3.61,1.61-9.88,4.95-1.27.67-2.24,1.23-3.61,2-2.75,1.6-5.33,3.21-7.73,4.8.59.37,1.25.75,2,1.12,0,0,1.21.62,2.41,1.09,3.32,1.3,4.58.7,5.14,1.47a1.33,1.33,0,0,1,.16.34c.7,2.47-5.69,9.32-7,10.73a74.4,74.4,0,0,1-8.81,8,44.76,44.76,0,0,0,12.09,3.08c6.18.68,12,0,12.34,1.22v0c.16.75-1.9,1.24-3.41,3.63a9.35,9.35,0,0,0-1.36,4.91,41.84,41.84,0,0,0,8.22-.06c7.47-.81,12.52-3.45,13.12-2.39l0,.09c.21.72-1.8,2-3.79,5.34a22.68,22.68,0,0,0-2.58,6.31,55.56,55.56,0,0,0,9.24-.29c11.62-1.3,18.57-5.74,19.79-4a1,1,0,0,1,.12.23c.31,1.12-1.66,3.25-4.51,8a76,76,0,0,0-5.53,11.31,80.16,80.16,0,0,0,19.89-9.69,81.56,81.56,0,0,0,13.83-11.82c17.6-18.41,49.6-57.82,50.94-59.47a8.5,8.5,0,0,0,2.95-5.47,5.06,5.06,0,0,0-.17-1.69Z"
     id="path963"
     style="fill:#4d4d4d" />
  <g
     aria-label="        Digital
      verteiltes
Online-Chaos"
     transform="translate(-262.65299,1.4352622)"
     id="text971"
     style="font-style:normal;font-variant:normal;font-weight:normal;font-stretch:normal;font-size:40px;line-height:1.25;font-family:'Archivo Black';-inkscape-font-specification:'Archivo Black, Normal';font-variant-ligatures:normal;font-variant-caps:normal;font-variant-numeric:normal;font-variant-east-asian:normal;white-space:pre;shape-inside:url(#rect973);fill:#000000;fill-opacity:1;stroke:none">
    <path
       d="m 657.62414,147.54457 q 14.44,0 14.44,13.76 0,13.76 -14.44,13.76 h -11.92 v -27.52 z m -3.08,20.92 h 2.92 q 5.56,0 5.56,-5.96 v -2.4 q 0,-5.96 -5.56,-5.96 h -2.92 z"
       style="font-style:normal;font-variant:normal;font-weight:normal;font-stretch:normal;font-size:40px;font-family:'Archivo Black';-inkscape-font-specification:'Archivo Black, Normal';font-variant-ligatures:normal;font-variant-caps:normal;font-variant-numeric:normal;font-variant-east-asian:normal;text-align:end;text-anchor:end"
       id="path995" />
    <path
       d="m 676.51789,151.46457 v -5.4 h 7.96 v 5.4 z m 0,23.6 v -21.12 h 7.96 v 21.12 z"
       style="font-style:normal;font-variant:normal;font-weight:normal;font-stretch:normal;font-size:40px;font-family:'Archivo Black';-inkscape-font-specification:'Archivo Black, Normal';font-variant-ligatures:normal;font-variant-caps:normal;font-variant-numeric:normal;font-variant-east-asian:normal;text-align:end;text-anchor:end"
       id="path997" />
    <path
       d="m 713.35727,149.98457 q 0,2.44 -1.24,3.76 -1.2,1.32 -3.64,1.96 1.16,0.88 1.8,2.08 0.68,1.16 0.68,2.48 0,3.36 -2.56,5.08 -2.52,1.72 -6.32,1.72 h -3.04 q -2.52,0 -2.52,1.16 0,0.56 0.56,0.92 0.56,0.32 1.96,0.32 h 7.2 q 3.52,0 5.32,1.84 1.8,1.84 1.8,4.92 0,2.28 -1.2,3.92 -1.2,1.64 -3.24,2.48 -2.04,0.84 -4.44,0.84 h -11.76 q -1.44,0 -2.68,-0.68 -1.2,-0.68 -1.92,-1.88 -0.72,-1.16 -0.72,-2.6 0,-1.56 0.96,-2.84 0.96,-1.24 2.4,-1.88 -0.96,-0.68 -1.52,-1.64 -0.56,-0.96 -0.56,-2.08 0,-1.56 1.16,-2.8 1.16,-1.28 2.88,-1.72 -1.56,-1 -2.48,-2.28 -0.92,-1.32 -0.92,-2.76 0,-3.68 2.96,-5.24 3,-1.6 7.92,-1.6 2.16,0 3.48,0.24 1.96,-1.24 2.52,-2.24 0.6,-1.04 0.6,-1.48 z m -13.24,7.64 q -1.32,0 -2.16,0.68 -0.84,0.68 -0.84,1.96 0,1.32 0.76,2 0.8,0.64 2.24,0.64 1.44,0 2.24,-0.64 0.84,-0.68 0.84,-2 0,-1.32 -0.84,-1.96 -0.8,-0.68 -2.24,-0.68 z m -3.08,17.44 q -0.92,0 -1.52,0.48 -0.56,0.52 -0.56,1.44 0,0.92 0.6,1.48 0.6,0.56 1.48,0.56 h 6.24 q 0.88,0 1.48,-0.56 0.64,-0.52 0.64,-1.44 0,-0.92 -0.6,-1.44 -0.6,-0.52 -1.52,-0.52 z"
       style="font-style:normal;font-variant:normal;font-weight:normal;font-stretch:normal;font-size:40px;font-family:'Archivo Black';-inkscape-font-specification:'Archivo Black, Normal';font-variant-ligatures:normal;font-variant-caps:normal;font-variant-numeric:normal;font-variant-east-asian:normal;text-align:end;text-anchor:end"
       id="path999" />
    <path
       d="m 716.59602,151.46457 v -5.4 h 7.96 v 5.4 z m 0,23.6 v -21.12 h 7.96 v 21.12 z"
       style="font-style:normal;font-variant:normal;font-weight:normal;font-stretch:normal;font-size:40px;font-family:'Archivo Black';-inkscape-font-specification:'Archivo Black, Normal';font-variant-ligatures:normal;font-variant-caps:normal;font-variant-numeric:normal;font-variant-east-asian:normal;text-align:end;text-anchor:end"
       id="path1001" />
    <path
       d="m 743.75539,153.94457 v 5.4 h -4.48 v 8.04 q 0,1.44 0.48,2.12 0.48,0.64 1.76,0.64 h 2.24 v 4.68 q -0.96,0.32 -2.48,0.52 -1.52,0.2 -2.64,0.2 -3.52,0 -5.44,-1.28 -1.88,-1.28 -1.88,-4.36 v -10.56 h -2.96 v -5.4 h 3.28 l 1.72,-6.4 h 5.92 v 6.4 z"
       style="font-style:normal;font-variant:normal;font-weight:normal;font-stretch:normal;font-size:40px;font-family:'Archivo Black';-inkscape-font-specification:'Archivo Black, Normal';font-variant-ligatures:normal;font-variant-caps:normal;font-variant-numeric:normal;font-variant-east-asian:normal;text-align:end;text-anchor:end"
       id="path1003" />
    <path
       d="m 757.84977,153.46457 q 4.84,0 7.88,1.64 3.04,1.6 3.04,5.24 v 8.24 q 0,0.68 0.32,1.12 0.32,0.44 0.96,0.44 h 1.44 v 4.6 q -0.12,0.08 -0.64,0.28 -0.48,0.16 -1.4,0.32 -0.92,0.2 -2.12,0.2 -2.32,0 -3.84,-0.68 -1.48,-0.72 -2.04,-1.96 -1.52,1.2 -3.4,1.92 -1.88,0.72 -4.4,0.72 -7.44,0 -7.44,-5.92 0,-3.08 1.64,-4.68 1.68,-1.64 4.8,-2.24 3.12,-0.6 8.16,-0.6 v -1.04 q 0,-1.24 -0.88,-1.88 -0.84,-0.64 -2.2,-0.64 -1.24,0 -2.16,0.44 -0.88,0.44 -0.88,1.4 v 0.16 h -7.84 q -0.04,-0.2 -0.04,-0.56 0,-3 2.84,-4.76 2.88,-1.76 8.2,-1.76 z m 2.96,12.4 q -3.4,0 -5.04,0.76 -1.6,0.72 -1.6,1.96 0,2 2.72,2 1.56,0 2.72,-0.84 1.2,-0.84 1.2,-2.08 z"
       style="font-style:normal;font-variant:normal;font-weight:normal;font-stretch:normal;font-size:40px;font-family:'Archivo Black';-inkscape-font-specification:'Archivo Black, Normal';font-variant-ligatures:normal;font-variant-caps:normal;font-variant-numeric:normal;font-variant-east-asian:normal;text-align:end;text-anchor:end"
       id="path1005" />
    <path
       d="m 774.40852,175.06457 v -29 h 7.96 v 29 z"
       style="font-style:normal;font-variant:normal;font-weight:normal;font-stretch:normal;font-size:40px;font-family:'Archivo Black';-inkscape-font-specification:'Archivo Black, Normal';font-variant-ligatures:normal;font-variant-caps:normal;font-variant-numeric:normal;font-variant-east-asian:normal;text-align:end;text-anchor:end"
       id="path1007" />
    <path
       d="m 583.08789,225.06457 -8,-21.12 h 8.56 l 3.88,13.16 h 0.28 l 3.88,-13.16 h 7.84 l -8.08,21.12 z"
       style="font-style:normal;font-variant:normal;font-weight:normal;font-stretch:normal;font-size:40px;font-family:'Archivo Black';-inkscape-font-specification:'Archivo Black, Normal';font-variant-ligatures:normal;font-variant-caps:normal;font-variant-numeric:normal;font-variant-east-asian:normal;text-align:end;text-anchor:end"
       id="path1009" />
    <path
       d="m 611.84539,203.46457 q 5.8,0 8.84,2.72 3.08,2.72 3.08,8.32 v 1.36 h -15.84 q 0,2.28 1,3.44 1.04,1.16 3.24,1.16 2,0 2.92,-0.84 0.96,-0.84 0.96,-2.24 h 7.72 q 0,3.84 -2.92,6 -2.92,2.16 -8.52,2.16 -5.88,0 -9.12,-2.72 -3.24,-2.76 -3.24,-8.32 0,-5.44 3.16,-8.24 3.16,-2.8 8.72,-2.8 z m 0.32,5.08 q -3.76,0 -4.2,3.56 h 7.76 q 0,-1.64 -0.96,-2.6 -0.92,-0.96 -2.6,-0.96 z"
       style="font-style:normal;font-variant:normal;font-weight:normal;font-stretch:normal;font-size:40px;font-family:'Archivo Black';-inkscape-font-specification:'Archivo Black, Normal';font-variant-ligatures:normal;font-variant-caps:normal;font-variant-numeric:normal;font-variant-east-asian:normal;text-align:end;text-anchor:end"
       id="path1011" />
    <path
       d="m 640.48414,203.42457 q 0.92,0 1.64,0.24 0.72,0.2 0.72,0.24 v 6.68 h -2.56 q -2.48,0 -3.6,1.28 -1.08,1.28 -1.08,3.8 v 9.4 h -7.96 v -21.12 h 6.52 l 0.52,3.2 q 0.72,-1.84 2.28,-2.76 1.56,-0.96 3.52,-0.96 z"
       style="font-style:normal;font-variant:normal;font-weight:normal;font-stretch:normal;font-size:40px;font-family:'Archivo Black';-inkscape-font-specification:'Archivo Black, Normal';font-variant-ligatures:normal;font-variant-caps:normal;font-variant-numeric:normal;font-variant-east-asian:normal;text-align:end;text-anchor:end"
       id="path1013" />
    <path
       d="m 661.48977,203.94457 v 5.4 h -4.48 v 8.04 q 0,1.44 0.48,2.12 0.48,0.64 1.76,0.64 h 2.24 v 4.68 q -0.96,0.32 -2.48,0.52 -1.52,0.2 -2.64,0.2 -3.52,0 -5.44,-1.28 -1.88,-1.28 -1.88,-4.36 v -10.56 h -2.96 v -5.4 h 3.28 l 1.72,-6.4 h 5.92 v 6.4 z"
       style="font-style:normal;font-variant:normal;font-weight:normal;font-stretch:normal;font-size:40px;font-family:'Archivo Black';-inkscape-font-specification:'Archivo Black, Normal';font-variant-ligatures:normal;font-variant-caps:normal;font-variant-numeric:normal;font-variant-east-asian:normal;text-align:end;text-anchor:end"
       id="path1015" />
    <path
       d="m 676.06414,203.46457 q 5.8,0 8.84,2.72 3.08,2.72 3.08,8.32 v 1.36 h -15.84 q 0,2.28 1,3.44 1.04,1.16 3.24,1.16 2,0 2.92,-0.84 0.96,-0.84 0.96,-2.24 h 7.72 q 0,3.84 -2.92,6 -2.92,2.16 -8.52,2.16 -5.88,0 -9.12,-2.72 -3.24,-2.76 -3.24,-8.32 0,-5.44 3.16,-8.24 3.16,-2.8 8.72,-2.8 z m 0.32,5.08 q -3.76,0 -4.2,3.56 h 7.76 q 0,-1.64 -0.96,-2.6 -0.92,-0.96 -2.6,-0.96 z"
       style="font-style:normal;font-variant:normal;font-weight:normal;font-stretch:normal;font-size:40px;font-family:'Archivo Black';-inkscape-font-specification:'Archivo Black, Normal';font-variant-ligatures:normal;font-variant-caps:normal;font-variant-numeric:normal;font-variant-east-asian:normal;text-align:end;text-anchor:end"
       id="path1017" />
    <path
       d="m 692.14289,201.46457 v -5.4 h 7.96 v 5.4 z m 0,23.6 v -21.12 h 7.96 v 21.12 z"
       style="font-style:normal;font-variant:normal;font-weight:normal;font-stretch:normal;font-size:40px;font-family:'Archivo Black';-inkscape-font-specification:'Archivo Black, Normal';font-variant-ligatures:normal;font-variant-caps:normal;font-variant-numeric:normal;font-variant-east-asian:normal;text-align:end;text-anchor:end"
       id="path1019" />
    <path
       d="m 705.50227,225.06457 v -29 h 7.96 v 29 z"
       style="font-style:normal;font-variant:normal;font-weight:normal;font-stretch:normal;font-size:40px;font-family:'Archivo Black';-inkscape-font-specification:'Archivo Black, Normal';font-variant-ligatures:normal;font-variant-caps:normal;font-variant-numeric:normal;font-variant-east-asian:normal;text-align:end;text-anchor:end"
       id="path1021" />
    <path
       d="m 732.66164,203.94457 v 5.4 h -4.48 v 8.04 q 0,1.44 0.48,2.12 0.48,0.64 1.76,0.64 h 2.24 v 4.68 q -0.96,0.32 -2.48,0.52 -1.52,0.2 -2.64,0.2 -3.52,0 -5.44,-1.28 -1.88,-1.28 -1.88,-4.36 v -10.56 h -2.96 v -5.4 h 3.28 l 1.72,-6.4 h 5.92 v 6.4 z"
       style="font-style:normal;font-variant:normal;font-weight:normal;font-stretch:normal;font-size:40px;font-family:'Archivo Black';-inkscape-font-specification:'Archivo Black, Normal';font-variant-ligatures:normal;font-variant-caps:normal;font-variant-numeric:normal;font-variant-east-asian:normal;text-align:end;text-anchor:end"
       id="path1023" />
    <path
       d="m 747.23602,203.46457 q 5.8,0 8.84,2.72 3.08,2.72 3.08,8.32 v 1.36 h -15.84 q 0,2.28 1,3.44 1.04,1.16 3.24,1.16 2,0 2.92,-0.84 0.96,-0.84 0.96,-2.24 h 7.72 q 0,3.84 -2.92,6 -2.92,2.16 -8.52,2.16 -5.88,0 -9.12,-2.72 -3.24,-2.76 -3.24,-8.32 0,-5.44 3.16,-8.24 3.16,-2.8 8.72,-2.8 z m 0.32,5.08 q -3.76,0 -4.2,3.56 h 7.76 q 0,-1.64 -0.96,-2.6 -0.92,-0.96 -2.6,-0.96 z"
       style="font-style:normal;font-variant:normal;font-weight:normal;font-stretch:normal;font-size:40px;font-family:'Archivo Black';-inkscape-font-specification:'Archivo Black, Normal';font-variant-ligatures:normal;font-variant-caps:normal;font-variant-numeric:normal;font-variant-east-asian:normal;text-align:end;text-anchor:end"
       id="path1025" />
    <path
       d="m 773.07477,203.46457 q 4.24,0 7.16,1.68 2.96,1.64 2.96,5.12 h -7.4 q 0,-1.16 -1.04,-1.64 -0.72,-0.4 -1.8,-0.4 -2.88,0 -2.88,1.36 0,0.76 1,1.08 1,0.32 3.28,0.68 2.8,0.4 4.68,0.96 1.88,0.52 3.28,1.92 1.4,1.36 1.4,3.84 0,4.04 -3.04,5.76 -3,1.72 -7.88,1.72 -2.8,0 -5.28,-0.76 -2.48,-0.8 -4.04,-2.44 -1.56,-1.64 -1.56,-4.16 h 7.4 v 0.16 q 0.04,1.36 1.12,1.92 1.12,0.52 2.36,0.52 3.32,0 3.32,-1.56 0,-0.8 -1.04,-1.16 -1.04,-0.36 -3.4,-0.76 -2.84,-0.48 -4.68,-1.04 -1.8,-0.56 -3.16,-1.88 -1.36,-1.36 -1.36,-3.76 0,-3.88 2.92,-5.52 2.96,-1.64 7.68,-1.64 z"
       style="font-style:normal;font-variant:normal;font-weight:normal;font-stretch:normal;font-size:40px;font-family:'Archivo Black';-inkscape-font-specification:'Archivo Black, Normal';font-variant-ligatures:normal;font-variant-caps:normal;font-variant-numeric:normal;font-variant-east-asian:normal;text-align:end;text-anchor:end"
       id="path1027" />
    <path
       d="m 512.43102,247.06457 q 7.12,0 11,3.64 3.88,3.64 3.88,10.6 0,6.96 -3.88,10.6 -3.88,3.64 -11,3.64 -7.12,0 -11,-3.6 -3.84,-3.64 -3.84,-10.64 0,-7 3.84,-10.6 3.88,-3.64 11,-3.64 z m 0,6.6 q -2.84,0 -4.32,1.72 -1.48,1.72 -1.48,4.64 v 2.56 q 0,2.92 1.48,4.64 1.48,1.72 4.32,1.72 2.84,0 4.32,-1.72 1.52,-1.72 1.52,-4.64 v -2.56 q 0,-2.92 -1.52,-4.64 -1.48,-1.72 -4.32,-1.72 z"
       style="font-style:normal;font-variant:normal;font-weight:normal;font-stretch:normal;font-size:40px;font-family:'Archivo Black';-inkscape-font-specification:'Archivo Black, Normal';font-variant-ligatures:normal;font-variant-caps:normal;font-variant-numeric:normal;font-variant-east-asian:normal;text-align:end;text-anchor:end"
       id="path1029" />
    <path
       d="m 546.11039,253.46457 q 3.68,0 5.52,2.04 1.84,2.04 1.84,5.88 v 13.68 h -7.96 v -12.72 q 0,-1.36 -0.72,-2.16 -0.68,-0.84 -1.96,-0.84 -1.48,0 -2.4,0.96 -0.92,0.96 -0.92,2.36 v 12.4 h -7.96 v -21.12 h 6.52 l 0.52,3.2 q 1.24,-1.68 3.24,-2.68 2.04,-1 4.28,-1 z"
       style="font-style:normal;font-variant:normal;font-weight:normal;font-stretch:normal;font-size:40px;font-family:'Archivo Black';-inkscape-font-specification:'Archivo Black, Normal';font-variant-ligatures:normal;font-variant-caps:normal;font-variant-numeric:normal;font-variant-east-asian:normal;text-align:end;text-anchor:end"
       id="path1031" />
    <path
       d="m 558.54914,275.06457 v -29 h 7.96 v 29 z"
       style="font-style:normal;font-variant:normal;font-weight:normal;font-stretch:normal;font-size:40px;font-family:'Archivo Black';-inkscape-font-specification:'Archivo Black, Normal';font-variant-ligatures:normal;font-variant-caps:normal;font-variant-numeric:normal;font-variant-east-asian:normal;text-align:end;text-anchor:end"
       id="path1033" />
    <path
       d="m 571.90852,251.46457 v -5.4 h 7.96 v 5.4 z m 0,23.6 v -21.12 h 7.96 v 21.12 z"
       style="font-style:normal;font-variant:normal;font-weight:normal;font-stretch:normal;font-size:40px;font-family:'Archivo Black';-inkscape-font-specification:'Archivo Black, Normal';font-variant-ligatures:normal;font-variant-caps:normal;font-variant-numeric:normal;font-variant-east-asian:normal;text-align:end;text-anchor:end"
       id="path1035" />
    <path
       d="m 599.54789,253.46457 q 3.68,0 5.52,2.04 1.84,2.04 1.84,5.88 v 13.68 h -7.96 v -12.72 q 0,-1.36 -0.72,-2.16 -0.68,-0.84 -1.96,-0.84 -1.48,0 -2.4,0.96 -0.92,0.96 -0.92,2.36 v 12.4 h -7.96 v -21.12 h 6.52 l 0.52,3.2 q 1.24,-1.68 3.24,-2.68 2.04,-1 4.28,-1 z"
       style="font-style:normal;font-variant:normal;font-weight:normal;font-stretch:normal;font-size:40px;font-family:'Archivo Black';-inkscape-font-specification:'Archivo Black, Normal';font-variant-ligatures:normal;font-variant-caps:normal;font-variant-numeric:normal;font-variant-east-asian:normal;text-align:end;text-anchor:end"
       id="path1037" />
    <path
       d="m 622.62664,253.46457 q 5.8,0 8.84,2.72 3.08,2.72 3.08,8.32 v 1.36 h -15.84 q 0,2.28 1,3.44 1.04,1.16 3.24,1.16 2,0 2.92,-0.84 0.96,-0.84 0.96,-2.24 h 7.72 q 0,3.84 -2.92,6 -2.92,2.16 -8.52,2.16 -5.88,0 -9.12,-2.72 -3.24,-2.76 -3.24,-8.32 0,-5.44 3.16,-8.24 3.16,-2.8 8.72,-2.8 z m 0.32,5.08 q -3.76,0 -4.2,3.56 h 7.76 q 0,-1.64 -0.96,-2.6 -0.92,-0.96 -2.6,-0.96 z"
       style="font-style:normal;font-variant:normal;font-weight:normal;font-stretch:normal;font-size:40px;font-family:'Archivo Black';-inkscape-font-specification:'Archivo Black, Normal';font-variant-ligatures:normal;font-variant-caps:normal;font-variant-numeric:normal;font-variant-east-asian:normal;text-align:end;text-anchor:end"
       id="path1039" />
    <path
       d="m 637.58539,267.22457 v -6.32 h 10.2 v 6.32 z"
       style="font-style:normal;font-variant:normal;font-weight:normal;font-stretch:normal;font-size:40px;font-family:'Archivo Black';-inkscape-font-specification:'Archivo Black, Normal';font-variant-ligatures:normal;font-variant-caps:normal;font-variant-numeric:normal;font-variant-east-asian:normal;text-align:end;text-anchor:end"
       id="path1041" />
    <path
       d="m 665.46477,247.06457 q 6.12,0 9.68,3.08 3.56,3.04 3.56,8.72 h -8.44 q 0,-2.4 -1.28,-3.8 -1.24,-1.4 -3.56,-1.4 -2.68,0 -3.96,1.68 -1.24,1.68 -1.24,4.68 v 2.56 q 0,2.96 1.24,4.68 1.28,1.68 3.88,1.68 2.56,0 3.88,-1.32 1.32,-1.32 1.32,-3.72 h 8.16 q 0,5.64 -3.48,8.64 -3.44,3 -9.76,3 -7.04,0 -10.68,-3.6 -3.6,-3.6 -3.6,-10.64 0,-7.04 3.6,-10.64 3.64,-3.6 10.68,-3.6 z"
       style="font-style:normal;font-variant:normal;font-weight:normal;font-stretch:normal;font-size:40px;font-family:'Archivo Black';-inkscape-font-specification:'Archivo Black, Normal';font-variant-ligatures:normal;font-variant-caps:normal;font-variant-numeric:normal;font-variant-east-asian:normal;text-align:end;text-anchor:end"
       id="path1043" />
    <path
       d="m 690.83852,256.14457 q 1.28,-1.28 3,-1.96 1.72,-0.72 3.6,-0.72 3.68,0 5.52,2.04 1.84,2.04 1.84,5.88 v 13.68 h -7.96 v -12.72 q 0,-1.36 -0.72,-2.16 -0.68,-0.84 -1.96,-0.84 -1.48,0 -2.4,0.96 -0.92,0.96 -0.92,2.36 v 12.4 h -7.96 v -29 h 7.96 z"
       style="font-style:normal;font-variant:normal;font-weight:normal;font-stretch:normal;font-size:40px;font-family:'Archivo Black';-inkscape-font-specification:'Archivo Black, Normal';font-variant-ligatures:normal;font-variant-caps:normal;font-variant-numeric:normal;font-variant-east-asian:normal;text-align:end;text-anchor:end"
       id="path1045" />
    <path
       d="m 720.03727,253.46457 q 4.84,0 7.88,1.64 3.04,1.6 3.04,5.24 v 8.24 q 0,0.68 0.32,1.12 0.32,0.44 0.96,0.44 h 1.44 v 4.6 q -0.12,0.08 -0.64,0.28 -0.48,0.16 -1.4,0.32 -0.92,0.2 -2.12,0.2 -2.32,0 -3.84,-0.68 -1.48,-0.72 -2.04,-1.96 -1.52,1.2 -3.4,1.92 -1.88,0.72 -4.4,0.72 -7.44,0 -7.44,-5.92 0,-3.08 1.64,-4.68 1.68,-1.64 4.8,-2.24 3.12,-0.6 8.16,-0.6 v -1.04 q 0,-1.24 -0.88,-1.88 -0.84,-0.64 -2.2,-0.64 -1.24,0 -2.16,0.44 -0.88,0.44 -0.88,1.4 v 0.16 h -7.84 q -0.04,-0.2 -0.04,-0.56 0,-3 2.84,-4.76 2.88,-1.76 8.2,-1.76 z m 2.96,12.4 q -3.4,0 -5.04,0.76 -1.6,0.72 -1.6,1.96 0,2 2.72,2 1.56,0 2.72,-0.84 1.2,-0.84 1.2,-2.08 z"
       style="font-style:normal;font-variant:normal;font-weight:normal;font-stretch:normal;font-size:40px;font-family:'Archivo Black';-inkscape-font-specification:'Archivo Black, Normal';font-variant-ligatures:normal;font-variant-caps:normal;font-variant-numeric:normal;font-variant-east-asian:normal;text-align:end;text-anchor:end"
       id="path1047" />
    <path
       d="m 747.23602,253.46457 q 5.56,0 8.72,2.84 3.2,2.8 3.2,8.2 0,5.4 -3.2,8.24 -3.16,2.8 -8.72,2.8 -5.56,0 -8.72,-2.8 -3.16,-2.8 -3.16,-8.24 0,-5.44 3.16,-8.24 3.16,-2.8 8.72,-2.8 z m 0,5.4 q -3.92,0 -3.92,4.52 v 2.28 q 0,4.48 3.92,4.48 3.96,0 3.96,-4.48 v -2.28 q 0,-4.52 -3.96,-4.52 z"
       style="font-style:normal;font-variant:normal;font-weight:normal;font-stretch:normal;font-size:40px;font-family:'Archivo Black';-inkscape-font-specification:'Archivo Black, Normal';font-variant-ligatures:normal;font-variant-caps:normal;font-variant-numeric:normal;font-variant-east-asian:normal;text-align:end;text-anchor:end"
       id="path1049" />
    <path
       d="m 773.07477,253.46457 q 4.24,0 7.16,1.68 2.96,1.64 2.96,5.12 h -7.4 q 0,-1.16 -1.04,-1.64 -0.72,-0.4 -1.8,-0.4 -2.88,0 -2.88,1.36 0,0.76 1,1.08 1,0.32 3.28,0.68 2.8,0.4 4.68,0.96 1.88,0.52 3.28,1.92 1.4,1.36 1.4,3.84 0,4.04 -3.04,5.76 -3,1.72 -7.88,1.72 -2.8,0 -5.28,-0.76 -2.48,-0.8 -4.04,-2.44 -1.56,-1.64 -1.56,-4.16 h 7.4 v 0.16 q 0.04,1.36 1.12,1.92 1.12,0.52 2.36,0.52 3.32,0 3.32,-1.56 0,-0.8 -1.04,-1.16 -1.04,-0.36 -3.4,-0.76 -2.84,-0.48 -4.68,-1.04 -1.8,-0.56 -3.16,-1.88 -1.36,-1.36 -1.36,-3.76 0,-3.88 2.92,-5.52 2.96,-1.64 7.68,-1.64 z"
       style="font-style:normal;font-variant:normal;font-weight:normal;font-stretch:normal;font-size:40px;font-family:'Archivo Black';-inkscape-font-specification:'Archivo Black, Normal';font-variant-ligatures:normal;font-variant-caps:normal;font-variant-numeric:normal;font-variant-east-asian:normal;text-align:end;text-anchor:end"
       id="path1051" />
  </g>
</svg>
