<?xml version="1.0" encoding="utf-8"?>
<!-- Generator: Adobe Illustrator 26.0.1, SVG Export Plug-In . SVG Version: 6.00 Build 0)  -->
<svg version="1.1" id="Capa_1" xmlns="http://www.w3.org/2000/svg" xmlns:xlink="http://www.w3.org/1999/xlink" x="0px" y="0px"
	 viewBox="0 0 318.8 183.8" style="enable-background:new 0 0 318.8 183.8;" xml:space="preserve">
<style type="text/css">
	.st0{fill:#8D172D;}
	.st1{fill:#FFFFFF;}
	.st2{fill:#178D38;}
	.st3{fill:none;}
	.st4{fill:#3D0F17;}
</style>
<path class="st0" d="M65.2,98.8L47.6,81.1l0,0l-5.4-5.4c0,0-5.3-6.7-15,3S23,93.3,23,93.3l3.1,3.1l4.5-4.5c0,0,5.2-5.5,10.5-0.2
	l8.9,8.9c0,0,0.2,0.2,0.4,0.4l2.6,2.5v17.9l12.3-12L65.2,98.8z"/>
<path class="st1" d="M53.5,121.3h-1v-17.7l-2.4-2.4c-0.1-0.1-0.3-0.3-0.4-0.4L40.8,92c-1.2-1.3-2.9-2.1-4.7-2.2
	c-1.9,0.2-3.8,1-5.1,2.4l-4.9,4.9l-3.5-3.5c-1.1-1.1-1.7-2.7-1.7-4.3c-0.1-3.3,1.9-7,5.9-11c3.8-3.8,7.3-5.6,10.7-5.4
	c2,0.1,3.8,1,5.1,2.4l23.2,23.1v10.8h-1V99L41.8,76c-1.2-1.2-2.7-1.9-4.4-2c-3-0.2-6.3,1.6-9.9,5.1c-3.7,3.7-5.7,7.3-5.6,10.2
	c0,1.3,0.5,2.6,1.4,3.6l2.8,2.8l4.1-4.2c1.5-1.6,3.6-2.5,5.8-2.7h0.1c2,0.1,3.9,0.9,5.3,2.4l8.9,8.9c0,0,0.2,0.2,0.4,0.4l2.7,2.7
	L53.5,121.3z"/>
<path class="st2" d="M81,32.5l-3.1,3.1l4.5,4.5c0,0,5.5,5.2,0.2,10.5l-8.9,8.9c0,0-0.2,0.2-0.4,0.4l-2.5,2.5H53v14.3
	c-3.8-0.1-9.4,1.8-17,9.4c-15.5,15.5-7.6,21.4-7.6,21.4l7.1,7l0.1,0.1l0,0L50.3,100L65,85.4l0,0V74.8h10.6l17.7-17.7l0,0l5.4-5.4
	c0,0,6.7-5.3-3-15S81,32.5,81,32.5z M36.7,98.4L36.7,98.4c0.2,0.1,0.4,0.2,0.6,0.3h0.1c0.2,0.1,0.4,0.3,0.6,0.5
	c1.5,1.4,1.6,3.8,0.2,5.3c-1.4,1.5-3.8,1.6-5.3,0.2c-0.1-0.1-0.1-0.1-0.2-0.2c-0.2-0.2-0.4-0.4-0.5-0.6c0,0,0-0.1-0.1-0.1
	c-0.1-0.2-0.2-0.4-0.3-0.6l0,0c-0.2-0.5-0.3-1-0.3-1.5c0-2,1.6-3.6,3.6-3.6C35.7,98.1,36.2,98.2,36.7,98.4z"/>
<path class="st1" d="M35.5,115.3l-0.3-0.4l-7-7c-1.3-1.2-2-2.9-2.1-4.6c-0.3-3.3,1.2-8.9,9.6-17.3c6.3-6.3,12-9.5,16.8-9.5V62.1
	h18.1l2.4-2.4c0.1-0.2,0.3-0.3,0.4-0.4l8.8-8.9c1.4-1.2,2.2-2.9,2.2-4.8c-0.2-2-1-3.8-2.4-5.2l-4.8-4.8l3.4-3.4
	c1.1-1.1,2.6-1.7,4.2-1.7c3.3-0.1,7,1.8,10.9,5.8c3.8,3.8,5.6,7.3,5.4,10.6c-0.1,1.9-0.9,3.7-2.4,5L75.7,75.1H65.3v10.1l0.2,0.2
	l-0.3,0.3L35.5,115.3L35.5,115.3L35.5,115.3z M52.7,77.2c-4.7,0-10.2,3.1-16.4,9.3c-8.2,8.2-9.7,13.6-9.5,16.7
	c0,1.6,0.7,3.1,1.8,4.1l6.9,6.9l29-29V74.4h10.8l23-23c1.3-1.2,2-2.8,2.1-4.5c0.2-3-1.6-6.4-5.2-10c-3.8-3.7-7.4-5.6-10.4-5.5
	c-1.4,0-2.7,0.5-3.7,1.5l0,0l-2.8,2.8l4.2,4.2c1.5,1.5,2.5,3.6,2.6,5.7c0,2.1-0.9,4-2.4,5.4L74,59.8c0,0-0.2,0.2-0.4,0.4L71,62.9
	H53.3v14.4L52.7,77.2L52.7,77.2z M35.5,106.1c-1.1,0-2.2-0.5-3-1.3c-0.2-0.2-0.4-0.4-0.6-0.7l0-0.1c-0.1-0.2-0.2-0.4-0.4-0.7
	c-0.2-0.5-0.3-1.1-0.3-1.7c0-2.2,1.8-4,4-4c0.5,0,1.1,0.1,1.6,0.3l0,0c0.2,0.1,0.5,0.2,0.7,0.3l0.1,0.1c0.2,0.2,0.5,0.3,0.7,0.6
	c0.8,0.8,1.3,1.9,1.3,3c0,1.1-0.4,2.2-1.2,3C37.6,105.7,36.6,106.1,35.5,106.1z M32.6,103.8c0.1,0.2,0.3,0.4,0.5,0.6
	c1.3,1.4,3.5,1.4,4.8,0.1c0.7-0.6,1-1.5,1-2.4c0-0.9-0.4-1.8-1-2.4c-0.2-0.2-0.4-0.3-0.6-0.5h-0.1c-0.2-0.1-0.4-0.2-0.5-0.3l0,0
	c-0.4-0.2-0.9-0.2-1.3-0.2c-1.8,0-3.3,1.4-3.3,3.2c0,0.5,0.1,0.9,0.2,1.3C32.3,103.3,32.4,103.5,32.6,103.8l-0.3,0.1L32.6,103.8z"/>
<path class="st0" d="M143.1,90.5l-3.1-3.1l-4.5,4.5c0,0-5.2,5.5-10.5,0.2l-8.9-8.9c0,0-0.2-0.2-0.4-0.4l-2.5-2.5V62.5H98.8
	c0.1-3.8-1.8-9.4-9.4-17C73.9,30.1,68,37.9,68,37.9L61,45l-0.1,0.1l0,0l14.7,14.8l14.7,14.6h10.6v10.6l17.7,17.7l0,0l5.4,5.4
	c0,0,5.3,6.7,15-3S143.1,90.5,143.1,90.5z M77.2,46.2L77.2,46.2c-0.1,0.2-0.2,0.4-0.3,0.6v0.1c-0.2,0.2-0.3,0.4-0.5,0.6
	c-1.5,1.5-3.8,1.5-5.3,0.1s-1.5-3.8-0.1-5.3c0.2-0.2,0.4-0.4,0.6-0.5h0.1c0.2-0.1,0.4-0.2,0.6-0.3l0,0c0.5-0.2,1-0.3,1.5-0.3
	c1,0,1.9,0.4,2.6,1.1c0.7,0.7,1.1,1.6,1.1,2.6C77.4,45.3,77.4,45.8,77.2,46.2z"/>
<path class="st1" d="M129.1,110.9h-0.5c-2-0.1-3.8-1-5.1-2.4l-23.2-23.2V75h-9.9l-0.2,0.2l-0.4-0.3L60.1,45.1l0,0l0,0l0.5-0.4l7-7
	c1.2-1.3,2.9-2.1,4.7-2.1c3.3-0.2,9,1.3,17.4,9.7c6.3,6.2,9.5,11.8,9.6,16.8h14.3v18.2l2.4,2.4c0.2,0.1,0.3,0.3,0.4,0.4l8.9,8.8
	c1.2,1.4,2.9,2.2,4.7,2.2c1.9-0.2,3.8-1,5.1-2.4l4.9-4.9l3.5,3.5c1.1,1.1,1.7,2.7,1.7,4.3c0.1,3.3-1.9,7-5.9,11
	C135.7,109.1,132.3,110.9,129.1,110.9z M118.8,102.3l0.1,0.1l5.4,5.4c1.1,1.3,2.7,2,4.4,2.1c3,0.2,6.3-1.6,9.9-5.1
	c3.7-3.7,5.7-7.3,5.6-10.2c0-1.3-0.5-2.6-1.4-3.6l0,0l-2.7-2.8l-4.1,4.2c-1.5,1.6-3.6,2.6-5.9,2.7c-2.1,0-4-0.9-5.4-2.4l-8.9-8.9
	c-0.1-0.1-0.3-0.3-0.4-0.4l-2.7-2.7V63H98.3v-0.5c0.1-4.7-3.1-10.4-9.3-16.6c-8.2-8.2-13.5-9.6-16.6-9.5c-1.5,0-3,0.7-4.1,1.8
	l-6.8,6.9L90.5,74h10.9v10.9L118.8,102.3z M73.6,49.2c-1.1,0-2.2-0.4-3-1.2c-1.7-1.7-1.6-4.4,0.1-6.1c0.2-0.2,0.5-0.4,0.7-0.6
	l0.1-0.1c0.2-0.1,0.4-0.2,0.7-0.3c0.5-0.2,1.1-0.3,1.7-0.3c2.3,0,4.1,1.8,4.2,4.1c0,0.6-0.1,1.1-0.3,1.6v0.1
	c-0.1,0.2-0.2,0.5-0.3,0.7c0,0,0,0.1-0.1,0.1c-0.2,0.3-0.4,0.5-0.6,0.7c-0.8,0.8-1.9,1.3-3,1.3H73.6z M73.8,41.6
	c-0.4,0-0.8,0.1-1.2,0.2c-0.2,0.1-0.4,0.2-0.6,0.3h-0.1c-0.2,0.1-0.4,0.3-0.5,0.4c-1.3,1.3-1.3,3.4-0.1,4.7c0.6,0.6,1.4,1,2.3,0.9
	c0.9,0,1.7-0.4,2.4-1c0.2-0.2,0.3-0.4,0.4-0.5c0,0,0-0.1,0-0.1c0.1-0.2,0.2-0.3,0.3-0.5l0,0c0.2-0.4,0.3-0.8,0.3-1.3
	c0-0.8-0.3-1.6-0.9-2.2C75.5,42,74.7,41.6,73.8,41.6L73.8,41.6z"/>
<path class="st2" d="M85.1,151.3l3.1-3.1l-4.5-4.5c0,0-5.5-5.2-0.2-10.5l8.9-8.9c0,0,0.2-0.2,0.4-0.4l2.5-2.5h17.9V107
	c3.8,0.1,9.4-1.8,17-9.4c15.5-15.5,7.6-21.4,7.6-21.4l-7.1-7l-0.1-0.1l0,0l-14.8,14.7l-14.6,14.6l0,0v10.6H90.5l-17.7,17.7l0,0
	l-5.4,5.4c0,0-6.7,5.3,3,15S85.1,151.3,85.1,151.3z M129.4,85.4L129.4,85.4c-0.2-0.1-0.4-0.2-0.6-0.3h-0.1c-0.2-0.2-0.4-0.3-0.6-0.5
	c-1.5-1.4-1.7-3.8-0.3-5.3c1.4-1.5,3.8-1.7,5.3-0.3c0.1,0.1,0.2,0.2,0.3,0.3c0.2,0.2,0.4,0.4,0.5,0.6c0,0,0,0.1,0.1,0.1
	c0.1,0.2,0.2,0.4,0.3,0.6l0,0c0.2,0.5,0.3,1,0.3,1.5c0,2-1.6,3.6-3.6,3.6C130.4,85.7,129.9,85.6,129.4,85.4z"/>
<path class="st1" d="M80.9,153.3c-3.2,0-6.8-2-10.7-5.8s-5.6-7.3-5.4-10.6c0.1-1.9,0.9-3.7,2.4-5l23.1-23.2h10.4V98.6l-0.1-0.1
	l0.2-0.3l29.7-29.7l0,0l0,0l0.3,0.4l7,7c1.3,1.2,2.1,2.8,2.1,4.6c0.2,3.2-1.3,8.9-9.7,17.3c-6.3,6.3-12,9.5-16.8,9.5v14.3H95.4
	l-2.4,2.4c-0.2,0.3-0.4,0.4-0.4,0.4l-8.9,8.9c-1.4,1.2-2.2,3-2.2,4.8c0.2,2,1,3.8,2.4,5.2l4.8,4.8l-3.4,3.4
	c-1.1,1.1-2.6,1.7-4.2,1.7L80.9,153.3z M73.2,126.9l-0.1,0.1l-5.4,5.4c-1.3,1.2-2,2.8-2.1,4.5c-0.2,3,1.6,6.4,5.1,10
	c3.8,3.8,7.4,5.7,10.4,5.6c1.4,0,2.7-0.6,3.7-1.5l0,0l2.9-2.9l-4.2-4.2c-1.6-1.5-2.5-3.6-2.6-5.7c0-2,0.9-4,2.4-5.3l8.9-8.9
	c0,0,0.2-0.2,0.4-0.4l2.7-2.6h17.7v-14.4h0.4c4.8,0.1,10.4-3,16.7-9.3c8.2-8.2,9.7-13.6,9.5-16.7c0-1.6-0.7-3-1.8-4.1l-6.9-6.9
	l-29,29v10.8H90.7L73.2,126.9z M130.8,86.1c-0.5,0-1-0.1-1.5-0.3l0,0c-0.2-0.1-0.5-0.2-0.7-0.3l-0.1-0.1c-0.2-0.2-0.5-0.3-0.7-0.6
	c-0.8-0.8-1.3-1.9-1.3-3c0-1.1,0.4-2.2,1.2-3c1.7-1.6,4.3-1.6,5.9,0.1c0.2,0.2,0.4,0.4,0.6,0.7l0.1,0.1c0.1,0.2,0.3,0.4,0.4,0.7
	c0.2,0.5,0.3,1.1,0.3,1.7C134.9,84.2,133.1,86,130.8,86.1L130.8,86.1z M130.6,78.5c-1.8,0-3.3,1.5-3.3,3.3c0,0,0,0.1,0,0.1
	c0,0.9,0.4,1.8,1,2.4c0.2,0.2,0.4,0.3,0.6,0.5h0.1c0.2,0.1,0.4,0.2,0.5,0.3l0,0c1.7,0.7,3.7-0.2,4.3-1.9c0.3-0.8,0.3-1.7,0-2.5
	c-0.1-0.2-0.2-0.4-0.3-0.6l0.3-0.2l-0.4,0.1c-0.1-0.2-0.3-0.4-0.4-0.6C132.3,78.8,131.5,78.5,130.6,78.5L130.6,78.5z"/>
<path class="st3" d="M89.7,136.2c-0.2,0.2-0.4,0.4-0.5,0.6l-0.1,0.1c-0.1,0.2-0.2,0.4-0.3,0.6l0,0c-0.2,0.5-0.3,1-0.3,1.5
	c0,2,1.6,3.6,3.6,3.6c0.5,0,1-0.1,1.5-0.3l0,0c0.2-0.1,0.4-0.2,0.6-0.3l0.1-0.1c0.2-0.1,0.4-0.3,0.6-0.5c1.5-1.4,1.6-3.8,0.2-5.3
	c-1.4-1.5-3.8-1.6-5.3-0.2C89.8,136.1,89.8,136.2,89.7,136.2L89.7,136.2z"/>
<path class="st0" d="M105.2,138.8L90.5,124l-14.6-14.7H65.2l-12.2,12h14.3c-0.1,3.8,1.8,9.4,9.4,17c15.5,15.5,21.4,7.6,21.4,7.6
	l7-7.1L105.2,138.8L105.2,138.8L105.2,138.8z M95.1,141.6c-0.2,0.2-0.4,0.4-0.6,0.5l-0.1,0.1c-0.2,0.1-0.4,0.2-0.6,0.3l0,0
	c-0.5,0.2-1,0.3-1.5,0.3c-2,0-3.6-1.6-3.6-3.6c0-0.5,0.1-1,0.3-1.5l0,0c0.1-0.2,0.2-0.4,0.3-0.6l0.1-0.1c0.1-0.2,0.3-0.4,0.5-0.6
	c1.4-1.5,3.8-1.6,5.3-0.2c1.5,1.4,1.6,3.8,0.2,5.3C95.2,141.5,95.1,141.5,95.1,141.6L95.1,141.6z"/>
<path class="st1" d="M93.2,148.4c-3.4,0-8.8-1.8-16.8-9.8c-6.2-6.2-9.5-11.9-9.6-16.8H53v-1h14.8v0.5c-0.1,4.7,3.1,10.4,9.3,16.6
	c8.2,8.2,13.5,9.6,16.6,9.4c1.5,0,3-0.7,4.1-1.8l6.8-6.9l0,0l0,0l-28.9-28.9H64.8v-1h10.9l0.2-0.2l0.4,0.3l29.8,29.8l0,0l-0.5,0.4
	l-7,7c-1.2,1.3-2.9,2.1-4.7,2.1C93.6,148.4,93.4,148.4,93.2,148.4z M92.3,143.2L92.3,143.2c-2.3,0-4.2-1.9-4.2-4.1
	c0-0.6,0.1-1.1,0.3-1.6c0.1-0.3,0.2-0.5,0.4-0.7l0.1-0.1c1.3-2,4-2.6,6-1.3c0.2,0.1,0.4,0.3,0.6,0.5c0.8,0.8,1.2,1.9,1.2,3
	c0,1.1-0.5,2.2-1.3,3c-0.2,0.2-0.4,0.4-0.7,0.6l-0.1,0.1c-0.2,0.1-0.4,0.2-0.7,0.4C93.4,143,92.9,143.2,92.3,143.2L92.3,143.2z
	 M92.5,135.6c-0.9,0-1.8,0.4-2.4,1c-0.2,0.2-0.3,0.4-0.4,0.6v0.1c-0.1,0.2-0.2,0.3-0.3,0.5c-0.2,0.4-0.2,0.9-0.2,1.3
	c0,0.8,0.3,1.6,0.9,2.2c0.6,0.6,1.4,0.9,2.2,0.9c0.4,0,0.9-0.1,1.3-0.2c0.2-0.1,0.4-0.2,0.6-0.3h0.1c0.2-0.1,0.4-0.3,0.5-0.4l0,0
	c0.6-0.6,1-1.5,1-2.4c0-1.8-1.4-3.2-3.1-3.2C92.6,135.7,92.6,135.6,92.5,135.6L92.5,135.6z"/>
<path class="st4" d="M160.3,108.1l-0.1-1.8c-0.1-1.4-0.7-2.9-1.7-2.9c-1.7,0-2.1,1.8-2.1,6.9v3.4c0,4.1,0.6,7.2,2,7.2h0.1
	c0.6-0.1,1.1-0.6,1-1.2V113l-1.7-0.2V112h3.6v9.4h-1.5l-0.2-0.5c-0.5,0.6-1.2,0.9-2,0.8c-2.6,0-4.3-3-4.3-10.2v0.2
	c0-6.2,1.3-9.1,4.3-9.1c0.6,0,1.2,0.2,1.6,0.5c0.2,0.1,0.4,0.3,0.6,0.5h0.1c0,0,0.1,0,0.1,0c0,0,0.1,0,0.1,0h0.1l0.8-1h0.3v5.5
	L160.3,108.1z"/>
<path class="st4" d="M173.9,120.7l0.3,0.6c-0.1,0.2-0.6,0.4-1.3,0.4c-1.6,0-2.7-0.7-2.7-2.9v-3.4c0-0.1,0-0.2,0-0.2
	c0-0.9-0.5-2.4-1.9-2.4h-1v8h0.6v0.7h-4.1v-0.7h0.9v-17.3h-0.9v-0.7h4.5c2.5,0,4.8,1.4,4.8,4.4c0.1,1.5-0.3,2.9-1.1,4.1
	c-0.3,0.4-0.6,0.7-1.1,0.9c-0.1,0-0.1,0-0.1,0.1c0,0.1,0,0.1,0.1,0.1c0.4,0.3,0.8,0.6,1.1,0.9c0.7,0.8,1.1,1.8,1.1,2.9v3.4
	c0,0.5,0.1,1,0.5,1C173.6,120.8,173.7,120.8,173.9,120.7z M170.1,106.6c0-1.5-0.6-3.1-1.9-3.1h-1v8.5h1c1.2,0,1.9-1.4,1.9-3.3V106.6
	z"/>
<path class="st4" d="M177,121.5h-3.1v-0.7h1.1l4.4-18h1.6l4,18h0.9v0.7H181v-0.7h1l-0.6-3.2h-4.6l-0.7,3.2h0.8V121.5z M177.1,117
	h4.1l-2.1-9.4l-0.3,1.8L177.1,117z"/>
<path class="st4" d="M194.6,102.9h3.2v0.7h-1v17.9h-2.2l-5.7-12.5v11.8h1.1v0.7h-3.2v-0.7h1.1v-17.4h-1.1v-0.7h2.4l6.4,13.2v-12.4
	h-1.1L194.6,102.9z"/>
<path class="st4" d="M200.8,121.5h-3.1v-0.7h1.1l4.4-18h1.6l4,18h0.9v0.7h-4.9v-0.7h1l-0.6-3.2h-4.6l-0.7,3.2h0.8L200.8,121.5z
	 M200.9,117h4.1l-2.1-9.4l-0.3,1.8L200.9,117z"/>
<path class="st4" d="M215.9,102.8c2.9,0,5.2,3.3,5.2,9c0,6.5-1.1,9.6-5.2,9.6h-4.8v-0.7h0.9v-17.3h-0.9v-0.7H215.9z M218.2,110.8
	c0-2.5-0.4-7.4-2.4-7.4h-1.2v17.3h1.2c2.3,0,2.4-6,2.4-8.7V110.8z"/>
<path class="st4" d="M223.9,121.5h-3.1v-0.7h1.2l4.4-18h1.6l4,18h0.9v0.7H228v-0.7h1l-0.6-3.2h-4.6l-0.7,3.2h0.8L223.9,121.5z
	 M224.1,117h4.1l-2.1-9.4l-0.3,1.8L224.1,117z"/>
<path class="st4" d="M243.6,102.6c2.3-0.1,4.2,1.7,4.3,4c0,0.1,0,0.3,0,0.4c0,5.3-6.1,8.6-6.7,12.2h3.8c1.1,0,1.9-0.5,2.1-2.2h0.6
	l-0.3,4.5h-7.9c0-6.2,5.5-10.4,5.5-14.9c0-2.2-0.6-3.2-1.9-3.2c-0.9-0.1-1.8,0.6-2,1.5c0.7,0.1,1.2,0.7,1.1,1.3
	c0,0.8-0.7,1.4-1.4,1.4c0,0,0,0,0,0c-0.8,0-1.4-0.6-1.4-1.4c0,0,0,0,0,0c0-2.1,1.8-3.8,3.9-3.7C243.5,102.6,243.6,102.6,243.6,102.6
	z"/>
<path class="st4" d="M255.2,102.6c3.2,0,4.4,4.3,4.4,9.2c0,5.7-1.1,9.9-4.3,9.9h-0.6c-3,0-4.4-4.3-4.4-9.9c0-5,1.3-9.2,4.4-9.2
	H255.2z M256.8,111.8v-0.1c0-3.3-0.3-8.7-2-8.7s-1.9,5.4-1.9,8.7v0.1c0,4.2,0.4,9.4,2.1,9.4C256.5,121.2,256.8,116.1,256.8,111.8z"
	/>
<path class="st4" d="M266.3,102.6c2.3-0.1,4.2,1.7,4.3,4c0,0.1,0,0.3,0,0.4c0,5.3-6.1,8.6-6.7,12.2h3.8c1.1,0,1.9-0.5,2.1-2.2h0.6
	l-0.3,4.5h-7.9c0-6.2,5.5-10.4,5.5-14.9c0-2.2-0.6-3.2-1.9-3.2c-0.9-0.1-1.8,0.6-2,1.5c0.7,0.1,1.2,0.7,1.1,1.3
	c0,0.8-0.7,1.4-1.4,1.4c0,0,0,0,0,0c-0.8,0-1.4-0.6-1.4-1.4c0,0,0,0,0,0c0-2.1,1.8-3.8,3.9-3.7C266.2,102.6,266.3,102.6,266.3,102.6
	z"/>
<path class="st4" d="M277.5,102.6c2.3-0.1,4.2,1.7,4.3,4c0,0.1,0,0.3,0,0.4c0,5.3-6.1,8.6-6.7,12.2h3.8c1.1,0,1.9-0.5,2.1-2.2h0.6
	l-0.3,4.5h-7.9c0-6.2,5.5-10.4,5.5-14.9c0-2.2-0.6-3.2-1.9-3.2c-0.9-0.1-1.8,0.6-2,1.5c0.7,0.1,1.2,0.7,1.1,1.3
	c0,0.8-0.7,1.4-1.4,1.4c0,0,0,0,0,0c-0.8,0-1.4-0.6-1.4-1.4c0,0,0,0,0,0c0-2.1,1.8-3.8,3.9-3.7C277.3,102.6,277.4,102.6,277.5,102.6
	z"/>
<path class="st0" d="M163.5,59.4c3.9,0,9,2.5,9,9.1c0,8.6-3.6,10.6-9.4,10.6h-2v16h1.8v1.2h-8.7v-1.3h1.8V60.7h-1.8v-1.2H163.5z
	 M166.7,65.8c0-2.5-1.2-5-3.6-5h-2v17h2c2.5,0,3.6-2.3,3.6-5.4V65.8z"/>
<path class="st0" d="M187.5,59.4h6.2v1.3h-2.5l-5.6,20v13.9h1.5v1.8h-8.3v-1.8h1.4V78.5L175,60.7h-2.3v-1.3h8.6v1.3H180l4.5,17.5
	h0.1l4.9-17.5h-2L187.5,59.4z"/>
<path class="st0" d="M263.7,59.4v9.3h-1.6v-3c0-3.3-2.9-5-6-5h-1.9v17c2.2,0,4.5-1.1,4.6-3.4v-2.5h1.2v13h-1.1v-2.4
	c-0.1-2.2-2.4-3.4-4.6-3.4V95h2c3.1,0,5.9-1.8,5.9-5v-5.7h1.6v12.1h-16.5V95h1.7V60.7h-1.8v-1.3H263.7z"/>
<path class="st0" d="M270.2,94.8c-0.1-0.1-0.2-0.1-0.3-0.1c-0.1,0-0.2,0-0.3,0.1h0l-1.5,2h-0.9l0.2-10.8h1.9l0.7,6
	c0.3,1,0.7,2.5,2.9,2.5c2.6,0,3.7-2.5,3.7-5.2c0-10.1-10.3-12.5-10.3-23.3c0-4.8,2.8-7.4,7-7.4c1.6-0.1,3.1,0.5,4.2,1.6l0.1,0.1
	c0,0,0.1,0,0.3,0c0.1,0,0.1,0,0.2,0l0.1-0.1l1.2-1.6h0.7v10.8h-1.9l-0.8-6.8c-0.4-1.4-1.7-2.3-3.1-2.2c-2,0-3.1,1.9-3.1,4
	c0,8.4,10.4,10.5,10.4,21c0,8.1-2.8,11.1-7.5,11.1c-1.5,0-2.9-0.6-3.8-1.8C270.2,94.9,270.2,94.9,270.2,94.8z"/>
<path class="st0" d="M200.1,80.6c0,7.2,0.7,10,2.9,10c1.9,0,2.9-3.5,2.9-5.8h1.4c0,3.2-1.1,7-5.3,7c-3.6,0-7-4.2-7.2-14.4
	c0-9,2.5-13.6,6.9-13.6c0.9,0,1.7,0.2,2.4,0.7c0.3,0.2,0.5,0.4,0.7,0.7c0,0,0,0,0.1,0.1c0.1,0,0.1,0,0.2,0c0.1,0,0.2-0.1,0.2-0.1
	l1-1.5h0.5v8h-1.4l-0.2-2.9c-0.2-2-0.7-3.9-2.2-3.9c-2.1,0-3,1.3-3,10.3L200.1,80.6z"/>
<path class="st0" d="M218,63.9c4.6,0,7.5,6.2,7.5,13.7c0,8.6-2.9,14.3-7.5,14.3h-0.8c-4.3,0-7.5-5.8-7.5-14.3
	c0-7.5,3.1-13.7,7.5-13.7H218z M217.9,90.7c2,0,2.4-3.3,2.4-9.4v-7.5c0-4.7-0.4-8.7-2.7-8.7s-2.6,3.9-2.6,8.7v7.5
	c0,6.1,0.4,9.4,2.7,9.4H217.9z"/>
<path class="st0" d="M238.7,64.2h4.4v1.1h-1.4v26h-3l-7.9-17.7v16.6h1.5v1.1h-4.5v-1.1h1.5v-25h-1.5v-1.1h3.4l9,19.2v-18h-1.4
	L238.7,64.2z"/>
<rect x="197.9" y="94.6" class="st2" width="45.1" height="1.8"/>
<rect x="197.9" y="59.4" class="st2" width="45.1" height="1.8"/>
</svg>
