<?xml version="1.0" encoding="UTF-8" standalone="no"?>
<svg
   xmlns:dc="http://purl.org/dc/elements/1.1/"
   xmlns:cc="http://creativecommons.org/ns#"
   xmlns:rdf="http://www.w3.org/1999/02/22-rdf-syntax-ns#"
   xmlns:svg="http://www.w3.org/2000/svg"
   xmlns="http://www.w3.org/2000/svg"
   xmlns:sodipodi="http://sodipodi.sourceforge.net/DTD/sodipodi-0.dtd"
   xmlns:inkscape="http://www.inkscape.org/namespaces/inkscape"
   role="img"
   viewBox="-10.63 -10.63 552.76 356.76"
   version="1.1"
   id="svg14"
   sodipodi:docname="2021-OSS_White_Stacked.svg"
   width="552.76001"
   height="356.76001"
   inkscape:version="0.92.5 (2060ec1f9f, 2020-04-08)">
  <metadata
     id="metadata18">
    <rdf:RDF>
      <cc:Work
         rdf:about="">
        <dc:format>image/svg+xml</dc:format>
        <dc:type
           rdf:resource="http://purl.org/dc/dcmitype/StillImage" />
        <dc:title>OSS_White_Stacked.svg</dc:title>
      </cc:Work>
    </rdf:RDF>
  </metadata>
  <sodipodi:namedview
     pagecolor="#ffffff"
     bordercolor="#666666"
     borderopacity="1"
     objecttolerance="10"
     gridtolerance="10"
     guidetolerance="10"
     inkscape:pageopacity="0"
     inkscape:pageshadow="2"
     inkscape:window-width="1446"
     inkscape:window-height="982"
     id="namedview16"
     showgrid="false"
     inkscape:zoom="0.93551517"
     inkscape:cx="209.00396"
     inkscape:cy="232.82439"
     inkscape:window-x="147"
     inkscape:window-y="34"
     inkscape:window-maximized="0"
     inkscape:current-layer="svg14" />
  <title
     id="title2">OSS_White_Stacked.svg</title>
  <defs
     id="defs6">
    <style
       id="style4">.cls-1{fill:#fff}</style>
  </defs>
  <rect
     style="fill:#106174;fill-opacity:1;stroke:none;stroke-width:90.22005463;stroke-miterlimit:4;stroke-dasharray:none;stroke-opacity:1"
     id="rect828"
     width="552.76001"
     height="356.76001"
     x="-10.63"
     y="-10.629993"
     ry="0" />
  <path
     d="m 91.88,242.71 a 91.88,91.88 0 1 1 91.88,-91.87 h -32.67 a 59.23,59.23 0 1 0 -59.23,59.23 z"
     class="cls-1"
     id="path8"
     inkscape:connector-curvature="0"
     style="fill:#ffffff" />
  <path
     d="M 91.88,335.85 A 92,92 0 0 1 0,243.97 h 32.65 a 59.23,59.23 0 1 0 59.23,-59.23 v -32.65 a 91.88,91.88 0 0 1 0,183.76 z m 157.59,-234 c 39.74,0 39.74,59.53 0,59.53 -39.74,0 -39.73,-59.53 0,-59.53 z m 0,11.88 c -23.1,0 -23.1,35.69 0,35.69 23.1,0 23.1,-35.69 0,-35.69 z m 43.05,46.84 V 102.9 h 22.7 c 22.45,0 22.37,35.62 0,35.62 h -11.13 v 22.05 z m 21.73,-33.27 c 7.75,0 7.75,-12.93 0,-12.93 h -10.16 v 12.93 z m 29.4,33.27 v -57.75 h 28.92 v 11.55 H 355.2 v 11.55 h 15.19 v 11.55 H 355.2 v 11.55 h 18.34 v 11.55 z m 54.68,0 h -11.55 v -59 h 3.07 l 29.16,34 V 102.9 h 11.63 v 58.88 h -3.07 l -29.24,-32.63 z m -173.01,56.34 a 26,26 0 0 0 16.48,4.6 c 3.39,-0.24 6.3,-2.66 6,-5.81 -0.25,-3.31 -2.75,-4.77 -6,-5.9 -9,-3.31 -17.12,-7.91 -17.12,-17.61 0,-9.7 6.7,-17.12 16.31,-17.6 3,-0.16 7,-0.16 14.38,2.42 l -1.46,11.15 c -6.38,-2.59 -10,-2.51 -11.79,-2.43 a 5.72,5.72 0 0 0 -5.73,6.46 c 0.32,3.24 3.15,4.69 6.46,5.82 9,3.31 16.72,8.48 16.72,17.69 0,9.61 -6.62,17 -17.45,17.52 a 36.11,36.11 0 0 1 -18.25,-4.2 z m 74.15,-42.89 c 39.74,0 39.74,59.53 0,59.53 -39.74,0 -39.74,-59.53 0,-59.53 z m 0,11.87 c -23.1,0 -23.1,35.7 0,35.7 23.1,0 23.1,-35.7 0,-35.7 z m 42.73,26.74 v -37.64 h 11.55 v 37.58 c 0,12.11 18.73,12.11 18.73,0 v -37.58 h 11.47 v 37.64 c 0,27.46 -41.75,27.46 -41.75,0 z m 85.69,20.11 -11.63,-22.05 h -5.57 v 22.05 h -11.55 v -57.75 h 22.78 c 20.59,0 22.61,29 5.65,33.92 l 13.41,23.83 z m -17.2,-33.28 h 10.18 c 7.83,0 7.83,-12.92 0,-12.92 h -10.18 z"
     class="cls-1"
     id="path10"
     inkscape:connector-curvature="0"
     style="fill:#ffffff" />
  <path
     d="m 477.81,185.89 c -22.86,0 -22.86,35.22 0,35.22 a 24.71,24.71 0 0 0 11.14,-2.54 l 1.54,12 a 37,37 0 0 1 -12.68,2.42 c -39.17,0 -39.09,-58.63 0,-58.63 a 28,28 0 0 1 11.39,2.21 l -1.38,11.87 a 19.61,19.61 0 0 0 -10.01,-2.55 z m 24.28,46.85 v -57.75 h 29 v 11.58 h -17.42 v 11.55 h 15.18 v 11.55 h -15.18 v 11.55 H 532 v 11.55 z m -276.77,56.34 a 26,26 0 0 0 16.48,4.6 c 3.39,-0.24 6.3,-2.66 6,-5.82 -0.3,-3.16 -2.75,-4.76 -6,-5.89 -9,-3.31 -17.12,-7.92 -17.12,-17.61 0,-9.69 6.7,-17.12 16.31,-17.6 3,-0.17 7,-0.17 14.38,2.42 l -1.46,11.14 c -6.38,-2.58 -10,-2.5 -11.79,-2.42 a 5.71,5.71 0 0 0 -5.73,6.46 c 0.32,3.23 3.15,4.69 6.46,5.82 9,3.31 16.72,8.48 16.72,17.68 0,9.62 -6.62,17 -17.45,17.53 a 36.11,36.11 0 0 1 -18.25,-4.2 z m 46.04,-4.28 v -37.64 h 11.55 v 37.55 c 0,12.12 18.74,12.12 18.74,0 v -37.55 h 11.44 v 37.64 c 0,27.46 -41.73,27.46 -41.73,0 z m 106.21,-38.53 h 3.64 v 58.64 H 369.5 l 0.08,-32.23 -14.78,15.51 -14.78,-15.51 v 32.23 h -11.71 v -58.64 h 3.71 l 22.78,25.36 z m 68.33,0 h 3.64 v 58.64 h -11.71 l 0.08,-32.23 -14.82,15.51 -14.78,-15.51 v 32.23 h -11.67 v -58.64 h 3.71 l 22.74,25.36 z m 19.07,58.64 v -57.75 h 11.55 v 57.75 z m 36.51,0 v -46.2 h -14.39 v -11.47 h 40.3 v 11.47 h -14.36 v 46.2 z M 16.71,0.05000023 a 0.19,0.19 0 0 1 0.21,0.21 V 2.7900002 a 0.19,0.19 0 0 1 -0.21,0.21 H 10.63 V 23.05 a 0.19,0.19 0 0 1 -0.21,0.21 H 7.89 A 0.19,0.19 0 0 1 7.68,23.05 V 3.0000002 H 1.59 a 0.19,0.19 0 0 1 -0.21,-0.21 V 0.26000023 a 0.19,0.19 0 0 1 0.21,-0.21 z m 23.56,0 a 0.19,0.19 0 0 1 0.21,0.21 V 23.05 a 0.19,0.19 0 0 1 -0.21,0.21 h -2.54 a 0.19,0.19 0 0 1 -0.21,-0.21 v -10 H 26.67 v 9.92 a 0.19,0.19 0 0 1 -0.21,0.21 H 23.92 A 0.19,0.19 0 0 1 23.71,22.97 V 0.23000023 a 0.19,0.19 0 0 1 0.21,-0.22 h 2.54 a 0.19,0.19 0 0 1 0.21,0.22 V 10.13 H 37.52 V 0.26000023 a 0.19,0.19 0 0 1 0.21,-0.21 z m 24.59,0 a 0.19,0.19 0 0 1 0.21,0.21 V 2.7900002 a 0.19,0.19 0 0 1 -0.21,0.21 H 52.52 V 10.18 h 8.93 a 0.19,0.19 0 0 1 0.21,0.21 v 2.53 a 0.19,0.19 0 0 1 -0.21,0.21 h -8.93 v 7.18 h 12.34 a 0.19,0.19 0 0 1 0.23,0.26 v 2.53 a 0.19,0.19 0 0 1 -0.21,0.21 H 49.78 A 0.19,0.19 0 0 1 49.57,23.1 V 0.26000023 a 0.19,0.19 0 0 1 0.21,-0.21 z M 96.96,20.29 a 0.19,0.19 0 0 1 0.21,0.21 v 2.55 a 0.19,0.19 0 0 1 -0.21,0.21 H 84.09 A 0.19,0.19 0 0 1 83.88,23.05 V 0.24000023 a 0.19,0.19 0 0 1 0.21,-0.21 h 2.54 a 0.19,0.19 0 0 1 0.21,0.21 V 20.29 Z m 9.88,-20.23999977 a 0.19,0.19 0 0 1 0.21,0.21 V 23.05 a 0.19,0.19 0 0 1 -0.21,0.21 h -2.54 a 0.19,0.19 0 0 1 -0.21,-0.21 V 0.26000023 a 0.19,0.19 0 0 1 0.21,-0.21 z m 25.8,-0.02 a 0.19,0.19 0 0 1 0.21,0.21 V 23.05 a 0.19,0.19 0 0 1 -0.21,0.21 h -1.15 a 0.21,0.21 0 0 1 -0.16,-0.08 L 118.96,6.6600002 V 23.05 a 0.19,0.19 0 0 1 -0.21,0.21 h -2.4 a 0.19,0.19 0 0 1 -0.21,-0.21 V 0.24000023 a 0.19,0.19 0 0 1 0.21,-0.21 h 1.07 a 0.17,0.17 0 0 1 0.16,0.1 L 130.03,16.74 V 0.24000023 a 0.19,0.19 0 0 1 0.21,-0.21 z m 25.45,0.02 a 0.19,0.19 0 0 1 0.21,0.21 V 14.93 a 8,8 0 0 1 -2.4,5.83 8.13,8.13 0 0 1 -5.8,2.5 7.92,7.92 0 0 1 -6,-2.48 8.28,8.28 0 0 1 -2.49,-6 V 0.26000023 a 0.19,0.19 0 0 1 0.21,-0.21 h 2.53 a 0.19,0.19 0 0 1 0.21,0.21 V 14.78 a 5.47,5.47 0 0 0 1.49,3.82 5.38,5.38 0 0 0 9.29,-3.67 V 0.26000023 a 0.19,0.19 0 0 1 0.21,-0.21 z m 24.9,0.01 a 0.19,0.19 0 0 1 0.18,0.12 0.2,0.2 0 0 1 0,0.21 L 176.09,11.68 l 7.07,11.25 a 0.2,0.2 0 0 1 0,0.21 0.19,0.19 0 0 1 -0.18,0.12 h -2.93 a 0.21,0.21 0 0 1 -0.18,-0.1 l -5.5,-8.75 -5.47,8.75 a 0.24,0.24 0 0 1 -0.18,0.1 h -2.94 a 0.19,0.19 0 0 1 -0.17,-0.12 0.17,0.17 0 0 1 0,-0.21 l 7.06,-11.25 -7.1,-11.28999977 a 0.2,0.2 0 0 1 0,-0.21 0.18,0.18 0 0 1 0.18,-0.12 h 2.92 a 0.2,0.2 0 0 1 0.18,0.1 l 5.52,8.79999997 5.55,-8.79999997 a 0.19,0.19 0 0 1 0.18,-0.1 z m 21.1,2.91999997 V 10.13 h 8.78 c 0.15,0 0.22,0.07 0.22,0.21 v 2.54 c 0,0.14 -0.07,0.21 -0.22,0.21 h -8.78 v 10 a 0.19,0.19 0 0 1 -0.21,0.21 h -2.55 a 0.19,0.19 0 0 1 -0.21,-0.21 V 0.23000023 a 0.19,0.19 0 0 1 0.21,-0.22 h 14.09 a 0.19,0.19 0 0 1 0.21,0.22 V 2.7700002 a 0.19,0.19 0 0 1 -0.21,0.21 z m 27.66,-2.92999997 a 11.61,11.61 0 1 1 -8.2,3.39999997 11.17,11.17 0 0 1 8.2,-3.39999997 z M 231.75,20.29 a 8.64,8.64 0 1 0 -6.11,-2.53 8.33,8.33 0 0 0 6.11,2.53 z M 267.54,0.05000023 a 0.19,0.19 0 0 1 0.21,0.21 V 14.93 a 8,8 0 0 1 -2.4,5.83 8.13,8.13 0 0 1 -5.8,2.5 7.92,7.92 0 0 1 -6,-2.48 8.28,8.28 0 0 1 -2.49,-6 V 0.26000023 a 0.19,0.19 0 0 1 0.21,-0.21 h 2.53 a 0.19,0.19 0 0 1 0.21,0.21 V 14.78 a 5.47,5.47 0 0 0 1.49,3.82 5.38,5.38 0 0 0 9.29,-3.67 V 0.26000023 a 0.19,0.19 0 0 1 0.21,-0.21 z m 25.55,-0.02 a 0.19,0.19 0 0 1 0.21,0.21 V 23.05 a 0.19,0.19 0 0 1 -0.21,0.21 h -1.15 a 0.21,0.21 0 0 1 -0.16,-0.08 L 279.41,6.6600002 V 23.05 a 0.19,0.19 0 0 1 -0.21,0.21 h -2.4 a 0.19,0.19 0 0 1 -0.21,-0.21 V 0.24000023 a 0.19,0.19 0 0 1 0.21,-0.21 h 1.07 a 0.2,0.2 0 0 1 0.17,0.1 L 290.48,16.74 V 0.24000023 a 0.19,0.19 0 0 1 0.21,-0.21 z M 309.96,2.3437502e-7 A 11.57,11.57 0 0 1 318.03,19.93 a 11.5,11.5 0 0 1 -8.26,3.33 h -7.17 a 0.19,0.19 0 0 1 -0.21,-0.21 V 0.21000023 A 0.19,0.19 0 0 1 302.6,2.3437502e-7 Z M 309.96,20.29 a 8.67,8.67 0 1 0 0,-17.3299998 h -4.6 V 20.29 Z M 339.2,2.3437502e-7 A 0.18,0.18 0 0 1 339.39,0.13000023 L 348.87,22.97 a 0.17,0.17 0 0 1 0,0.19 0.24,0.24 0 0 1 -0.18,0.1 h -2.6 a 0.2,0.2 0 0 1 -0.2,-0.13 l -3.71,-8.95 h -8.22 l -3.71,8.95 a 0.2,0.2 0 0 1 -0.19,0.13 h -2.6 a 0.24,0.24 0 0 1 -0.18,-0.1 0.19,0.19 0 0 1 0,-0.19 L 336.76,0.13000023 A 0.2,0.2 0 0 1 336.95,2.3437502e-7 Z M 341,11.36 338.08,4.3600002 335.14,11.36 Z M 368.95,0.05000023 a 0.19,0.19 0 0 1 0.21,0.21 V 2.7900002 a 0.19,0.19 0 0 1 -0.21,0.21 h -6.08 V 23.05 a 0.19,0.19 0 0 1 -0.21,0.21 h -2.57 a 0.19,0.19 0 0 1 -0.21,-0.21 V 3.0000002 h -6.09 a 0.19,0.19 0 0 1 -0.21,-0.21 V 0.26000023 a 0.19,0.19 0 0 1 0.21,-0.21 z m 9.76,0 a 0.19,0.19 0 0 1 0.21,0.21 V 23.05 a 0.19,0.19 0 0 1 -0.21,0.21 h -2.55 a 0.19,0.19 0 0 1 -0.21,-0.21 V 0.26000023 a 0.19,0.19 0 0 1 0.21,-0.21 z m 19.23,0 a 11.61,11.61 0 1 1 -8.2,3.39999997 11.17,11.17 0 0 1 8.2,-3.39999997 z M 397.94,20.29 a 8.64,8.64 0 1 0 -6.11,-2.53 8.34,8.34 0 0 0 6.11,2.53 z M 434.09,0.03000023 a 0.19,0.19 0 0 1 0.21,0.21 V 23.05 a 0.19,0.19 0 0 1 -0.21,0.21 h -1.15 a 0.21,0.21 0 0 1 -0.16,-0.08 L 420.41,6.6600002 V 23.05 a 0.19,0.19 0 0 1 -0.21,0.21 h -2.4 a 0.19,0.19 0 0 1 -0.21,-0.21 V 0.24000023 a 0.19,0.19 0 0 1 0.21,-0.21 h 1.07 a 0.17,0.17 0 0 1 0.16,0.1 L 431.48,16.74 V 0.24000023 a 0.19,0.19 0 0 1 0.21,-0.21 z"
     class="cls-1"
     id="path12"
     inkscape:connector-curvature="0"
     style="fill:#ffffff" />
</svg>
