<?xml version="1.0" encoding="utf-8"?>
<svg version="1.1" id="Layer_1" xmlns="http://www.w3.org/2000/svg" x="0" y="0" viewBox="0 0 900 510.13" xml:space="preserve">
  <style>
    .st4{fill:#3f4445}.st5{fill:#6d6e71}
  </style>
  <path d="M569.88 111.54l61.45 96.11a52.76 52.76 0 01-88.2 57.92l-35.63-52.84 62.38-101.19z" fill="#95c748"/>
  <path d="M266.77 208.15l70.91-108.11c20.73-31.61 66.73-32.57 88.77-1.85l47.66 66.46 66.57-7.9 17.42 11.19-63.59 95.93c-20.93 31.58-67.08 32.23-88.89 1.25l-45.47-64.58-93.38 7.61z" fill="#3152a0"/>
  <circle cx="315.88" cy="234.07" r="55.53" fill="#35bfc0"/>
  <circle cx="517.52" cy="130.05" r="55.53" fill="#f38334"/>
  <g>
    <path class="st4" d="M494.13 358.02a28.97 28.97 0 10.01 57.93 28.97 28.97 0 00-.01-57.93zm0 43.47a14.5 14.5 0 110-29.02 14.5 14.5 0 010 29.02zM340.85 358.04a28.97 28.97 0 10.01 57.93 28.97 28.97 0 00-.01-57.93zm0 43.46a14.5 14.5 0 110-29.02 14.5 14.5 0 010 29.02zM306.91 391a7.22 7.22 0 00-14.42 0 10.59 10.59 0 01-21.07 0v-18.51h17.01a7.23 7.23 0 100-14.47h-17.05v-4.92a7.22 7.22 0 00-14.42 0v4.98h-5.84a7.2 7.2 0 100 14.4h5.84V391a25.28 25.28 0 0024.99 24.95A24.96 24.96 0 00306.91 391M460.18 408.7v-26.03a24.92 24.92 0 00-42.7-17.12 24.9 24.9 0 00-42.67 17.19v25.96a7.22 7.22 0 0014.42 0v-25.73a10.6 10.6 0 0121.09 0v25.48a7.52 7.52 0 007.27 7.48 7.38 7.38 0 007.06-7.48v-25.48a10.6 10.6 0 0121.09 0v25.73a7.2 7.2 0 1014.4 0M175.97 408.69v-26.05a24.92 24.92 0 00-42.72-17.08 24.89 24.89 0 00-42.66 17.17v25.96a7.19 7.19 0 1014.4 0v-25.73a10.59 10.59 0 1121.18 0v25.46a7.54 7.54 0 007.29 7.5 7.4 7.4 0 007.06-7.5v-25.46a10.59 10.59 0 0121.07 0v25.73a7.2 7.2 0 1014.4 0"/>
    <path class="st5" d="M567.88 415.59a29.94 29.94 0 01-20.7-8.19 28.38 28.38 0 01-6.26-8.99 27.38 27.38 0 01-2.3-11.23c0-4.02.78-7.82 2.31-11.29a29.34 29.34 0 016.27-9.15 29.1 29.1 0 019.3-6.12 29.58 29.58 0 0111.4-2.22c3.83 0 7.49.65 10.87 1.92a24.73 24.73 0 018.84 5.68 8.78 8.78 0 012.68 5.91 6.48 6.48 0 01-2.28 5.21 8.07 8.07 0 01-3.44 1.96c-.54.12-1.07.18-1.57.18s-.98-.06-1.45-.18a9.23 9.23 0 01-2.77-1.23c-.93-.6-1.8-1.21-2.6-1.82a15 15 0 00-4.9-2.57 15.05 15.05 0 00-4.89-.52c-1.82.09-3.56.57-5.18 1.43a15.45 15.45 0 00-6.99 7.66 12.7 12.7 0 00-1.04 4.94c0 1.61.35 3.24 1.04 4.85.68 1.6 1.62 3.08 2.79 4.4a15.4 15.4 0 004.18 3.31c1.63.89 3.38 1.36 5.21 1.41l.8.02c1.41 0 2.79-.19 4.08-.57 1.55-.45 3.2-1.35 4.9-2.67.8-.6 1.67-1.2 2.59-1.81a8.4 8.4 0 012.76-1.19c.43-.1.87-.15 1.33-.15.54 0 1.11.07 1.69.21a8.8 8.8 0 013.46 1.94 6.54 6.54 0 012.27 5.18 8.67 8.67 0 01-2.68 5.88 25.77 25.77 0 01-8.88 5.77 29.13 29.13 0 01-10.84 2.04zM759.74 435.61a7.36 7.36 0 01-5.27-2.21 7.59 7.59 0 01-2.2-5.44v-40.97c0-3.94.77-7.68 2.27-11.11a29.2 29.2 0 0115.27-15.24 27.57 27.57 0 0111.05-2.25c3.94 0 7.68.75 11.11 2.25a28.84 28.84 0 0115.18 15.24 27.75 27.75 0 012.25 11.11c0 3.9-.76 7.63-2.25 11.08a28.82 28.82 0 01-15.17 15.26 27.79 27.79 0 01-11.11 2.25 27.46 27.46 0 01-13-3.17l-1.04-.55v16.1c0 1.1-.17 2.12-.51 3.04a6.76 6.76 0 01-3.71 4.02c-.86.4-1.83.59-2.87.59zm21.13-62.65c-1.89 0-3.71.37-5.41 1.1a14.41 14.41 0 00-4.46 3 14.5 14.5 0 00-3.03 4.45 13.47 13.47 0 00-1.13 5.48c0 1.94.38 3.78 1.13 5.48a14.2 14.2 0 007.49 7.46c1.7.73 3.52 1.1 5.41 1.1a13.78 13.78 0 009.9-4.11 14.52 14.52 0 002.97-4.45c.73-1.7 1.1-3.54 1.1-5.47 0-1.93-.37-3.77-1.1-5.47a13.9 13.9 0 00-12.87-8.57z"/>
    <path class="st4" d="M238.91 408.38v-42.83a7.04 7.04 0 00-6.51-7.55c-.25-.02-.51-.02-.76-.02l-.02.04a6.87 6.87 0 00-6.64 4.27 28.99 28.99 0 00-30.29 49.41c9.3 5.7 21 5.7 30.28 0a6.88 6.88 0 006.65 4.25 7.07 7.07 0 007.29-7.57zm-14.52-20.13a14.5 14.5 0 01-14.45 13.2v.04a14.52 14.52 0 1114.45-15.89v2.65z"/>
    <path class="st5" d="M745.16 408.7v-26.03a24.92 24.92 0 00-42.7-17.12 24.9 24.9 0 00-42.67 17.19v25.96a7.22 7.22 0 0014.42 0v-25.73a10.6 10.6 0 0121.09 0v25.48a7.52 7.52 0 007.27 7.48 7.38 7.38 0 007.06-7.48v-25.48a10.6 10.6 0 0121.09 0v25.73a7.2 7.2 0 1014.4 0M653.08 408.38v-42.83a7.04 7.04 0 00-6.51-7.55c-.25-.02-.51-.02-.76-.02l-.02.04a6.87 6.87 0 00-6.64 4.27 28.99 28.99 0 00-30.29 49.41c9.3 5.7 21 5.7 30.28 0a6.88 6.88 0 006.65 4.25 7.07 7.07 0 007.29-6.83c.03-.24.01-.49 0-.74zm-14.53-20.13a14.5 14.5 0 01-14.45 13.2v.04a14.52 14.52 0 1114.45-15.89v2.65z"/>
  </g>
</svg>
