<svg xmlns="http://www.w3.org/2000/svg" id="Layer_1" data-name="Layer 1" viewBox="0 0 400 146"><defs><style>.cls-1,.cls-2{fill:#fff}.cls-1{fill-rule:evenodd}</style></defs><title>LF-Event-Logo-_ELC-EU-White-01</title><g id="logo"><path d="M21.09,68.63a12.91,12.91,0,0,0-3.18,7.92q0,4.92,4.74,9.58c6.89-6.71,13.85-13.61,20.76-20.58a13.94,13.94,0,0,0,6.77,7.26h0c-14,8.91-21.64,16.74-27.28,30.49a35.79016,35.79016,0,0,1-5.17-4c-.79-.74-1.5-1.56-2.3-2.33a29.06026,29.06026,0,0,1-3.89-4.46,42.52957,42.52957,0,0,1-2.93-4.9,22.91972,22.91972,0,0,1-1.79-4.72,27.33952,27.33952,0,0,1-.64-5.75,14.29,14.29,0,0,1,1-5.52C10.9,68.57,13.3,67.77,21.09,68.63Z" class="cls-1"/><path d="M22.89,103.3c.2-5.88,1.55-10.92,6.05-15.83C34,81.84,42.36,74.2,50.17,72.81h0c-6.74,6.85-13.59,13.6-20.41,20.1,3.36,3.11,6.29,4.66,8.82,4.72a10.91,10.91,0,0,0,5.76-1.15A27.63973,27.63973,0,0,0,48.69,93c2.06,2,4.07,3.91,6,5.74l.09.12-.09.09a42.179,42.179,0,0,1-7.33,5.72,21.77,21.77,0,0,1-19.48,1.25A35,35,0,0,1,22.89,103.3Z" class="cls-1"/><path d="M7.16,71.65A120.21258,120.21258,0,0,1,20,68.76a10.36545,10.36545,0,0,0,1.12-.12,22.62808,22.62808,0,0,1,1.57-1.74L37,52.6q-3.59-3.6-7.21-7.11C25,50.19,20.16,55,15.35,59.78a47.05914,47.05914,0,0,0-4.15,4.78,34.05093,34.05093,0,0,0-3.5,5.83A13.26252,13.26252,0,0,0,7.16,71.65Z" class="cls-1"/><path d="M62.55,93.35a8.15007,8.15007,0,0,0,6.06,2q3.73-.47,7.55-4.85C71.81,85.21,66.73,79.35,61,73a13.29,13.29,0,0,0,6.42-6.82h0c6.59,12.89,11.71,18.95,19.66,21.9a40.49811,40.49811,0,0,1-3,4.58c-.54.72-1.14,1.4-1.72,2.15a35.22564,35.22564,0,0,1-3.31,3.57,38.60946,38.60946,0,0,1-3.6,2.89,20.31909,20.31909,0,0,1-3.49,2,21.05,21.05,0,0,1-4.24,1.25,9.16014,9.16014,0,0,1-4.11-.1C61.59,101.86,61.15,100,62.55,93.35Z" class="cls-1"/><path d="M87.09,88.15A9,9,0,0,1,77.72,85c-3.75-3.94-9.35-11.24-10.29-18.78h0c5.38,6.32,10.11,12.22,14.09,17.62,2.35-3.18,3.59-5.83,3.84-8.12a11.89993,11.89993,0,0,0-.34-5,19.77046,19.77046,0,0,0-2.13-3.78c1.44-2.08,2.8-4,4.06-6a.44335.44335,0,0,0,.07-.12c.02-.06,0,.06,0,.12a29.63008,29.63008,0,0,1,3.13,6.43,22.74,22.74,0,0,1,.93,6.89,29.76,29.76,0,0,1-2,9.61A40.45985,40.45985,0,0,1,87.09,88.15Z" class="cls-1"/><path d="M63.66,104.48c-.5-3.76-1.1-8.29-1.1-10.16v-1a12.5715,12.5715,0,0,1-1.34-1.23q-5.745-6-12.26-12.6-3.53,3.57-7.1,7.1c4.46,4.34,8.71,8.47,12.71,12.32a31.18713,31.18713,0,0,0,3.75,3,21.5589,21.5589,0,0,0,4.4,2.23A5.79192,5.79192,0,0,0,63.66,104.48Z" class="cls-1"/><path d="M47,26.89a13.89,13.89,0,0,0-7.49-3c-3.1-.16-6.12,1-9.14,3.71C37.11,33.78,44,40.35,50.74,47.14a13.16,13.16,0,0,0-6.94,6.7h0c-8.9-13.9-16.89-21-31.51-25.91a34.799,34.799,0,0,1,4.44-4.59c.79-.69,1.67-1.3,2.46-2a28.4497,28.4497,0,0,1,4.56-3.14A40.19864,40.19864,0,0,1,28.54,16,22.2801,22.2801,0,0,1,33,14.85a31.1,31.1,0,0,1,5.32-.18,16.58036,16.58036,0,0,1,5.08,1.09C46.39,18.79,47.27,20.68,47,26.89Z" class="cls-1"/><path d="M83.52,53.29a11.38009,11.38009,0,0,0,1.3-6.39,16.75011,16.75011,0,0,0-3.72-8.35c-3.7,5-8.21,10.51-13.42,16.59A14.26,14.26,0,0,0,61.46,48h0c11-7.08,15.5-13,16.64-23.14a44.5898,44.5898,0,0,1,3.69,4c.57.71,1.09,1.45,1.65,2.18a41.19948,41.19948,0,0,1,2.67,4,37.569,37.569,0,0,1,2,4.09,32.31827,32.31827,0,0,1,1.4,3.8,34.00061,34.00061,0,0,1,.91,4.49,17.65012,17.65012,0,0,1,.06,4.29C89,53.91,87.87,54.41,83.52,53.29Z" class="cls-1"/><path d="M78.11,24.83c1,4.55,1,8.4-1.17,11.85C74,41,68.16,47.15,61.47,48h0c5.42-5.91,10.16-11.3,14.19-16-2.79-3.09-5.18-4.87-7.12-5.32a7.19,7.19,0,0,0-4.46.08,16.61,16.61,0,0,0-3.24,2.52c-2.18-2.12-4.36-4.2-6.57-6.25l-.15-.13h.1A21.43021,21.43021,0,0,1,60,19.05a12.1,12.1,0,0,1,6.11-.77,20.04991,20.04991,0,0,1,8.42,3.56A40.222,40.222,0,0,1,78.11,24.83Z" class="cls-1"/><path d="M90.54,51.7a37.27131,37.27131,0,0,1-6.36,1.57h-.66a9.81942,9.81942,0,0,1-.87,1.42c-2.91,4-6.17,8.22-9.74,12.57,1.79,2.15,3.5,4.26,5.12,6.36,3.36-4.41,6.39-8.67,9.06-12.68a24.891,24.891,0,0,0,2-3.81,22.69131,22.69131,0,0,0,1.32-4.51A7.64211,7.64211,0,0,0,90.54,51.7Z" class="cls-1"/><path d="M12.29,27.91C18.68,28,24,29.11,29,33.15c5.72,4.71,13.37,12.79,14.76,20.67h0C37,47,30.11,40.32,23.38,33.94c-3.4,3.22-5.2,6.12-5.38,8.65a9.6971,9.6971,0,0,0,1,5.83,27.71,27.71,0,0,0,3.68,4.4q-3.56,3.54-7.08,7.09l-.14.14-.09-.1a40.35994,40.35994,0,0,1-6.13-7.68,19.06986,19.06986,0,0,1-2.6-8.39A20.35,20.35,0,0,1,9.18,32.6,35.28027,35.28027,0,0,1,12.29,27.91Z" class="cls-1"/><path d="M43.38,15.76A76.99964,76.99964,0,0,1,46.8,26c.07.32.11.62.19.94.54.42,1.09.89,1.66,1.41,4.54,4.35,9.07,8.86,13.48,13.43,1.86-2,3.67-3.92,5.39-5.78-4.28-4.46-8.71-8.85-13.18-13.07a48.65193,48.65193,0,0,0-4.43-3.57,36.9995,36.9995,0,0,0-5.35-3A5.47915,5.47915,0,0,0,43.38,15.76Z" class="cls-1"/></g><path d="M123.9,30.56v4.63h-9.17a6.44,6.44,0,0,0-4.64,1.57,6.1,6.1,0,0,0-1.65,4.64H123.9V46H108.44c0,2.22.41,3.77,1.22,4.67a4.79,4.79,0,0,0,2.28,1.59,12.99967,12.99967,0,0,0,2.79.24h9.17v4.62h-9.39a19.0013,19.0013,0,0,1-4.53-.46,9.82,9.82,0,0,1-7-6.49,17.49008,17.49008,0,0,1-.94-5.84l.07-1.59a13.14,13.14,0,0,1,.3-2.81,19.42947,19.42947,0,0,1,.73-2.58,11.31861,11.31861,0,0,1,1-2.15A12.87006,12.87006,0,0,1,106,33.15a6.99991,6.99991,0,0,1,2.77-1.68,16.08015,16.08015,0,0,1,3.05-.72,22.76725,22.76725,0,0,1,2.86-.19Z" class="cls-2"/><path d="M133.43,57.14h-5.1V37.66H148a15.70991,15.70991,0,0,1,3.47.37,6.99958,6.99958,0,0,1,2.5,1.2,5.12,5.12,0,0,1,1.57,2.15,9.06965,9.06965,0,0,1,.55,3.42V57.14H151V45.46a5.56977,5.56977,0,0,0-.35-2.25,1.85,1.85,0,0,0-1.12-1,5.86968,5.86968,0,0,0-1.82-.26h-2.92V57.18H139.5V41.91h-6.07Z" class="cls-2"/><path d="M160.75,57.14V30.56h5.11v7.1h4.47a14.33989,14.33989,0,0,1,4.38.61,6.72,6.72,0,0,1,3.14,2.18,10,10,0,0,1,1.8,3.2,11.84987,11.84987,0,0,1,.51,3.55v.7a9.35946,9.35946,0,0,1-.2,1.93,15.50954,15.50954,0,0,1-.76,2.29,7.73,7.73,0,0,1-1.74,2.55,8.00008,8.00008,0,0,1-2.9,1.83,11.15007,11.15007,0,0,1-3.94.64ZM169,41.91h-3.17V53l1.59.07H169a7.9998,7.9998,0,0,0,4-.85c1-.57,1.56-1.71,1.71-3.44V47.46a6.94,6.94,0,0,0-.63-3.31,3.92,3.92,0,0,0-1.41-1.57,4.11024,4.11024,0,0,0-1.53-.55A14.37074,14.37074,0,0,0,169,41.91Z" class="cls-2"/><path d="M199.5,53.12v4H192c-3.32,0-5.8-.88-7.41-2.66a10.15,10.15,0,0,1-2.42-7.09q0-4.44,1.88-6.53a8.53006,8.53006,0,0,1,3.79-2.64,14.8397,14.8397,0,0,1,4.16-.56h7.51v4H192.7a10.64051,10.64051,0,0,0-2.62.26,2.6,2.6,0,0,0-1.53,1.1,3.7901,3.7901,0,0,0-.66,2.37H199.5v4.1H187.89a4.2,4.2,0,0,0,.53,2.31,2.68,2.68,0,0,0,1.54,1.09,12.43,12.43,0,0,0,2.7.23Z" class="cls-2"/><path d="M215.65,30.56h5.21V57.14H211a9.35985,9.35985,0,0,1-4.16-.7,17.6747,17.6747,0,0,1-1.74-1,9.12775,9.12775,0,0,1-1.05-.92,7.68926,7.68926,0,0,1-1.28-1.72,10,10,0,0,1-1.31-4.92v-.4a10.05,10.05,0,0,1,1.75-6.36,8.1301,8.1301,0,0,1,3.63-2.85,13.99983,13.99983,0,0,1,4.45-.63h4.4ZM214,53h1.63V41.91H213l-2.55.11a3.54,3.54,0,0,0-2.11,1,4.41992,4.41992,0,0,0-1.22,2.16,12.00037,12.00037,0,0,0-.3,2.83,7.27982,7.27982,0,0,0,.39,2.57,3.61,3.61,0,0,0,1.52,1.73,7.74,7.74,0,0,0,3.93.72H214Z" class="cls-2"/><path d="M238.17,30.56h5.21V57.14h-9.91a9.39,9.39,0,0,1-4.16-.7,17.6747,17.6747,0,0,1-1.74-1,10.06865,10.06865,0,0,1-1-.92,8.00023,8.00023,0,0,1-1.28-1.72,10.74963,10.74963,0,0,1-1-2.33,9.75038,9.75038,0,0,1-.35-2.59v-.4a10.05,10.05,0,0,1,1.76-6.36,8.17,8.17,0,0,1,3.62-2.85,13.99988,13.99988,0,0,1,4.46-.63h4.4ZM236.54,53h1.63V41.91h-2.63L233,42a3.59,3.59,0,0,0-2.11,1,4.5001,4.5001,0,0,0-1.22,2.16,12.08,12.08,0,0,0-.29,2.83,7.53056,7.53056,0,0,0,.38,2.57,3.66017,3.66017,0,0,0,1.52,1.73,7.76017,7.76017,0,0,0,3.94.72h1.33Z" class="cls-2"/><path d="M264,53.12v4h-7.5c-3.33,0-5.8-.88-7.41-2.66a10.1,10.1,0,0,1-2.42-7.09q0-4.44,1.88-6.53a8.53006,8.53006,0,0,1,3.79-2.64,14.8397,14.8397,0,0,1,4.16-.56H264v4h-6.8a10.58,10.58,0,0,0-2.62.26,2.6,2.6,0,0,0-1.52,1.1,3.7901,3.7901,0,0,0-.66,2.37H264v4.1H252.4a4.2,4.2,0,0,0,.53,2.31,2.68,2.68,0,0,0,1.54,1.09,12.42982,12.42982,0,0,0,2.7.23Z" class="cls-2"/><path d="M280.16,30.56h5.21V57.14h-9.9a9.3599,9.3599,0,0,1-4.16-.7,17.683,17.683,0,0,1-1.74-1,9.12861,9.12861,0,0,1-1.05-.92,7.69071,7.69071,0,0,1-1.28-1.72,9.83925,9.83925,0,0,1-1-2.33,9.36032,9.36032,0,0,1-.35-2.59v-.4a10.05017,10.05017,0,0,1,1.75-6.36,8.13023,8.13023,0,0,1,3.63-2.85,13.99991,13.99991,0,0,1,4.45-.63h4.4ZM278.53,53h1.63V41.91h-2.62L275,42a3.55,3.55,0,0,0-2.1,1,4.42,4.42,0,0,0-1.22,2.16,12.00154,12.00154,0,0,0-.3,2.83,7.27984,7.27984,0,0,0,.39,2.57,3.60993,3.60993,0,0,0,1.52,1.73,7.74,7.74,0,0,0,3.93.72h1.33Z" class="cls-2"/><path d="M318.9,52.75v4.39h-8a22.6511,22.6511,0,0,1-2.76-.14,9.14034,9.14034,0,0,1-2.6-.78,7.83978,7.83978,0,0,1-2.48-1.74,7.24019,7.24019,0,0,1-1.57-2.38,11.40991,11.40991,0,0,1-.68-2.72,22.32,22.32,0,0,1-.19-3V30.56h5.55V46.81a17.21357,17.21357,0,0,0,.13,1.87,4.69977,4.69977,0,0,0,.75,2.14,3.4,3.4,0,0,0,1.85,1.44,9.44,9.44,0,0,0,3.33.49Z" class="cls-2"/><path d="M321.38,30.56h5.32v4.85h-5.32Zm0,7.1h5.32V57.14h-5.32Z" class="cls-2"/><path d="M336.31,57.14h-5.1V37.66h9.65a13.5004,13.5004,0,0,1,4.47.63,5.08006,5.08006,0,0,1,2.74,2.2,8.24,8.24,0,0,1,1,4.31V57.14h-5.21V45.46a10.0038,10.0038,0,0,0-.06-1.12,5.24931,5.24931,0,0,0-.24-1.15,1.44,1.44,0,0,0-.88-.91,6.21,6.21,0,0,0-2.19-.29h-4.14Z" class="cls-2"/><path d="M365.85,37.66H371V57.14h-9.7a12.25008,12.25008,0,0,1-4.4-.68,5.33014,5.33014,0,0,1-2.71-2.25,8.11979,8.11979,0,0,1-.94-4.2V37.66h5.1v12a5.3903,5.3903,0,0,0,.29,1.92,1.78,1.78,0,0,0,1,1,5.4296,5.4296,0,0,0,2,.29h4.18Z" class="cls-2"/><path d="M379.46,57.14h-5.92l7.14-9.75-7.21-9.73h5.91l4.18,5.92,4.36-5.92h5.92l-7.25,9.87,7.1,9.61h-6l-4.14-5.61Z" class="cls-2"/><path d="M123.82,67.53v4.55h-9.17a6,6,0,0,0-3.88,1.16,5.27986,5.27986,0,0,0-1.85,2.59,23.2958,23.2958,0,0,0-.59,2.63,16,16,0,0,0-.18,2.38v2.02a13.62691,13.62691,0,0,0,.14,1.48,8.2198,8.2198,0,0,0,.5,1.86,6.68,6.68,0,0,0,1.09,1.85,4,4,0,0,0,2,1.2,13.04955,13.04955,0,0,0,2.77.24h9.14v4.62h-9.36a18.90875,18.90875,0,0,1-4.51-.46,9.85,9.85,0,0,1-6.93-6.49,17.78981,17.78981,0,0,1-.93-5.84V79.73a13.06965,13.06965,0,0,1,.29-2.81,19.99959,19.99959,0,0,1,.74-2.59,10.91992,10.91992,0,0,1,1-2.14,13.28,13.28,0,0,1,1.73-2.07,7.00016,7.00016,0,0,1,2.78-1.68,16.08135,16.08135,0,0,1,3-.72,22.63931,22.63931,0,0,1,2.86-.19Z" class="cls-2"/><path d="M144,91.78a8.49019,8.49019,0,0,1-2.88,1.83,15.58069,15.58069,0,0,1-2.48.72,10.8395,10.8395,0,0,1-2.07.19,12.12977,12.12977,0,0,1-4.07-.72,9.2299,9.2299,0,0,1-3.38-2,7.73008,7.73008,0,0,1-1.94-2.82,16.46979,16.46979,0,0,1-.78-2.52,11.53928,11.53928,0,0,1-.18-2.09,9.7998,9.7998,0,0,1,.57-3.56,13.20867,13.20867,0,0,1,1.07-2.24,11.5697,11.5697,0,0,1,1.56-1.83,8.25,8.25,0,0,1,3-1.77,11.62993,11.62993,0,0,1,4.16-.73,12.04992,12.04992,0,0,1,4.05.69,8.12,8.12,0,0,1,3,1.74,11.3298,11.3298,0,0,1,1.61,1.84,12.88152,12.88152,0,0,1,1.07,2.22,10.1801,10.1801,0,0,1,.55,3.64,11.51989,11.51989,0,0,1-.72,4.05A9.23978,9.23978,0,0,1,144,91.78ZM134.8,90a2.6504,2.6504,0,0,0,.76.22,5.68627,5.68627,0,0,0,.91.08,4.81,4.81,0,0,0,2.88-.93,4.45,4.45,0,0,0,1.72-2.25,9.00064,9.00064,0,0,0,.42-2.7,7.62989,7.62989,0,0,0-.72-3.42,4.35,4.35,0,0,0-2.31-2.13,5.82946,5.82946,0,0,0-1.88-.37,5.49991,5.49991,0,0,0-2,.41,5.33991,5.33991,0,0,0-1.66,1.22,4.84976,4.84976,0,0,0-1,1.81,8.1099,8.1099,0,0,0-.35,2.48,7.22008,7.22008,0,0,0,.79,3.4A4.59,4.59,0,0,0,134.8,90Z" class="cls-2"/><path d="M155.13,94.11H150V74.63h9.65a13.50038,13.50038,0,0,1,4.47.63,5.08,5.08,0,0,1,2.74,2.2,8.24,8.24,0,0,1,1,4.31V94.11h-5.21V82.43a10.28084,10.28084,0,0,0-.06-1.13,5.16933,5.16933,0,0,0-.24-1.14,1.44,1.44,0,0,0-.88-.91,6.21062,6.21062,0,0,0-2.19-.29h-4.14Z" class="cls-2"/><path d="M179.24,94.11h-5.33V78.51h-3.66V74.63h3.66v-2.4a13.44155,13.44155,0,0,1,.13-1.52,3.90014,3.90014,0,0,1,.65-1.7,3,3,0,0,1,1.63-1.07,8.77978,8.77978,0,0,1,3-.41h4.92v3.85l-.81-.11H182.1a3.34,3.34,0,0,0-2.11.48c-.47.24-.7.81-.7,1.7v1.18h4.95v3.88h-4.95Z" class="cls-2"/><path d="M202.9,90.08v4h-7.51c-3.32,0-5.8-.88-7.41-2.66a10.15,10.15,0,0,1-2.42-7.1c0-2.95.63-5.13,1.88-6.52a8.53,8.53,0,0,1,3.79-2.64,14.8397,14.8397,0,0,1,4.16-.56h7.51v4h-6.81a10.64051,10.64051,0,0,0-2.62.26A2.6,2.6,0,0,0,192,80a3.79,3.79,0,0,0-.66,2.37H202.9v4.1H191.29a4.2,4.2,0,0,0,.53,2.31,2.68006,2.68006,0,0,0,1.54,1.09,12.542,12.542,0,0,0,2.7.22Z" class="cls-2"/><path d="M211.33,94.11h-5.11V74.63h8.65a7.34977,7.34977,0,0,1,3.55.67,3,3,0,0,1,1.52,1.81,11.99889,11.99889,0,0,1,.33,3.18v2.47h-4.88V81.21a7.10983,7.10983,0,0,0-.18-2,1.13,1.13,0,0,0-.71-.69l-.85-.11h-2.32Z" class="cls-2"/><path d="M239.79,90.08v4h-7.5c-3.33,0-5.8-.88-7.42-2.66a10.15,10.15,0,0,1-2.42-7.1c0-2.95.63-5.13,1.89-6.52a8.53,8.53,0,0,1,3.79-2.64,14.78967,14.78967,0,0,1,4.16-.56h7.5v4H233a10.6699,10.6699,0,0,0-2.63.26,2.57986,2.57986,0,0,0-1.51,1.07,3.73,3.73,0,0,0-.67,2.37H239.8v4.1H228.18a4.11,4.11,0,0,0,.54,2.31,2.69,2.69,0,0,0,1.53,1.09,12.5383,12.5383,0,0,0,2.7.22Z" class="cls-2"/><path d="M248.22,94.11h-5.1V74.63h9.65a13.50032,13.50032,0,0,1,4.47.63,5.15006,5.15006,0,0,1,2.74,2.2,8.2399,8.2399,0,0,1,1,4.31V94.11h-5.22V82.43a10.33118,10.33118,0,0,0-.05-1.13,6.662,6.662,0,0,0-.24-1.14,1.45,1.45,0,0,0-.89-.91,6.15045,6.15045,0,0,0-2.18-.29h-4.14Z" class="cls-2"/><path d="M275.24,89.94h6.07v4.17h-6.92a15.39,15.39,0,0,1-4.05-.5,7.61978,7.61978,0,0,1-3.3-1.84,8.61,8.61,0,0,1-2.19-3.35,11.46966,11.46966,0,0,1-.73-4,11.64993,11.64993,0,0,1,.29-2.68,10.25954,10.25954,0,0,1,1-2.57A11.36,11.36,0,0,1,267,76.91a6.18,6.18,0,0,1,2.64-1.62,18.09957,18.09957,0,0,1,2.53-.52,17.73028,17.73028,0,0,1,2.22-.15h6.92v4.22h-6.58a6.74981,6.74981,0,0,0-3.54,1q-1.63,1-1.64,4.6t1.7,4.53A7.86972,7.86972,0,0,0,275.24,89.94Z" class="cls-2"/><path d="M300.94,90.08v4h-7.51c-3.33,0-5.8-.88-7.41-2.66a10.10994,10.10994,0,0,1-2.42-7.1c0-2.95.63-5.13,1.88-6.52a8.53,8.53,0,0,1,3.79-2.64,14.8397,14.8397,0,0,1,4.16-.56h7.51v4h-6.81a10.58,10.58,0,0,0-2.62.26A2.60011,2.60011,0,0,0,290,80a3.79,3.79,0,0,0-.66,2.37h11.61v4.1H289.33a4.19968,4.19968,0,0,0,.53,2.31,2.68,2.68,0,0,0,1.54,1.09,12.54234,12.54234,0,0,0,2.7.22Z" class="cls-2"/><path d="M103.50732,105.02734h14.65429v2.085h-12.3662v6.92188h11.063v2.085h-11.063v7.09571h12.51123v2.085H103.50732Z" class="cls-2"/><path d="M122.30225,119.62305v-9.2959h2.23v8.74609c0,2.78028,1.50634,4.51758,4.1416,4.51758a4.42124,4.42124,0,0,0,4.4969-4.34424q.003-.17367-.00764-.34717v-8.57226h2.20068V125.2998h-2.20068v-2.60644a5.7038,5.7038,0,0,1-5.12647,2.9248C124.4165,125.61816,122.30225,123.18555,122.30225,119.62305Z" class="cls-2"/><path d="M140.37061,110.32715h2.23v3.90918a6.41129,6.41129,0,0,1,6.11084-4.16992v2.40332h-.17383c-3.27246,0-5.937,2.3457-5.937,6.86425v5.96582h-2.23Z" class="cls-2"/><path d="M150.53418,117.88574v-.05762a7.805,7.805,0,0,1,15.60986-.05859v.05859a7.77481,7.77481,0,0,1-7.72984,7.81955q-.05916.00035-.1183-.00021a7.67039,7.67039,0,0,1-7.76172-7.578Q150.53308,117.97764,150.53418,117.88574Zm13.32227,0v-.05762a5.66636,5.66636,0,0,0-5.47814-5.84849l-.08241-.00209a5.5263,5.5263,0,0,0-5.47984,5.57237q.00091.10986.00621.21962v.05859a5.617,5.617,0,0,0,5.40837,5.81815q.06143.00225.12288.00314a5.52515,5.52515,0,0,0,5.508-5.54219Q163.86123,117.99645,163.85645,117.88574Z" class="cls-2"/><path d="M170.169,110.32715h2.23v3.01172a6.73012,6.73012,0,0,1,5.73438-3.33008c3.59131,0,7.15332,2.83789,7.15332,7.76074v.05859c0,4.89455-3.53321,7.79-7.15332,7.79a6.75453,6.75453,0,0,1-5.73438-3.18555v7.501h-2.23Zm12.82959,7.5293v-.05762c0-3.53321-2.43262-5.792-5.271-5.792a5.58267,5.58267,0,0,0-5.41609,5.74443l.00056.01826v.05859a5.57256,5.57256,0,0,0,5.34664,5.78968l.06889.00232c2.89639,0,5.27094-2.14356,5.27094-5.76367Z" class="cls-2"/><path d="M196.001,123.707a6.196,6.196,0,0,0,4.7207-2.11426l1.38965,1.24512a7.72728,7.72728,0,0,1-6.16846,2.80957,7.45021,7.45021,0,0,1-7.48077-7.41954q-.00083-.2.00909-.3998c0-4.34472,3.041-7.81933,7.18213-7.81933,4.43115,0,6.97949,3.5332,6.97949,7.93457,0,.20312,0,.43457-.02929.78223H190.73A5.2325,5.2325,0,0,0,196.001,123.707Zm4.373-6.77734c-.26026-2.72168-1.82422-5.03907-4.77832-5.03907-2.57764,0-4.54688,2.14356-4.86572,5.03907Z" class="cls-2"/></svg>