<svg xmlns="http://www.w3.org/2000/svg" id="Layer_1" data-name="Layer 1" viewBox="0 0 400 183"><defs><style>.cls-1{fill:#fff}.cls-2{fill:none}</style></defs><title>kcs-eu-2020-logo-white</title><path d="M166.32089,74.65144q-3.73141-.0033-7.46454-.00807,3.73291.00439,7.46552.00855a3.5776,3.5776,0,0,1,1.49818.15175A3.58181,3.58181,0,0,0,166.32089,74.65144Z" class="cls-1"/><path d="M158.85635,74.64337a16.05786,16.05786,0,0,0-2.67674.54139A16.06961,16.06961,0,0,1,158.85635,74.64337Z" class="cls-1"/><path d="M167.04958,51.85941l-.00025-.00061a3.09259,3.09259,0,0,0-1.98471,1.65335A3.09131,3.09131,0,0,1,167.04958,51.85941Z" class="cls-1"/><path d="M172.6479,51.06988a2.29122,2.29122,0,0,1,.18743.89522,2.33359,2.33359,0,0,0,.26487,1.14482c.33968-.39537.66785-.77731.99212-1.155.37362-.43486.74139-.86309,1.10794-1.28962l.53466-.44841q-.26721.22433-.53491.44853a4.36054,4.36054,0,0,1-1.7489.24106,1.17016,1.17016,0,0,1-.47359-.23642,1.53673,1.53673,0,0,1-.22041-.22274,2.2208,2.2208,0,0,1-.20721-.30655.26373.26373,0,0,0-.165-.114.48091.48091,0,0,0-.59113.49214A1.04909,1.04909,0,0,1,172.6479,51.06988Z" class="cls-1"/><path d="M165.79648,49.11168a.21852.21852,0,0,0-.1234-.07013,3.0589,3.0589,0,0,0-.128.33673,2.14945,2.14945,0,0,0-.258.09481c-.62068.27357-1.17343.78514-1.94267.53735a.6814.6814,0,0,0-.04937-.31461.55942.55942,0,0,0-.4142-.28749,2.80165,2.80165,0,0,0-.28907-.05034c.14222.21772.24191.48408.47285.60089a.5934.5934,0,0,0,.27049.05742,2.34061,2.34061,0,0,0,.26709,1.09133c.08431.17447.18352.34919.29079.53148s.22263.37242.33868.57706c.08114-.17362.15566-.33343.23191-.49691.4032-.86284.74847-1.60253,1.08935-2.33293v-.00012h.00025l-.00025.00012a2.1016,2.1016,0,0,0,.2473.06965l.96987,1.86546q-.48492-.93322-.96987-1.86595C165.79648,49.34016,165.86588,49.20112,165.79648,49.11168Z" class="cls-1"/><path d="M170.58965,49.36582a.884.884,0,0,0,.33673-.4247A.887.887,0,0,1,170.58965,49.36582Z" class="cls-1"/><path d="M168.30756,48.95016a5.167,5.167,0,0,0,.04667-.58452v-.00049l-.00024.00049A5.1092,5.1092,0,0,1,168.30756,48.95016Z" class="cls-1"/><path d="M165.61517,115.72211h.00025a.80151.80151,0,0,0-.34113-.21015A.80075.80075,0,0,1,165.61517,115.72211Z" class="cls-1"/><path d="M172.75346,58.66539l.109-2.31253-.00025-.00024c-.03567.76021-.07159,1.52018-.109,2.31277Z" class="cls-1"/><path d="M169.56259,53.1395l.07771,2.83851q-.03849-1.41886-.07722-2.83887V53.139a1.23073,1.23073,0,0,1-1.12822-.19035A1.23136,1.23136,0,0,0,169.56259,53.1395Z" class="cls-1"/><path d="M166.91664,48.06434a2.20662,2.20662,0,0,0,.23068.11754.96148.96148,0,0,1,.28249-.45769.749.749,0,0,1,.39122-.16177,1.47139,1.47139,0,0,1,.22066-.01111c.15077.00256.3074.02138.46159.0347.07723.00672.15372.01184.22849.01281l.00024.00172a1.19317,1.19317,0,0,1,.414-.11632c.02223-.00269.04226-.0165.06474-.01784a1.19792,1.19792,0,0,1,.49068.07271l.00512.00073a1.47845,1.47845,0,0,1,1.24869,1.198c1.14948-.56913.51219-1.41719.50754-2.26768a1.273,1.273,0,0,1,.12756-.58586,8.64974,8.64974,0,0,0-.94812.29409c-.1129.05327-.22531.1102-.33746.1669a2.44921,2.44921,0,0,1-1.3264.39318,1.41659,1.41659,0,0,1-.97354-.696.465.465,0,0,0-.35823-.15029.51042.51042,0,0,0-.391.129.24825.24825,0,0,0-.06011.11241.32127.32127,0,0,0,.00269.14967.69744.69744,0,0,1-.18132.55324,4.88986,4.88986,0,0,0-.38438.53026.688.688,0,0,0-.04815.1162C166.52615,47.67654,166.588,47.8691,166.91664,48.06434Z" class="cls-1"/><path d="M66.41806,130.71912a7.21813,7.21813,0,0,0-2.65132.50814,6.67252,6.67252,0,0,0-2.256,1.49416,7.55675,7.55675,0,0,0-1.60717,2.48235,9.14964,9.14964,0,0,0-.59355,3.441v.00012a9.97718,9.97718,0,0,0,.45206,3.04585,6.8198,6.8198,0,0,0,1.43831,2.45292,7.03529,7.03529,0,0,0,2.4534,1.60766,9.44772,9.44772,0,0,0,3.49659.59282,14.681,14.681,0,0,0,1.5798-.08479q.78917-.08469,1.46739-.22556a9.7069,9.7069,0,0,0,1.26849-.28248,5.81028,5.81028,0,0,0,.90268-.33783l-.56424-3.413a9.07223,9.07223,0,0,1-1.83345.53675,12.79769,12.79769,0,0,1-2.25595.19635,4.868,4.868,0,0,1-2.87613-.76107,2.79621,2.79621,0,0,1-1.21375-2.059h9.5333q.02786-.3387.05619-.76119.02785-.45156.02787-.8186a7.90653,7.90653,0,0,0-1.8332-5.66774A6.52825,6.52825,0,0,0,66.41806,130.71912Z" class="cls-2"/><path d="M84.35425,130.9735a8.41324,8.41324,0,0,0-.95938-.11351,7.23835,7.23835,0,0,0-.81787-.05547,14.9633,14.9633,0,0,0-3.43989.36655,23.36877,23.36877,0,0,0-2.65108.73368v14.04473h4.20156V134.61156a4.6458,4.6458,0,0,1,.81837-.141,6.69716,6.69716,0,0,1,.95814-.08479,7.618,7.618,0,0,1,1.63649.169q.76169.1415,1.32518.28237l.70645-3.46848a3.94008,3.94008,0,0,0-.8191-.22627A8.7853,8.7853,0,0,0,84.35425,130.9735Z" class="cls-2"/><path d="M54.10123,95.59327l-.05791-.07355a3.28677,3.28677,0,0,0,.18743-2.05631,3.33974,3.33974,0,0,0-3.20555-2.59684,3.47407,3.47407,0,0,0-.65513.05523l-.03348-.03885L30.78078,94.20212a39.22907,39.22907,0,0,0,15.74547,19.7017Z" class="cls-2"/><path d="M99.83434,132.66557a4.61781,4.61781,0,0,0-2.003-1.382,8.32639,8.32639,0,0,0-3.12979-.50754,21.64726,21.64726,0,0,0-3.55474.28176,22.05315,22.05315,0,0,0-2.76275.56423V145.9491h4.20156V134.4989c.26367-.03787.56424-.06525.90268-.08479a8.64619,8.64619,0,0,1,.95935-.05608,2.18841,2.18841,0,0,1,2.00232.84537,5.67039,5.67039,0,0,1,.5354,2.87614v7.86956h4.203v-8.37563a11.38692,11.38692,0,0,0-.3118-2.76472A5.43732,5.43732,0,0,0,99.83434,132.66557Z" class="cls-2"/><path d="M34.82057,142.56456c-.26244.03777-.56423.07562-.90218.11339q-.50766.028-.95864.0281a2.1331,2.1331,0,0,1-2.003-.90267,5.99932,5.99932,0,0,1-.5354-2.93235v-7.756H26.219v8.26286a11.72448,11.72448,0,0,0,.31059,2.79208,5.682,5.682,0,0,0,1.04343,2.19988,4.85525,4.85525,0,0,0,1.9742,1.41009,8.55861,8.55861,0,0,0,3.15862.50742,21.55248,21.55248,0,0,0,3.55327-.28176,21.97153,21.97153,0,0,0,2.76423-.56483V131.115H34.82057Z" class="cls-2"/><path d="M55.12242,132.91971a5.31628,5.31628,0,0,0-2.03162-1.551,6.5296,6.5296,0,0,0-2.79086-.56483,7.53128,7.53128,0,0,0-1.63625.16958,7.82425,7.82425,0,0,0-1.46617.47945V124.0634l-4.2023.67688v20.72923q.56337.16935,1.29732.33844.73308.1413,1.52286.25377.81888.11252,1.63576.1702c.5635.05485,1.10012.08418,1.60693.08418a9.318,9.318,0,0,0,3.27152-.53674,6.78649,6.78649,0,0,0,2.42627-1.57833,6.65717,6.65717,0,0,0,1.4955-2.45364,9.16812,9.16812,0,0,0,.53491-3.21544,10.99048,10.99048,0,0,0-.42324-3.15863A7.02877,7.02877,0,0,0,55.12242,132.91971Z" class="cls-2"/><path d="M139.84377,130.71912a7.2157,7.2157,0,0,0-2.65134.50814,6.67252,6.67252,0,0,0-2.256,1.49416,7.55656,7.55656,0,0,0-1.60716,2.48235,9.14466,9.14466,0,0,0-.59331,3.441l-.00024.00012a9.94762,9.94762,0,0,0,.45207,3.04585,6.82269,6.82269,0,0,0,1.43806,2.45292,7.04235,7.04235,0,0,0,2.45365,1.60766,9.45107,9.45107,0,0,0,3.49707.59282,14.70417,14.70417,0,0,0,1.5798-.08479q.7899-.08469,1.46691-.22556a9.707,9.707,0,0,0,1.26847-.28248,5.81945,5.81945,0,0,0,.90267-.33783l-.56423-3.413a9.08547,9.08547,0,0,1-1.8332.53675,12.80327,12.80327,0,0,1-2.2562.19635,4.87068,4.87068,0,0,1-2.87687-.76107,2.79825,2.79825,0,0,1-1.213-2.059h9.53258c.01905-.22579.0386-.47945.05694-.76119q.02749-.45156.0286-.8186a7.91436,7.91436,0,0,0-1.83394-5.66774A6.52825,6.52825,0,0,0,139.84377,130.71912Z" class="cls-2"/><path d="M159.50073,138.98344a4.79554,4.79554,0,0,0-1.41021-1.07165,15.96115,15.96115,0,0,0-2.28527-1.01618q-.677-.254-1.127-.4506-.423-.2258-.67834-.39588a1.04046,1.04046,0,0,1-.33722-.39463,1.1291,1.1291,0,0,1-.08479-.45134q0-1.09888,1.97419-1.0989a8.37671,8.37671,0,0,1,1.917.19756,14.83135,14.83135,0,0,1,1.60693.45073l.7343-3.27225a11.35037,11.35037,0,0,0-1.97346-.5068,12.92292,12.92292,0,0,0-2.59586-.25426,6.74168,6.74168,0,0,0-4.25825,1.21374,3.962,3.962,0,0,0-1.551,3.29889,4.8208,4.8208,0,0,0,.31107,1.83271,3.94871,3.94871,0,0,0,.87408,1.326,5.51856,5.51856,0,0,0,1.35279.93053q.81774.39547,1.80584.76118a10.89749,10.89749,0,0,1,1.88941.87531,1.03983,1.03983,0,0,1,.62019.87335.86953.86953,0,0,1-.47993.87457,4.18465,4.18465,0,0,1-1.635.22568,11.31011,11.31011,0,0,1-2.22784-.22568,14.74714,14.74714,0,0,1-2.1995-.67639l-.7062,3.41238a13.39539,13.39539,0,0,0,1.80534.56351,13.56438,13.56438,0,0,0,3.30011.33856,8.14473,8.14473,0,0,0,4.65289-1.12773,3.76183,3.76183,0,0,0,1.66387-3.32822,5.37116,5.37116,0,0,0-.22507-1.63575A3.00227,3.00227,0,0,0,159.50073,138.98344Z" class="cls-2"/><path d="M129.27242,142.62125a8.7859,8.7859,0,0,1-1.38212.1129,2.03638,2.03638,0,0,1-1.8899-.78978,4.26039,4.26039,0,0,1-.45011-2.11594v-5.21689h5.0468v-3.49731h-5.04681v-4.371l-4.20278.677v12.465a12.5068,12.5068,0,0,0,.25438,2.62311,5.06825,5.06825,0,0,0,.9579,2.0304,4.65826,4.65826,0,0,0,1.80486,1.29731,7.73663,7.73663,0,0,0,2.8495.45134,9.8843,9.8843,0,0,0,2.28406-.22578,12.02,12.02,0,0,0,1.69244-.536l-.59356-3.2709A7.92438,7.92438,0,0,1,129.27242,142.62125Z" class="cls-2"/><path d="M111.42053,130.71912a7.217,7.217,0,0,0-2.65108.50814,6.67608,6.67608,0,0,0-2.2562,1.49416,7.55192,7.55192,0,0,0-1.60693,2.48235,9.14934,9.14934,0,0,0-.59282,3.441v.00012a9.9397,9.9397,0,0,0,.45183,3.04585,6.83028,6.83028,0,0,0,1.43757,2.45292,7.04027,7.04027,0,0,0,2.45364,1.60766,9.44961,9.44961,0,0,0,3.49707.59282,14.71178,14.71178,0,0,0,1.5798-.08479q.78954-.08469,1.46666-.22556a9.69016,9.69016,0,0,0,1.26873-.28248,5.81677,5.81677,0,0,0,.90268-.33783l-.56375-3.413a9.08963,9.08963,0,0,1-1.83321.53675,12.80324,12.80324,0,0,1-2.25619.19635,4.86945,4.86945,0,0,1-2.87663-.76107,2.79644,2.79644,0,0,1-1.214-2.059h9.53354c.01808-.22579.03763-.47945.056-.76119q.029-.45156.02883-.8186a7.90235,7.90235,0,0,0-1.83418-5.66774A6.52742,6.52742,0,0,0,111.42053,130.71912Z" class="cls-2"/><path d="M86.26076,73.5347A3.34251,3.34251,0,0,0,87.573,79.27306l.01515.08186,19.17046,5.52136a39.73935,39.73935,0,0,0-5.70781-24.62388L86.25489,73.49475Z" class="cls-2"/><path d="M84.92532,90.84177a3.22964,3.22964,0,0,0-.76851-.05645,3.35047,3.35047,0,0,0-2.89838,4.66133l-.02468.033,7.6588,18.49651a39.07232,39.07232,0,0,0,15.79337-19.84062L84.959,90.80243Z" class="cls-2"/><path d="M73.5615,61.73176a3.30511,3.30511,0,0,0,.72869,1.9356,3.34428,3.34428,0,0,0,4.5813.61554l.05792.02346,16.188-11.4772a39.35893,39.35893,0,0,0-22.69831-10.945L73.54562,61.7254Z" class="cls-2"/><path d="M21.668,141.63452q-.84451-1.12914-1.74865-2.17189a18.54787,18.54787,0,0,0-1.74841-1.83406q1.69269-1.66356,3.10266-3.2141,1.4387-1.57926,2.93357-3.30023H19.21512q-.39514.47979-.95888,1.12834-.53734.64824-1.15559,1.382-.62166.7056-1.29854,1.4382-.648.734-1.26922,1.4101V124.06451l-4.20229.67627v21.208h4.20229v-6.4861a10.77,10.77,0,0,1,1.41022,1.38138,20.15683,20.15683,0,0,1,1.38187,1.72116q.64878.875,1.21325,1.77591.5916.875,1.04343,1.60765h4.82249q-.47981-.9312-1.18516-2.05826Q22.51523,142.76155,21.668,141.63452Z" class="cls-2"/><path d="M177.77512,142.02452c-.0418-.00073-.08358-.00195-.12537-.00391a4.35009,4.35009,0,0,1-4.14243-4.54794v-.03091c-.00244-.04961-.00366-.09908-.00439-.1487a4.32225,4.32225,0,0,1,4.27219-4.37152,4.793,4.793,0,0,1,3.46481,1.51163l.85039-.91318a5.73752,5.73752,0,0,0-4.29932-1.74793q-.0854-.00036-.17032.002a5.55382,5.55382,0,0,0-5.405,5.69866v.03164q-.00328.10119-.00244.20258a5.49868,5.49868,0,0,0,5.53006,5.46712h.0006a5.74032,5.74032,0,0,0,4.40951-1.93682l-.81885-.80322A4.786,4.786,0,0,1,177.77512,142.02452Z" class="cls-2"/><path d="M47.73071,79.37263a3.3396,3.3396,0,0,0,1.31247-5.74141l.01515-.08137L34.18059,60.24409a39.0158,39.0158,0,0,0-5.53652,24.69548l19.06954-5.50341Z" class="cls-2"/><path d="M70.60741,100.645a3.344,3.344,0,0,0-5.88572.007H64.7046L55.0887,118.041l.054.0176H80.3164L70.67827,100.645Z" class="cls-2"/><path d="M56.41632,64.35536a3.34044,3.34044,0,0,0,5.30046-2.55823l.08113-.03994,1.12651-19.873a40.29632,40.29632,0,0,0-4.04.69741A38.99621,38.99621,0,0,0,40.091,52.82208l16.29357,11.549Z" class="cls-2"/><polygon points="62.179 85.216 67.668 87.854 73.14 85.225 74.5 79.316 70.713 74.58 64.618 74.58 60.819 79.307 62.179 85.216" class="cls-2"/><rect width="1.244" height="11.024" x="372.953" y="131.961" class="cls-2"/><polygon points="347.631 137.977 343.615 131.961 342.355 131.961 342.355 142.985 343.568 142.985 343.568 134.071 347.584 139.961 347.647 139.961 351.663 134.055 351.663 142.985 352.907 142.985 352.907 131.961 351.647 131.961 347.631 137.977" class="cls-2"/><path d="M336.592,138.37057c0,2.40966-1.29169,3.63807-3.32333,3.63807-2.11008,0-3.37-1.33911-3.37-3.717V131.961h-1.24429v6.40974c0,3.11794,1.85837,4.78742,4.58276,4.78742,2.75641,0,4.59915-1.66948,4.59915-4.88236V131.961H336.592Z" class="cls-2"/><path d="M325.36276,103.624v-.08577c0-5.84026-3.00491-10.621-7.57474-10.621-4.57006,0-7.48919,4.65388-7.48919,10.5369v.08406c0,5.84025,2.96216,10.62278,7.575,10.62278S325.36276,109.46423,325.36276,103.624Z" class="cls-2"/><path d="M321.12747,136.87422c-2.42554-.51939-2.993-1.10206-2.993-2.14158V134.701c0-.99211.91367-1.77945,2.34686-1.77945a4.84206,4.84206,0,0,1,3.18134,1.19689l.724-.96059a5.74824,5.74824,0,0,0-3.87363-1.355c-2.09491,0-3.62219,1.27606-3.62219,3.00883v.03078c0,1.81122,1.1651,2.6302,3.70038,3.18184,2.31558.48787,2.8666,1.07055,2.8666,2.09419v.03175c0,1.08693-.97647,1.87426-2.45706,1.87426a5.24974,5.24974,0,0,1-3.77954-1.55965l-.77145.91379a6.44992,6.44992,0,0,0,4.50433,1.76368c2.189,0,3.76392-1.22853,3.76392-3.11793v-.03153C324.71814,138.3074,323.58356,137.41023,321.12747,136.87422Z" class="cls-2"/><path d="M386.72162,114.161c4.61282,0,7.489-4.69678,7.489-10.537v-.08577c0-5.84026-3.00491-10.621-7.575-10.621-4.56982,0-7.489,4.65388-7.489,10.5369v.08406C379.14664,109.37846,382.10855,114.161,386.72162,114.161Z" class="cls-2"/><path d="M190.64275,131.77328a5.623,5.623,0,0,0-5.54531,5.69939v.03165c-.00024.041-.00024.082.00049.12292a5.62282,5.62282,0,1,0,11.24477-.13965l-.0002-.0149v-.03092c.00024-.041.00024-.08211-.00049-.12315a5.62281,5.62281,0,0,0-5.69922-5.54534Z" class="cls-2"/><polygon points="362.875 137.977 358.859 131.961 357.599 131.961 357.599 142.985 358.812 142.985 358.812 134.071 362.828 139.961 362.891 139.961 366.907 134.055 366.907 142.985 368.151 142.985 368.151 131.961 366.891 131.961 362.875 137.977" class="cls-2"/><polygon points="378.212 133.11 381.914 133.11 381.914 142.985 383.174 142.985 383.174 133.11 386.875 133.11 386.875 131.961 378.212 131.961 378.212 133.11" class="cls-2"/><path d="M306.63974,135.26791v-.03164a3.04373,3.04373,0,0,0-.85037-2.17324,4.34764,4.34764,0,0,0-3.1337-1.10206h-4.74088l-.00024,11.02415h1.24429V138.7012h3.14957l3.19772,4.28391h1.5275l-3.38589-4.50458A3.226,3.226,0,0,0,306.63974,135.26791Z" class="cls-2"/><path d="M235.06654,135.26791v-.03164a3.04534,3.04534,0,0,0-.85086-2.17324A4.34614,4.34614,0,0,0,231.082,131.961h-4.74064v11.02415h1.2443V138.7012H230.735l3.19772,4.28391H235.46l-3.38588-4.50458A3.22626,3.22626,0,0,0,235.06654,135.26791Z" class="cls-2"/><polygon points="213.774 133.11 217.475 133.11 217.475 142.985 218.735 142.985 218.735 133.11 222.436 133.11 222.436 131.961 213.774 131.961 213.774 133.11" class="cls-2"/><rect width="1.244" height="11.024" x="239.412" y="131.961" class="cls-2"/><polygon points="208.657 140.796 201.711 131.961 200.546 131.961 200.546 142.985 201.759 142.985 201.759 133.945 208.877 142.985 209.869 142.985 209.869 131.961 208.657 131.961 208.657 140.796" class="cls-2"/><polygon points="271.143 133.11 274.844 133.11 274.844 142.985 276.104 142.985 276.104 133.11 279.805 133.11 279.805 131.961 271.143 131.961 271.143 133.11" class="cls-2"/><path d="M251.995,137.28365a2.6606,2.6606,0,0,0,1.74815-2.551V134.701a2.45246,2.45246,0,0,0-.70841-1.76368,4.05025,4.05025,0,0,0-2.88224-.97635H245.459v11.02415h4.898c2.40966,0,4.00022-1.118,4.00022-3.0081v-.03152C254.35724,138.43387,253.30183,137.67744,251.995,137.28365Z" class="cls-2"/><path d="M266.168,138.37057c0,2.40966-1.29169,3.63807-3.32333,3.63807-2.11008,0-3.37024-1.33911-3.37024-3.717V131.961h-1.2443v6.40974c0,3.11794,1.85862,4.78742,4.58277,4.78742,2.75665,0,4.59936-1.66948,4.59936-4.88236V131.961H266.168Z" class="cls-2"/><path d="M288.01151,131.77328a5.62266,5.62266,0,0,0-5.54484,5.69939v.03165c-.00024.04153-.00024.08308.00025.12475a5.6227,5.6227,0,0,0,11.24432-.15638v-.03092c.00025-.04117.00025-.08235-.00024-.12364a5.62269,5.62269,0,0,0-5.69946-5.54485Z" class="cls-2"/><path d="M390.986,118.05846c5.29752-2.03237,8.60031-7.75679,8.60031-14.52024v-.08406c0-8.4647-5.12207-15.23562-12.86468-15.23562-7.78781,0-12.95072,6.85682-12.95072,15.31968v.08577c0,6.7527,3.24048,12.41654,8.50309,14.43447H362.56055v-4.278H348.4682l6.0939-5.07906c5.247-4.2734,7.70182-6.81208,7.70182-11.46791v-.08382c0-5.29-3.9787-8.8453-9.776-8.8453-5.28995,0-8.08228,2.24215-10.91761,6.22085l3.68033,2.8781c2.28674-2.96216,4.14829-4.44324,6.85657-4.44324a4.44,4.44,0,0,1,4.78094,4.61112c0,2.66733-1.48108,4.57178-5.54385,7.99822L341.14706,114.245v3.81352H322.13815c5.29779-2.03236,8.60056-7.75679,8.60056-14.52023v-.08406c0-8.46471-5.12207-15.23562-12.86493-15.23562-7.78757,0-12.95071,6.85681-12.95071,15.31968v.08577c0,6.7527,3.24072,12.41653,8.50305,14.43446H293.71274v-4.278H279.62036l6.0939-5.07906c5.2472-4.27341,7.70182-6.81209,7.70182-11.46792v-.08381c0-5.29-3.9787-8.8453-9.776-8.8453-5.29,0-8.08228,2.24215-10.91736,6.22084l3.68011,2.8781c2.28675-2.96216,4.14829-4.44324,6.85681-4.44324a4.4401,4.4401,0,0,1,4.7807,4.61113c0,2.66732-1.48107,4.57177-5.54361,7.99821L272.299,114.24493v3.81353h-32.3408c-.16031.02884-.31548.06646-.4775.09213a22.3182,22.3182,0,0,1-7.68054-.09213H166.99435c-.46649.08613-.93469.16616-1.409.21907a22.235,22.235,0,0,1-6.97118-.21907H99.9641a49.44488,49.44488,0,0,0,14.61261-22.25383c.4919.07673,1.34278.22726,1.61695.28236a3.00444,3.00444,0,0,1,2.123-.7844,35.41271,35.41271,0,0,1,6.60658,1.94207,31.49821,31.49821,0,0,0,3.39956,1.31174c.27222.07293.66515.14026.97794.21.02542.005.04961.01844.07308.02358.01783.0044.04129.00562.0579.00879a3.8016,3.8016,0,1,0,1.68292-7.38205c-.32377-.07368-.78439-.19989-1.10035-.25965a31.964,31.964,0,0,0-3.63415-.29055,35.35628,35.35628,0,0,1-6.7918-1.1177,4.24138,4.24138,0,0,1-1.636-1.64358l-1.52946-.4462a49.21959,49.21959,0,0,0-7.89168-34.09317c.39025-.35724,1.13335-1.01361,1.34278-1.20714a3.007,3.007,0,0,1,.7128-2.145,35.437,35.437,0,0,1,5.635-3.9594,31.33969,31.33969,0,0,0,3.14714-1.83479c.24289-.18278.5767-.46832.83449-.67407a3.80828,3.80828,0,1,0-4.72107-5.923c-.25634.20306-.608.47149-.84085.67138a31.34888,31.34888,0,0,0-2.50178,2.64779,35.71037,35.71037,0,0,1-5.10619,4.62137,4.20715,4.20715,0,0,1-2.29994.24815l-1.44,1.02938a49.6527,49.6527,0,0,0-31.44673-15.195c-.03616-.50326-.08064-1.41461-.09139-1.6894a3.01181,3.01181,0,0,1-1.23891-1.89441,35.48112,35.48112,0,0,1,.42862-6.87122,31.53284,31.53284,0,0,0,.5195-3.60337c.01223-.30472-.00756-.747-.00756-1.0769a3.80927,3.80927,0,1,0-7.57621,0c0,.03482.00513.071.00709.10654-.00391.31352-.01711.69558-.00709.97036a31.52556,31.52556,0,0,0,.51731,3.60337,35.364,35.364,0,0,1,.4208,6.87122,4.13118,4.13118,0,0,1-1.22865,1.95782l-.0914,1.60253a48.92411,48.92411,0,0,0-31.601,15.195c-.41835-.28627-1.15143-.81043-1.36892-.97219a2.99257,2.99257,0,0,1-2.25057-.21895,35.49184,35.49184,0,0,1-5.10619-4.6138A31.81237,31.81237,0,0,0,20.67811,38.565c-.23092-.19732-.58451-.46649-.84134-.67138a4.51017,4.51017,0,0,0-2.6396-.99578,3.65361,3.65361,0,0,0-3.01885,1.33458,4.01876,4.01876,0,0,0,.93029,5.58808c.01979.01319.03885.02529.05718.03934.25.20111.55593.46.7844.63021a31.889,31.889,0,0,0,3.142,1.83907,35.27833,35.27833,0,0,1,5.63181,3.9577,4.18923,4.18923,0,0,1,.76265,2.185l1.21424,1.0846A49.01782,49.01782,0,0,0,18.97173,87.734l-1.58664.45953a5.25116,5.25116,0,0,1-1.62794,1.6437,35.2249,35.2249,0,0,1-6.79131,1.11638,32.01841,32.01841,0,0,0-3.6344.2925c-.29128.05584-.6957.16054-1.01117.23544-.01271.00183-.02346.00635-.03421.00759-.01589.00451-.04008.01209-.05523.01576a4.00884,4.00884,0,0,0-3.2075,4.61392A4.00853,4.00853,0,0,0,5.914,98.889c.01588-.00452.03934-.00452.05522-.00831.02786-.00757.04692-.01832.07356-.026.31351-.06976.70645-.14478.97989-.21712a31.841,31.841,0,0,0,3.39981-1.30342,35.332,35.332,0,0,1,6.60462-1.94268,4.18911,4.18911,0,0,1,2.17922.76852l1.65018-.2842A49.097,49.097,0,0,0,35.60571,118.0585H.10258v37.312H399.68112v-37.312ZM88.89254,113.97615l-7.6588-18.49651.02468-.033a3.35049,3.35049,0,0,1,2.89838-4.66133,3.22972,3.22972,0,0,1,.76852.05645l.03372-.03934,19.72687,3.3331A39.07247,39.07247,0,0,1,88.89254,113.97615ZM105.9324,72.17531a39.51586,39.51586,0,0,1,.82619,12.701L87.58813,79.355l-.01515-.08186a3.3425,3.3425,0,0,1-1.31221-5.73836l-.00587-.04L101.05078,60.2524A39.50176,39.50176,0,0,1,105.9324,72.17531ZM95.1174,52.82916,78.9294,64.30637l-.05792-.02346a3.34428,3.34428,0,0,1-4.5813-.61554,3.30511,3.30511,0,0,1-.72869-1.9356l-.01588-.00635-1.1265-19.84124a39.35888,39.35888,0,0,1,22.69831,10.945Zm-14.801,65.22931H55.14271l-.054-.01759,9.6159-17.389h.0171a3.344,3.344,0,0,1,5.88571-.007h.07086ZM64.6176,74.57984h6.09513l3.78688,4.73574-1.35939,5.909L67.66773,87.854l-5.48837-2.63753-1.35988-5.90916ZM58.88438,42.58159a40.29583,40.29583,0,0,1,4.04-.69741l-1.12651,19.873-.08113.04a3.34044,3.34044,0,0,1-5.30046,2.55822l-.03177.01577L40.091,52.82208A38.99623,38.99623,0,0,1,58.88438,42.58159ZM34.18059,60.24409,49.05833,73.54985l-.01515.08137a3.3396,3.3396,0,0,1-1.31247,5.74141l-.0171.06353L28.64407,84.93957A39.0158,39.0158,0,0,1,34.18059,60.24409ZM19.58166,145.94873q-.45195-.73272-1.04343-1.60765-.56446-.901-1.21325-1.77591a20.15683,20.15683,0,0,0-1.38187-1.72116,10.77,10.77,0,0,0-1.41022-1.38138v6.4861H10.3306v-21.208l4.20229-.67627v12.40834q.6213-.67588,1.26922-1.41009.677-.7329,1.29854-1.4382.61836-.73362,1.15559-1.382.56375-.6486.95888-1.12834h4.99207q-1.49513,1.72092-2.93357,3.30023-1.41009,1.55068-3.10266,3.2141a18.54787,18.54787,0,0,1,1.74841,1.83406q.90426,1.04283,1.74865,2.17189.84746,1.12677,1.551,2.256.7056,1.12692,1.18516,2.05826Zm19.4417-.508a21.9712,21.9712,0,0,1-2.76423.56484,21.55356,21.55356,0,0,1-3.55327.28175,8.55867,8.55867,0,0,1-3.15862-.50741,4.85527,4.85527,0,0,1-1.9742-1.4101,5.6819,5.6819,0,0,1-1.04343-2.19987,11.72457,11.72457,0,0,1-.31059-2.79209V131.115h4.2023v7.756a5.99926,5.99926,0,0,0,.5354,2.93234,2.13309,2.13309,0,0,0,2.003.90268q.45087,0,.95864-.0281c.33795-.03777.63974-.07563.90218-.11339V131.115h4.20279ZM30.78078,94.20215,50.33659,90.883l.03348.03885a3.47407,3.47407,0,0,1,.65513-.05523,3.33975,3.33975,0,0,1,3.20555,2.59684,3.2868,3.2868,0,0,1-.18743,2.05632l.05791.07354-7.575,18.31055A39.22914,39.22914,0,0,1,30.78078,94.20212Zm25.4706,47.5453a6.65729,6.65729,0,0,1-1.4955,2.45365,6.7866,6.7866,0,0,1-2.42627,1.57832,9.318,9.318,0,0,1-3.27152.53674c-.50681,0-1.04343-.02933-1.60693-.08418q-.817-.05754-1.63576-.1702-.78951-.11235-1.52286-.25377-.73381-.169-1.29732-.33844V124.7403l4.2023-.67688v7.38951a7.82425,7.82425,0,0,1,1.46617-.47945,7.53191,7.53191,0,0,1,1.63625-.16959,6.52946,6.52946,0,0,1,2.79086.56484,5.31615,5.31615,0,0,1,2.03162,1.551,7.02878,7.02878,0,0,1,1.24063,2.45365,10.99048,10.99048,0,0,1,.42324,3.15863,9.168,9.168,0,0,1-.53491,3.21542Zm16.96337-2.59512q-.02859.42262-.0562.76118h-9.5333a2.79626,2.79626,0,0,0,1.21375,2.059,4.868,4.868,0,0,0,2.87614.76106,12.79675,12.79675,0,0,0,2.25595-.19635,9.07156,9.07156,0,0,0,1.83345-.53674l.56423,3.413a5.80979,5.80979,0,0,1-.90267.33783,9.70729,9.70729,0,0,1-1.26849.28249q-.6781.14076-1.46739.22555a14.68116,14.68116,0,0,1-1.57981.0848,9.44782,9.44782,0,0,1-3.49657-.59282,7.035,7.035,0,0,1-2.4534-1.60767,6.81956,6.81956,0,0,1-1.43831-2.45291,9.97692,9.97692,0,0,1-.45207-3.04585v-.00012a9.14973,9.14973,0,0,1,.59355-3.441,7.5567,7.5567,0,0,1,1.60717-2.48234,6.67222,6.67222,0,0,1,2.256-1.49416,7.21835,7.21835,0,0,1,2.65132-.50815,6.52829,6.52829,0,0,1,4.99135,1.94682,7.90654,7.90654,0,0,1,1.8332,5.66774q0,.3669-.0279.81859Zm12.211-4.31519q-.56337-.14076-1.32517-.28236a7.61821,7.61821,0,0,0-1.6365-.169,6.6973,6.6973,0,0,0-.95814.0848,4.64552,4.64552,0,0,0-.81836.141v11.33792H76.486V131.90475a23.36877,23.36877,0,0,1,2.65108-.73368,14.9633,14.9633,0,0,1,3.43989-.36655,7.23835,7.23835,0,0,1,.81787.05547,8.40874,8.40874,0,0,1,.95938.11351,8.78521,8.78521,0,0,1,.95887.16885,3.94008,3.94008,0,0,1,.8191.22627Zm15.76258,11.112h-4.203v-7.86955a5.67037,5.67037,0,0,0-.5354-2.87614,2.18838,2.18838,0,0,0-2.00231-.84537,8.64878,8.64878,0,0,0-.95936.05607c-.33844.01955-.639.04692-.90268.0848v11.45019H88.384V131.622a22.05513,22.05513,0,0,1,2.76276-.56424,21.64835,21.64835,0,0,1,3.55474-.28175,8.32639,8.32639,0,0,1,3.12979.50754,4.61792,4.61792,0,0,1,2.003,1.382,5.43735,5.43735,0,0,1,1.04221,2.14318,11.38642,11.38642,0,0,1,.3118,2.76472Zm17.02887-6.79681c-.01833.28175-.03788.5354-.056.76118h-9.53354a2.79648,2.79648,0,0,0,1.214,2.059,4.86952,4.86952,0,0,0,2.87663.76106,12.80229,12.80229,0,0,0,2.25619-.19635,9.0896,9.0896,0,0,0,1.83321-.53674l.56375,3.413a5.817,5.817,0,0,1-.90267.33783,9.69092,9.69092,0,0,1-1.26873.28249q-.677.14076-1.46666.22555a14.71211,14.71211,0,0,1-1.57981.0848,9.44981,9.44981,0,0,1-3.49707-.59282,7.04017,7.04017,0,0,1-2.45363-1.60767,6.83021,6.83021,0,0,1-1.43758-2.45291,9.93975,9.93975,0,0,1-.45183-3.04585v-.00012a9.14936,9.14936,0,0,1,.59282-3.441,7.552,7.552,0,0,1,1.60693-2.48234,6.676,6.676,0,0,1,2.25621-1.49416,7.21709,7.21709,0,0,1,2.65107-.50815,6.52746,6.52746,0,0,1,4.99134,1.94682,7.90231,7.90231,0,0,1,1.83419,5.66774q0,.3669-.0288.81859Zm11.281,6.90935a9.88485,9.88485,0,0,1-2.28406.22578,7.737,7.737,0,0,1-2.8495-.45134,4.65818,4.65818,0,0,1-1.80486-1.29732,5.06821,5.06821,0,0,1-.9579-2.03039,12.50686,12.50686,0,0,1-.25438-2.62311v-12.465l4.20278-.677v4.371h5.04681v3.49732h-5.04681v5.21689a4.26036,4.26036,0,0,0,.45012,2.11593,2.03633,2.03633,0,0,0,1.88989.78978,8.78593,8.78593,0,0,0,1.38213-.1129,7.92473,7.92473,0,0,0,1.32467-.36654l.59357,3.2709a12.0205,12.0205,0,0,1-1.69246.536Zm17.14224-6.90934c-.01832.28176-.03789.5354-.05694.76119h-9.53257a2.79831,2.79831,0,0,0,1.213,2.059,4.8707,4.8707,0,0,0,2.87688.76107,12.80324,12.80324,0,0,0,2.25619-.19635,9.08556,9.08556,0,0,0,1.83321-.53675l.56422,3.413a5.81934,5.81934,0,0,1-.90266.33783,9.70711,9.70711,0,0,1-1.26848.28248q-.677.14075-1.4669.22556a14.70449,14.70449,0,0,1-1.57981.08479,9.45111,9.45111,0,0,1-3.49707-.59282,7.04231,7.04231,0,0,1-2.45364-1.60766,6.82274,6.82274,0,0,1-1.43806-2.45291,9.94769,9.94769,0,0,1-.45208-3.04586l.00025-.00012a9.14465,9.14465,0,0,1,.5933-3.441,7.55659,7.55659,0,0,1,1.60717-2.48235,6.67248,6.67248,0,0,1,2.256-1.49416,7.21574,7.21574,0,0,1,2.65134-.50814,6.52821,6.52821,0,0,1,4.99133,1.94682,7.91432,7.91432,0,0,1,1.83394,5.66774q-.00073.36687-.02859.81857Zm12.15457,6.0636a8.14473,8.14473,0,0,1-4.65289,1.12773,13.56438,13.56438,0,0,1-3.30011-.33856,13.394,13.394,0,0,1-1.80534-.56351l.7062-3.41238a14.74714,14.74714,0,0,0,2.1995.67639,11.31011,11.31011,0,0,0,2.22784.22568,4.18465,4.18465,0,0,0,1.635-.22568.86952.86952,0,0,0,.47993-.87457,1.03983,1.03983,0,0,0-.62019-.87335,10.89749,10.89749,0,0,0-1.88941-.87531q-.9882-.36582-1.80584-.76118a5.51829,5.51829,0,0,1-1.35279-.93053,3.94871,3.94871,0,0,1-.87408-1.326,4.82077,4.82077,0,0,1-.31107-1.83271,3.962,3.962,0,0,1,1.551-3.29889,6.74168,6.74168,0,0,1,4.25825-1.21374,12.92292,12.92292,0,0,1,2.59586.25426,11.35037,11.35037,0,0,1,1.97346.5068l-.7343,3.27225a14.82907,14.82907,0,0,0-1.60693-.45073,8.37671,8.37671,0,0,0-1.917-.19756q-1.97419,0-1.97419,1.0989a1.12907,1.12907,0,0,0,.08479.45134,1.04038,1.04038,0,0,0,.33722.39463q.25548.17009.67834.39588.45012.19665,1.127.45061a15.96,15.96,0,0,1,2.28527,1.01617,4.79557,4.79557,0,0,1,1.41021,1.07166,3.00244,3.00244,0,0,1,.73308,1.26847,5.37123,5.37123,0,0,1,.22507,1.63576,3.76192,3.76192,0,0,1-1.66388,3.32813Zm18.94883-2.04188a5.4987,5.4987,0,0,1-5.53066-5.46653v-.00059q-.00073-.10135.00244-.20258v-.03164a5.55382,5.55382,0,0,1,5.405-5.69866q.085-.0024.17032-.002a5.73748,5.73748,0,0,1,4.29932,1.74793l-.85039.91318a4.793,4.793,0,0,0-3.46482-1.51163,4.32224,4.32224,0,0,0-4.27218,4.37152c.00073.04961.002.09909.00439.1487v.03091a4.35009,4.35009,0,0,0,4.14243,4.54794c.04178.002.08357.00318.12536.00391a4.786,4.786,0,0,0,3.55939-1.59054l.81885.80322a5.74036,5.74036,0,0,1-4.40945,1.9368Zm18.59864-5.70133a5.62282,5.62282,0,0,1-11.24437.16947l-.00019-.01491c-.00074-.04093-.00074-.08186-.00049-.12293v-.03164a5.62281,5.62281,0,1,1,11.24457-.15407c.00073.041.00073.08211.00048.12315Zm13.52692,5.51244h-.99211l-7.11876-9.03993v9.03993h-1.21228V131.961h1.16487l6.94576,8.83514V131.961h1.21252ZM222.436,133.1105h-3.70062v9.87467H217.4754V133.1105h-3.70135V131.961h8.66189Zm11.49675,9.87467-3.19771-4.284h-3.14934v4.28391h-1.24429V131.961H231.082a4.34618,4.34618,0,0,1,3.1337,1.10206,3.04539,3.04539,0,0,1,.85086,2.17324v.03164a3.22628,3.22628,0,0,1-2.99245,3.21264l3.38588,4.50456Zm6.72363,0h-1.24429V131.961h1.24429Zm13.7009-3.0081c0,1.89013-1.59056,3.0081-4.00021,3.0081h-4.898V131.961h4.69347a4.05025,4.05025,0,0,1,2.88224.97635,2.45246,2.45246,0,0,1,.70841,1.76368v.03165a2.6606,2.6606,0,0,1-1.74815,2.551c1.30685.39378,2.36224,1.15022,2.36224,2.66183Zm13.055-1.70125c0,3.21287-1.84274,4.88235-4.59936,4.88235-2.72416,0-4.58277-1.66948-4.58277-4.78741V131.961h1.2443v6.33069c0,2.37788,1.26019,3.717,3.37024,3.717,2.03161,0,3.32333-1.22841,3.32333-3.63806V131.961h1.24429Zm12.39258-5.16532h-3.70062v9.87467h-1.26V133.1105H271.143V131.961h8.66189Zm13.9064,4.36223a5.6227,5.6227,0,0,1-11.24432.15639c-.00049-.04167-.00049-.08321-.00025-.12476v-.03164a5.6227,5.6227,0,0,1,11.24433-.15456c.00049.04129.00049.08247.00024.12364Zm11.79486,5.51244-3.19772-4.28391h-3.14957v4.28391h-1.24429l.00024-11.02416h4.74088a4.34764,4.34764,0,0,1,3.1337,1.10207,3.04372,3.04372,0,0,1,.85037,2.17323v.03165a3.226,3.226,0,0,1-2.992,3.21263l3.3859,4.50458Zm4.7927-39.4469v-.08406c0-5.883,2.91916-10.5369,7.48919-10.5369,4.56983,0,7.57474,4.7807,7.57474,10.621v.08577c0,5.84026-2.87616,10.537-7.489,10.537s-7.57486-4.78263-7.57486-10.62287Zm14.41931,36.48621c0,1.8894-1.57492,3.11793-3.76392,3.11793a6.44993,6.44993,0,0,1-4.50433-1.76369l.77145-.91378a5.24973,5.24973,0,0,0,3.77954,1.55964c1.48059,0,2.45707-.78732,2.45707-1.87425v-.03175c0-1.02364-.551-1.60633-2.86661-2.0942-2.53525-.55163-3.70038-1.37062-3.70038-3.18184v-.03077c0-1.73278,1.52725-3.00884,3.62219-3.00884a5.74825,5.74825,0,0,1,3.87363,1.355l-.724.96059a4.84206,4.84206,0,0,0-3.18134-1.19689c-1.43319,0-2.34686.78734-2.34686,1.77945v.03165c0,1.03952.56741,1.62219,2.993,2.14158,2.45609.536,3.59067,1.4332,3.59067,3.11869Zm13.1181-1.74866c0,3.21287-1.84274,4.88235-4.59915,4.88235-2.7244,0-4.58276-1.66948-4.58276-4.78741V131.961h1.24429v6.33069c0,2.37788,1.25992,3.717,3.37,3.717,2.03162,0,3.32334-1.22841,3.32334-3.63806V131.961h1.24429Zm41.3104-34.73755v-.08406c0-5.883,2.91915-10.5369,7.489-10.5369,4.57007,0,7.575,4.7807,7.575,10.621v.08577c0,5.84026-2.87613,10.537-7.489,10.537-4.613-.00009-7.575-4.78263-7.575-10.62287Zm-26.23935,39.4469H351.663v-8.93l-4.01611,5.90611h-.06329l-4.01584-5.89023v8.91409h-1.21253V131.961h1.25992l4.01584,6.016,4.01608-6.016h1.2602Zm15.2438,0h-1.24429v-8.93l-4.01584,5.90611h-.06329l-4.01584-5.89023v8.91409H357.599V131.961h1.26019l4.01608,6.016,4.01584-6.016H368.151Zm6.04627,0H372.953V131.961h1.2443Zm12.67724-9.87467H383.174v9.87467h-1.26016V133.1105h-3.70136V131.961h8.66214Z" class="cls-1"/><path d="M195.051,137.5043v-.03164a4.383,4.383,0,0,0-4.2116-4.54793l-.00022,0q-.06747-.00275-.13489-.00317a4.33052,4.33052,0,0,0-4.3191,4.34192v.00039c0,.05939.00146.11864.0039.17789v.03092a4.383,4.383,0,0,0,4.2108,4.54869H190.6q.06778.00274.13562.00317a4.331,4.331,0,0,0,4.31959-4.34238v0c0-.05927-.00146-.11864-.0039-.17778Z" class="cls-1"/><path d="M141.93011,135.091a2.3494,2.3494,0,0,0-.8186-.649,2.57956,2.57956,0,0,0-1.21179-.25365,2.69855,2.69855,0,0,0-1.21253.25365,2.36905,2.36905,0,0,0-.84719.62093,3.02038,3.02038,0,0,0-.53467.93077,6.51243,6.51243,0,0,0-.25438,1.04281h5.556a3.88112,3.88112,0,0,0-.19769-1.04281A2.30767,2.30767,0,0,0,141.93011,135.091Z" class="cls-1"/><path d="M113.50714,135.091a2.35906,2.35906,0,0,0-.81739-.649,2.58667,2.58667,0,0,0-1.21228-.25365,2.70112,2.70112,0,0,0-1.21326.25365,2.35123,2.35123,0,0,0-.846.62093,3.006,3.006,0,0,0-.53613.93077,6.56238,6.56238,0,0,0-.25438,1.04281h5.55679a3.91017,3.91017,0,0,0-.19818-1.04281A2.30763,2.30763,0,0,0,113.50714,135.091Z" class="cls-1"/><path d="M68.50443,135.091a2.35847,2.35847,0,0,0-.81788-.649,2.58541,2.58541,0,0,0-1.21179-.25365,2.69863,2.69863,0,0,0-1.213.25365,2.3637,2.3637,0,0,0-.84745.62093,3.01029,3.01029,0,0,0-.53466.93077,6.51136,6.51136,0,0,0-.25438,1.04281H69.182a3.92,3.92,0,0,0-.19817-1.04281A2.32028,2.32028,0,0,0,68.50443,135.091Z" class="cls-1"/><path d="M49.50943,134.35852a5.21833,5.21833,0,0,0-1.29732.16763,3.67091,3.67091,0,0,0-1.01459.424v7.64328c.20673.03641.46941.07562.789.11217.31963.01832.66735.02871,1.04367.02871a3.02111,3.02111,0,0,0,2.59513-1.18454,5.15143,5.15143,0,0,0,.87384-3.13052Q52.49921,134.35717,49.50943,134.35852Z" class="cls-1"/><path d="M250.16814,137.97691h-3.4807v3.89025h3.70135c1.6695,0,2.70827-.74066,2.70827-1.96907v-.03176C253.09706,138.66956,252.08931,137.97691,250.16814,137.97691Z" class="cls-1"/><path d="M252.483,134.90576v-.03152c0-1.08631-.86578-1.79534-2.44044-1.79534h-3.35509v3.79531h3.26028C251.44418,136.87422,252.483,136.19746,252.483,134.90576Z" class="cls-1"/><path d="M305.37982,135.31532v-.03177c0-1.35412-1.03952-2.17311-2.81921-2.17311h-3.40177v4.4728H302.545C304.19855,137.58324,305.37982,136.73262,305.37982,135.31532Z" class="cls-1"/><path d="M233.80638,135.31532v-.03164c0-1.35425-1.03952-2.17324-2.81921-2.17324h-3.40152v4.4728h3.38588C232.62538,137.58324,233.80638,136.73262,233.80638,135.31532Z" class="cls-1"/><path d="M292.41956,137.47267a4.38308,4.38308,0,0,0-4.21158-4.54794q-.06749-.00275-.13489-.00318a4.3308,4.3308,0,0,0-4.31958,4.34195c.00024.0595.00146.11889.00415.17826v.03091a4.38342,4.38342,0,0,0,4.21155,4.5488h0c.04519.00171.09018.00281.13562.00305a4.33064,4.33064,0,0,0,4.31885-4.34231c-.00025-.05939-.00147-.11864-.00415-.17791Z" class="cls-1"/><path d="M231.60028,90.52935c.00122-.01185.00171-.02126.00537-.04276h-.02638c.00561.01.01247.01931.01784.02945Z" class="cls-1"/><path d="M172.43263,73.99227c.15492-.05107.312-.11119.46526-.15455a1.44865,1.44865,0,0,1,.29837-.05694.78573.78573,0,0,1,.14123.00245c.49874-.983,1.01288-1.95942,1.49184-2.95288.29788-.61725.61263-.724,1.21155-.30227,5.09154,3.585,9.63226,7.68151,12.41456,13.39385,2.29873,4.71974,4.83031,9.25217,9.36689,12.2456.53784.35482.37338.78611.38414,1.23964a7.11058,7.11058,0,0,0,8.8437,7.10141c2.16138-.44817,4.32961-.87751,6.46338-1.43587,1.08154-.2831,1.49745-.04936,1.91434,1.03193a21.99437,21.99437,0,0,0,16.37227,13.95382h8.158a22.03641,22.03641,0,0,0,13.13153-35.97023,19.97818,19.97818,0,0,0-12.78258-7.437l-8.22792.0088a14.73711,14.73711,0,0,0-5.7882,1.77552c-.54787.25866-1.05614.68348-1.59691-.131-1.50454-2.26572-3.07555-4.48722-4.62015-6.72606-.94177-.95375-.55617-1.90261.01051-2.85061a8.5032,8.5032,0,0,1-1.27752-.09054l-.03054-.00232a2.94868,2.94868,0,0,0-.6307.0077,1.75586,1.75586,0,0,0-.63462.2104c-.72136.81164-.8489,1.91946-1.40385,2.81408-2.31778,5.342-4.65975,10.67373-6.93134,16.03529-.424,1.00091-.85283,1.07458-1.75232.60846A47.97554,47.97554,0,0,1,194.045,75.66945a65.28459,65.28459,0,0,0-6.17626-6.05969,42.68806,42.68806,0,0,0-8.41558-4.47721c-1.49427-.53492-1.53557-1.33593-.66246-2.44765.34381-.58293.44839-1.30392,1.01434-1.7588a16.2453,16.2453,0,0,1,1.2939-2.99734c.02859-.05291.05961-.10434.08822-.15712.49141-.90232,1.02242-1.78482,1.5214-2.68285a1.232,1.232,0,0,1,.3817-.42654,1.18679,1.18679,0,0,1,.28907-.15064,2.00085,2.00085,0,0,1,.55323-.093c.096-.00452.19328-.00526.29054-.00477s.19476.0022.29152.00257.19281-.00049.28689-.00525c.312-.01564.62459-.01674.93761-.01381.31279.00293.62581.00989.9386.01039-.09726-.84928.43985-1.50539.68446-2.24961-3.96844-1.0042-6.29159.16031-8.14605,4.0982-.14809.31475-.10117.75595-.6026.79564a9.789,9.789,0,0,1-.99529,2.5542c-.425.81018-.89436,1.60057-1.2614,2.43666a7.61437,7.61437,0,0,1-.55324,1.26091c-.32377.56887-.43446,1.27679-1.06907,1.64406v.00037h.00024a3.37785,3.37785,0,0,1-.248,1.32688,8.351,8.351,0,0,1-.60529,1.186,11.04349,11.04349,0,0,0-.75018,1.41278,3.06441,3.06441,0,0,1-.575,1.23587,15.52241,15.52241,0,0,0-1.35375,3.132c.15589.69252.44326.86663.77877.85038a1.083,1.083,0,0,0,.14638-.01759A2.34554,2.34554,0,0,0,172.43263,73.99227Zm32.78459,29.64565a6.13438,6.13438,0,0,1-5.39625-4.58c-.11461-.50277-.46745-1.28521.2231-1.46141.51561-.13146,1.06444.32085,1.345,1.03536,1.0383,2.64669,2.62933,3.63466,4.99452,3.26921a3.25744,3.25744,0,0,0,2.18118-1.1413,2.012,2.012,0,0,1,2.602-.682A6.04985,6.04985,0,0,1,205.21722,103.63792Zm-4.3863-9.58046a6.08715,6.08715,0,0,1,4.74453-2.4248c.35972-.01149.77758.02395.716.613-.17961.52929-.36362,1.09682-1.07227,1.175a4.238,4.238,0,0,0-3.08041,1.69269c-.368.49337-.7502.462-1.21375.1498-.55642-.37462-.409-.81056-.0941-1.2057Zm27.76663-15.3474a19.14313,19.14313,0,0,1,26.07393,12.991c.26707,1.06346.41711,2.15625.62164,3.23536l.11951-.90671.1344-.002v4.74271c-.15543-.63-.21163-.85869-.26831-1.08741a22.92907,22.92907,0,0,1-1.82711,6.61745c-3.17378,6.2245-8.11209,10.00125-15.12626,10.90025a5.2136,5.2136,0,0,0-.74628.20807q.30567.06123.61066.12218l.00635.12561h-4.69445c.28762-.07234.48873-.12292.64684-.16251.15809-.03982.273-.06866.3878-.0975a20.80014,20.80014,0,0,1-10.35069-4.25507,20.11581,20.11581,0,0,1-5.679-7.45573c-.49215-1.0852-.51169-1.67619.96914-1.992,6.16355-1.31516,12.29851-2.7657,18.43541-4.203a3.35027,3.35027,0,0,0,2.85855-3.29229,3.26216,3.26216,0,0,0-3.53592-3.37732A3.6369,3.6369,0,0,1,233.55,88.87772c-1.77211-2.73319-3.66127-5.3982-5.636-7.98918-.95685-1.256-.53606-1.64754.68356-2.17849Zm-3.28839,2.60429c2.06486,3.07467,4.46229,5.92186,6.27009,9.17225h.02639c-.00367.02149-.00415.0309-.00537.04276l-.00318-.01332c-.00537-.01013-.01222-.01943-.01784-.02944-4.21695,0-8.40092-.01223-12.58439.01051-.822.0044-.9975-.2407-.70328-1.01252a19.64907,19.64907,0,0,1,5.96928-8.16622c.33184-.27637.68914-.53882,1.04831-.004Zm-15.29144,8.31771c2.67234-6.09879,5.33564-12.20162,8.10037-18.53,1.64552,2.32669,3.14175,4.46743,4.66926,6.58593.4054.5624.09432.84658-.3013,1.15741a21.95311,21.95311,0,0,0-7.50363,10.84626c-.13147.413-.28468.77732-.8406.76314-1.20911-.03066-2.41944-.028-3.62952-.033C209.92047,90.41939,209.77849,90.17833,210.01772,89.63206Zm-1.30611,3.164c.4501-.58378.81128.11192,1.11429.36605a5.51371,5.51371,0,0,1,1.90065,3.31905c.13781.73907.00512,1.15131-.88875.95338-.34676-.0347-.85722.14808-.98355-.43692a5.0039,5.0039,0,0,0-1.43881-2.53953C207.79453,93.83875,208.38564,93.2188,208.71161,92.79607ZM176.69038,66.99264a.68765.68765,0,0,1,.16886-.24791.197.197,0,0,1,.16348-.0485.29357.29357,0,0,1,.04178.01637.40986.40986,0,0,1,.09457.04679,1.41828,1.41828,0,0,1,.12267.09347c.03885.03275.07771.0628.11607.09115a.533.533,0,0,0,.08748.05107.2883.2883,0,0,0,.05888.02493,14.23062,14.23062,0,0,1,2.761.9607q.442.20545.87091.43851a14.56638,14.56638,0,0,1,1.67583,1.04245,25.95639,25.95639,0,0,1,8.24673,6.48122c4.52681,5.12085,9.54723,9.63337,15.72007,12.72271.33966.16983.89608.219.65121.85086a1.15579,1.15579,0,0,1-1.14191.88289,8.45662,8.45662,0,0,0-5.55923,1.88452,4.00482,4.00482,0,0,0-.36948.295c-.44865.50057-1.03927,1.50514-1.29854,1.42462a5.76473,5.76473,0,0,1-2.0216-1.40715A25.42927,25.42927,0,0,1,191.327,84.363a36.742,36.742,0,0,0-11.86037-14.28248,3.42114,3.42114,0,0,1-.42494-.46c-.73529-.44914-1.49355-.86578-2.198-1.35915a.73538.73538,0,0,1-.12952-.14051.69785.69785,0,0,1-.19989-.44278A1.57976,1.57976,0,0,1,176.69038,66.99264Z" class="cls-1"/><path d="M239.48071,118.15059c.162-.02567.31719-.06329.4775-.09213h-8.158A22.318,22.318,0,0,0,239.48071,118.15059Z" class="cls-1"/><path d="M184.45769,100.56812a22.193,22.193,0,0,0-10.61437-23.44375c-.55665-.32267-1.34692-.39-1.57858-1.17086a1.90719,1.90719,0,0,1-.4836-.20526c-.11583-.06562-.22921-.13782-.344-.207a1.48666,1.48666,0,0,0-1.15047-.28431,6.09694,6.09694,0,0,1-2.46658-.4533,3.57748,3.57748,0,0,0-1.49819-.15174q-3.73287-.004-7.46551-.00856a16.0694,16.0694,0,0,0-2.67674.54139,18.73483,18.73483,0,0,0-3.69428,1.54253,27.75522,27.75522,0,0,0-3.40028,2.211q-.7503.56226-1.50063,1.12407c-.10679.115-.21065.233-.32109.34442-6.914,6.97471-8.681,16.89337-4.531,25.4387a22.26465,22.26465,0,0,0,15.88183,12.213h8.38016A22.43971,22.43971,0,0,0,184.45769,100.56812Zm-18.84252,15.154h-5.83708a.97473.97473,0,0,1,.71793-.255c.05987-.00049.11924.00085.1779.00207.05865.001.11656.00171.17349-.00024a.89493.89493,0,0,0,.32891-.06452,21.71273,21.71273,0,0,1-9.2176-3.38539,19.09379,19.09379,0,0,1,15.64652-34.23086c1.15486.30313.95326.72319.58281,1.50026q-2.91843,6.11669-5.76354,12.26722a2.85065,2.85065,0,0,1-1.9566,1.79117,2.91639,2.91639,0,0,0-2.177,3.10865,3.149,3.149,0,0,0,2.5702,2.99845,3.01541,3.01541,0,0,0,3.37856-1.45163,2.95464,2.95464,0,0,0,.09335-3.15043,1.67878,1.67878,0,0,1-.01954-1.74988c2.05362-4.31984,4.09794-8.6448,6.091-12.99274.41052-.89607.75386-.997,1.62134-.50289a19.15592,19.15592,0,0,1,9.63226,19.28115c-.75728,6.87146-6.43722,13.62441-13.28133,15.59763-1.35351.39036-2.75346.61946-4.13191.923a.61269.61269,0,0,0,.07381.02225.938.938,0,0,0,.23727.04044l.01613.00158c.05693.00171.1146.00048.17276-.001.0584-.00171.117-.00368.17618-.00368a1.19052,1.19052,0,0,1,.35335.04423.80142.80142,0,0,1,.34112.21015Z" class="cls-1"/><path d="M165.58536,118.27753c.4743-.05291.9425-.13294,1.409-.21907H158.6142A22.23486,22.23486,0,0,0,165.58536,118.27753Z" class="cls-1"/><path d="M172.75346,58.66539h-.00024v.00012A5.77873,5.77873,0,0,1,170.2495,57.091l-.002-.00257a5.454,5.454,0,0,1-.5987-.79955.58375.58375,0,0,0-.39732.179.96667.96667,0,0,0-.18962.36361c-.02152.066-.04253.13256-.06305.2027-.13147.4517-.46111.91733-.86113.9458a.55506.55506,0,0,1-.17545-.01588,1.21008,1.21008,0,0,1-.81861-1.34778,7.86209,7.86209,0,0,0-.01-.93248,1.58351,1.58351,0,0,0-.95912.593c-.128.14124-.25.29091-.3812.42994a2.062,2.062,0,0,1-.43765.36557c-.07013.04166-.14026.0843-.21039.12658-.14026.08455-.281.16739-.422.23617a2.07331,2.07331,0,0,1-.27346.10839,1.198,1.198,0,0,1-.34625.063c-.00708,0-.0144.0022-.0215.00208a.92792.92792,0,0,1-.43619-.11167.57431.57431,0,0,1-.338-.49814,1.103,1.103,0,0,1,.0066-.20367c.01613-.13941.05181-.285.08309-.4291a1.86749,1.86749,0,0,0,.05473-.41944,11.94717,11.94717,0,0,1-3.262.44621l-.07624,7.59868q-.0165.567-.03323,1.13384.01761,2.25643.03545,4.51264c.20843,1.13115,1.15484,1.06835,1.95733,1.16279,2.02332.23789,4.05495.40589,6.078.64573,2.70092.32,2.699.33771,4.0112-1.95477a5.82,5.82,0,0,1,.04789-.658,7.23156,7.23156,0,0,1,.28566-1.25454,13.382,13.382,0,0,1,.49-1.27716c.24461-.56509.51073-1.12334.75068-1.69013v.00023l.39856-.94935.24779-.239.08162-.07868.04961.04106a6.50467,6.50467,0,0,1,.20233-1.375,15.46176,15.46176,0,0,1,.58281-1.74377,18.05907,18.05907,0,0,0,.73479-2.17592c-.85453-.95069-2.1494-1.09584-3.17206-1.73852Z" class="cls-1"/><path d="M169.06532,74.34122c.12609.03518.26612.05632.40515.08149a1.88581,1.88581,0,0,1,.3993.10679.64627.64627,0,0,1,.30227.24143.85144.85144,0,0,1,.11461.48567h.00025a1.48647,1.48647,0,0,1,1.15022.28468c.11485.06916.22822.14136.34405.207a1.90686,1.90686,0,0,0,.4836.20527c.59992-.36667.9904.12915,1.41608.37375,7.37925,4.24017,11.23553,10.6559,11.7807,19.11327.031.48262-.19621,1.24063.56251,1.24392.836.0038.68128-.77816.66613-1.33165a22.27267,22.27267,0,0,0-1.042-6.20216,23.70853,23.70853,0,0,0-11.36846-13.94489c-.50973-.285-1.45077-.40943-.94226-1.42255a.78665.78665,0,0,0-.14123-.00245,1.45,1.45,0,0,0-.29837.05694c-.15322.04337-.31034.10349-.46526.15456a2.34687,2.34687,0,0,1-.305.08223,1.0832,1.0832,0,0,1-.14638.01759c-.33551.01637-.62288-.15774-.779-.85014-.529.51219-1.08081.18315-1.61424.02725a23.57446,23.57446,0,0,0-14.542.33392,22.48318,22.48318,0,0,0-8.06371,4.768c-.32255.29714-.67.58-.41493,1.05588.22873.42727.59772.32427.94692.12744a21.52612,21.52612,0,0,1,11.92315-5.83965A21.78555,21.78555,0,0,1,169.06532,74.34122Z" class="cls-1"/><path d="M170.28688,75.2566h-.00024V75.257a1.48664,1.48664,0,0,1,1.15046.28432A1.48645,1.48645,0,0,0,170.28688,75.2566Z" class="cls-1"/><path d="M226.9921,74.70862c.34405.98465,1.2697.20941,1.8955.00574a22.58558,22.58558,0,0,1,27.68256,11.58032,21.33148,21.33148,0,0,1,2.22784,9.43348c-.00024.42507-.14318,1.07409.58377,1.05809.609-.01332.68421-.54933.70133-1.04343.009-.26293.00317-.5266.00024-.78978-.12658-12.24743-11.37457-22.99118-23.86587-22.79471a23.534,23.534,0,0,0-7.73969,1.331C227.85445,73.7082,226.65829,73.75389,226.9921,74.70862Z" class="cls-1"/><path d="M167.82005,74.80367a6.097,6.097,0,0,0,2.46659.4533v-.00036A6.09407,6.09407,0,0,1,167.82005,74.80367Z" class="cls-1"/><path d="M232.07922,74.66l8.22792-.00879A15.68,15.68,0,0,0,232.07922,74.66Z" class="cls-1"/><path d="M218.7764,66.635l.03053.00232a8.47614,8.47614,0,0,0,1.27777.09017l-.00024.00037h.00049c2.18948-.01063,4.388-.14747,6.565.01014,1.57931.11448,2.20537-.41761,2.12253-1.93193q.04032-.55767.08088-1.11711a13.341,13.341,0,0,1,.10436-1.55816c.218-1.205.14783-1.76943-1.43808-1.44126-4.80513.99406-9.65157,1.78923-14.48187,2.66172q-.79908.44772-1.59618.89522c-.40025.83107-1.35986,1.27912-1.64188,2.36139,2.62177.27063,5.18463-.13746,7.71134.24522a1.75557,1.75557,0,0,1,.63461-.21041A2.9497,2.9497,0,0,1,218.7764,66.635Z" class="cls-1"/><path d="M218.807,66.63733a8.50451,8.50451,0,0,0,1.27752.09054l.00025-.00037A8.47735,8.47735,0,0,1,218.807,66.63733Z" class="cls-1"/><path d="M186.67772,54.40774c.57376,1.11014,1.79459,1.08178,2.73172,1.55317.5332.26806,1.23061.18889,1.61816.76534.90464.2523,1.81732.47871,2.711.76436a1.67661,1.67661,0,0,0,2.09712-.5277c.67419-2.41906.64-2.48578-1.80779-3.33249-1.52849-.5288-3.06576-1.03292-4.5874-1.581a2.03672,2.03672,0,0,0-2.07829.10874C187.11757,52.90235,186.58046,53.55846,186.67772,54.40774Z" class="cls-1"/><path d="M255.547,98.77047V94.02776l-.1344.002-.11951.90671q-.007,1.37343-.0144,2.74663C255.33542,97.91178,255.39162,98.1405,255.547,98.77047Z" class="cls-1"/><path d="M234.14848,115.49413c-.15811.03959-.35922.09016-.64683.1625h4.69444l-.00635-.12561q-.30533-.061-.61065-.12218-1.52115-.00585-3.0428-.01222C234.42143,115.42546,234.30659,115.45428,234.14848,115.49413Z" class="cls-1"/><path d="M158.85635,74.64337q3.73325.00477,7.46454.00807A15.353,15.353,0,0,0,158.85635,74.64337Z" class="cls-1"/><path d="M164.92093,115.46773c-.05913,0-.11778.002-.17618.00368-.05817.00146-.11583.00268-.17276.001l-.01613-.00158a.9379.9379,0,0,1-.23727-.04044.61464.61464,0,0,1-.074-.02225q-1.53435-.00165-3.0682-.00368a.89493.89493,0,0,1-.32891.06452c-.05694.002-.11485.00123-.17349.00024-.05865-.00122-.118-.00256-.1779-.00207a.97473.97473,0,0,0-.71793.255h5.83708a.80066.80066,0,0,0-.34089-.21014A1.19067,1.19067,0,0,0,164.92093,115.46773Z" class="cls-1"/><path d="M175.20027,50.66534c-.36655.42653-.73431.85476-1.10794,1.28962-.32426.37766-.65243.75959-.99211,1.155a2.33371,2.33371,0,0,1-.26488-1.14482,2.29121,2.29121,0,0,0-.18742-.89522,1.0491,1.0491,0,0,0-.85405-.55092,5.47685,5.47685,0,0,1-1.38309,1.67584c.42471.63584,1.21913,1.07666,1.60155,1.74206a1.71081,1.71081,0,0,1,.07452,1.53117c-.02418.06671.04032.16568.14492.27906.174.18889.45939.41787.63046.60553l.00024.00024v-.00024c1.02266.64292,2.31777.788,3.17255,1.73754l-.00049.00123.00024.00012a2.96477,2.96477,0,0,1,1.13506-.72832c.4164-.16653.85454-.29067,1.26335-.473.15714-.5938-.23067-.8455-.66148-1.09475a8.63216,8.63216,0,0,0-3.05184-1.17391,8.6608,8.6608,0,0,0,3.19553-2.64632c.45427-.64988,1.356-1.347.9772-2.11483-.48481-.98307-1.497-.15175-2.2794-.16433a.41356.41356,0,0,1-.27466.29189,1.81373,1.81373,0,0,1-.3988.05742l-.20478.17154Z" class="cls-1"/><path d="M172.86246,56.35262v.00024c1.02266.64268,2.31753.78783,3.17206,1.73852l.00048-.00122C175.18024,57.14057,173.88512,56.99554,172.86246,56.35262Z" class="cls-1"/><path d="M159.57771,56.25878a4.58241,4.58241,0,0,0,.61263.13392,11.94711,11.94711,0,0,0,3.262-.44621,5.13543,5.13543,0,0,0,1.19713-1.66643c.13586-.25829.26953-.51817.41518-.76791a3.09253,3.09253,0,0,1,1.98471-1.65335l-.27932-.53736-.96986-1.86546a2.09913,2.09913,0,0,1-.2473-.06965c-.34088.7304-.68616,1.47009-1.08935,2.33293-.07624.16348-.15078.32329-.23191.49691-.11607-.20465-.23141-.39465-.33868-.57706s-.20648-.357-.29079-.53148a2.34057,2.34057,0,0,1-.26709-1.09132.5934.5934,0,0,1-.27049-.05742c-.23093-.1168-.33063-.38317-.47285-.60089q-.56667-.52893-1.13213-1.05516c-.69325-.25963-1.4366-1.20739-2.06828-.58207-.618.61164.00561,1.559.30642,2.33537a5.82758,5.82758,0,0,0,3.271,3.43232,9.9324,9.9324,0,0,0-3.53177,1.0967c-.38438.22554-1.00726.40417-.9557.91269C158.53085,55.98754,159.13982,56.10068,159.57771,56.25878Z" class="cls-1"/><path d="M169.6403,55.978q.00439.15541.00855.31059v.00012a5.43782,5.43782,0,0,0,.59869.79967l.002.00257a5.77669,5.77669,0,0,0,2.50373,1.57443c.03738-.79258.0733-1.55256.109-2.31276-.17107-.18767-.45647-.41665-.63046-.60553-.10459-.11338-.1691-.21235-.14492-.27906a1.71083,1.71083,0,0,0-.07452-1.53118c-.38242-.6654-1.17709-1.106-1.60179-1.74182a.26148.26148,0,0,1-.04912.16825c-.12878.16848-.48067.13684-.69594.22786a.25632.25632,0,0,0-.17544.26892.82076.82076,0,0,0,.07306.27894v.00013Q169.60156,54.55892,169.6403,55.978Z" class="cls-1"/><path d="M172.75323,58.66551v-.00012a5.4372,5.4372,0,0,1-1.13432-.49264A5.43762,5.43762,0,0,0,172.75323,58.66551Z" class="cls-1"/><path d="M171.6189,58.17275a5.44345,5.44345,0,0,1-1.3694-1.08178A5.43675,5.43675,0,0,0,171.6189,58.17275Z" class="cls-1"/><path d="M169.64885,56.28884a5.45325,5.45325,0,0,0,.59869.79955,5.43773,5.43773,0,0,1-.59869-.79966Z" class="cls-1"/><path d="M172.01231,53.93686c-.38241-.6654-1.17683-1.10623-1.60154-1.74206l-.00025.00024C170.83524,52.83087,171.6299,53.27146,172.01231,53.93686Z" class="cls-1"/><path d="M163.3145,56.795a1.10286,1.10286,0,0,0-.00661.20366.57432.57432,0,0,0,.338.49814.9278.9278,0,0,0,.43619.11167c.00709.00013.01442-.00208.0215-.00208a1.198,1.198,0,0,0,.34625-.063,2.07451,2.07451,0,0,0,.27345-.10838c.141-.06879.28176-.15162.422-.23617.07013-.04228.14026-.08493.21039-.12658a2.0626,2.0626,0,0,0,.43765-.36557c.13123-.139.25316-.28871.38119-.43a1.58365,1.58365,0,0,1,.95913-.593,5.54785,5.54785,0,0,1,.67762-3.03694,1.03,1.03,0,0,0-.76167-.78746,3.09129,3.09129,0,0,0-1.98495,1.65274c-.14565.24975-.27932.50963-.41518.76792a5.131,5.131,0,0,1-1.19713,1.66643,1.86765,1.86765,0,0,1-.05473.41945C163.3663,56.51,163.33063,56.65563,163.3145,56.795Z" class="cls-1"/><path d="M164.64944,54.28006a5.1354,5.1354,0,0,1-1.19712,1.66643A5.13085,5.13085,0,0,0,164.64944,54.28006Z" class="cls-1"/><path d="M167.13876,54.89414a5.53081,5.53081,0,0,0-.00514.78966,7.91584,7.91584,0,0,1,.01027.93249,1.20957,1.20957,0,0,0,.81838,1.34778.555.555,0,0,0,.17544.01587c.4-.02847.72966-.4941.86113-.9458.02052-.07014.04153-.13672.06305-.2027a.96674.96674,0,0,1,.18962-.36361.585.585,0,0,1,.3971-.17948l.00024.00025q-.0044-.15507-.00855-.3106l-.07771-2.8385a1.23137,1.23137,0,0,1-1.12773-.19085,2.9964,2.9964,0,0,0-.62288-.30155v.00025A5.54557,5.54557,0,0,0,167.13876,54.89414Z" class="cls-1"/><path d="M169.64885,56.2886l-.00024-.00025a.585.585,0,0,0-.3971.17948.58384.58384,0,0,1,.39732-.179V56.2886Z" class="cls-1"/><path d="M167.13364,55.6838a7.86439,7.86439,0,0,1,.01.93249,1.20611,1.20611,0,0,0,.15958.82544,1.20724,1.20724,0,0,1-.15932-.82544A7.91584,7.91584,0,0,0,167.13364,55.6838Z" class="cls-1"/><path d="M167.13876,54.89414a5.545,5.545,0,0,1,.67321-2.24678v-.00025l-.00074-.00024A5.55158,5.55158,0,0,0,167.13876,54.89414Z" class="cls-1"/><path d="M162.88075,49.40834a.55942.55942,0,0,1,.4142.28749.68126.68126,0,0,1,.04936.31461c.76926.24779,1.322-.26377,1.94268-.53735a2.14945,2.14945,0,0,1,.258-.09481,3.05487,3.05487,0,0,1,.128-.33673.21852.21852,0,0,1,.1234.07013c.06939.08944,0,.22848.00367.34382q.48457.93267.96987,1.86595l.27931.53735.00024.00061a1.03214,1.03214,0,0,1,.76241.7877,2.9959,2.9959,0,0,1,.62288.30155,1.23074,1.23074,0,0,0,1.12822.19036.82082.82082,0,0,1-.07306-.27894.25631.25631,0,0,1,.17544-.26892c.215-.091.56693-.05963.69594-.22786a.2615.2615,0,0,0,.04912-.16825l.00025-.00049v.00025a5.47708,5.47708,0,0,0,1.38308-1.67584.48093.48093,0,0,1,.59113-.49215.2638.2638,0,0,1,.16495.114,2.21959,2.21959,0,0,0,.20721.30655,1.53572,1.53572,0,0,0,.22041.22274,1.16991,1.16991,0,0,0,.47359.23642,4.36036,4.36036,0,0,0,1.7489-.24106q.26758-.22431.53491-.44853.10263-.08577.20478-.17154a1.41043,1.41043,0,0,1,.27784-.29567.45392.45392,0,0,1,.39344-.06366c.1278-1.13982,1.53434-1.82283,1.12846-3.15326l-.01149-.00158h-.00024c-.20992.11973-.42177.23617-.63094.3575-.27344.15883-.54469.32158-.82474.46746a1.59718,1.59718,0,0,1-.811.24.41192.41192,0,0,1-.1762-.05572.45141.45141,0,0,1-.1923-.33624,1.935,1.935,0,0,1,.04082-.661c-.45525-.06378-.10607-1.38113-.90244-.69888-.55251.47332-.85844,1.13188-1.60667.38719-.62606-.62275-1.28168-1.21778-.475-2.21746a1.153,1.153,0,0,0,.18889-1.48291c-.65856.45879-1.29.89875-1.95831,1.3644-.29667-.80359-.0633-1.723-.86406-2.39634l-.88924,1.84115c-.77414-.238-.88753-1.255-1.96271-1.259.88924,2.06633.21161,3.471-1.65214,4.38655-.63314-.64683-.29787-1.777-1.16243-2.35614-.63.577-.23165,1.779-.88581,2.04128-.80664.32317-1.10916-1.14252-2.05874-1.07471v1.39519a2.39062,2.39062,0,0,1,.55494,1.82929q.56559.52617,1.13213,1.05516A2.801,2.801,0,0,1,162.88075,49.40834Zm3.70357-1.92533a.68848.68848,0,0,1,.04814-.1162,4.88994,4.88994,0,0,1,.38439-.53026.69748.69748,0,0,0,.18132-.55324.32114.32114,0,0,1-.00269-.14967.24822.24822,0,0,1,.0601-.11242.51043.51043,0,0,1,.391-.129.465.465,0,0,1,.35823.15028,1.41658,1.41658,0,0,0,.97354.696,2.44907,2.44907,0,0,0,1.3264-.39318c.11217-.0567.22457-.11363.33747-.1669a8.65408,8.65408,0,0,1,.94812-.29409,1.273,1.273,0,0,0-.12757.58586c.00466.85051.64194,1.69857-.50753,2.26768a.687.687,0,0,1-.02883.20331.884.884,0,0,1-.33673.4247c-.11265.0898-.23654.17826-.35164.28785a1.23085,1.23085,0,0,0-.27833.37986,6.62828,6.62828,0,0,1-.25316-2.49372l-.00513-.00073a1.19789,1.19789,0,0,0-.49068-.0727c-.02247.00134-.04252.01515-.06474.01784a1.19284,1.19284,0,0,0-.41395.11632c.0039.01136-.00246.01747.00048.02822a.31088.31088,0,0,1,.0044.19609l-.00586.01735a.51233.51233,0,0,1-.11827.16262c-.05254.05243-.11044.10289-.15885.1597l-.00146.0017a.39889.39889,0,0,0-.09824.19892v.00049a5.1668,5.1668,0,0,1-.04667.58451c-.04912.18145-.17594.31108-.51218.27344a.60176.60176,0,0,1-.54224-.37168,2.0859,2.0859,0,0,1-.1058-.67,2.2037,2.2037,0,0,1-.23068-.11754c-.32869-.19528-.39054-.38784-.33239-.58138Z" class="cls-1"/><path d="M169.66547,52.59115c.21528-.091.56715-.05938.69593-.22786C170.23239,52.53153,169.88051,52.50013,169.66547,52.59115Z" class="cls-1"/><path d="M167.812,52.64711a1.0307,1.0307,0,0,0-.26807-.50351,1.02681,1.02681,0,0,1,.26733.50327Z" class="cls-1"/><path d="M168.50328,47.586c-.15419-.01332-.31084-.03214-.46159-.0347a1.47271,1.47271,0,0,0-.22066.01111.749.749,0,0,0-.39122.16177.96148.96148,0,0,0-.28249.45769,2.08623,2.08623,0,0,0,.10581.67.602.602,0,0,0,.54223.37168c.33625.03763.46306-.092.51218-.27344a5.10676,5.10676,0,0,0,.04643-.58452l.00025-.00049a.39881.39881,0,0,1,.09823-.19891l.00147-.00171c.04838-.05681.10629-.10727.15884-.15969a.51218.51218,0,0,0,.11827-.16262l.00586-.01735a.311.311,0,0,0-.00439-.1961c-.00295-.0094-.002-.017-.00563-.02675l.00514-.00146-.00024-.00172C168.657,47.59786,168.58051,47.59273,168.50328,47.586Z" class="cls-1"/><path d="M167.25313,48.85192a.60173.60173,0,0,0,.54223.37168A.602.602,0,0,1,167.25313,48.85192Z" class="cls-1"/><path d="M168.7325,47.62877c-.00295-.01075.00342-.01686-.00049-.02822l-.00514.00146C168.73055,47.61179,168.72955,47.61936,168.7325,47.62877Z" class="cls-1"/><path d="M170.1515,47.6763a1.47293,1.47293,0,0,0-.445-.13648,6.63385,6.63385,0,0,0,.25316,2.49372,1.23046,1.23046,0,0,1,.27833-.37986c.1151-.1096.239-.19806.35164-.28786a.88688.88688,0,0,0,.33673-.4247.68662.68662,0,0,0,.02882-.2033A1.478,1.478,0,0,0,170.1515,47.6763Z" class="cls-1"/><path d="M169.70651,47.53982a6.62832,6.62832,0,0,0,.25316,2.49372A6.63406,6.63406,0,0,1,169.70651,47.53982Z" class="cls-1"/><path d="M275.33084,80.06308h5.30631l1.138,2.709h2.08416l-4.93759-11.302h-1.82733l-4.93783,11.302h2.01965Zm2.645-6.23649,1.94,4.48906H276.052Z" class="cls-1"/><polygon points="290.126 74.757 293.637 80.015 293.701 80.015 297.244 74.725 297.244 82.772 299.216 82.772 299.216 71.551 297.116 71.551 293.701 76.857 290.287 71.551 288.186 71.551 288.186 82.772 290.126 82.772 290.126 74.757" class="cls-1"/><path d="M308.48026,81.18519A5.16637,5.16637,0,0,1,304.9375,79.726l-1.18661,1.41107a6.9152,6.9152,0,0,0,4.68148,1.79545c2.35639,0,4.00779-1.25065,4.00779-3.3507V79.55c0-1.85972-1.2345-2.70912-3.60727-3.2863-2.1482-.51316-2.66111-.89816-2.66111-1.76381v-.03177c0-.73773.67347-1.33055,1.82733-1.33055a5.09677,5.09677,0,0,1,3.046,1.15388l1.05784-1.49085a6.21969,6.21969,0,0,0-4.07181-1.41046c-2.22809,0-3.83112,1.33055-3.83112,3.25392v.0325c0,2.06829,1.34644,2.77351,3.73508,3.35,2.08417.48128,2.53281.91441,2.53281,1.71567V79.774C310.46793,80.62413,309.69843,81.18519,308.48026,81.18519Z" class="cls-1"/><polygon points="319.685 82.772 321.672 82.772 321.672 73.378 325.232 73.378 325.232 71.551 316.126 71.551 316.126 73.378 319.685 73.378 319.685 82.772" class="cls-1"/><polygon points="338.119 81.009 331.691 81.009 331.691 77.995 337.318 77.995 337.318 76.232 331.691 76.232 331.691 73.314 338.039 73.314 338.039 71.551 329.719 71.551 329.719 82.772 338.119 82.772 338.119 81.009" class="cls-1"/><path d="M344.83551,82.77208V78.86045h2.469l2.75763,3.91163h2.32413l-3.03009-4.248a3.36722,3.36722,0,0,0,2.67746-3.39884v-.03176a3.39112,3.39112,0,0,0-.93-2.42078,4.52053,4.52053,0,0,0-3.23828-1.122H342.864l.00025,11.22136Zm0-9.426h2.87027c1.45834,0,2.32388.65721,2.32388,1.85984v.03177c0,1.13836-.89731,1.87535-2.3085,1.87535h-2.88565Z" class="cls-1"/><path d="M367.005,77.161v-.03176c0-3.15789-2.43627-5.57855-5.96365-5.57855h-4.18371V82.772h4.18371a5.61769,5.61769,0,0,0,5.953-5.26106Q367.00512,77.33619,367.005,77.161Zm-8.17611-3.815h2.21246q.17744-.01026.35529-.00366a3.6819,3.6819,0,0,1,3.54007,3.8185v.03264a3.65657,3.65657,0,0,1-3.89539,3.78322l-2.21246-.00012Z" class="cls-1"/><path d="M373.24063,80.06308h5.30585l1.13849,2.709h2.08441l-4.93759-11.302h-1.82807l-4.9371,11.302H372.086Zm2.645-6.23649,1.93951,4.48906H373.962Z" class="cls-1"/><polygon points="388.035 74.757 391.547 80.015 391.61 80.015 395.153 74.725 395.153 82.772 397.125 82.772 397.125 71.551 395.025 71.551 391.61 76.857 388.196 71.551 386.096 71.551 386.096 82.772 388.035 82.772 388.035 74.757" class="cls-1"/></svg>