<svg xmlns="http://www.w3.org/2000/svg" id="Layer_1" data-name="Layer 1" viewBox="0 0 548 145.7"><defs><style>.cls-1{fill:#fff}</style></defs><title>LF_Energy_Bootcamp_EventGraphics_Logo (1)</title><path d="M32.16375,67.92159V43.02179H19.67193V80.41341H57.06355V67.92159Z" class="cls-1"/><path d="M81.96336,18.03814H19.67193V36.734h12.408V30.6138H69.55538V67.92159H63.26755V80.41341H81.96336Z" class="cls-1"/><path d="M98.47939,18.79268h19.03117V64.65192h27.24726V80.41341H98.4794Z" class="cls-1"/><path d="M152.89008,18.79268h47.61983v15.7615h-28.6725v7.71307h24.56446v14.6716H171.83741V80.41341H152.80625Z" class="cls-1"/><path d="M249.555,80.74876H215.09766V18.625H249.555v4.02421H219.54106V46.12378h28.33716V50.148H219.54106v26.6604H249.555Z" class="cls-1"/><path d="M309.58279,80.74876H305.1394L267.83161,25.58353h-.33534q.503,9.809.503,14.83928V80.66493h-4.19189V18.625H268.167l37.30779,55.08138h.2515c-.2515-5.1141-.41919-9.97669-.41919-14.50392V18.625h4.27573Z" class="cls-1"/><path d="M361.89753,80.74876H327.44022V18.625h34.45731v4.02421h-30.0139V46.12378h28.33715V50.148H331.88363v26.6604h30.0139Z" class="cls-1"/><path d="M380.50952,53.66918V80.74876H376.15V18.625h15.00694q11.69535,0,17.35442,4.27572c3.7727,2.85048,5.61714,7.12621,5.61714,12.82718a16.42925,16.42925,0,0,1-3.35351,10.56355,18.37081,18.37081,0,0,1-10.14437,6.12015l17.10289,28.25332h-5.36561L396.10334,53.58534Zm0-3.68886H392.4983c5.28177,0,9.47366-1.17373,12.32416-3.52119,2.93432-2.34746,4.35957-5.7848,4.35957-10.312q0-7.04236-4.27573-10.312t-14.08473-3.26967h-10.312Z" class="cls-1"/><path d="M452.69378,48.72275h22.72V76.3892a51.24179,51.24179,0,0,1-20.12106,3.7727c-9.72518,0-17.18673-2.6828-22.30084-8.13226S425.195,58.951,425.195,49.05811a33.74742,33.74742,0,0,1,3.85654-16.4322,27.06351,27.06351,0,0,1,11.06659-11.06658A34.11363,34.11363,0,0,1,456.63417,17.619a43.40836,43.40836,0,0,1,18.10892,3.68886l-1.76057,3.85653a39.85969,39.85969,0,0,0-16.59986-3.68886c-8.13227,0-14.58776,2.4313-19.28268,7.37772s-7.1262,11.56961-7.1262,19.95338q0,13.70747,6.79086,20.62408c4.52723,4.61107,11.15043,6.87469,19.95339,6.87469a38.4835,38.4835,0,0,0,14.4201-2.34746V52.66312H452.77765V48.72274Z" class="cls-1"/><path d="M505.42773,52.41161,523.78822,18.625h4.69489L507.60749,56.51966V80.41341h-4.52725V56.855L482.1208,18.625h5.03027Z" class="cls-1"/><path d="M47.75757,111.2657c0,4.69491-1.17373,8.46761-3.52119,11.15042-2.34745,2.76665-5.61713,4.108-9.72517,4.108s-7.37772-1.34141-9.72518-4.108-3.52119-6.4555-3.52119-11.23425c0-4.69492,1.17373-8.46761,3.605-11.15043A12.344,12.344,0,0,1,34.595,95.92338c4.10805,0,7.37772,1.34141,9.72518,4.10805C46.58384,102.79808,47.75757,106.48694,47.75757,111.2657Zm-24.31294,0c0,4.27572.92221,7.54539,2.85048,9.89285a9.898,9.898,0,0,0,8.13226,3.52118c3.605,0,6.28783-1.17372,8.21609-3.43734s2.85049-5.61713,2.85049-9.89286-.92221-7.54539-2.85048-9.809a10.09074,10.09074,0,0,0-8.13226-3.43734c-3.52119,0-6.28783,1.17373-8.13226,3.43734C24.45068,103.7203,23.44463,106.99,23.44463,111.2657Z" class="cls-1"/><path d="M72.40586,104.97787a8.11378,8.11378,0,0,1-2.93432,6.62318q-2.8924,2.26362-8.29994,2.26362H56.56053V126.105H54.46459V96.42642h7.29388C68.88468,96.42642,72.40586,99.2769,72.40586,104.97787Zm-15.76149,7.12621h4.108c3.35351,0,5.7848-.58687,7.21-1.67676,1.50907-1.08989,2.26362-2.93432,2.26362-5.36562,0-2.26361-.67071-4.02421-2.096-5.1141s-3.605-1.67675-6.53934-1.67675H56.64437Z" class="cls-1"/><path d="M95.12589,126.105H78.86136V96.42642H95.12589v1.92827H80.95731v11.23425h13.3302v1.92827H80.95731v12.74334H95.12589Z" class="cls-1"/><path d="M123.463,126.105H121.3671l-17.60593-26.325h-.16767c.16767,3.102.25152,5.53328.25152,7.1262V126.1888h-2.01211V96.42641h2.09594l17.60593,26.325h.08383c-.08383-2.4313-.16767-4.77875-.16767-6.95854V96.42641h2.01211Z" class="cls-1"/><path d="M159.01024,118.47574a6.975,6.975,0,0,1-2.76665,5.86865,11.61773,11.61773,0,0,1-7.29388,2.17979,24.443,24.443,0,0,1-8.38377-1.17373v-2.09594a21.05018,21.05018,0,0,0,8.2161,1.34141,9.3029,9.3029,0,0,0,5.7848-1.67676,5.324,5.324,0,0,0,2.17978-4.35956,5.398,5.398,0,0,0-.6707-2.76664,6.31234,6.31234,0,0,0-2.34746-2.01211,27.67318,27.67318,0,0,0-4.69492-1.92827,16.42045,16.42045,0,0,1-6.28783-3.35351,7.265,7.265,0,0,1,.83838-10.312,10.19341,10.19341,0,0,1,6.707-2.09595,19.20016,19.20016,0,0,1,7.88074,1.59292l-.75454,1.76059a18.37848,18.37848,0,0,0-7.04236-1.50908,8.15927,8.15927,0,0,0-5.19794,1.50908,4.85967,4.85967,0,0,0-1.92827,4.108,5.09374,5.09374,0,0,0,.58686,2.68281,7.00672,7.00672,0,0,0,1.92828,1.92827,22.46626,22.46626,0,0,0,4.69491,2.0121,26.17928,26.17928,0,0,1,5.19794,2.34746,6.73857,6.73857,0,0,1,2.51513,2.599,5.8599,5.8599,0,0,1,.83838,3.35351Z" class="cls-1"/><path d="M190.28171,111.2657c0,4.69491-1.17372,8.46761-3.52118,11.15042-2.34746,2.76665-5.61712,4.108-9.72518,4.108s-7.37772-1.34141-9.72518-4.108-3.52118-6.4555-3.52118-11.23425c0-4.69492,1.17372-8.46761,3.605-11.15043a12.344,12.344,0,0,1,9.72518-4.10805c4.10806,0,7.37773,1.34141,9.72519,4.10805,2.26361,2.76665,3.43735,6.45551,3.43735,11.23426Zm-24.31294,0c0,4.27572.92222,7.54539,2.85048,9.89285a9.898,9.898,0,0,0,8.13226,3.52118c3.605,0,6.28783-1.17372,8.2161-3.43734s2.85048-5.61713,2.85048-9.89286-.92222-7.54539-2.85048-9.809a10.09072,10.09072,0,0,0-8.13226-3.43734c-3.52118,0-6.28783,1.17373-8.13226,3.43734C166.891,103.7203,165.96877,106.99,165.96877,111.2657Z" class="cls-1"/><path d="M218.87037,96.42642v19.19884a10.69769,10.69769,0,0,1-2.93432,7.96459c-2.0121,1.92827-4.69492,2.85048-8.29993,2.85048a10.147,10.147,0,0,1-10.98275-10.98274V96.42642h2.096v19.19884a8.19006,8.19006,0,0,0,9.05447,9.05447c2.85048,0,5.03027-.75453,6.53935-2.34745a8.81411,8.81411,0,0,0,2.34746-6.53935V96.42642Z" class="cls-1"/><path d="M229.09857,113.194v12.911h-2.09594V96.42642H234.045c3.68886,0,6.37168.6707,8.13227,2.0121s2.599,3.43735,2.599,6.12016a7.69412,7.69412,0,0,1-1.59291,5.03026,9.15011,9.15011,0,0,1-4.77876,2.93432l8.04842,13.49788h-2.51513l-7.62924-12.911Zm0-1.76059h5.701a9.39489,9.39489,0,0,0,5.86864-1.67676,5.84322,5.84322,0,0,0,2.09594-4.94642c0-2.26362-.67069-3.94038-2.0121-4.94643s-3.52119-1.50908-6.62317-1.50908h-4.94642v13.07868Z" class="cls-1"/><path d="M264.39426,97.85166a11.20457,11.20457,0,0,0-8.803,3.605c-2.17979,2.34746-3.18582,5.61712-3.18582,9.809,0,4.27572,1.00606,7.54539,3.01816,9.89285s4.86258,3.52118,8.63528,3.52118a25.24674,25.24674,0,0,0,6.8747-.92222v1.84443a23.0472,23.0472,0,0,1-7.37771,1.00605q-6.28784,0-9.809-4.02421c-2.43129-2.68281-3.605-6.4555-3.605-11.31809a18.26086,18.26086,0,0,1,1.67676-7.96459,12.75352,12.75352,0,0,1,4.94642-5.36561,14.49457,14.49457,0,0,1,7.46155-1.84443,18.012,18.012,0,0,1,7.7969,1.59292l-.83838,1.84442a15.05358,15.05358,0,0,0-6.79086-1.67675Z" class="cls-1"/><path d="M293.73747,126.105H277.473V96.42642h16.26452v1.92827H279.5689v11.23425h13.33019v1.92827H279.5689v12.74334h14.16857Z" class="cls-1"/><path d="M311.25955,96.42642h8.13227c3.68885,0,6.37167.58686,8.04842,1.84443a6.59814,6.59814,0,0,1,2.599,5.61713,5.75462,5.75462,0,0,1-1.59291,4.27572,7.70773,7.70773,0,0,1-4.61108,2.17978v.08383a8.57648,8.57648,0,0,1,5.19795,2.26362,6.76633,6.76633,0,0,1,1.67676,4.77875,7.63917,7.63917,0,0,1-2.68282,6.28783c-1.84444,1.50909-4.35957,2.17979-7.71308,2.17979h-9.13831Zm2.09594,13.24637h6.53933a10.801,10.801,0,0,0,6.12015-1.42524,5.03466,5.03466,0,0,0,1.92826-4.35956,4.58263,4.58263,0,0,0-2.17979-4.27572c-1.42525-.92222-3.5212-1.34141-6.37167-1.34141h-5.95249Zm0,1.84442v12.82718H320.314c5.5333,0,8.21609-2.26362,8.21609-6.707,0-4.10805-2.93432-6.12016-8.71912-6.12016Z" class="cls-1"/><path d="M362.31672,111.2657c0,4.69491-1.17372,8.46761-3.5212,11.15042-2.34744,2.76665-5.61713,4.108-9.72518,4.108s-7.37771-1.34141-9.72518-4.108-3.52119-6.4555-3.52119-11.23425c0-4.69492,1.17372-8.46761,3.605-11.15043a12.344,12.344,0,0,1,9.72518-4.10805c4.108,0,7.37771,1.34141,9.72518,4.10805,2.26363,2.76665,3.43735,6.45551,3.43735,11.23426Zm-24.31294,0c0,4.27572.92222,7.54539,2.85048,9.89285a9.898,9.898,0,0,0,8.13227,3.52118c3.605,0,6.28783-1.17372,8.21608-3.43734s2.85048-5.61713,2.85048-9.89286-.92222-7.54539-2.85048-9.809a10.0907,10.0907,0,0,0-8.13227-3.43734c-3.52119,0-6.28783,1.17373-8.13227,3.43734-1.92825,2.17978-2.93432,5.44946-2.93432,9.72518Z" class="cls-1"/><path d="M394.09124,111.2657c0,4.69491-1.17372,8.46761-3.5212,11.15042-2.34744,2.76665-5.61713,4.108-9.72518,4.108s-7.37771-1.34141-9.72518-4.108-3.52119-6.4555-3.52119-11.23425c0-4.69492,1.17372-8.46761,3.605-11.15043a12.344,12.344,0,0,1,9.72518-4.10805c4.108,0,7.37771,1.34141,9.72518,4.10805,2.26363,2.76665,3.43735,6.45551,3.43735,11.23426Zm-24.31294,0c0,4.27572.92222,7.54539,2.85048,9.89285a9.898,9.898,0,0,0,8.13227,3.52118c3.605,0,6.28783-1.17372,8.21608-3.43734s2.85048-5.61713,2.85048-9.89286-.92222-7.54539-2.85048-9.809a10.0907,10.0907,0,0,0-8.13227-3.43734c-3.52119,0-6.28783,1.17373-8.13227,3.43734-1.92825,2.17978-2.93432,5.44946-2.93432,9.72518Z" class="cls-1"/><path d="M408.679,126.105h-2.09594V98.35469h-9.64134V96.42642h21.37862v1.92827H408.679Z" class="cls-1"/><path d="M435.33939,97.85166a11.20454,11.20454,0,0,0-8.803,3.605c-2.17979,2.34746-3.18583,5.61712-3.18583,9.809,0,4.27572,1.00607,7.54539,3.01817,9.89285s4.86257,3.52118,8.63527,3.52118a25.24687,25.24687,0,0,0,6.87471-.92222v1.84443A23.0472,23.0472,0,0,1,434.501,126.608q-6.28783,0-9.809-4.02421c-2.43129-2.68281-3.605-6.4555-3.605-11.31809a18.26086,18.26086,0,0,1,1.67675-7.96459,12.24659,12.24659,0,0,1,4.94642-5.36561,14.49461,14.49461,0,0,1,7.46156-1.84443,18.012,18.012,0,0,1,7.7969,1.59292l-.83838,1.84442a14.53787,14.53787,0,0,0-6.79086-1.67675Z" class="cls-1"/><path d="M462.83818,115.62526H450.76552l-4.108,10.47971h-2.26363l11.90494-29.84623h1.34139L469.37746,126.105H467.03Zm-11.3181-1.84443h10.64741l-4.0242-10.73123q-.50307-1.25757-1.25757-3.52118a24.69555,24.69555,0,0,1-1.17375,3.52118Z" class="cls-1"/><path d="M486.56425,126.105,475.49765,98.69H475.33c.08382,1.67675.16768,3.43734.16768,5.19794v22.217h-2.01212V96.42642h3.18582L487.15107,122.5h.08382l10.6474-26.07353h3.102V126.105h-2.09594V103.63646a48.466,48.466,0,0,1,.2515-4.86259h-.16768L487.82176,126.105Z" class="cls-1"/><path d="M527.22554,104.97787a8.1138,8.1138,0,0,1-2.93432,6.62318q-2.89237,2.26362-8.29995,2.26362h-4.61108V126.105h-2.09594V96.42642h7.29389C523.70435,96.42642,527.22554,99.2769,527.22554,104.97787Zm-15.76148,7.12621h4.10807c3.35351,0,5.78482-.58687,7.21-1.67676,1.50907-1.08989,2.26363-2.93432,2.26363-5.36562,0-2.26361-.67069-4.02421-2.09594-5.1141s-3.605-1.67675-6.53933-1.67675h-4.94645Z" class="cls-1"/></svg>