<svg xmlns="http://www.w3.org/2000/svg" role="img" viewBox="40.27 21.52 323.7 208.95"><defs><style>.cls-1{fill:#fff}.cls-2{isolation:isolate}</style></defs><path d="M100.38 169.94a53.76 53.76 0 1153.76-53.76H135a34.66 34.66 0 10-34.66 34.66z" class="cls-1"/><path d="M100.38 224.44a53.83 53.83 0 01-53.76-53.77h19.1A34.66 34.66 0 10100.38 136v-19.1a53.77 53.77 0 010 107.53zm92.21-158.8c23.25 0 23.25 34.83 0 34.83s-23.25-34.83 0-34.83zm0 7c-13.51 0-13.51 20.89 0 20.89s13.52-20.94 0-20.94zm25.2 27.36V66.26h13.27c13.14 0 13.09 20.84 0 20.84h-6.52V100zm12.71-19.47c4.54 0 4.54-7.56 0-7.56h-6v7.56zM247.7 100V66.21h16.92V73h-10.16v6.76h8.88v6.75h-8.88v6.76h10.73V100zm32 0h-6.76V65.5h1.8l17.06 19.85V66.26h6.8v34.45h-1.79L279.7 81.62zm-101.24 33a15.18 15.18 0 009.64 2.69c2-.14 3.69-1.56 3.5-3.4s-1.61-2.79-3.5-3.45c-5.29-1.94-10-4.63-10-10.3a9.92536 9.92536 0 019.54-10.31 20.09 20.09 0 018.41 1.42l-.85 6.52a15.28008 15.28008 0 00-6.9-1.41 3.33994 3.33994 0 00-3.35 3.78c.19 1.89 1.84 2.74 3.78 3.4 5.24 1.94 9.78 5 9.78 10.35 0 5.62-3.87 9.92-10.21 10.25a21.09988 21.09988 0 01-10.68-2.46zm43.39-25.13c23.25 0 23.25 34.83 0 34.83s-23.25-34.83 0-34.83zm0 6.95c-13.52 0-13.52 20.89 0 20.89s13.51-20.89 0-20.89zm25 15.64v-22h6.76v22c0 7.09 11 7.09 11 0v-22h6.71v22c-.04 16.07-24.47 16.07-24.47 0zM297 142.23l-6.81-12.9h-3.26v12.9h-6.76v-33.79h13.33c12.05 0 13.23 17 3.31 19.85l7.84 13.94zm-10.07-19.47h5.95c4.59 0 4.59-7.56 0-7.56h-5.95z" class="cls-1"/><path d="M326.2 114.82c-13.37 0-13.37 20.6 0 20.6a14.48 14.48 0 006.52-1.51l.9 7a21.55 21.55 0 01-7.42 1.41c-22.92 0-22.87-34.31 0-34.31a16.45 16.45 0 016.67 1.33l-.81 7a11.38 11.38 0 00-5.86-1.52zm14.23 27.41v-33.79h16.92v6.76h-10.16v6.8h8.88v6.75h-8.88v6.76h10.73v6.76zm-161.97 32.96a15.14 15.14 0 009.64 2.7c2-.14 3.69-1.56 3.5-3.4s-1.6-2.79-3.5-3.49c-5.29-1.94-10-4.63-10-10.31a9.9 9.9 0 019.48541-10.29791l.05459-.00209a20.08981 20.08981 0 018.41 1.42l-.85 6.52a15.5002 15.5002 0 00-6.9-1.42 3.33994 3.33994 0 00-3.35 3.78c.19 1.89 1.84 2.75 3.78 3.41 5.24 1.93 9.78 5 9.78 10.35 0 5.62-3.87 9.92-10.21 10.25a21.1 21.1 0 01-10.68-2.46zm26.94-2.5v-22h6.76v22c0 7.09 11 7.09 11 0v-22h6.71v22c-.04 16.07-24.47 16.07-24.47 0zm62.15-22.54h2.13v34.31h-6.86l.05-18.86-8.65 9.07-8.64-9.07v18.86h-6.86v-34.31h2.18L254.22 165zm39.98 0h2.13v34.31h-6.85l.05-18.86-8.65 9.07-8.65-9.07v18.86h-6.85v-34.31h2.17L294.21 165zm11.16 34.31v-33.79h6.76v33.79zm21.36 0v-27h-8.41v-6.71h23.58v6.71h-8.41v27z" class="cls-1"/><g class="cls-2"><path d="M179.48779 221.91992v-14.81543h7.41846v2.96289h-4.45508v2.96289h3.89551v2.96289h-3.89551v2.96384h4.70362v2.96289zm12.43164-5.15918v-9.65625h2.96338v9.63477c0 3.1084 4.80713 3.1084 4.80713 0v-9.63477h2.9419v9.65625c0 7.04492-10.71241 7.04492-10.71241 0zm23.43506 5.15918l-2.98437-5.65722h-1.42969v5.65722h-2.96289v-14.81543h5.84277c5.28418 0 5.80274 7.43848 1.45117 8.70215l3.43946 6.11328zm-4.41406-8.53711h2.61133c2.00976 0 2.00976-3.31543 0-3.31543h-2.61133zm18.93848-6.52734c10.19433 0 10.19433 15.27148 0 15.27148-10.19532.00005-10.19532-15.27148 0-15.27148zm0 3.0459c-5.92676 0-5.92676 9.15918 0 9.15918 5.92578 0 5.92578-9.15918 0-9.15918zm12.49316 12.01855V207.125h5.82227c5.76074 0 5.74023 9.1377 0 9.1377H245.335v5.65722zm5.57422-8.53711c1.98926 0 1.98926-3.31543 0-3.31543H245.335v3.31543zm8.99219 8.53711v-14.81543h7.418v2.96289h-4.45508v2.96289h3.89551v2.96289h-3.89551v2.96384h4.7041v2.96289z" class="cls-1"/></g><g class="cls-2"><path d="M56.38965 27.95068a.10907.10907 0 01.123.124v1.47851a.10876.10876 0 01-.123.123H52.8335v11.73055a.10876.10876 0 01-.123.123H51.231a.10876.10876 0 01-.12305-.123V29.67627h-3.56547a.10891.10891 0 01-.12353-.123v-1.47856a.10921.10921 0 01.12353-.124zm13.78515 0a.10941.10941 0 01.12354.124v13.332a.10911.10911 0 01-.12354.123H68.686a.10876.10876 0 01-.12305-.123v-5.82221h-6.34371v5.80274a.10922.10922 0 01-.12354.124h-1.48828a.10921.10921 0 01-.12353-.124v-13.332a.10891.10891 0 01.12353-.123h1.48828a.10891.10891 0 01.12354.123v5.79394H68.563v-5.77444a.10907.10907 0 01.12305-.124zm14.38282 0a.10941.10941 0 01.12353.124v1.47851a.1091.1091 0 01-.12353.123H77.3418v4.20117h5.22461a.10876.10876 0 01.123.123V35.48a.10876.10876 0 01-.123.123H77.3418v4.2012h7.21582a.1091.1091 0 01.12353.123v1.47949a.1091.1091 0 01-.12353.123h-8.81836a.10892.10892 0 01-.12354-.123v-13.332a.10922.10922 0 01.12354-.124zm18.78125 11.84375a.10876.10876 0 01.123.123v1.48926a.10876.10876 0 01-.123.123H95.791a.10892.10892 0 01-.12354-.123V28.06494a.10892.10892 0 01.12354-.123h1.4883a.10891.10891 0 01.12353.123v11.72949zm5.78222-11.84375a.10922.10922 0 01.12354.124v13.332a.10892.10892 0 01-.12354.123h-1.48828a.10891.10891 0 01-.12353-.123v-13.332a.10921.10921 0 01.12353-.124zm15.09424-.00879a.10876.10876 0 01.12305.123v13.3418a.10876.10876 0 01-.12305.123h-.67333a.11463.11463 0 01-.09472-.04786l-7.23536-9.66211v9.58692a.10876.10876 0 01-.123.123h-1.40332a.10892.10892 0 01-.12354-.123v-13.3417a.10892.10892 0 01.12354-.123h.62549a.11.11 0 01.09472.05665l7.28272 9.71972v-9.65337a.10876.10876 0 01.123-.123zm14.85694.00879a.10941.10941 0 01.12353.124v8.58105a4.88988 4.88988 0 01-4.79834 4.874 4.59756 4.59756 0 01-3.499-1.45118 4.82486 4.82486 0 01-1.46045-3.52734v-8.4765a.10921.10921 0 01.12353-.124h1.479a.10921.10921 0 01.12353.124v8.49609a3.19322 3.19322 0 00.87256 2.23731 3.14363 3.14363 0 005.43311-2.15235v-8.58105a.10921.10921 0 01.12353-.124zm14.60107.00977a.11669.11669 0 01.10449.06641.11056.11056 0 010 .123l-4.15332 6.60938 4.13428 6.58105a.11058.11058 0 010 .123.11671.11671 0 01-.10449.06641h-1.7163a.11784.11784 0 01-.104-.05665l-3.21484-5.12109-3.20508 5.12109a.11838.11838 0 01-.104.05665h-1.71631a.11671.11671 0 01-.10449-.06641.10881.10881 0 010-.123l4.13428-6.58105-4.15333-6.60938a.10879.10879 0 010-.123.10455.10455 0 01.1045-.06641h1.70654a.10567.10567 0 01.10449.05664l3.2334 5.14941 3.24316-5.14941a.10542.10542 0 01.104-.05664zm12.31396 1.70703v4.18164h5.1397a.10876.10876 0 01.12305.123v1.48926a.10876.10876 0 01-.12305.123h-5.1397v5.82227a.10891.10891 0 01-.12353.123h-1.48828a.10892.10892 0 01-.12354-.123V28.05518a.10891.10891 0 01.12354-.123h8.24023a.10876.10876 0 01.123.123v1.48925a.10876.10876 0 01-.123.12305zm16.2129-1.7168a6.79844 6.79844 0 016.78906 6.79 6.78931 6.78931 0 11-11.5874-4.79883 6.5413 6.5413 0 014.79834-1.99117zm0 11.84375a5.0542 5.0542 0 100-10.10839 5.05574 5.05574 0 00-3.5752 8.6289 4.87038 4.87038 0 003.5752 1.47949zm20.93457-11.84375a.10975.10975 0 01.124.124v8.58105a4.89075 4.89075 0 01-4.79834 4.874 4.59755 4.59755 0 01-3.499-1.45118 4.82486 4.82486 0 01-1.46045-3.52734v-8.4765a.10921.10921 0 01.12353-.124h1.479a.10921.10921 0 01.12353.124v8.49609a3.19322 3.19322 0 00.87256 2.23731 3.14315 3.14315 0 005.43262-2.15235v-8.58105a.10937.10937 0 01.124-.124zm14.95214-.00879a.10876.10876 0 01.12305.123v13.3418a.10876.10876 0 01-.12305.123h-.67285a.114.114 0 01-.09472-.04786l-7.23534-9.66201v9.58692a.10876.10876 0 01-.123.123h-1.40332a.10907.10907 0 01-.124-.123v-13.3418a.10907.10907 0 01.124-.123h.625a.10946.10946 0 01.09472.05665l7.28321 9.71972v-9.65337a.10876.10876 0 01.123-.123zm9.86914-.01953a6.77239 6.77239 0 014.72266 11.66309 6.74545 6.74545 0 01-4.83594 1.94434h-4.1914a.10876.10876 0 01-.123-.123V28.04541a.10876.10876 0 01.123-.123zm0 11.87207a5.06921 5.06921 0 003.585-8.65722 4.88283 4.88283 0 00-3.585-1.4795h-2.69238v10.13672zm17.1045-11.87207a.111.111 0 01.11425.07618l5.54688 13.36035a.10627.10627 0 01-.00977.11425.11648.11648 0 01-.10351.05665h-1.51758a.10985.10985 0 01-.11328-.07618l-2.17188-5.23437h-4.80761l-2.17188 5.23437a.10985.10985 0 01-.11328.07618h-1.51758a.11918.11918 0 01-.10449-.05665.10808.10808 0 01-.00879-.11425l5.54688-13.36035a.122.122 0 01.11425-.07618zm1.05273 6.64746l-1.707-4.125-1.71582 4.125zm16.35547-6.61914a.10907.10907 0 01.123.124v1.47851a.10876.10876 0 01-.123.123h-3.55566v11.73055a.10876.10876 0 01-.12305.123h-1.47949a.10876.10876 0 01-.123-.123V29.67627h-3.56543a.10906.10906 0 01-.124-.123v-1.47856a.10937.10937 0 01.124-.124zm5.70605 0a.10937.10937 0 01.124.124v13.332a.10907.10907 0 01-.124.123h-1.48828a.10876.10876 0 01-.123-.123v-13.332a.10906.10906 0 01.123-.124zm11.25391 0a6.79844 6.79844 0 016.78906 6.79 6.78906 6.78906 0 11-11.58691-4.79883 6.54024 6.54024 0 014.79785-1.99117zm0 11.84375a5.04964 5.04964 0 10-3.57519-1.47949 4.89235 4.89235 0 003.57519 1.47949zm21.17285-11.85254a.10876.10876 0 01.123.123v13.3418a.10876.10876 0 01-.123.123h-.67383a.11527.11527 0 01-.09472-.04786l-7.23535-9.66211v9.58692a.10876.10876 0 01-.12305.123h-1.40332a.10876.10876 0 01-.123-.123v-13.3417a.10876.10876 0 01.123-.123h.626a.11061.11061 0 01.09472.05665l7.28223 9.71972v-9.65337a.10876.10876 0 01.123-.123z" class="cls-1"/></g></svg>