<svg xmlns="http://www.w3.org/2000/svg" xmlns:xlink="http://www.w3.org/1999/xlink" role="img" viewBox="-3.59 54.91 407.42 145.17"><style>svg{enable-background:new 0 0 400 245}</style><style>.st0{fill:#fff}</style><g id="Layer_1_1_"><path d="M189.9 76.7c0 4.4-3 8.3-8.6 8.3-5.3 0-8.4-3.7-8.4-8.3 0-4.5 3.6-8.2 8.1-8.3h.5c4.4-.3 8.2 3.1 8.5 7.5-.1.3-.1.6-.1.8zm-13.5 0c0 3.2 1.7 5.7 5.1 5.7s4.9-2.8 4.9-5.7-1.6-5.6-5.1-5.6c-3.3 0-4.9 2.7-4.9 5.6zm22.2-7.9h8c3.8 0 6 1.9 6 4.9 0 3.2-2.3 5.1-6 5.1H202v5.9h-3.4V68.8zm3.3 7.4h4.3c1.8 0 3-.6 3-2.4 0-1.5-.9-2.3-3-2.3h-4.3v4.7zm31.3 1.6h-9.1V82h10.1l-.4 2.7h-13V68.8h12.9v2.7h-9.6v3.6h9.1v2.7zm9.4 6.9V68.8h4c4.2 6.2 7 10 8 11.8-.1-1.8-.1-4.6-.1-7.2v-4.6h3.1v15.9h-3.7c-1.8-2.6-7.2-10.8-8.2-12.6.1 2 .1 4.2.1 7.1v5.5h-3.2zm-68.8 27.1v-16h4c4.2 6.2 7 10 8 11.8h.1c-.1-1.8-.1-4.6-.1-7.2v-4.6h3.1v15.9h-3.7c-1.8-2.6-7.2-10.8-8.2-12.6.1 2 .1 4.2.1 7.1v5.5h-3.3zm37.1-7h-9.1v4.2h10.1l-.4 2.7h-13V95.8h12.9v2.7h-9.6v3.6h9.1v2.7zm13.7-6.3h-5.7v-2.7h14.8v2.7H228v13.2h-3.4V98.5zm20.8 13.3l-4.7-15.9h3.5c1 3.8 2.9 10.2 3.2 12.9.5-2.7 2.4-9.1 3.6-12.9h3.2c1 3.5 3.1 10.6 3.5 12.8.5-2.7 2.3-9.1 3.3-12.8h3.4l-5 15.9h-3.6c-1.1-3.5-3-10.2-3.5-12.4-.5 2.5-2.2 8.4-3.4 12.4h-3.5zm42.9-8c0 4.4-3 8.3-8.6 8.3-5.3 0-8.4-3.7-8.4-8.3 0-4.5 3.6-8.2 8.1-8.2h.5c4.4-.3 8.2 3.1 8.5 7.5-.1.2-.1.4-.1.7zm-13.5 0c0 3.1 1.7 5.7 5.1 5.7s4.9-2.8 4.9-5.7-1.6-5.6-5.1-5.6c-3.3 0-4.9 2.6-4.9 5.6zm25.5 1.6v6.4H297v-16h8.3c3.5 0 5.7 1.7 5.7 4.5.1 1.8-1.1 3.4-2.8 3.8.8.3 2.4 1 2.4 3.8v.8c-.1 1 0 2.1.2 3.1h-3.4c-.3-1.1-.4-2.2-.3-3.3v-.5c0-1.8-.7-2.5-3.2-2.5h-3.6zm0-2.6h4.2c2.1 0 3-.7 3-2.3s-1-2.2-3-2.2h-4.3l.1 4.5zm19.6-7h3.4v7.2c2.3-2.1 5.1-4.5 8.1-7.2h4.1l-7.7 6.8 8.1 9.1h-4.2l-6.3-7.2-2.2 1.8v5.5h-3.4l.1-16zm26.4 0v15.9H343V95.8h3.3zm9.7 16v-16h4c4.2 6.2 7 10 8 11.8-.1-1.8-.1-4.6-.1-7.2v-4.6h3.1v15.9h-3.7c-1.8-2.6-7.3-10.8-8.3-12.6.1 2 .1 4.2.1 7.1v5.5H356zm40 0h-2.5c-.1-.6-.2-1.2-.2-1.9-1 1.4-2.5 2.2-5.5 2.2-5.1 0-8-3.5-8-8.2s3.1-8.4 8.7-8.4c5 0 7.1 2.7 7.6 5h-3.4c-.4-1-1.5-2.4-4.2-2.4-3.5 0-5.1 2.5-5.1 5.6 0 3.3 1.7 5.8 5.1 5.8 2.9 0 4.3-1.5 4.3-3.8v-.3h-4.3v-2.6h7.5v9zm-205.6 16.7l-4.9 5.9c-2.2 2.6-3.5 4.7-7.2 4.7-3.8 0-5.4-2.4-5.4-4.6 0-1.9 1-3.6 4.9-5.1 3-1.2 3.4-2.1 3.4-3 0-1-.8-1.8-1.8-1.8s-1.8.8-1.8 1.8c0 .9.7 1.7 1.8 2.6l11.2 9.8h-4.5l-9.7-8.5c-1.1-.9-1.8-2.2-1.8-3.6 0-2.2 1.7-4.2 4.8-4.2 3.3 0 4.7 2.1 4.7 3.9s-1.1 3.1-4.6 4.3c-3.2 1.2-3.4 2.5-3.4 3.3 0 1.3 1 2.4 2.4 2.4h.2c1.7 0 2.5-.7 4.7-3.6l3.5-4.4 3.5.1zm32.8 3.3h-9.1v4.2h10.1l-.4 2.7h-13v-15.9h12.9v2.7h-9.6v3.6h9.1v2.7zm9.4-8.9h7c5.3 0 8.2 3.4 8.2 7.7 0 5.1-3.7 8.2-8.3 8.2h-6.9v-15.9zm3.4 13.2h3.1c3.5 0 5.3-2 5.3-5.5 0-3.2-1.8-5.1-5.2-5.2H236v10.7zm35.9 2.7h-2.5c-.1-.6-.2-1.2-.2-1.9-1 1.4-2.5 2.2-5.5 2.2-5.1 0-8-3.5-8-8.2s3.1-8.4 8.6-8.4c5 0 7.1 2.7 7.6 5h-3.4c-.4-1-1.5-2.4-4.2-2.4-3.5 0-5.1 2.5-5.1 5.6 0 3.3 1.7 5.8 5.1 5.8 2.9 0 4.3-1.5 4.3-3.8v-.3h-4.3v-2.6h7.5l.1 9zm21.6-7h-9.1v4.2h10.1l-.4 2.7h-13v-15.9H294v2.7h-9.6v3.6h9.1v2.7zm-117.8 29.3c.5 1.5 1.7 2.6 4.5 2.6s3.6-.9 3.6-2.1-.8-2-4.4-2.6c-5.3-.9-6.3-2.6-6.3-4.7 0-3.1 2.9-4.7 6.6-4.7 5.4 0 6.8 2.8 6.9 4.5h-3.4c-.3-.9-.8-2.1-3.7-2.1-2 0-3.1.6-3.1 1.9 0 1 .6 1.6 3.8 2.2 5.9 1 6.9 2.9 6.9 5.1 0 2.7-2.1 4.9-7.3 4.9-4.8 0-7-2.2-7.5-5h3.4zm23.2-11.2v9c0 3.6 2 4.6 4.1 4.6 2.4 0 3.9-1.1 3.9-4.6v-9h3.3v9.1c0 4.9-2.7 7.1-7.3 7.1s-7.3-2.1-7.3-7v-9.2h3.3zm35.7 9.5c0-2.8 0-5.7.1-7.4-.8 2.8-2.7 8-4.7 13.7h-2.9c-1.5-4.9-3.6-10.9-4.5-13.7.1 1.8.2 5 .2 7.7v6h-3v-15.9h4.8c1.8 5 3.7 10 4.1 12 .7-2.3 2.6-7.2 4.3-12h4.9v15.9h-3.3v-6.3zm27.8 0c0-2.8 0-5.7.1-7.4-.8 2.8-2.7 8-4.7 13.7h-2.9c-1.5-4.9-3.6-10.9-4.5-13.7.1 1.8.2 5 .2 7.7v6h-3v-15.9h4.8c1.8 5 3.6 10 4.1 12 .7-2.3 2.5-7.2 4.2-12h4.9v15.9h-3.2v-6.3zm16.3-9.5v15.9h-3.3v-15.9h3.3zm13.6 2.7h-5.8v-2.7h14.8v2.7h-5.7v13.2h-3.4l.1-13.2zm-110.7 35.8h-4.8v2.2h5.3l-.2 1.4h-6.8v-8.3h6.8v1.4h-5v1.9h4.8l-.1 1.4zm6.5-4.7v4.7c0 1.9 1.1 2.4 2.1 2.4s2-.6 2-2.4v-4.7h1.8v4.8c0 2.6-1.4 3.8-3.8 3.8s-3.9-1.1-3.9-3.7v-4.8h1.8zm12.7 5v3.3h-1.7v-8.3h4.4c1.9 0 3 .9 3 2.4.1.9-.6 1.8-1.5 2 .9.3 1.4 1.1 1.3 2v.4c0 .5 0 1.1.1 1.6h-1.8c-.1-.6-.2-1.1-.1-1.7v-.3c0-1-.4-1.3-1.7-1.3l-2-.1zm0-1.3h2.2c1.1 0 1.6-.4 1.6-1.2s-.5-1.1-1.6-1.1h-2.2v2.3zm18.7.5c.1 2.3-1.7 4.3-4.1 4.4h-.5c-2.3.1-4.3-1.6-4.4-3.9v-.4c0-2.4 1.9-4.3 4.2-4.3h.3c2.3-.1 4.3 1.7 4.4 4 .1-.1.1 0 .1.2zm-7.1 0c0 1.6.9 3 2.7 3s2.6-1.5 2.6-3-.8-3-2.7-3c-1.4 0-2.6 1.2-2.6 2.6-.1.1 0 .2 0 .4zm11.6-4.2h4.2c2 0 3.2 1 3.2 2.6s-1.2 2.7-3.2 2.7h-2.4v3.1H224v-8.4zm1.8 3.9h2.2c1 0 1.6-.3 1.6-1.2 0-.8-.5-1.2-1.6-1.2h-2.3l.1 2.4zm16.4.8h-4.8v2.2h5.3l-.2 1.4h-6.8v-8.3h6.8v1.4h-5v1.9h4.8l-.1 1.4z" class="st0"/><linearGradient id="SVGID_1_" x1="27.09" x2="126.25" y1="114.64" y2="114.64" gradientTransform="matrix(1 0 0 -1 0 246)" gradientUnits="userSpaceOnUse"><stop offset="0" stop-color="#fff"/><stop offset=".24" stop-color="#efefef" stop-opacity=".94"/><stop offset=".76" stop-color="#c5c5c5" stop-opacity=".78"/><stop offset="1" stop-color="#b0b0b0" stop-opacity=".7"/></linearGradient><circle cx="76.7" cy="131.4" r="49.6" fill="url(#SVGID_1_)" opacity=".18"/><g opacity=".85"><path d="M78.6 168.8l-1.3-.1-16.7-.7-.1-.3-29.7-1.9L52 150.3l-8-13.5-11.5 9.9-1.1-13.3-25-.2L18 126l13.7 6.6 17.8-14-20-18.2.5-.5 20 18.3 10.4-13.3v-20l16 12.7L77 64l14 42.6 13.6 10.2 21.4-16.5v.6l28.1 32.3h-.8l-26.8.2v24.7l-10-18.3-12.6 8.3.5.9-1-.6-25.4 20 .6.4zM60.9 167l15.2 1-22.8-16.4 7.6 15.4zM53 150.4l24.4 17.5 25.3-20-26.3-14.7L53 150.4zm-20.2 14.8l27.3 1.7-7.9-15.9-19.4 14.2zm84.3-25.8l8.6 15.9v-21.5l-8.6 5.6zm-66.6-20.7l2.2 31 23-16.8-15.7-6.5 16.2-10.6.2-17-25.9 19.9zm-6.3 16.9l7.7 13.2-2.1-29.6-17.6 13.9 1 12 11-9.5zm47.2-8.8l12.1 20.6 12.6-8.3-11.8-21.6-11.7-8.8 15.6 20.2-16.8-2.1zm-14.6 5.8l25.6 14.4L90 125.9l16.6 2.1-15.9-20.7-13.7 8.9-.2 16.4zm28.9-14l11 20.2 8.7-5.7-19.7-14.5zm20.8 13.8v.3l26-.2L126 102l.4 25.9h-.7l-.4-26.2-20.1 15.5 20.9 15.3.4-.1zM9 132.5l21.2.1-12.1-5.8-9.1 5.7zm52.6-6.2l14.5 6 .1-15.5-14.6 9.5zm-.4-40.1V105l-9 11.6 24-18.4-15-12zm15.9 12l-.2 17.2 13.3-8.7-12.5-38.4-.6 29.9z" class="st0"/><circle cx="104.6" cy="117.3" r="6.5" class="st0"/><defs><circle id="SVGID_2_" cx="104.6" cy="117.3" r="6.5"/></defs><use fill="#fff" overflow="visible" xlink:href="#SVGID_2_"/><clipPath id="SVGID_3_"><use overflow="visible" xlink:href="#SVGID_2_"/></clipPath><g clip-path="url(#SVGID_3_)"><path d="M99.7 110.8l-1.6 3.1v-3.1z" class="st0"/><path d="M103.9 110.8l-5.8 11.3v-8.2l1.6-3.1z" class="st0"/><path d="M108.2 110.8l-6.8 13h-3.3v-1.7l5.8-11.3z" class="st0"/><path d="M111.1 113.3l-5.4 10.5h-4.3l6.8-13h2.9z" class="st0"/><path d="M111.1 121.5l-1.2 2.3h-4.2l5.4-10.5z" class="st0"/><path d="M109.9 123.8l1.2-2.3v2.3z" class="st0"/></g><circle cx="104.6" cy="148.8" r="6.5" class="st0"/><defs><circle id="SVGID_4_" cx="104.6" cy="148.8" r="6.5"/></defs><use fill="#fff" overflow="visible" xlink:href="#SVGID_4_"/><clipPath id="SVGID_5_"><use overflow="visible" xlink:href="#SVGID_4_"/></clipPath><g clip-path="url(#SVGID_5_)"><path d="M100.3 142.3l-2.2 4.3v-4.3z" class="st0"/><path d="M104.6 142.3l-6.5 12.6v-8.3l2.2-4.3z" class="st0"/><path d="M108.8 142.3l-6.7 13.1h-4v-.5l6.5-12.6z" class="st0"/><path d="M111.1 146.1l-4.8 9.3h-4.2l6.7-13.1h2.3z" class="st0"/><path d="M111.1 154.3l-.5 1.1h-4.3l4.8-9.3z" class="st0"/><path d="M110.6 155.4l.5-1.1v1.1z" class="st0"/></g><circle cx="50.1" cy="117.3" r="6.5" class="st0"/><defs><circle id="SVGID_6_" cx="50.1" cy="117.3" r="6.5"/></defs><use fill="#fff" overflow="visible" xlink:href="#SVGID_6_"/><clipPath id="SVGID_7_"><use overflow="visible" xlink:href="#SVGID_6_"/></clipPath><g clip-path="url(#SVGID_7_)"><path d="M44.5 110.8l-.9 1.7v-1.7z" class="st0"/><path d="M48.7 110.8l-5.1 9.9v-8.2l.9-1.7z" class="st0"/><path d="M53 110.8l-6.8 13h-2.6v-3.1l5.1-9.9z" class="st0"/><path d="M56.6 111.9l-6.1 11.9h-4.3l6.8-13h3.6z" class="st0"/><path d="M56.6 120.1l-1.9 3.7h-4.2l6.1-11.9z" class="st0"/><path d="M54.7 123.8l1.9-3.7v3.7z" class="st0"/></g><circle cx="50.1" cy="148.8" r="6.5" class="st0"/><defs><circle id="SVGID_8_" cx="50.1" cy="148.8" r="6.5"/></defs><use fill="#fff" overflow="visible" xlink:href="#SVGID_8_"/><clipPath id="SVGID_9_"><use overflow="visible" xlink:href="#SVGID_8_"/></clipPath><g clip-path="url(#SVGID_9_)"><path d="M45.1 142.3l-1.5 3v-3z" class="st0"/><path d="M49.4 142.3l-5.8 11.2v-8.2l1.5-3z" class="st0"/><path d="M53.6 142.3l-6.7 13.1h-3.3v-1.9l5.8-11.2z" class="st0"/><path d="M56.6 144.7l-5.5 10.7h-4.2l6.7-13.1h3z" class="st0"/><path d="M56.6 152.9l-1.2 2.5h-4.3l5.5-10.7z" class="st0"/><path d="M55.4 155.4l1.2-2.5v2.5z" class="st0"/></g><circle cx="77.4" cy="97.7" r="6.5" class="st0"/><defs><circle id="SVGID_10_" cx="77.4" cy="97.7" r="6.5"/></defs><use fill="#fff" overflow="visible" xlink:href="#SVGID_10_"/><clipPath id="SVGID_11_"><use overflow="visible" xlink:href="#SVGID_10_"/></clipPath><g clip-path="url(#SVGID_11_)"><path d="M71.6 91.2l-.8 1.5v-1.5z" class="st0"/><path d="M75.9 91.2l-5.1 9.7v-8.2l.8-1.5z" class="st0"/><path d="M80.1 91.2l-6.8 13h-2.5v-3.3l5.1-9.7z" class="st0"/><path d="M83.9 92.1l-6.3 12.1h-4.3l6.8-13h3.8z" class="st0"/><path d="M83.9 100.3l-2.1 3.9h-4.2l6.3-12.1z" class="st0"/><path d="M81.8 104.2l2.1-3.9v3.9z" class="st0"/></g><circle cx="77.4" cy="132.8" r="9.3" class="st0"/><defs><circle id="SVGID_12_" cx="77.4" cy="132.8" r="9.3"/></defs><use fill="#fff" overflow="visible" xlink:href="#SVGID_12_"/><clipPath id="SVGID_13_"><use overflow="visible" xlink:href="#SVGID_12_"/></clipPath><g clip-path="url(#SVGID_13_)"><path d="M71.9 123.5l-3.8 7.4v-7.4z" class="st0"/><path d="M76.1 123.5l-8 15.6v-8.2l3.8-7.4z" class="st0"/><path d="M80.4 123.5l-9.7 18.6h-2.6v-3l8-15.6z" class="st0"/><path d="M84.6 123.5L75 142.1h-4.3l9.7-18.6z" class="st0"/><path d="M86.7 127.7l-7.5 14.4H75l9.6-18.6h2.1z" class="st0"/><path d="M86.7 135.9l-3.3 6.2h-4.2l7.5-14.4z" class="st0"/><path d="M83.4 142.1l3.3-6.2v6.2z" class="st0"/></g><circle cx="77.4" cy="168.4" r="6.5" class="st0"/><defs><circle id="SVGID_14_" cx="77.4" cy="168.4" r="6.5"/></defs><use fill="#fff" overflow="visible" xlink:href="#SVGID_14_"/><clipPath id="SVGID_15_"><use overflow="visible" xlink:href="#SVGID_14_"/></clipPath><g clip-path="url(#SVGID_15_)"><path d="M73.2 161.9l-2.4 4.6v-4.6z" class="st0"/><path d="M77.5 161.9l-6.7 12.8v-8.2l2.4-4.6z" class="st0"/><path d="M81.7 161.9l-6.7 13h-4.2v-.2l6.7-12.8z" class="st0"/><path d="M83.9 165.9l-4.7 9H75l6.7-13h2.2z" class="st0"/><path d="M83.9 174.1l-.5.8h-4.2l4.7-9z" class="st0"/><path d="M83.4 174.9l.5-.8v.8z" class="st0"/></g><circle cx="126.1" cy="156.7" r="4.9" class="st0"/><defs><circle id="SVGID_16_" cx="126.1" cy="156.7" r="4.9"/></defs><use fill="#fff" overflow="visible" xlink:href="#SVGID_16_"/><clipPath id="SVGID_17_"><use overflow="visible" xlink:href="#SVGID_16_"/></clipPath><g clip-path="url(#SVGID_17_)"><path d="M125.3 151.8l-4.1 7.9v-7.9z" class="st0"/><path d="M129.6 151.8l-5.2 9.8h-3.2v-1.9l4.1-7.9z" class="st0"/><path d="M131 157.1l-2.3 4.5h-4.3l5.2-9.8h1.4z" class="st0"/><path d="M128.7 161.6l2.3-4.5v4.5z" class="st0"/></g><circle cx="126.1" cy="132.8" r="4.9" class="st0"/><defs><circle id="SVGID_18_" cx="126.1" cy="132.8" r="4.9"/></defs><use fill="#fff" overflow="visible" xlink:href="#SVGID_18_"/><clipPath id="SVGID_19_"><use overflow="visible" xlink:href="#SVGID_18_"/></clipPath><g clip-path="url(#SVGID_19_)"><path d="M124.8 127.9l-3.6 7v-7z" class="st0"/><path d="M129 127.9l-5.1 9.8h-2.7v-2.8l3.6-7z" class="st0"/><path d="M131 132.3l-2.8 5.4h-4.3l5.1-9.8h2z" class="st0"/><path d="M128.2 137.7l2.8-5.4v5.4z" class="st0"/></g><circle cx="153.3" cy="132.8" r="3.4" class="st0"/><defs><circle id="SVGID_20_" cx="153.3" cy="132.8" r="3.4"/></defs><use fill="#fff" overflow="visible" xlink:href="#SVGID_20_"/><clipPath id="SVGID_21_"><use overflow="visible" xlink:href="#SVGID_20_"/></clipPath><g clip-path="url(#SVGID_21_)"><path d="M153.8 129.4l-3.6 6.9h-.3v-6.9z" class="st0"/><path d="M156.7 131.8l-2.3 4.5h-4.2l3.6-6.9h2.9z" class="st0"/><path d="M154.4 136.3l2.3-4.5v4.5z" class="st0"/></g><circle cx="126.1" cy="101" r="4.9" class="st0"/><defs><circle id="SVGID_22_" cx="126.1" cy="101" r="4.9"/></defs><use fill="#fff" overflow="visible" xlink:href="#SVGID_22_"/><clipPath id="SVGID_23_"><use overflow="visible" xlink:href="#SVGID_22_"/></clipPath><g clip-path="url(#SVGID_23_)"><path d="M124.3 96.1l-3.1 6v-6z" class="st0"/><path d="M128.5 96.1l-5.1 9.8h-2.2v-3.8l3.1-6z" class="st0"/><path d="M131 99.5l-3.3 6.4h-4.3l5.1-9.8h2.5z" class="st0"/><path d="M127.7 105.9l3.3-6.4v6.4z" class="st0"/></g><circle cx="31.8" cy="164.6" r="4.9" class="st0"/><defs><circle id="SVGID_24_" cx="31.8" cy="164.6" r="4.9"/></defs><use fill="#fff" overflow="visible" xlink:href="#SVGID_24_"/><clipPath id="SVGID_25_"><use overflow="visible" xlink:href="#SVGID_24_"/></clipPath><g clip-path="url(#SVGID_25_)"><path d="M27.6 159.7l-.7 1.5v-1.5z" class="st0"/><path d="M31.9 159.7l-5 9.7v-8.2l.7-1.5z" class="st0"/><path d="M36.1 159.7l-5.1 9.8h-4.1v-.1l5-9.7z" class="st0"/><path d="M36.7 166.8l-1.4 2.7H31l5.1-9.8h.6z" class="st0"/><path d="M35.3 169.5l1.4-2.7v2.7z" class="st0"/></g><circle cx="31.8" cy="132.8" r="4.9" class="st0"/><defs><circle id="SVGID_26_" cx="31.8" cy="132.8" r="4.9"/></defs><use fill="#fff" overflow="visible" xlink:href="#SVGID_26_"/><clipPath id="SVGID_27_"><use overflow="visible" xlink:href="#SVGID_26_"/></clipPath><g clip-path="url(#SVGID_27_)"><path d="M27.1 127.9l-.2.5v-.5z" class="st0"/><path d="M31.4 127.9l-4.5 8.7v-8.2l.2-.5z" class="st0"/><path d="M35.6 127.9l-5.1 9.8h-3.6v-1.1l4.5-8.7z" class="st0"/><path d="M36.7 134.1l-1.9 3.6h-4.3l5.1-9.8h1.1z" class="st0"/><path d="M34.8 137.7l1.9-3.6v3.6z" class="st0"/></g><circle cx="7.7" cy="132.8" r="3.4" class="st0"/><g><defs><circle id="SVGID_28_" cx="7.7" cy="132.8" r="3.4"/></defs><use fill="#fff" overflow="visible" xlink:href="#SVGID_28_"/><clipPath id="SVGID_29_"><use overflow="visible" xlink:href="#SVGID_28_"/></clipPath><g clip-path="url(#SVGID_29_)"><path d="M5.1 129.4l-.8 1.7v-1.7z" class="st0"/><path d="M9.4 129.4l-3.6 6.9H4.3v-5.2l.8-1.7z" class="st0"/><path d="M11.1 134.2l-1 2.1H5.8l3.6-6.9h1.7z" class="st0"/><path d="M10.1 136.3l1-2.1v2.1z" class="st0"/></g></g><circle cx="31.8" cy="101" r="4.9" class="st0"/><g><defs><circle id="SVGID_30_" cx="31.8" cy="101" r="4.9"/></defs><use fill="#fff" overflow="visible" xlink:href="#SVGID_30_"/><clipPath id="SVGID_31_"><use overflow="visible" xlink:href="#SVGID_30_"/></clipPath><g clip-path="url(#SVGID_31_)"><path d="M30.9 96.1l-4 7.7v-7.7z" class="st0"/><path d="M35.1 96.1l-5.1 9.8h-3.1v-2.1l4-7.7z" class="st0"/><path d="M36.7 101.3l-2.4 4.6H30l5.1-9.8h1.6z" class="st0"/><path d="M34.3 105.9l2.4-4.6v4.6z" class="st0"/></g></g><circle cx="77.4" cy="66.2" r="3.4" class="st0"/><g><defs><circle id="SVGID_32_" cx="77.4" cy="66.2" r="3.4"/></defs><use fill="#fff" overflow="visible" xlink:href="#SVGID_32_"/><clipPath id="SVGID_33_"><use overflow="visible" xlink:href="#SVGID_32_"/></clipPath><g clip-path="url(#SVGID_33_)"><path d="M77.9 62.7l-3.6 6.9h-.4v-6.9z" class="st0"/><path d="M80.8 65.3l-2.2 4.3h-4.3l3.6-6.9h2.9z" class="st0"/><path d="M78.6 69.6l2.2-4.3v4.3z" class="st0"/></g></g><circle cx="77.5" cy="116.8" r="4" class="st0"/><g><defs><circle id="SVGID_34_" cx="77.5" cy="116.8" r="4"/></defs><use fill="#fff" overflow="visible" xlink:href="#SVGID_34_"/><clipPath id="SVGID_35_"><use overflow="visible" xlink:href="#SVGID_34_"/></clipPath><g clip-path="url(#SVGID_35_)"><path d="M74.5 112.8l-1 2v-2z" class="st0"/><path d="M77.1 112.8l-3.6 7v-5l1-2z" class="st0"/><path d="M79.7 112.8l-4.1 8h-2.1v-1l3.6-7z" class="st0"/><path d="M81.5 114.4l-3.3 6.4h-2.6l4.1-8h1.8z" class="st0"/><path d="M81.5 119.4l-.7 1.4h-2.6l3.3-6.4z" class="st0"/><path d="M80.8 120.8l.7-1.4v1.4z" class="st0"/></g></g><circle cx="45" cy="102.9" r="3.2" class="st0"/><g><defs><circle id="SVGID_36_" cx="45" cy="102.9" r="3.2"/></defs><use fill="#fff" overflow="visible" xlink:href="#SVGID_36_"/><clipPath id="SVGID_37_"><use overflow="visible" xlink:href="#SVGID_36_"/></clipPath><g clip-path="url(#SVGID_37_)"><path d="M42.3 99.7l-.4.8v-.8z" class="st0"/><path d="M44.4 99.7l-2.5 4.8v-4l.4-.8z" class="st0"/><path d="M46.4 99.7l-3.2 6.3h-1.3v-1.5l2.5-4.8z" class="st0"/><path d="M48.2 100.3l-3 5.7h-2l3.2-6.3h1.8z" class="st0"/><path d="M48.2 104.2l-.9 1.8h-2.1l3-5.7z" class="st0"/><path d="M47.3 106l.9-1.8v1.8z" class="st0"/></g></g><circle cx="44.1" cy="136.2" r="4" class="st0"/><g><defs><circle id="SVGID_38_" cx="44.1" cy="136.2" r="4"/></defs><use fill="#fff" overflow="visible" xlink:href="#SVGID_38_"/><clipPath id="SVGID_39_"><use overflow="visible" xlink:href="#SVGID_38_"/></clipPath><g clip-path="url(#SVGID_39_)"><path d="M41 132.2l-.9 1.8v-1.8z" class="st0"/><path d="M43.6 132.2l-3.5 6.9V134l.9-1.8z" class="st0"/><path d="M46.2 132.2l-4.1 8h-2v-1.1l3.5-6.9z" class="st0"/><path d="M48.1 133.7l-3.4 6.5h-2.6l4.1-8h1.9z" class="st0"/><path d="M48.1 138.7l-.8 1.5h-2.6l3.4-6.5z" class="st0"/><path d="M47.3 140.2l.8-1.5v1.5z" class="st0"/></g></g><circle cx="60.8" cy="104.8" r="4" class="st0"/><g><defs><circle id="SVGID_40_" cx="60.8" cy="104.8" r="4"/></defs><use fill="#fff" overflow="visible" xlink:href="#SVGID_40_"/><clipPath id="SVGID_41_"><use overflow="visible" xlink:href="#SVGID_40_"/></clipPath><g clip-path="url(#SVGID_41_)"><path d="M57.3 100.8l-.5 1v-1z" class="st0"/><path d="M59.9 100.8l-3.1 6v-5l.5-1z" class="st0"/><path d="M62.5 100.8l-4.2 8h-1.5v-2l3.1-6z" class="st0"/><path d="M64.8 101.4l-3.9 7.4h-2.6l4.2-8h2.3z" class="st0"/><path d="M64.8 106.4l-1.3 2.4h-2.6l3.9-7.4z" class="st0"/><path d="M63.5 108.8l1.3-2.4v2.4z" class="st0"/></g></g><circle cx="60.8" cy="126.4" r="5.7" class="st0"/><g><defs><circle id="SVGID_42_" cx="60.8" cy="126.4" r="5.7"/></defs><use fill="#fff" overflow="visible" xlink:href="#SVGID_42_"/><clipPath id="SVGID_43_"><use overflow="visible" xlink:href="#SVGID_42_"/></clipPath><g clip-path="url(#SVGID_43_)"><path d="M57.4 120.7l-2.3 4.5v-4.5z" class="st0"/><path d="M60 120.7l-4.9 9.5v-5l2.3-4.5z" class="st0"/><path d="M62.6 120.7l-5.9 11.4h-1.6v-1.9l4.9-9.5z" class="st0"/><path d="M65.2 120.7l-5.9 11.4h-2.6l5.9-11.4z" class="st0"/><path d="M66.5 123.2l-4.6 8.9h-2.6l5.9-11.4h1.3z" class="st0"/><path d="M66.5 128.3l-2 3.8h-2.6l4.6-8.9z" class="st0"/><path d="M64.5 132.1l2-3.8v3.8z" class="st0"/></g></g><circle cx="65.1" cy="149.9" r="4" class="st0"/><g><defs><circle id="SVGID_44_" cx="65.1" cy="149.9" r="4"/></defs><use fill="#fff" overflow="visible" xlink:href="#SVGID_44_"/><clipPath id="SVGID_45_"><use overflow="visible" xlink:href="#SVGID_44_"/></clipPath><g clip-path="url(#SVGID_45_)"><path d="M62.6 145.9l-1.5 2.8v-2.8z" class="st0"/><path d="M65.2 145.9l-4.1 7.8v-5l1.5-2.8z" class="st0"/><path d="M67.8 145.9l-4.1 8h-2.6v-.2l4.1-7.8z" class="st0"/><path d="M69.1 148.4l-2.9 5.5h-2.5l4.1-8h1.3z" class="st0"/><path d="M69.1 153.4l-.2.5h-2.7l2.9-5.5z" class="st0"/><path d="M68.9 153.9l.2-.5v.5z" class="st0"/></g></g><circle cx="60.8" cy="167.6" r="2.1" class="st0"/><g><defs><circle id="SVGID_46_" cx="60.8" cy="167.6" r="2.1"/></defs><use fill="#fff" overflow="visible" xlink:href="#SVGID_46_"/><clipPath id="SVGID_47_"><use overflow="visible" xlink:href="#SVGID_46_"/></clipPath><g clip-path="url(#SVGID_47_)"><path d="M60.3 165.5l-1.6 3v-3z" class="st0"/><path d="M62.9 165.5l-2.2 4.2h-2v-1.2l1.6-3z" class="st0"/><path d="M60.7 169.7l2.2-4.2v4.2z" class="st0"/></g></g><circle cx="90.7" cy="145.9" r="3" class="st0"/><g><defs><circle id="SVGID_48_" cx="90.7" cy="145.9" r="3"/></defs><use fill="#fff" overflow="visible" xlink:href="#SVGID_48_"/><clipPath id="SVGID_49_"><use overflow="visible" xlink:href="#SVGID_48_"/></clipPath><g clip-path="url(#SVGID_49_)"><path d="M90.2 142.9l-2.5 4.9v-4.9z" class="st0"/><path d="M92.8 142.9l-3.1 6h-2v-1.1l2.5-4.9z" class="st0"/><path d="M93.7 146.2l-1.4 2.7h-2.6l3.1-6h.9z" class="st0"/><path d="M92.3 148.9l1.4-2.7v2.7z" class="st0"/></g></g><circle cx="90.7" cy="126.4" r="3" class="st0"/><g><defs><circle id="SVGID_50_" cx="90.7" cy="126.4" r="3"/></defs><use fill="#fff" overflow="visible" xlink:href="#SVGID_50_"/><clipPath id="SVGID_51_"><use overflow="visible" xlink:href="#SVGID_50_"/></clipPath><g clip-path="url(#SVGID_51_)"><path d="M89.9 123.4l-2.2 4.2v-4.2z" class="st0"/><path d="M92.5 123.4l-3.1 6h-1.7v-1.8l2.2-4.2z" class="st0"/><path d="M93.7 126.1l-1.7 3.3h-2.6l3.1-6h1.2z" class="st0"/><path d="M92 129.4l1.7-3.3v3.3z" class="st0"/></g></g><circle cx="107.4" cy="128.2" r="2.1" class="st0"/><g><defs><circle id="SVGID_52_" cx="107.4" cy="128.2" r="2.1"/></defs><use fill="#fff" overflow="visible" xlink:href="#SVGID_52_"/><clipPath id="SVGID_53_"><use overflow="visible" xlink:href="#SVGID_52_"/></clipPath><g clip-path="url(#SVGID_53_)"><path d="M107.7 126.1l-2.2 4.2h-.2v-4.2z" class="st0"/><path d="M109.5 127.6l-1.4 2.7h-2.6l2.2-4.2h1.8z" class="st0"/><path d="M108.1 130.3l1.4-2.7v2.7z" class="st0"/></g></g><circle cx="90.7" cy="106.9" r="3" class="st0"/><g><defs><circle id="SVGID_54_" cx="90.7" cy="106.9" r="3"/></defs><use fill="#fff" overflow="visible" xlink:href="#SVGID_54_"/><clipPath id="SVGID_55_"><use overflow="visible" xlink:href="#SVGID_54_"/></clipPath><g clip-path="url(#SVGID_55_)"><path d="M89.6 103.8l-1.9 3.7v-3.7z" class="st0"/><path d="M92.2 103.8l-3.1 6.1h-1.4v-2.4l1.9-3.7z" class="st0"/><path d="M93.7 105.9l-2 4h-2.6l3.1-6.1h1.5z" class="st0"/><path d="M91.7 109.9l2-4v4z" class="st0"/></g></g><circle cx="32.8" cy="145.9" r="3" class="st0"/><g><defs><circle id="SVGID_56_" cx="32.8" cy="145.9" r="3"/></defs><use fill="#fff" overflow="visible" xlink:href="#SVGID_56_"/><clipPath id="SVGID_57_"><use overflow="visible" xlink:href="#SVGID_56_"/></clipPath><g clip-path="url(#SVGID_57_)"><path d="M30.3 142.9l-.5.9v-.9z" class="st0"/><path d="M32.9 142.9l-3.1 5.9v-5l.5-.9z" class="st0"/><path d="M35.5 142.9l-3.1 6h-2.6v-.1l3.1-5.9z" class="st0"/><path d="M35.8 147.2l-.8 1.7h-2.6l3.1-6h.3z" class="st0"/><path d="M35 148.9l.8-1.7v1.7z" class="st0"/></g></g><circle cx="33.2" cy="120.7" r="3" class="st0"/><g><defs><circle id="SVGID_58_" cx="33.2" cy="120.7" r="3"/></defs><use fill="#fff" overflow="visible" xlink:href="#SVGID_58_"/><clipPath id="SVGID_59_"><use overflow="visible" xlink:href="#SVGID_58_"/></clipPath><g clip-path="url(#SVGID_59_)"><path d="M30.3 117.6l-.2.4v-.4z" class="st0"/><path d="M32.9 117.6l-2.8 5.4v-5l.2-.4z" class="st0"/><path d="M35.5 117.6l-3.1 6.1h-2.3v-.7l2.8-5.4z" class="st0"/><path d="M36.2 121.4l-1.2 2.3h-2.6l3.1-6.1h.7z" class="st0"/><path d="M35 123.7l1.2-2.3v2.3z" class="st0"/></g></g><circle cx="18" cy="126.4" r="2.1" class="st0"/><g><defs><circle id="SVGID_60_" cx="18" cy="126.4" r="2.1"/></defs><use fill="#fff" overflow="visible" xlink:href="#SVGID_60_"/><clipPath id="SVGID_61_"><use overflow="visible" xlink:href="#SVGID_60_"/></clipPath><g clip-path="url(#SVGID_61_)"><path d="M16.5 124.3l-.6 1v-1z" class="st0"/><path d="M19.1 124.3l-2.2 4.2h-1v-3.2l.6-1z" class="st0"/><path d="M20.2 127.2l-.7 1.3h-2.6l2.2-4.2h1.1z" class="st0"/><path d="M19.5 128.5l.7-1.3v1.3z" class="st0"/></g></g><circle cx="60.8" cy="85.5" r="2.1" class="st0"/><g><defs><circle id="SVGID_62_" cx="60.8" cy="85.5" r="2.1"/></defs><use fill="#fff" overflow="visible" xlink:href="#SVGID_62_"/><clipPath id="SVGID_63_"><use overflow="visible" xlink:href="#SVGID_62_"/></clipPath><g clip-path="url(#SVGID_63_)"><path d="M61.1 83.4l-2.2 4.2h-.2v-4.2z" class="st0"/><path d="M62.9 84.9l-1.4 2.7h-2.6l2.2-4.2h1.8z" class="st0"/><path d="M61.5 87.6l1.4-2.7v2.7z" class="st0"/></g></g></g></g></svg>