<svg xmlns="http://www.w3.org/2000/svg" xmlns:svg="http://www.w3.org/2000/svg" id="svg8829" width="560.305" height="101.64" version="1.1" viewBox="0 0 560.305 101.64" style="enable-background:new"><metadata id="metadata8834"/><g id="layer1" transform="translate(332.67518,10.079692)"><path style="color:#000;clip-rule:nonzero;display:inline;overflow:visible;visibility:visible;opacity:1;isolation:auto;mix-blend-mode:normal;color-interpolation:sRGB;color-interpolation-filters:linearRGB;solid-color:#000;solid-opacity:1;fill:#fff;fill-opacity:1;fill-rule:nonzero;stroke:none;stroke-width:40;stroke-linecap:butt;stroke-linejoin:miter;stroke-miterlimit:4;stroke-dasharray:none;stroke-dashoffset:0;stroke-opacity:1;marker:none;marker-start:none;marker-mid:none;marker-end:none;paint-order:normal;color-rendering:auto;image-rendering:auto;shape-rendering:auto;text-rendering:auto;enable-background:accumulate" id="path7824-4-3-6-6-7-2-1-6-3-31-4-4-6-4-0-6-6-2-6-7-9" d="m 314.47461,47.34375 a 39.155037,39.133911 0 0 0 -39.1543,39.134766 39.155037,39.133911 0 0 0 39.1543,39.132814 39.155037,39.133911 0 0 0 39.1543,-39.132814 39.155037,39.133911 0 0 0 -39.1543,-39.134766 z m -0.004,9.394531 A 29.751881,29.73583 0 0 1 344.22266,86.474609 29.751881,29.73583 0 0 1 314.4707,116.21094 29.751881,29.73583 0 0 1 284.71875,86.474609 29.751881,29.73583 0 0 1 314.4707,56.738281 Z" transform="translate(-374.78601,-47.423442)"/><path style="font-style:normal;font-variant:normal;font-weight:700;font-stretch:normal;font-size:medium;line-height:125%;font-family:Montserrat;-inkscape-font-specification:'Montserrat Bold';text-align:end;letter-spacing:-10.00000095px;word-spacing:0;text-anchor:end;fill:#fff;fill-opacity:1;stroke:none;stroke-width:1px;stroke-linecap:butt;stroke-linejoin:miter;stroke-opacity:1" id="path8253-6-1-9-2-0-5-7-6-7" d="m -266.66296,2.918441 v 72.679683 h 54.18945 l -5.76758,-14.34765 h -32.20117 V 46.172347 h 26.14063 l -5.5586,-13.828125 h -20.58203 V 17.371566 h 40.18359 V 2.918441 Z"/><path id="path8255-06-5-2-2-8-2-5-0-8" d="m -188.80518,49.188321 18.507,-46.2691999 h 17.572 l -29.217,72.6790029 h -13.725 l -29.217,-72.6790029 h 17.572 z" style="font-style:normal;font-variant:normal;font-weight:700;font-stretch:normal;font-size:medium;line-height:125%;font-family:Montserrat;-inkscape-font-specification:'Montserrat Bold';text-align:end;letter-spacing:-10.00000095px;word-spacing:0;text-anchor:end;fill:#fff;fill-opacity:1;stroke:none;stroke-width:1px;stroke-linecap:butt;stroke-linejoin:miter;stroke-opacity:1"/><ellipse style="color:#000;clip-rule:nonzero;display:inline;overflow:visible;visibility:visible;opacity:1;isolation:auto;mix-blend-mode:normal;color-interpolation:sRGB;color-interpolation-filters:linearRGB;solid-color:#000;solid-opacity:1;fill:#8e83e4;fill-opacity:1;fill-rule:nonzero;stroke:#8e83e4;stroke-width:6.00000095;stroke-linecap:butt;stroke-linejoin:miter;stroke-miterlimit:4;stroke-dasharray:none;stroke-dashoffset:0;stroke-opacity:1;marker:none;marker-start:none;marker-mid:none;marker-end:none;paint-order:normal;color-rendering:auto;image-rendering:auto;shape-rendering:auto;text-rendering:auto;enable-background:accumulate" id="path7824-2-4-1-1-2-3-56-3-1-4-6-5-4-2-8-6-4-7-3-4-2-2-6-4-9-4" cx="-60.314" cy="39.052" rx="22.62" ry="22.608"/><path style="color:#000;clip-rule:nonzero;display:inline;overflow:visible;visibility:visible;opacity:1;isolation:auto;mix-blend-mode:normal;color-interpolation:sRGB;color-interpolation-filters:linearRGB;solid-color:#000;solid-opacity:1;fill:#fff;fill-opacity:1;fill-rule:nonzero;stroke:#8e83e4;stroke-width:.5;stroke-linecap:butt;stroke-linejoin:miter;stroke-miterlimit:4;stroke-dasharray:none;stroke-dashoffset:0;stroke-opacity:1;marker:none;marker-start:none;marker-mid:none;marker-end:none;paint-order:normal;color-rendering:auto;image-rendering:auto;shape-rendering:auto;text-rendering:auto;enable-background:accumulate" id="path9442" d="M 314.4707,63.867188 A 22.61999,22.607786 0 0 0 292.625,80.71875 l 7.0293,1.882812 a 21.568194,21.556558 0 0 1 19.69531,-12.80664 21.568194,21.556558 0 0 1 15.18945,6.269531 22.61999,22.607786 0 0 0 -20.06836,-12.197265 z m -22.48828,20.232421 a 22.61999,22.607786 0 0 0 -0.13281,2.375 22.61999,22.607786 0 0 0 0.81055,5.984375 l 5.29492,1.417969 a 21.568194,21.556558 0 0 1 -0.17578,-2.525391 21.568194,21.556558 0 0 1 0.74414,-5.5 z" transform="translate(-374.78601,-47.423442)"/><path id="path8251-8-5-8-1-8-1-2-0-9-9" d="m -310.99318,2.9191211 c 12.962,0 22.91,3.1886 29.841,9.5656999 6.932,6.3079 10.398,15.1112 10.398,26.4099 0,11.2987 -3.397,20.240603 -10.19,26.825703 -6.724,6.5851 -17.017,9.8777 -30.881,9.8777 h -20.85 V 2.9191211 Z m 0.832,58.3303029 c 7.417,0 13.101,-1.8716 17.052,-5.6147 4.02,-3.743103 6.031,-9.184403 6.031,-16.324103 0,-7.1397 -2.011,-12.6157 -6.031,-16.4282 -3.951,-3.8817 -10.051,-5.8226 -18.3,-5.8226 h -5.045 v 44.189603 z" style="font-style:normal;font-variant:normal;font-weight:700;font-stretch:normal;font-size:medium;line-height:125%;font-family:Montserrat;-inkscape-font-specification:'Montserrat Bold';text-align:end;letter-spacing:-10.00000095px;word-spacing:0;text-anchor:end;fill:#fff;fill-opacity:1;stroke:none;stroke-width:1px;stroke-linecap:butt;stroke-linejoin:miter;stroke-opacity:1"/><path id="path7649-0-2-3-5-3-2-6-20-2-4-1-4-2-9-0-9-7-1-6" d="m 38.258821,2.9193211 h 12.269 V 75.598124 h -13.308 L -3.9551795,22.570721 V 75.598124 H -16.224179 V 2.9193211 H -3.9551795 L 38.258821,57.194524 Z" style="font-style:normal;font-variant:normal;font-weight:400;font-stretch:normal;font-size:medium;line-height:125%;font-family:Montserrat;-inkscape-font-specification:Montserrat;text-align:center;letter-spacing:0;word-spacing:0;text-anchor:middle;fill:#fff;fill-opacity:1;stroke:none;stroke-width:1px;stroke-linecap:butt;stroke-linejoin:miter;stroke-opacity:1"/><path id="path7646-8-93-0-9-2-70-1-6-0-2-2-33-8-7-6-3-8-7-1" d="M 59.295821,2.9202211 V 75.598124 h 12.27 V 45.652821 h 24.769 l 4.556999,-11.3322 H 71.565821 v -19.9648 h 37.350999 l 4.598,-11.4355999 z" style="font-style:normal;font-variant:normal;font-weight:400;font-stretch:normal;font-size:medium;line-height:125%;font-family:Montserrat;-inkscape-font-specification:Montserrat;text-align:center;letter-spacing:0;word-spacing:0;text-anchor:middle;fill:#fff;fill-opacity:1;stroke:none;stroke-width:1px;stroke-linecap:butt;stroke-linejoin:miter;stroke-opacity:1"/><path style="font-style:normal;font-variant:normal;font-weight:400;font-stretch:normal;font-size:medium;line-height:125%;font-family:Montserrat;-inkscape-font-specification:Montserrat;text-align:start;letter-spacing:0;word-spacing:0;text-anchor:start;fill:#fff;fill-opacity:1;stroke:none;stroke-width:1px;stroke-linecap:butt;stroke-linejoin:miter;stroke-opacity:1" id="path7182" d="m 507.89453,81.507812 c -12.22366,0 -21.73047,9.033906 -21.73047,20.785158 0,11.86935 9.39054,21.02344 21.4961,21.02344 5.8461,0 11.80929,-2.65741 16.00195,-6.79102 l -4.13281,-4.60742 c -3.12973,3.01163 -7.38203,4.90234 -11.51563,4.90234 -8.26721,0 -14.76367,-6.43683 -14.76367,-14.58593 0,-8.149113 6.49646,-14.527349 14.76367,-14.527349 4.19265,0 8.504,2.008027 11.51563,5.25586 l 4.07422,-5.078125 c -4.01551,-3.956451 -9.86289,-6.376953 -15.70899,-6.376954 z m 20.38867,0.175782 v 6.259765 h 24.44727 l -25.21485,30.058591 v 5.01758 h 34.9004 v -6.25781 h -25.45118 l 25.15625,-30.058595 v -5.019531 z m -50.60742,34.074216 c -2.12585,0 -3.7207,1.59394 -3.7207,3.83789 0,2.30301 1.59485,3.95703 3.7207,3.95703 2.12586,0 3.7207,-1.65402 3.7207,-3.95703 0,-2.24395 -1.59484,-3.83789 -3.7207,-3.83789 z" transform="translate(-374.78601,-47.423442)"/><path style="color:#000;font-style:normal;font-variant:normal;font-weight:400;font-stretch:normal;font-size:medium;line-height:normal;font-family:sans-serif;text-indent:0;text-align:start;text-decoration:none;text-decoration-line:none;text-decoration-style:solid;text-decoration-color:#000;letter-spacing:normal;word-spacing:normal;text-transform:none;writing-mode:lr-tb;direction:ltr;baseline-shift:baseline;text-anchor:start;white-space:normal;clip-rule:nonzero;display:inline;overflow:visible;visibility:visible;opacity:1;isolation:auto;mix-blend-mode:normal;color-interpolation:sRGB;color-interpolation-filters:linearRGB;solid-color:#000;solid-opacity:1;fill:#fff;fill-opacity:1;fill-rule:nonzero;stroke:none;stroke-width:11.33300209;stroke-linecap:butt;stroke-linejoin:miter;stroke-miterlimit:4;stroke-dasharray:none;stroke-dashoffset:0;stroke-opacity:1;marker:none;paint-order:normal;color-rendering:auto;image-rendering:auto;shape-rendering:auto;text-rendering:auto;enable-background:accumulate" id="path9486" d="m -121.64539,1.150777 c -20.72186,-0.0025 -37.64257,16.91876 -37.64257,37.640625 0,20.721866 16.92072,37.660496 37.64257,37.642576 0.34421,-3e-4 0.68131,-9e-5 1,0 9.17779,0.002 17.6057,-3.32366 24.15235,-8.82226 -2.52122,-3.18176 -4.63874,-6.69498 -6.25977,-10.47071 -4.66451,4.79913 -11.15733,7.81201 -18.39258,7.94532 -14.36254,-0.265 -25.80859,-11.86566 -25.80859,-26.294926 0,-14.429279 11.44605,-26.031898 25.80859,-26.296875 7.32028,0.134859 13.87904,3.218777 18.55469,8.117187 1.6534,-3.762447 3.79397,-7.263423 6.34375,-10.425781 -6.58111,-5.623926 -15.10406,-9.052475 -24.39844,-9.035156 -0.34427,6.42e-4 -0.68107,3.8e-5 -1,0 z"/><g id="g3666" transform="translate(0.47461025,-97.02246)" style="fill:#fff;fill-opacity:1"><path id="path7824-4-3-6-6-7-2-1-6-3-31-4-4-6-2-6-53-7-7-3-72-9-4-5-4-6-3-2" d="m -82.13738,163.19192 c -2.09309,0.12315 -3.7191,4.11474 -3.71837,6.19138 7.4e-4,2.54062 11.05719,9.19978 25.06974,9.19978 14.01256,0 25.06886,-6.65916 25.06975,-9.19978 7.4e-4,-2.14364 -1.73181,-6.32746 -3.92228,-6.19077 -0.40564,0.0253 -0.82751,0.19908 -1.25645,0.56113 -2.7452,2.3171 -12.39239,7.17348 -19.89102,7.17349 -7.49862,10e-6 -17.14581,-4.85639 -19.89101,-7.17349 -0.42894,-0.36205 -0.85081,-0.5358 -1.25645,-0.56113 -0.0684,-0.005 -0.13639,-0.005 -0.20391,-7.4e-4 z" style="color:#000;clip-rule:nonzero;display:inline;overflow:visible;visibility:visible;opacity:1;isolation:auto;mix-blend-mode:normal;color-interpolation:sRGB;color-interpolation-filters:linearRGB;solid-color:#000;solid-opacity:1;fill:#fff;fill-opacity:1;fill-rule:nonzero;stroke:none;stroke-width:41.64807892;stroke-linecap:butt;stroke-linejoin:miter;stroke-miterlimit:4;stroke-dasharray:none;stroke-dashoffset:0;stroke-opacity:1;marker:none;marker-start:none;marker-mid:none;marker-end:none;paint-order:normal;color-rendering:auto;image-rendering:auto;shape-rendering:auto;text-rendering:auto;enable-background:accumulate"/></g></g></svg>