<svg xmlns="http://www.w3.org/2000/svg" viewBox="0 0 400 245"><defs><style>.cls-1{fill:#fff}</style></defs><title>XenDDS_20_SaveTheDate</title><g id="Logo"><path d="M17.07,176.05a11.42,11.42,0,0,1,3.93.67,8.45,8.45,0,0,1,3.14,2,9.34,9.34,0,0,1,2.08,3.36,13.53,13.53,0,0,1,.75,4.73,15,15,0,0,1-.61,4.4,9.65,9.65,0,0,1-1.85,3.49,8.69,8.69,0,0,1-3.08,2.3,10.5,10.5,0,0,1-4.36.84H7.66V176.05Zm-.33,17.78a6,6,0,0,0,2-.34,4.39,4.39,0,0,0,1.74-1.11,5.71,5.71,0,0,0,1.23-2,9.15,9.15,0,0,0,.45-3.06,12.43,12.43,0,0,0-.32-3A5.87,5.87,0,0,0,20.8,182a4.67,4.67,0,0,0-1.94-1.45,7.7,7.7,0,0,0-3-.51H12.46v13.75Z" class="cls-1"/><path d="M46.61,176.05v4H35.1v4.68H45.66v3.72H35.1v5.35H46.86v4H30.3V176.05Z" class="cls-1"/><path d="M54.83,197.86l-7.06-21.81h4.92l4.86,15.34h.06l4.92-15.34h4.94l-7.23,21.81Z" class="cls-1"/><path d="M85.65,176.05v4H74.13v4.68H84.7v3.72H74.13v5.35H85.89v4H69.34V176.05Z" class="cls-1"/><path d="M93.93,176.05v17.78h10.63v4H89.13V176.05Z" class="cls-1"/><path d="M107,182.51a10.92,10.92,0,0,1,2.11-3.65,9.6,9.6,0,0,1,3.38-2.44,11.87,11.87,0,0,1,9,0,9.52,9.52,0,0,1,3.36,2.44,10.92,10.92,0,0,1,2.11,3.65,13.64,13.64,0,0,1,.73,4.54,13.09,13.09,0,0,1-.73,4.44,10.55,10.55,0,0,1-2.11,3.59,9.55,9.55,0,0,1-3.36,2.4,12.12,12.12,0,0,1-9,0,9.63,9.63,0,0,1-3.38-2.4,10.55,10.55,0,0,1-2.11-3.59,13.09,13.09,0,0,1-.73-4.44A13.64,13.64,0,0,1,107,182.51Zm4.39,7.21a7.06,7.06,0,0,0,1,2.34,5.22,5.22,0,0,0,1.83,1.66,6.32,6.32,0,0,0,5.5,0,5.22,5.22,0,0,0,1.83-1.66,7.28,7.28,0,0,0,1-2.34,11.28,11.28,0,0,0,.32-2.67,12.09,12.09,0,0,0-.32-2.78,7.42,7.42,0,0,0-1-2.4,5.27,5.27,0,0,0-1.83-1.68,6.32,6.32,0,0,0-5.5,0,5.27,5.27,0,0,0-1.83,1.68,7.19,7.19,0,0,0-1,2.4,11.56,11.56,0,0,0-.33,2.78A10.79,10.79,0,0,0,111.42,189.72Z" class="cls-1"/><path d="M140.85,176.05a9,9,0,0,1,3.48.6,6.42,6.42,0,0,1,2.34,1.57,5.93,5.93,0,0,1,1.31,2.23,8.39,8.39,0,0,1,0,5.18,6,6,0,0,1-1.31,2.24,6.57,6.57,0,0,1-2.34,1.58,9.24,9.24,0,0,1-3.48.59h-5v7.82H131V176.05Zm-1.32,10.26a10.25,10.25,0,0,0,1.59-.12,3.79,3.79,0,0,0,1.35-.47,2.69,2.69,0,0,0,.93-1,3.55,3.55,0,0,0,.35-1.68,3.5,3.5,0,0,0-.35-1.68,2.72,2.72,0,0,0-.93-1,3.79,3.79,0,0,0-1.35-.47,10.25,10.25,0,0,0-1.59-.12h-3.72v6.53Z" class="cls-1"/><path d="M167.7,176.05v4H156.18v4.68h10.57v3.72H156.18v5.35h11.76v4H151.39V176.05Z" class="cls-1"/><path d="M182.94,176.05a7.1,7.1,0,0,1,2.64.47,6.11,6.11,0,0,1,2,1.3,5.58,5.58,0,0,1,1.28,1.91,6,6,0,0,1,.44,2.34,6.67,6.67,0,0,1-.8,3.33,5.07,5.07,0,0,1-2.65,2.14v.06a3.65,3.65,0,0,1,1.47.75,4.09,4.09,0,0,1,.95,1.19,5.63,5.63,0,0,1,.53,1.51,13.36,13.36,0,0,1,.23,1.65c0,.35,0,.75.06,1.22s.06,1,.11,1.44a9.81,9.81,0,0,0,.24,1.39,3.07,3.07,0,0,0,.51,1.11h-4.8a8.58,8.58,0,0,1-.49-2.47c-.06-1-.15-1.88-.27-2.75a4.4,4.4,0,0,0-1-2.51,3.58,3.58,0,0,0-2.6-.79H176v8.52h-4.8V176.05Zm-1.71,9.87a3.61,3.61,0,0,0,2.47-.74,3,3,0,0,0,.83-2.38,2.88,2.88,0,0,0-.83-2.3,3.66,3.66,0,0,0-2.47-.72H176v6.14Z" class="cls-1"/><path d="M212.6,176.05l8.16,21.81h-5L214.13,193H206l-1.71,4.86h-4.82l8.24-21.81Zm.28,13.38-2.75-8h-.06l-2.85,8Z" class="cls-1"/><path d="M227.42,176.05l9.1,14.63h.06V176.05h4.49v21.81h-4.8l-9.07-14.6h-.06v14.6h-4.49V176.05Z" class="cls-1"/><path d="M254.69,176.05a11.42,11.42,0,0,1,3.93.67,8.57,8.57,0,0,1,3.15,2,9.46,9.46,0,0,1,2.07,3.36,13.53,13.53,0,0,1,.75,4.73,15,15,0,0,1-.61,4.4,9.65,9.65,0,0,1-1.85,3.49,8.69,8.69,0,0,1-3.08,2.3,10.47,10.47,0,0,1-4.36.84h-9.4V176.05Zm-.33,17.78a6,6,0,0,0,2-.34,4.35,4.35,0,0,0,1.75-1.11,5.84,5.84,0,0,0,1.22-2,9.13,9.13,0,0,0,.46-3.06,12.41,12.41,0,0,0-.33-3,5.87,5.87,0,0,0-1.05-2.27,4.61,4.61,0,0,0-1.94-1.45,7.66,7.66,0,0,0-3-.51h-3.42v13.75Z" class="cls-1"/><path d="M285.82,176.05a11.42,11.42,0,0,1,3.93.67,8.45,8.45,0,0,1,3.14,2A9.34,9.34,0,0,1,295,182.1a13.53,13.53,0,0,1,.75,4.73,15.34,15.34,0,0,1-.61,4.4,9.81,9.81,0,0,1-1.85,3.49,8.73,8.73,0,0,1-3.09,2.3,10.42,10.42,0,0,1-4.35.84h-9.41V176.05Zm-.33,17.78a6,6,0,0,0,2-.34,4.39,4.39,0,0,0,1.74-1.11,5.55,5.55,0,0,0,1.22-2,8.88,8.88,0,0,0,.46-3.06,12.43,12.43,0,0,0-.32-3,5.87,5.87,0,0,0-1.05-2.27,4.67,4.67,0,0,0-1.94-1.45,7.7,7.7,0,0,0-3-.51h-3.42v13.75Z" class="cls-1"/><path d="M315.36,176.05v4H303.84v4.68h10.57v3.72H303.84v5.35H315.6v4H299.05V176.05Z" class="cls-1"/><path d="M322.51,192.49a3.4,3.4,0,0,0,1.05,1.23,4.44,4.44,0,0,0,1.54.7,7.08,7.08,0,0,0,1.84.23,9.61,9.61,0,0,0,1.37-.1,4.61,4.61,0,0,0,1.38-.42,3,3,0,0,0,1.07-.84,2.09,2.09,0,0,0,.42-1.35,1.94,1.94,0,0,0-.56-1.44,4.56,4.56,0,0,0-1.48-.92,16.63,16.63,0,0,0-2.08-.64c-.77-.18-1.56-.38-2.35-.61a19.5,19.5,0,0,1-2.39-.75,8,8,0,0,1-2.07-1.14,5.38,5.38,0,0,1-1.48-1.76,5.28,5.28,0,0,1-.57-2.55,5.72,5.72,0,0,1,.72-2.92,6.5,6.5,0,0,1,1.88-2.06,8.08,8.08,0,0,1,2.62-1.22,11,11,0,0,1,2.94-.4,14.09,14.09,0,0,1,3.28.38,8.37,8.37,0,0,1,2.8,1.24,6.36,6.36,0,0,1,1.94,2.18,6.85,6.85,0,0,1,.71,3.23h-4.64a3.93,3.93,0,0,0-.41-1.62,2.75,2.75,0,0,0-.93-1,4,4,0,0,0-1.33-.52,8.4,8.4,0,0,0-1.64-.15,5.79,5.79,0,0,0-1.16.12,3,3,0,0,0-1.05.43,2.57,2.57,0,0,0-.78.76,2.08,2.08,0,0,0-.31,1.16,2,2,0,0,0,.25,1,2.08,2.08,0,0,0,1,.73,12.15,12.15,0,0,0,2,.68l3.31.85c.41.08,1,.23,1.7.44a8.28,8.28,0,0,1,2.15,1,6.51,6.51,0,0,1,1.85,1.88,5.32,5.32,0,0,1,.78,3,6.82,6.82,0,0,1-.58,2.78,6.14,6.14,0,0,1-1.73,2.21,8.35,8.35,0,0,1-2.84,1.45,13.32,13.32,0,0,1-3.93.52,14,14,0,0,1-3.49-.44,9,9,0,0,1-3-1.39,6.92,6.92,0,0,1-2.06-2.42,7.15,7.15,0,0,1-.73-3.48h4.64A4,4,0,0,0,322.51,192.49Z" class="cls-1"/><path d="M343.46,176.05v21.81h-4.79V176.05Z" class="cls-1"/><path d="M360.6,197.69a8,8,0,0,1-3.15.66,11.15,11.15,0,0,1-4.5-.87,9.63,9.63,0,0,1-3.38-2.4,10.71,10.71,0,0,1-2.11-3.59,13.34,13.34,0,0,1-.73-4.44,13.9,13.9,0,0,1,.73-4.54,11.09,11.09,0,0,1,2.11-3.65,9.6,9.6,0,0,1,3.38-2.44,11,11,0,0,1,4.5-.89,10.53,10.53,0,0,1,3.26.51,9.16,9.16,0,0,1,2.84,1.48,8,8,0,0,1,3.1,5.71h-4.58a4.64,4.64,0,0,0-1.65-2.75,4.84,4.84,0,0,0-3-.92,5.59,5.59,0,0,0-2.75.63,5.27,5.27,0,0,0-1.83,1.68,7.19,7.19,0,0,0-1,2.4,11.56,11.56,0,0,0-.32,2.78,10.78,10.78,0,0,0,.32,2.67,7.06,7.06,0,0,0,1,2.34,5.22,5.22,0,0,0,1.83,1.66,5.59,5.59,0,0,0,2.75.63,5.17,5.17,0,0,0,3.68-1.21,5.25,5.25,0,0,0,1.52-3.5h-4.83v-3.57H367v11.79h-3.05l-.49-2.47A7.05,7.05,0,0,1,360.6,197.69Z" class="cls-1"/><path d="M375.63,176.05l9.1,14.63h.06V176.05h4.49v21.81h-4.79l-9.08-14.6h-.06v14.6h-4.49V176.05Z" class="cls-1"/><path d="M141.46,229.14a3.43,3.43,0,0,0,1,1.24,4.59,4.59,0,0,0,1.55.7,7.4,7.4,0,0,0,1.83.23,9.69,9.69,0,0,0,1.37-.11,4.9,4.9,0,0,0,1.38-.41,3,3,0,0,0,1.07-.84,2.14,2.14,0,0,0,.42-1.36,1.88,1.88,0,0,0-.56-1.43,4.4,4.4,0,0,0-1.48-.92,13.85,13.85,0,0,0-2.08-.64c-.77-.19-1.56-.39-2.35-.61a22.74,22.74,0,0,1-2.38-.75,8.19,8.19,0,0,1-2.08-1.15,5.14,5.14,0,0,1-2-4.3,5.7,5.7,0,0,1,.72-2.92,6.4,6.4,0,0,1,1.88-2.06,8.26,8.26,0,0,1,2.63-1.23,11.29,11.29,0,0,1,2.93-.39,13.58,13.58,0,0,1,3.28.38,8.17,8.17,0,0,1,2.8,1.24,6.27,6.27,0,0,1,1.94,2.18,6.81,6.81,0,0,1,.71,3.22H149.4a3.93,3.93,0,0,0-.41-1.62,2.8,2.8,0,0,0-.93-1,3.81,3.81,0,0,0-1.33-.52,8.37,8.37,0,0,0-1.64-.16,5.81,5.81,0,0,0-1.16.13,3.21,3.21,0,0,0-1.05.42,2.6,2.6,0,0,0-.78.77,2.06,2.06,0,0,0-.3,1.16,2,2,0,0,0,.24,1,2.15,2.15,0,0,0,1,.73,12.28,12.28,0,0,0,2,.67c.84.23,1.95.51,3.31.86.41.08,1,.23,1.7.44a8.24,8.24,0,0,1,2.15,1A6.63,6.63,0,0,1,154,225a5.36,5.36,0,0,1,.78,3,6.75,6.75,0,0,1-.58,2.78,6.18,6.18,0,0,1-1.73,2.22,8.35,8.35,0,0,1-2.84,1.45,14.45,14.45,0,0,1-7.42.07,8.8,8.8,0,0,1-3-1.39,6.88,6.88,0,0,1-2.06-2.41,7.2,7.2,0,0,1-.73-3.48h4.64A3.93,3.93,0,0,0,141.46,229.14Z" class="cls-1"/><path d="M173.66,232.85a12,12,0,0,1-13.7,0q-2.43-2.15-2.43-6.6V212.71h4.79v13.56a9.16,9.16,0,0,0,.16,1.74,3.38,3.38,0,0,0,2,2.58,5.44,5.44,0,0,0,2.33.41c1.71,0,2.89-.38,3.55-1.14a5.48,5.48,0,0,0,1-3.59V212.71h4.8v13.56C176.13,229.22,175.3,231.42,173.66,232.85Z" class="cls-1"/><path d="M187,212.71l5.11,15h.06l4.82-15h6.75v21.81h-4.49V219.06h-.06l-5.34,15.46h-3.7l-5.35-15.31h-.06v15.31h-4.49V212.71Z" class="cls-1"/><path d="M214.71,212.71l5.1,15h.06l4.83-15h6.75v21.81H227V219.06h-.06l-5.35,15.46h-3.69l-5.35-15.31h-.06v15.31H208V212.71Z" class="cls-1"/><path d="M240.46,212.71v21.81h-4.79V212.71Z" class="cls-1"/><path d="M242.94,216.74v-4h17.87v4h-6.54v17.78h-4.8V216.74Z" class="cls-1"/><path d="M245.86,111.91l5.35-28.44c2.62-3.32,7-7.61,12-7.61,8.25,0,6.47,6.59,5.79,11.79l-4.24,23.5,30.53.06s3.57-18.73,4-20.79c4.28-20.51-.68-29.8-18.72-29.8-12.09,0-21.87,6.22-27,10.32l1.48-7.9h-30l-10.55,48.87Z" class="cls-1"/><path d="M212.51,97.35H181.2s-2.38,6.59-8.85,6.59-10.55-2.43-8.85-12.48h50.37s11.92-31-32-31-47.31,31-47.31,31S129.12,114,171.67,114,212.51,97.35,212.51,97.35Zm-34-25.64c10.88,0,7.48,10.05,7.48,10.05H167.24S167.58,71.71,178.48,71.71Z" class="cls-1"/><path d="M241.54,129a12.19,12.19,0,0,0,0-5.32,8.37,8.37,0,0,0-2.22-4,10.52,10.52,0,0,0-4.22-2.44,19.35,19.35,0,0,0-6-.85H213.81l-6.95,35.75h9.91l2-10.22h4.9a24,24,0,0,0,6.31-.81,17.51,17.51,0,0,0,5.36-2.45,15.26,15.26,0,0,0,4-4,14.88,14.88,0,0,0,2.23-5.56Zm-10,.43,0,.1a5.25,5.25,0,0,1-2.17,3.41,7.34,7.34,0,0,1-4.4,1.27h-4.7l1.84-9.5h4.65a5.64,5.64,0,0,1,4,1.2A3.6,3.6,0,0,1,231.55,129.39Z" class="cls-1"/><path d="M258.79,125.58a15.24,15.24,0,0,0-4.09,4.5l1.08-5.57H246l-5.37,27.63h9.75l1.67-8.58q.93-4.8,3.41-7.05a9,9,0,0,1,6.31-2.24h.82l2-10.21A9,9,0,0,0,258.79,125.58Z" class="cls-1"/><path d="M294.61,138.35l0-.1a13,13,0,0,0-.05-5.57,10.55,10.55,0,0,0-2.28-4.54,11.89,11.89,0,0,0-4.22-3.09,14.18,14.18,0,0,0-5.88-1.15,17.65,17.65,0,0,0-6.35,1.15,19.46,19.46,0,0,0-5.46,3.11,19,19,0,0,0-4.08,4.6,16.25,16.25,0,0,0-2.24,5.59l0,.1a13.2,13.2,0,0,0,0,5.57,10.83,10.83,0,0,0,2.28,4.57,11.41,11.41,0,0,0,4.23,3.09,14.68,14.68,0,0,0,5.88,1.12,17.69,17.69,0,0,0,6.35-1.15,19.6,19.6,0,0,0,5.46-3.11,18.86,18.86,0,0,0,4.08-4.6A16.18,16.18,0,0,0,294.61,138.35Zm-9.45,0,0,.1a8,8,0,0,1-2.39,4.28,6.77,6.77,0,0,1-2.07,1.32,6.46,6.46,0,0,1-2.49.48,4.78,4.78,0,0,1-2.25-.51,4.68,4.68,0,0,1-1.61-1.34,4.64,4.64,0,0,1-.84-2,6.17,6.17,0,0,1,0-2.38l0-.1a7.46,7.46,0,0,1,.86-2.33,7.91,7.91,0,0,1,1.53-1.95,6.85,6.85,0,0,1,2.06-1.32,6.51,6.51,0,0,1,2.5-.48,4.78,4.78,0,0,1,2.25.51,4.65,4.65,0,0,1,1.6,1.34,4.78,4.78,0,0,1,.85,1.95A6.17,6.17,0,0,1,285.16,138.35Z" class="cls-1"/><path d="M296.53,150.51a4.19,4.19,0,0,1-1.2,2.49,3.42,3.42,0,0,1-2.28.72h-.64a4.23,4.23,0,0,1-.63-.05l-1.25,6.43,1.79.23a18.09,18.09,0,0,0,6.43-.38,9.68,9.68,0,0,0,3.42-1.63,9.56,9.56,0,0,0,2.51-3,15.3,15.3,0,0,0,1.53-4.44l5.13-26.4h-9.76Z" class="cls-1"/><polygon points="303.26 114.86 301.87 122.01 312.03 122.01 313.42 114.86 303.26 114.86" class="cls-1"/><path d="M339.4,128.42a9.3,9.3,0,0,0-3.7-3.3,13.07,13.07,0,0,0-6-1.22A15.56,15.56,0,0,0,323.9,125a17.48,17.48,0,0,0-5,3.09,18.26,18.26,0,0,0-3.78,4.6,17.65,17.65,0,0,0-2.12,5.64l0,.1a14.53,14.53,0,0,0-.05,5.87,10.07,10.07,0,0,0,2.19,4.52,10.7,10.7,0,0,0,4.1,2.91A14.85,14.85,0,0,0,325,152.8a17,17,0,0,0,7.37-1.53,19.73,19.73,0,0,0,5.73-4.09l-4.5-4.44a13.74,13.74,0,0,1-3.35,2.15,8.59,8.59,0,0,1-3.32.66,5.52,5.52,0,0,1-3.64-1.12,4.51,4.51,0,0,1-1.45-3.42H340.3c.1-.34.18-.69.25-1s.13-.67.19-1a19.12,19.12,0,0,0,.28-5.79A11.3,11.3,0,0,0,339.4,128.42Zm-7.17,7.63h-9.6A9,9,0,0,1,325,132.4,5,5,0,0,1,328.4,131a3.54,3.54,0,0,1,3,1.36A5.27,5.27,0,0,1,332.23,136.05Z" class="cls-1"/><path d="M353.35,138.25a7.73,7.73,0,0,1,.86-2.37,8.33,8.33,0,0,1,1.51-1.95,6.76,6.76,0,0,1,2-1.32,5.46,5.46,0,0,1,2.27-.49,4.6,4.6,0,0,1,2.81.77,6.5,6.5,0,0,1,1.78,2.14l7.54-4.9a10.26,10.26,0,0,0-3.77-4.49,12.12,12.12,0,0,0-6.82-1.69,16.88,16.88,0,0,0-6.22,1.15,18.57,18.57,0,0,0-5.28,3.11,19.32,19.32,0,0,0-3.94,4.6,16.71,16.71,0,0,0-2.17,5.54l0,.1a13.41,13.41,0,0,0,0,5.54,11,11,0,0,0,2.13,4.57,10.78,10.78,0,0,0,4,3.09,12.76,12.76,0,0,0,5.54,1.15,16.38,16.38,0,0,0,7.79-1.73,20.29,20.29,0,0,0,5.75-4.6l-5.57-4.7a14.67,14.67,0,0,1-2.79,2.09,6,6,0,0,1-3.08.77,4.49,4.49,0,0,1-2.15-.49,3.86,3.86,0,0,1-1.48-1.32,4.93,4.93,0,0,1-.73-2,6.74,6.74,0,0,1,.07-2.48Z" class="cls-1"/><path d="M386.67,132.32h6.43l1.52-7.81h-6.44l1.36-7h-9.75l-1.36,7h-3.27l-1.52,7.81h3.27l-2.18,11.24q-1,5,1.09,7.05t6.47,2.09a16,16,0,0,0,3.82-.44,16.35,16.35,0,0,0,3.23-1.14l1.48-7.61a13.94,13.94,0,0,1-1.91.66,7.61,7.61,0,0,1-1.94.26,2.36,2.36,0,0,1-1.87-.64,2.53,2.53,0,0,1-.25-2.12Z" class="cls-1"/><path d="M86.41,139a54.91,54.91,0,0,1-28.34-7.84l-1.8,1.37-.53.41H31.25a73.81,73.81,0,0,0,110.33,0H111.53A55,55,0,0,1,86.41,139Z" class="cls-1"/><polygon points="110.94 88.18 143.11 63.54 154.38 54.91 154.38 54.91 170.45 42.59 120.76 42.59 92.61 64.15 76.17 42.59 49.84 42.59 36.36 42.59 36.36 42.59 67.48 83.41 36.44 107.18 36.44 107.18 21.32 118.76 21.32 118.76 5.38 130.97 29.54 130.97 29.54 130.97 55.07 130.97 56.3 130.03 56.3 130.03 85.8 107.44 103.74 130.97 115.08 130.97 115.08 130.97 143.28 130.97 143.28 130.97 143.56 130.97 110.94 88.18" class="cls-1"/><path d="M35.61,105.34a55.2,55.2,0,0,1,5.63-53.1l-6.45-8.45-2.41-3.16H52.19a55.08,55.08,0,0,1,68.44,0h25.65A73.84,73.84,0,0,0,20.41,117Z" class="cls-1"/><path d="M140.64,73.85a41.17,41.17,0,0,1,11.12-8.75,44.67,44.67,0,0,1,5.38-2.49c-.59-2-1.25-3.91-2-5.8l-15.68,12Q140.17,71.29,140.64,73.85Z" class="cls-1"/><path d="M137.11,105.52a55.06,55.06,0,0,1-4.29,8.11l11.87,15.57a74.07,74.07,0,0,0,9-14.94C146.69,112.67,140.83,109.49,137.11,105.52Z" class="cls-1"/></g></svg>