<svg xmlns="http://www.w3.org/2000/svg" xmlns:svg="http://www.w3.org/2000/svg" id="svg2" width="302.691" height="732.125" version="1.1" viewBox="0 0 283.773 686.367"><metadata id="metadata7"/><g id="layer1" transform="translate(-283.46954,-145.45101)"><path id="path4290" d="m 323.75389,539.70979 5.55584,-18.18275 10.6066,12.12183 m 43.43656,-32.82996 13.38452,9.34392 m -91.16626,-12.87945 23.73858,24.24366 34.09265,-0.75761 33.33503,-10.6066 -3.28299,17.9302 m 116.67262,143.94674 34.34518,-72.22591 m -112.63201,150.51273 30.80966,-15.65736 -36.3655,-43.94164 59.09393,-19.69797 -62.12438,-49.49749 m 32.10322,-60.95564 -32.10322,60.95564 50.50762,-1.51521 11.61676,51.0127 m -33.94973,-396.70313 23.30357,43.125 -12.94642,38.48214 49.85654,32.25328 -10.57083,98.10387 43.40079,113.52308 -50.1865,-67.8088 -20.52418,88.01186 70.71068,-20.20306 m -69.74008,-282.36237 48.52688,45.4816 -11.61676,25.25382 26.26397,23.2335 -10.10152,55.55839 17.67766,10.10153 m -44.41094,9.21045 -58.92857,15 52.14286,30.71428 m -75.07241,-237.76234 35.07241,24.54805 -66.38714,51.71847 91.74428,25.78154 -101.84581,53.51543 64.34581,51.48457 -48.68844,26.80225 41.90272,4.26917 -22.70983,28.05571 m -24.24366,-327.28942 27.90547,1.38896 m 22.61945,24.27332 -13.52808,-15.68702 -11.23795,4.04061 m 56.55175,3.43213 -36.98004,-16.56412 m -32.19861,-23.61231 23.35978,15.02602 26.13769,-39.26968 16.16244,4.41941 3.51874,60.00068 31.33153,-45.73227 m -46.68868,355.73227 18.4044,59.44043 36.3655,52.02285 19.69797,63.13454 m -117.1777,-174.7564 42.70983,0.15858 m 26.9907,-263.30331 -7.6157,20.17831 36.91012,70.73542 16.16245,78.79189 16.66751,132.83506 m -64.82936,-203.52308 -17.85714,-40.35715 -7.5,-37.14286 -2.85715,-44.46428 -12.5,-15.53572 31.78572,-8.21428 11.63355,13.86673 m -2.70498,131.84756 -21.78572,59.64285 -15.71428,45.35715 -6.78572,31.07142 20,28.21429 38.92858,-28.57143 6.78571,-45.71428 z m -6.38639,-220.23591 12.50064,2.77792 11.23794,-0.75761 m -11.23794,0.75761 -2.65165,20.07678 m 36.11295,-52.14912 -33.4613,32.07234 -18.56156,11.74302 m 28.78935,-0.88388 -12.87944,9.21764 m -21.97082,-20.83439 6.06091,12.50063 15.90991,8.33376 18.94036,5.93465 m -70.58441,23.86485 -15.15229,5.80838 15.27856,6.18718 m -6.69226,-15.27855 6.56599,3.28299 2.27284,5.3033 -2.14657,6.69226 -6.18719,2.39912 -6.9448,-3.15673 -2.14657,-5.42957 3.03046,-5.93465 z m -39.64849,29.16815 3.15672,-21.46574 25.75889,14.01587 -2.0203,26.89531 m -18.18275,-9.59645 -8.71256,-9.84899 -11.49049,-7.82868 m 40.4061,0.37881 -28.91561,7.44987 -78.16056,25.50635 m 0,0 66.67007,-33.33503 14.64721,-13.63706 13.13199,-22.72843 23.23351,-14.64721 26.26396,-9.59645 10.10153,-8.08122 12.12183,-2.02031 45.96194,-29.29442 -7.57615,17.17259 -14.64721,14.14214 -1.01015,11.61675 6.06092,15.15229 -10.10153,32.32488 -9.59645,27.27412 0,32.82996 22.22336,32.32488 18.68782,33.33503 14.64721,48.48732 7.57614,65.65992 -1.01015,52.02286 0,70.71067 -5.55584,51.01271 -9.09137,84.34774 -44.44671,-64.14469 -22.72843,63.63961 -0.50508,96.97464 -30.30458,-81.31728 -5.55584,-59.599 -3.03045,-69.19546 -10.60661,-61.11422 -19.19289,-32.32488 -53.53809,5.55584 -11.61675,41.92133 -14.14214,0.25255 4.04061,-18.94037 5.55584,-17.17259 -10.6066,-21.21321 -28.28427,-18.18274 20.70813,-3.03046 -14.14214,-13.63706 11.61675,-1.01015 31.81981,27.27412 22.72843,-0.50508 25.75889,-8.5863 -5.55584,-51.0127 10.10153,-79.29697 21.2132,-46.46702 10.10153,-29.7995 -7.07107,-20.20305 -18.18275,-9.59645 z" style="fill:none;fill-rule:evenodd;stroke:#ff921f;stroke-width:3.00000027;stroke-linecap:butt;stroke-linejoin:miter;stroke-opacity:1;stroke-miterlimit:16.4;stroke-dasharray:none"/></g></svg>