<svg xmlns="http://www.w3.org/2000/svg" role="img" viewBox="-5.36 36.39 408.72 172.97"><path fill="#fff" d="M113.77162 44.28127c-25.31 11.8493-41.49455 38.98644-45.6757 63.0622 14.99286-16.95947 39.51036-23.95688 54.47681-26.43271 1.33844-6.29447-.61492-26.261-8.80111-36.62949m46.1898 45.96423c-1.541 13.11876-14.27375 28.61354-19.67741 32.1196-12.32185-8.8378-34.61156-21.22276-57.205-19.82708 19.98119-14.0683 50.60826-21.81715 76.88246-12.29252m.1718 65.16202c-10.37144 8.18033-30.335 10.13662-36.631 8.79671-2.47289-14.965-9.47181-39.48248-26.43124-54.47681 24.07429 4.18262 51.21 20.3657 63.0622 45.6801M114.169 201.59893c-13.12023-1.54537-28.61941-14.27962-32.12254-19.67887 8.83781-12.32333 21.22277-34.613 19.8315-57.21387 14.06975 19.99294 21.81567 50.6112 12.291 76.89274m-65.15896.16172c-8.1862-10.367-10.13956-30.33354-8.80112-36.628 14.96645-2.467 39.484-9.46594 54.47388-26.43271-4.18119 24.08161-20.3672 51.21876-45.67276 63.06071M2.81708 155.80362c1.541-13.11875 14.27815-28.62088 19.67887-32.124 12.32479 8.8378 34.613 21.21983 57.20652 19.83443-19.98119 14.05948-50.60825 21.81274-76.88539 12.28957m-.16877-65.1607c10.37143-8.18619 30.338-10.14542 36.62949-8.807 2.47142 14.97086 9.47034 39.48983 26.43271 54.47976-24.07723-4.1841-51.21437-20.3613-63.0622-45.67277M48.61239 44.45c13.11435 1.541 28.61353 14.27962 32.12254 19.68181-8.84075 12.32479-21.22571 34.613-19.83444 57.20359C46.841 101.35278 39.08775 70.72571 48.61239 44.45M180.363 61.162h14.092v25.252l19.884-25.252h16.743l-25.579 32.69 28.066 40.558h-16.532l-22.582-32.545v32.545h-14.092V61.162zm57.588 0h14.334l18.43 52.036 18.699-52.036h14.316l-26.391 73.248h-13.445l-25.943-73.248zm131.762-.001l-17.134 51.09-16.98-51.09h-13.585l-12.682 73.249h13.594l8.041-46.258 15.425 46.258h12.286l15.561-46.258 7.856 46.258h13.483l-12.29-73.249h-13.575zm-189.414 88.552h17.187v3.358h-13.759v10.75h13.759v3.359h-13.759v16.837h-3.428v-34.304zm52.8671 2.47155a14.647 14.647 0 00-12.54346 7.32913 14.8622 14.8622 0 00-1.91522 7.492 14.42894 14.42894 0 0014.45868 14.53938 14.67468 14.67468 0 007.39223-1.93722 13.858 13.858 0 005.30238-5.298 14.88056 14.88056 0 001.90346-7.46855 14.51753 14.51753 0 00-1.90346-7.38637 14.20881 14.20881 0 00-5.35961-5.28624 14.51308 14.51308 0 00-7.335-1.98418m-.15116-3.33436a17.79516 17.79516 0 0113.04389 5.20113 18.03163 18.03163 0 01-12.76359 30.82812 17.55676 17.55676 0 01-12.881-5.22314 17.16873 17.16873 0 01-5.251-12.63885 18.26884 18.26884 0 012.39215-9.16508 17.66829 17.66829 0 0115.45958-9.00218m42.01141 4.22086v11.66l5.91.047a14.676 14.676 0 005.07931-.65308 5.27138 5.27138 0 002.56976-2.08691 5.7987 5.7987 0 00.92311-3.20668 5.55123 5.55123 0 00-.93487-3.13623 5.20455 5.20455 0 00-2.45232-2.01793 14.92684 14.92684 0 00-5.04557-.60611zm-3.42828-3.35784h6.83307a41.44171 41.44171 0 017.743.46669 8.83545 8.83545 0 014.96632 3.00122 8.55327 8.55327 0 011.91226 5.66194 9.15968 9.15968 0 01-1.31641 4.92669 8.22323 8.22323 0 01-3.7673 3.21108 17.29456 17.29456 0 01-6.76264 1.108l12.33652 15.92772h-4.24132l-12.338-15.92772h-1.9372v15.92772h-3.4283zm42.14029-.00002h3.42828v20.70764a43.1491 43.1491 0 00.13942 4.595 7.62044 7.62044 0 001.1902 3.39306 6.99621 6.99621 0 002.86767 2.285 8.98177 8.98177 0 003.895.92165 7.6802 7.6802 0 003.26539-.72352 7.261 7.261 0 002.61082-2.0062 8.154 8.154 0 001.53952-3.101 25.669 25.669 0 00.34927-5.364v-20.70763h3.42828v20.70764a25.225 25.225 0 01-.89816 7.42893 10.09979 10.09979 0 01-3.59117 4.93109 10.27657 10.27657 0 01-6.51757 2.09865 12.4972 12.4972 0 01-7.11339-1.98125 9.54567 9.54567 0 01-3.964-5.24809 27.79486 27.79486 0 01-.62957-7.22933zM389.78 149.713l-13.811 28.147-13.945-28.147h-.558l-4.91 34.304h3.311l3.369-24.72 12.274 24.72h.876l12.129-24.532 3.389 24.532h3.362l-4.937-34.304h-.549z"/></svg>