<svg xmlns="http://www.w3.org/2000/svg" id="Layer_1" data-name="Layer 1" viewBox="0 0 393.72 126.35"><defs><style>.cls-1{fill:#fff}</style></defs><title>LSS_Logo_Europe_White</title><path d="M89.2,95.1C77.6,103.92,61,112.42,56,112.42s-21.65-8.5-33.24-17.32C13.54,88.12,4.62,79.55,0,71.36v6.87c0,10,12,22.55,24.54,31.94,11,8.24,26.69,16.18,31.42,16.18s20.46-7.94,31.42-16.18c12.5-9.39,24.53-21.89,24.53-31.94V71.36C107.3,79.55,98.37,88.12,89.2,95.1Z" class="cls-1"/><path d="M24.54,85.23c11,8.23,26.69,16.18,31.42,16.18s20.46-7.94,31.42-16.18c12.5-9.4,24.53-21.89,24.53-31.94V14S94.5,15.3,82.31,10C72.08,5.57,60.41,2.91,56,2.91S39.84,5.57,29.6,10h0C17.41,15.3,0,14,0,14V53.29C0,63.34,12,75.83,24.54,85.23ZM36.1,60.65c.83-3.6,2.8-7.18,7.13-12.95,6.17-8.21,6.32-8.61,6.18-16.43-.12-7,.35-8.86,2.93-11.25,1.8-1.67,3.18-2,9.34-2,6.71-.05,7.77.45,5.32,2.51a9.78,9.78,0,0,1-2.46,1.56c-2.17.69-4.55,7.35-3,8.32a34.08,34.08,0,0,1,2.33,6c1.65,5,2.19,6.06,4.57,8.77,5,5.63,7.85,11.69,7.85,16.39,0,2.38-.77,4.95-1.49,4.95-.2,0-1-1.72-1.69-3.83-1.29-3.68-4.37-8.95-5.44-9.28-.35-.11-.51,2.41-.49,7.82,0,4.39-.15,9.59-.37,11.54-.33,3-.28,3.56.34,3.56a7.85,7.85,0,0,1,2,.5l1.32.5-1.26,1.18a2.6,2.6,0,0,1-2.27.91c-.57-.14-1,0-1,.29s-.65.55-1.44.55c-2.3,0-2.86-.4-2.59-1.84l.25-1.29-1.67,1c-.92.54-2.17,1.3-2.79,1.68a5,5,0,0,0-1.62,2.57c-.41,1.53-.67,1.81-1.46,1.56-.56-.18-.95-.07-.95.25s-.39.44-.94.26-1.09-.07-1.26.21c-.46.74-1.23.63-1.55-.22h0a7.39,7.39,0,0,1-.06-2.58,9.11,9.11,0,0,0-.39-3.56,20.84,20.84,0,0,1-.88-4.17,18.75,18.75,0,0,0-1.26-4.71c-1.12-2.51-2.11-8.45-1.78-10.59.12-.76.33-2.44.48-3.73.24-2.13.18-2.3-.61-1.88-1,.56-5.82,7.15-7.77,10.72A8.78,8.78,0,0,1,36,66.48C35.42,66.49,35.51,63.2,36.1,60.65Z" class="cls-1"/><polygon points="156.05 14.24 148.47 14.24 148.47 0 144.5 0 144.5 17.78 156.05 17.78 156.05 14.24" class="cls-1"/><rect width="3.97" height="17.78" x="159.83" class="cls-1"/><polygon points="173.03 6.64 181.5 17.78 185.46 17.78 185.46 0 181.5 0 181.5 11.45 172.77 0 169.06 0 169.06 17.78 173.03 17.78 173.03 6.64" class="cls-1"/><path d="M198.08,18a7.58,7.58,0,0,0,5.47-2.06,8,8,0,0,0,2.13-6V0h-4V9.82a5.29,5.29,0,0,1-1,3.38,3.16,3.16,0,0,1-2.64,1.22,3.24,3.24,0,0,1-2.67-1.22,5.23,5.23,0,0,1-1-3.38V0h-4V10a7.9,7.9,0,0,0,2.13,5.92A7.61,7.61,0,0,0,198.08,18Z" class="cls-1"/><polygon points="213.55 17.78 217.32 11.93 221.11 17.78 225.94 17.78 219.94 8.57 225.48 0 220.7 0 217.32 5.26 213.93 0 209.18 0 214.75 8.67 208.77 17.78 213.55 17.78" class="cls-1"/><path d="M166.32,43.15a17.7,17.7,0,0,0-7.78-3.66,26,26,0,0,1-6.37-2.16,2.77,2.77,0,0,1-1.36-2.41,3,3,0,0,1,1.11-2.45,4.7,4.7,0,0,1,3.11-1A15.48,15.48,0,0,1,164.46,35l4-5.71a18.77,18.77,0,0,0-6.13-3.42,21.58,21.58,0,0,0-7-1.2,14.52,14.52,0,0,0-9,2.71,9.11,9.11,0,0,0-3.56,7.73c0,3.31.93,5.75,2.81,7.32s4.9,2.79,9,3.76a16.5,16.5,0,0,1,5.17,1.91,2.88,2.88,0,0,1,1.3,2.51,3,3,0,0,1-1.25,2.51,5.55,5.55,0,0,1-3.37.9q-4.81,0-10.48-5l-4.67,5.72a21.52,21.52,0,0,0,15,6.17A14.11,14.11,0,0,0,165.52,58a9.52,9.52,0,0,0,3.56-7.67Q169.08,45.61,166.32,43.15Z" class="cls-1"/><polygon points="201.07 32.42 201.07 25.44 175.78 25.44 175.78 60.51 201.62 60.51 201.62 53.59 183.61 53.59 183.61 46.31 199.32 46.31 199.32 39.64 183.61 39.64 183.61 32.42 201.07 32.42" class="cls-1"/><path d="M239.17,54.19l-5-5.17a11.54,11.54,0,0,1-9.43,4.57h0a9.81,9.81,0,0,1-7.18-3,10.59,10.59,0,0,1-3-7.83A10,10,0,0,1,217.69,35a10.82,10.82,0,0,1,7.58-2.91,11.38,11.38,0,0,1,9.23,4.61l4.87-5.52a18.53,18.53,0,0,0-14.45-6.57,18.09,18.09,0,0,0-13.1,5.22,17.53,17.53,0,0,0-5.31,13,17.31,17.31,0,0,0,5.21,12.9,18.39,18.39,0,0,0,13.35,5.11Q233.2,60.91,239.17,54.19Z" class="cls-1"/><path d="M259.91,60.86A14.91,14.91,0,0,0,270.7,56.8q4.21-4.11,4.21-11.74V25.44h-7.83V44.81a10.44,10.44,0,0,1-1.95,6.67,6.28,6.28,0,0,1-5.22,2.41,6.43,6.43,0,0,1-5.27-2.41h0a10.44,10.44,0,0,1-1.95-6.67V25.44h-7.83V45.06q0,7.57,4.21,11.69A15,15,0,0,0,259.91,60.86Z" class="cls-1"/><path d="M311.54,37.08q0-6.12-3.52-8.88t-11.64-2.76H283.09V60.51h7.82V49.32h5.42l7.78,11.19h9.63L304.86,48Q311.53,45.51,311.54,37.08Zm-9.44,4.17q-1.46,1.3-5.47,1.3h-5.72V32.17h5.87q3.77,0,5.27,1c1,.7,1.51,2,1.51,3.91A5.27,5.27,0,0,1,302.1,41.25Z" class="cls-1"/><rect width="7.83" height="35.07" x="319.54" y="25.44" class="cls-1"/><polygon points="333.09 32.22 343.03 32.22 343.03 60.51 350.86 60.51 350.86 32.22 350.86 32.22 350.86 32.22 360.79 32.22 360.79 25.44 333.09 25.44 333.09 32.22" class="cls-1"/><polygon points="385.24 25.44 377.67 38.49 370.09 25.44 361.61 25.44 373.75 46.66 373.75 60.51 381.58 60.51 381.58 60.51 381.58 46.66 393.72 25.44 385.24 25.44" class="cls-1"/><path d="M154.34,78.32a17,17,0,0,1-4.68-1.6,2.49,2.49,0,0,1-1.1-2.17,2.37,2.37,0,0,1,1.1-2.14,5.22,5.22,0,0,1,2.81-.7,10.82,10.82,0,0,1,3.5.6,8.19,8.19,0,0,1,2.81,1.54l2.1-3a11.7,11.7,0,0,0-3.8-2.07,14,14,0,0,0-4.44-.74,9.5,9.5,0,0,0-5.85,1.77,5.83,5.83,0,0,0-2.34,5,5.66,5.66,0,0,0,2.08,4.81A9.31,9.31,0,0,0,148.9,81a37.92,37.92,0,0,0,3.9,1.13,10.36,10.36,0,0,1,3.61,1.37,2.4,2.4,0,0,1,1.07,2.1,2.57,2.57,0,0,1-1.14,2.17,5,5,0,0,1-3,.8A11.12,11.12,0,0,1,146,85.5l-2.47,3a14.2,14.2,0,0,0,9.72,3.78,9.18,9.18,0,0,0,6-1.91,6.07,6.07,0,0,0,2.3-4.94,5.79,5.79,0,0,0-1.83-4.64A12.93,12.93,0,0,0,154.34,78.32Z" class="cls-1"/><path d="M182,81.56a7.55,7.55,0,0,1-1.6,5.08,6,6,0,0,1-8.68,0,7.55,7.55,0,0,1-1.6-5.08V68.64h-3.94V81.73q0,5,2.77,7.78a10.71,10.71,0,0,0,14.22,0Q186,86.77,186,81.73V68.64H182Z" class="cls-1"/><polygon points="205.3 83.3 198.26 68.64 192.11 68.64 192.11 91.98 196.05 91.98 196.05 73.75 204.17 89.94 206.37 89.94 214.52 73.75 214.52 91.98 218.46 91.98 218.46 68.64 212.35 68.64 205.3 83.3" class="cls-1"/><polygon points="238.1 83.3 231.06 68.64 224.91 68.64 224.91 91.98 228.85 91.98 228.85 73.75 236.97 89.94 239.17 89.94 247.32 73.75 247.32 91.98 251.26 91.98 251.26 68.64 245.15 68.64 238.1 83.3" class="cls-1"/><rect width="3.94" height="23.34" x="257.72" y="68.64" class="cls-1"/><polygon points="265.95 72.25 273.02 72.25 273.02 91.98 276.96 91.98 276.96 72.25 276.96 72.25 284.04 72.25 284.04 68.64 265.95 68.64 265.95 72.25" class="cls-1"/><path d="M144.66,124.73V110.32h9.87v2.23h-7.34v3.71h7.19v2.23h-7.19v4h7.34v2.23Z" class="cls-1"/><path d="M157.12,119v-8.71h2.57V119c0,2.29,1.28,3.78,3.67,3.78S167,121.25,167,119v-8.64h2.57V119c0,3.56-2,6-6.24,6S157.12,122.59,157.12,119Z" class="cls-1"/><path d="M180.9,124.73l-3.18-5.38H175.2v5.38h-2.53V110.32H179a4.38,4.38,0,0,1,4.72,4.52,4,4,0,0,1-3.43,4.23l3.54,5.66Zm.23-9.91a2.25,2.25,0,0,0-2.46-2.27H175.2v4.58h3.47A2.27,2.27,0,0,0,181.13,114.82Z" class="cls-1"/><path d="M185.63,117.54A7.36,7.36,0,1,1,193,125,7.14,7.14,0,0,1,185.63,117.54Zm12.13,0c0-3-1.88-5.21-4.77-5.21s-4.77,2.23-4.77,5.21,1.85,5.2,4.77,5.2S197.76,120.49,197.76,117.54Z" class="cls-1"/><path d="M202.77,124.73V110.32h6.35a4.51,4.51,0,1,1,0,9H205.3v5.4Zm8.44-9.89a2.25,2.25,0,0,0-2.44-2.29H205.3v4.55h3.47A2.24,2.24,0,0,0,211.21,114.84Z" class="cls-1"/><path d="M215.92,124.73V110.32h9.87v2.23h-7.34v3.71h7.19v2.23h-7.19v4h7.34v2.23Z" class="cls-1"/></svg>