<svg xmlns="http://www.w3.org/2000/svg" xmlns:xlink="http://www.w3.org/1999/xlink" width="136" height="51" version="1.1" viewBox="0 0 136 51"><title>elife-logo-xs</title><desc>Created with Sketch.</desc><g id="elife-logo-xs" fill="none" fill-rule="evenodd" stroke="none" stroke-width="1"><rect id="Rectangle" width="136" height="51" x="0" y="0" fill="#FFF"/><g id="logo" transform="translate(4.000000, 4.000000)"><g id="symbol"><circle id="Oval" cx="21.5" cy="21.5" r="20.5" fill="#FFF" stroke="#BEC3C5" stroke-width="2"/><path id="Fill-2" fill="#7CB13F" d="M18.4541,18.45435 C19.5481,19.54835 21.3381,19.54835 22.4316,18.45435 L32.7246,8.16185 C31.2541,6.90935 29.5746,5.89835 27.7456,5.18585 L18.4541,14.47685 C17.3601,15.57085 17.3601,17.36035 18.4541,18.45435"/><path id="Fill-4" fill="#D71D62" d="M24.4204,24.42065 C25.5144,25.51465 25.5144,27.30415 24.4204,28.39815 L16.4654,36.35315 C15.3714,37.44665 13.5819,37.44665 12.4879,36.35315 C11.3939,35.25915 11.3939,33.46965 12.4879,32.37565 L20.4429,24.42065 C21.5364,23.32665 23.3264,23.32665 24.4204,24.42065"/><path id="Fill-6" fill="#336A2D" d="M16.46535,20.4431 C17.55935,21.5371 17.55935,23.3271 16.46535,24.4206 C15.37135,25.5146 13.58185,25.5146 12.48785,24.4206 C11.39385,23.3271 11.39385,21.5371 12.48785,20.4431 C13.58185,19.3491 15.37135,19.3491 16.46535,20.4431"/><path id="Fill-8" fill="#336A2D" d="M26.4092,10.4995 C27.5032,11.5935 27.5032,13.383 26.4092,14.477 C25.3152,15.571 23.5252,15.571 22.4317,14.477 C21.3377,13.383 21.3377,11.5935 22.4317,10.4995 C23.5252,9.4055 25.3152,9.4055 26.4092,10.4995"/><path id="Fill-10" fill="#861450" d="M18.4541,30.3867 C19.5481,31.4807 19.5481,33.2707 18.4541,34.3642 C17.3601,35.4582 15.5701,35.4582 14.4766,34.3642 C13.3826,33.2707 13.3826,31.4807 14.4766,30.3867 C15.5701,29.2927 17.3601,29.2927 18.4541,30.3867"/><path id="Fill-12" fill="#861450" d="M36.35305,12.4883 C37.44705,13.5823 37.44705,15.3718 36.35305,16.4658 C35.25905,17.5598 33.46905,17.5598 32.37555,16.4658 C31.28155,15.3718 31.28155,13.5823 32.37555,12.4883 C33.46905,11.3943 35.25905,11.3943 36.35305,12.4883"/><path id="Fill-14" fill="#D71D62" d="M30.38675,18.45435 C31.48075,19.54835 31.48075,21.33835 30.38675,22.43185 C29.29275,23.52585 27.50275,23.52585 26.40925,22.43185 C25.31525,21.33835 25.31525,19.54835 26.40925,18.45435 C27.50275,17.36035 29.29275,17.36035 30.38675,18.45435"/><path id="Fill-16" fill="#2994D2" d="M32.3755,28.3982 C33.4695,29.4922 33.4695,31.2817 32.3755,32.3757 C31.2815,33.4697 29.4915,33.4697 28.398,32.3757 C27.304,31.2817 27.304,29.4922 28.398,28.3982 C29.4915,27.3042 31.2815,27.3042 32.3755,28.3982"/><path id="Fill-18" fill="#08589B" d="M16.46535,8.51075 C17.55935,9.60475 17.55935,11.39425 16.46535,12.48825 C15.37135,13.58225 13.58185,13.58225 12.48785,12.48825 C11.39385,11.39425 11.39385,9.60475 12.48785,8.51075 C13.58185,7.41675 15.37135,7.41675 16.46535,8.51075"/><path id="Fill-20" fill="#861450" d="M10.4995,26.4094 C9.4055,25.3154 7.6155,25.3154 6.522,26.4094 L5.1855,27.7454 C5.898,29.5749 6.909,31.2539 8.1615,32.7244 L10.4995,30.3869 C11.5935,29.2929 11.5935,27.5034 10.4995,26.4094"/><path id="Fill-22" fill="#D71D62" d="M18.4541,6.52195 C19.5481,7.61595 21.3381,7.61595 22.4316,6.52195 L24.4206,4.53295 C24.4941,4.45945 24.5506,4.37545 24.6141,4.29545 C23.5836,4.10495 22.5226,3.99995 21.4376,3.99995 C20.1346,3.99995 18.8666,4.14795 17.6446,4.42045 C17.6141,5.17845 17.8786,5.94645 18.4541,6.52195"/><path id="Fill-24" fill="#2994D2" d="M10.4995,18.45435 C11.5935,17.36035 11.5935,15.57085 10.4995,14.47685 C9.4055,13.38285 7.6155,13.38285 6.522,14.47685 L4.8075,16.19085 C4.284,17.84785 4,19.60985 4,21.43735 C4,22.36185 4.0735,23.26935 4.213,24.15535 C4.695,24.03735 5.153,23.80085 5.5275,23.42635 L10.4995,18.45435 Z"/><path id="Fill-26" fill="#08589B" d="M34.36425,22.4319 C33.27025,23.5259 33.27025,25.3154 34.36425,26.4094 C35.37975,27.4249 36.98875,27.4849 38.09025,26.6144 C38.60025,24.9779 38.87475,23.2394 38.87475,21.4374 C38.87475,20.3519 38.77025,19.2914 38.57975,18.2604 C38.49975,18.3244 38.41575,18.3804 38.34175,18.4544 L34.36425,22.4319 Z"/><path id="Fill-28" fill="#7CB13F" d="M26.4092,34.36425 C25.3152,33.27025 23.5252,33.27025 22.4317,34.36425 L18.4542,38.34175 C18.3802,38.41575 18.3242,38.49975 18.2602,38.57975 C19.2912,38.77025 20.3522,38.87475 21.4377,38.87475 C23.2392,38.87475 24.9782,38.60025 26.6142,38.09075 C27.4847,36.98925 27.4247,35.38025 26.4092,34.36425"/></g><g id="letters" fill="#666B6E" transform="translate(47.500000, 6.371800)"><path id="Fill-32" d="M9.834,11.4427 C8.6975,11.4427 7.8065,11.8032 7.162,12.5237 C6.5175,13.2447 6.1485,14.2667 6.0545,15.5912 L13.578,15.5912 C13.5545,14.2667 13.209,13.2447 12.541,12.5237 C11.873,11.8032 10.9705,11.4427 9.834,11.4427 M10.59,28.0012 C7.426,28.0012 4.953,27.1282 3.172,25.3822 C1.3905,23.6362 0.5,21.1632 0.5,17.9642 C0.5,14.6712 1.3235,12.1252 2.9695,10.3267 C4.616,8.5277 6.8925,7.6282 9.799,7.6282 C12.576,7.6282 14.7385,8.4192 16.285,10.0012 C17.832,11.5832 18.6055,13.7687 18.6055,16.5577 L18.6055,19.1597 L5.9315,19.1597 C5.9905,20.6827 6.4415,21.8722 7.285,22.7277 C8.129,23.5832 9.3125,24.0112 10.836,24.0112 C12.0195,24.0112 13.1385,23.8882 14.1935,23.6417 C15.248,23.3957 16.3495,23.0032 17.498,22.4642 L17.498,26.6127 C16.5605,27.0812 15.5585,27.4302 14.492,27.6587 C13.426,27.8872 12.125,28.0012 10.59,28.0012"/><polygon id="Fill-34" points="21.5 27.628 21.5 2.628 26.5 2.628 26.5 23.628 36.5 23.628 36.5 27.628"/><path id="Fill-36" d="M39.5,27.6282 L44.5,27.6282 L44.5,8.6282 L39.5,8.6282 L39.5,27.6282 Z M39.5,4.120114 C39.5,2.45867945 40.3336189,1.6282 42,1.6282 C43.6668095,1.6282 44.5,2.45867945 44.5,4.120114 C44.5,4.91159041 44.2918095,5.52755312 43.875,5.96752648 C43.4586189,6.40797549 42.8336189,6.6282 42,6.6282 C40.3336189,6.6282 39.5,5.79201279 39.5,4.120114 L39.5,4.120114 Z"/><path id="Fill-38" d="M60.5,12.6282 L55.5,12.6282 L55.5,27.6282 L50.5,27.6282 L50.5,12.6282 L47.5,12.6282 L47.5,9.6282 L50.5,8.6282 L50.5,7.6282 C50.5,5.3902 51.1075,3.2062 52.209,2.1752 C53.3105,1.1437 55.074,0.6282 57.5,0.6282 C59.3515,0.6282 60.998,0.9037 62.4395,1.4542 L60.9885,5.1377 C59.91,4.7982 58.414,4.6282 57.5,4.6282 C56.7385,4.6282 56.1875,4.8537 55.8475,5.3047 C55.508,5.7562 55.5,6.9252 55.5,7.6282 L55.5,8.6282 L60.5,8.6282 L60.5,12.6282 Z"/><path id="Fill-39" d="M71.834,11.4427 C70.6975,11.4427 69.8065,11.8032 69.162,12.5237 C68.5175,13.2447 68.1485,14.2667 68.0545,15.5912 L75.578,15.5912 C75.5545,14.2667 75.209,13.2447 74.541,12.5237 C73.873,11.8032 72.9705,11.4427 71.834,11.4427 M72.59,28.0012 C69.426,28.0012 66.953,27.1282 65.172,25.3822 C63.3905,23.6362 62.5,21.1632 62.5,17.9642 C62.5,14.6712 63.3235,12.1252 64.9695,10.3267 C66.616,8.5277 68.8925,7.6282 71.799,7.6282 C74.576,7.6282 76.7385,8.4192 78.285,10.0012 C79.832,11.5832 80.6055,13.7687 80.6055,16.5577 L80.6055,19.1597 L67.9315,19.1597 C67.9905,20.6827 68.4415,21.8722 69.285,22.7277 C70.129,23.5832 71.3125,24.0112 72.836,24.0112 C74.0195,24.0112 75.1385,23.8882 76.1935,23.6417 C77.248,23.3957 78.3495,23.0032 79.498,22.4642 L79.498,26.6127 C78.5605,27.0812 77.5585,27.4302 76.492,27.6587 C75.426,27.8872 74.125,28.0012 72.59,28.0012"/></g></g></g></svg>