<?xml version="1.0" encoding="UTF-8" standalone="no"?>
<svg
   xmlns:dc="http://purl.org/dc/elements/1.1/"
   xmlns:cc="http://creativecommons.org/ns#"
   xmlns:rdf="http://www.w3.org/1999/02/22-rdf-syntax-ns#"
   xmlns:svg="http://www.w3.org/2000/svg"
   xmlns="http://www.w3.org/2000/svg"
   xmlns:sodipodi="http://sodipodi.sourceforge.net/DTD/sodipodi-0.dtd"
   xmlns:inkscape="http://www.inkscape.org/namespaces/inkscape"
   width="114.4"
   height="124.95482"
   version="1.1"
   id="svg4"
   sodipodi:docname="fossevents_headerlogo-dark.svg"
   inkscape:version="1.0.2 (1.0.2+r75+1)"
   inkscape:export-filename="/home/mweimann/git/flossevents/src/img/logo.png"
   inkscape:export-xdpi="51.200001"
   inkscape:export-ydpi="51.200001">
  <metadata
     id="metadata10">
    <rdf:RDF>
      <cc:Work
         rdf:about="">
        <dc:format>image/svg+xml</dc:format>
        <dc:type
           rdf:resource="http://purl.org/dc/dcmitype/StillImage" />
        <dc:title />
      </cc:Work>
    </rdf:RDF>
  </metadata>
  <defs
     id="defs8" />
  <sodipodi:namedview
     pagecolor="#ffffff"
     bordercolor="#666666"
     borderopacity="1"
     objecttolerance="10"
     gridtolerance="10"
     guidetolerance="10"
     inkscape:pageopacity="1"
     inkscape:pageshadow="2"
     inkscape:window-width="1920"
     inkscape:window-height="1016"
     id="namedview6"
     showgrid="false"
     inkscape:zoom="3.1082105"
     inkscape:cx="-9.0625121"
     inkscape:cy="76.451711"
     inkscape:window-x="0"
     inkscape:window-y="27"
     inkscape:window-maximized="1"
     inkscape:current-layer="svg4"
     fit-margin-top="0"
     fit-margin-left="0"
     fit-margin-right="0"
     fit-margin-bottom="0"
     inkscape:document-rotation="0" />
  <path
     id="path2"
     style="fill:#dbdbdb;fill-opacity:1"
     d="M 8.8007812 18.253906 C 6.4007813 18.253906 4.2996094 19.055469 2.5996094 20.855469 C 0.89960935 22.655469 -2.9605947e-16 24.754297 0 27.154297 L 0 116.1543 C 5.9211895e-16 118.5543 0.89960936 120.55547 2.5996094 122.35547 C 4.3996094 124.05547 6.4007812 124.95508 8.8007812 124.95508 L 105.59961 124.95508 C 107.99961 124.95508 110.10078 124.15547 111.80078 122.35547 C 113.50078 120.55547 114.40039 118.45469 114.40039 116.05469 L 114.40039 27.154297 C 114.40039 24.654297 113.50078 22.655469 111.80078 20.855469 C 110.00078 19.155469 107.99961 18.253906 105.59961 18.253906 L 94.046875 18.253906 C 94.035163 19.303397 94.017448 20.345504 93.978516 21.361328 C 93.978852 21.368952 93.978193 21.377098 93.978516 21.384766 C 93.981286 21.450671 93.984861 21.516791 93.986328 21.585938 L 93.986328 21.605469 L 93.986328 21.625 C 93.986328 27.459796 89.217607 32.228516 83.382812 32.228516 C 77.548016 32.22852 72.826172 27.447937 72.826172 21.625 L 72.826172 21.621094 L 72.826172 21.615234 C 72.827102 21.425194 72.807653 21.081065 72.839844 20.640625 L 72.839844 18.253906 L 41.425781 18.253906 C 41.414274 19.303334 41.396319 20.345696 41.357422 21.361328 C 41.357763 21.369123 41.357096 21.376943 41.357422 21.384766 C 41.360164 21.450553 41.361799 21.516214 41.363281 21.583984 L 41.363281 21.605469 L 41.363281 21.625 C 41.363281 27.459794 36.594559 32.230469 30.759766 32.230469 C 24.924968 32.230472 20.203125 27.447936 20.203125 21.625 L 20.203125 21.621094 L 20.203125 21.615234 C 20.204054 21.425283 20.184504 21.082458 20.216797 20.642578 L 20.216797 18.253906 L 8.8007812 18.253906 z M 23.875 18.253906 L 23.875 20.748047 L 23.863281 20.855469 C 23.853204 20.940873 23.8631 21.199678 23.861328 21.625 C 23.861328 25.494816 26.90181 28.572268 30.759766 28.572266 C 34.617719 28.572266 37.707031 25.482953 37.707031 21.625 C 37.706062 21.590842 37.704676 21.556884 37.703125 21.521484 L 37.699219 21.445312 L 37.701172 21.369141 C 37.741449 20.364918 37.762412 19.316514 37.773438 18.253906 L 23.875 18.253906 z M 76.498047 18.253906 L 76.498047 20.748047 L 76.484375 20.855469 C 76.474301 20.940861 76.486139 21.19991 76.484375 21.625 C 76.484375 25.494815 79.524861 28.570316 83.382812 28.570312 C 87.238629 28.570312 90.324707 25.485822 90.328125 21.630859 C 90.327162 21.595378 90.325886 21.559286 90.324219 21.521484 L 90.322266 21.445312 L 90.324219 21.367188 C 90.364476 20.36346 90.383481 19.315937 90.394531 18.253906 L 76.498047 18.253906 z M 12.800781 38.955078 L 101.59961 38.955078 L 101.59961 113.1543 L 12.800781 113.1543 L 12.800781 38.955078 z " />
  <g
     id="g870"
     transform="matrix(1.2192785,0,0,1.2192785,-30.584569,3.4805498)"
     style="fill:#dbdbdb;fill-opacity:1;stroke:#ffffff;stroke-width:3;stroke-miterlimit:4;stroke-dasharray:none;stroke-opacity:1">
    <g
       id="path864"
       style="opacity:1;fill:#dbdbdb;fill-opacity:1"
       transform="matrix(0.78935836,0,0,0.78935836,10.607458,3.0947119)">
      <path
         style="color:#000000;font-style:normal;font-variant:normal;font-weight:normal;font-stretch:normal;font-size:medium;line-height:normal;font-family:sans-serif;font-variant-ligatures:normal;font-variant-position:normal;font-variant-caps:normal;font-variant-numeric:normal;font-variant-alternates:normal;font-variant-east-asian:normal;font-feature-settings:normal;font-variation-settings:normal;text-indent:0;text-align:start;text-decoration:none;text-decoration-line:none;text-decoration-style:solid;text-decoration-color:#000000;letter-spacing:normal;word-spacing:normal;text-transform:none;writing-mode:lr-tb;direction:ltr;text-orientation:mixed;dominant-baseline:auto;baseline-shift:baseline;text-anchor:start;white-space:normal;shape-padding:0;shape-margin:0;inline-size:0;clip-rule:nonzero;display:inline;overflow:visible;visibility:visible;isolation:auto;mix-blend-mode:normal;color-interpolation:sRGB;color-interpolation-filters:linearRGB;solid-color:#000000;solid-opacity:1;vector-effect:none;fill:#dbdbdb;fill-opacity:1;fill-rule:nonzero;stroke:none;stroke-width:3;stroke-linecap:butt;stroke-linejoin:miter;stroke-miterlimit:4;stroke-dasharray:none;stroke-dashoffset:0;stroke-opacity:1;color-rendering:auto;image-rendering:auto;shape-rendering:auto;text-rendering:auto;enable-background:accumulate;stop-color:#000000;stop-opacity:1"
         d="m 50.343365,-1.4078558 c -3.82731,0.00448 -6.981652,3.0036739 -7.178995,6.825895 h -0.018 v 0.371095 8.2315568 c -0.03162,0.267997 -0.0095,0.53756 -0.01082,0.807412 0,3.97479 3.18354,7.196993 7.15833,7.19699 3.974788,0 7.19699,-3.222202 7.19699,-7.19699 -0.0011,-0.05025 -0.0028,-0.100478 -0.005,-0.150688 0.113554,-2.831249 0.054,-5.9580904 0.054,-8.8882808 v -0.371095 h -0.0135 c -0.197435,-3.8239579 -3.354449,-6.8238114 -7.1835,-6.825895 z"
         id="path885" />
    </g>
  </g>
  <g
     id="g875"
     transform="matrix(0.92640439,0,0,0.92640439,32.070136,50.559564)"
     style="fill:#34920a;fill-opacity:1">
    <g
       id="g819"
       style="fill:#34920a;fill-opacity:1">
      <g
         style="fill:#34920a;fill-opacity:1;stroke:#000000;stroke-width:2;stroke-linecap:round;stroke-linejoin:round"
         id="g925"
         transform="translate(-5.2902892,16.900777)">
        <g
           style="fill:#34920a;fill-opacity:1;stroke:none"
           transform="matrix(6.3675315,0,0,6.3675315,-128.0171,-82.119523)"
           id="g882">
          <g
             transform="matrix(0.28987433,0,0,0.28987433,20.557596,10.003857)"
             style="fill:#34920a;fill-opacity:1;stroke:none"
             id="g826">
            <path
               sodipodi:nodetypes="ccccsccccccccscccsccccccc"
               inkscape:connector-curvature="0"
               id="star"
               style="fill:#34920a;fill-opacity:1;stroke:none;stroke-width:1.81146312"
               d="M 30.383919,12.217672 C 30.133031,11.493993 29.489056,10.96414 28.71375,10.849113 L 21.172629,9.7278166 17.894786,2.92215 c -0.345083,-0.7146221 -1.083255,-1.1720166 -1.89479,-1.1720166 -0.811535,0 -1.549707,0.4573945 -1.89479,1.1720166 L 10.827363,9.7278166 3.2853363,10.849113 c -0.7744005,0.115027 -1.4183756,0.64488 -1.6683575,1.368559 -0.2490762,0.725491 -0.060684,1.524347 0.4863778,2.069597 l 5.5267739,5.517717 -1.2816102,7.654337 c -0.1304253,0.770777 0.2037896,1.544272 0.8586335,1.995326 0.3595754,0.247265 0.7825521,0.373162 1.2055287,0.373162 0.3478009,0 0.6965076,-0.08514 1.0126079,-0.254511 l 6.5747056,-3.539599 6.575611,3.539599 c 0.3161,0.169372 0.664807,0.254511 1.011702,0.254511 0.422977,0 0.845953,-0.125897 1.206435,-0.373162 0.654843,-0.451054 0.987247,-1.224549 0.857727,-1.995326 l -1.282516,-7.654337 5.528586,-5.517717 c 0.546156,-0.546156 0.733642,-1.345011 0.486378,-2.069597 z M 15.999996,3.7889351 c -1.693369,14.4262239 -0.846685,7.2131119 0,0 z" />
          </g>
          <g
             style="fill:#34920a;fill-opacity:1;stroke:none"
             id="g828" />
          <g
             style="fill:#34920a;fill-opacity:1;stroke:none"
             id="g830" />
          <g
             style="fill:#34920a;fill-opacity:1;stroke:none"
             id="g832" />
          <g
             style="fill:#34920a;fill-opacity:1;stroke:none"
             id="g834" />
          <g
             style="fill:#34920a;fill-opacity:1;stroke:none"
             id="g836" />
          <g
             style="fill:#34920a;fill-opacity:1;stroke:none"
             id="g838" />
          <g
             style="fill:#34920a;fill-opacity:1;stroke:none"
             id="g840" />
          <g
             style="fill:#34920a;fill-opacity:1;stroke:none"
             id="g842" />
          <g
             style="fill:#34920a;fill-opacity:1;stroke:none"
             id="g844" />
          <g
             style="fill:#34920a;fill-opacity:1;stroke:none"
             id="g846" />
          <g
             style="fill:#34920a;fill-opacity:1;stroke:none"
             id="g848" />
          <g
             style="fill:#34920a;fill-opacity:1;stroke:none"
             id="g850" />
          <g
             style="fill:#34920a;fill-opacity:1;stroke:none"
             id="g852" />
          <g
             style="fill:#34920a;fill-opacity:1;stroke:none"
             id="g854" />
          <g
             style="fill:#34920a;fill-opacity:1;stroke:none"
             id="g856" />
        </g>
      </g>
    </g>
    <g
       id="g821"
       style="fill:#34920a;fill-opacity:1" />
    <g
       id="g823"
       style="fill:#34920a;fill-opacity:1" />
    <g
       id="g825"
       style="fill:#34920a;fill-opacity:1" />
    <g
       id="g827"
       style="fill:#34920a;fill-opacity:1" />
    <g
       id="g829"
       style="fill:#34920a;fill-opacity:1" />
    <g
       id="g831"
       style="fill:#34920a;fill-opacity:1" />
    <g
       id="g833"
       style="fill:#34920a;fill-opacity:1" />
    <g
       id="g835"
       style="fill:#34920a;fill-opacity:1" />
    <g
       id="g837"
       style="fill:#34920a;fill-opacity:1" />
    <g
       id="g839"
       style="fill:#34920a;fill-opacity:1" />
    <g
       id="g841"
       style="fill:#34920a;fill-opacity:1" />
    <g
       id="g843"
       style="fill:#34920a;fill-opacity:1" />
    <g
       id="g845"
       style="fill:#34920a;fill-opacity:1" />
    <g
       id="g847"
       style="fill:#34920a;fill-opacity:1" />
    <g
       id="g849"
       style="fill:#34920a;fill-opacity:1" />
  </g>
  <path
     style="color:#b7b6b6;font-style:normal;font-variant:normal;font-weight:normal;font-stretch:normal;font-size:medium;line-height:normal;font-family:sans-serif;font-variant-ligatures:normal;font-variant-position:normal;font-variant-caps:normal;font-variant-numeric:normal;font-variant-alternates:normal;font-variant-east-asian:normal;font-feature-settings:normal;font-variation-settings:normal;text-indent:0;text-align:start;text-decoration:none;text-decoration-line:none;text-decoration-style:solid;text-decoration-color:#b7b6b6;letter-spacing:normal;word-spacing:normal;text-transform:none;writing-mode:lr-tb;direction:ltr;text-orientation:mixed;dominant-baseline:auto;baseline-shift:baseline;text-anchor:start;white-space:normal;shape-padding:0;shape-margin:0;inline-size:0;clip-rule:nonzero;display:inline;overflow:visible;visibility:visible;isolation:auto;mix-blend-mode:normal;color-interpolation:sRGB;color-interpolation-filters:linearRGB;solid-color:#b7b6b6;solid-opacity:1;vector-effect:none;fill:#dbdbdb;fill-opacity:1;fill-rule:nonzero;stroke:none;stroke-width:2.88734;stroke-linecap:butt;stroke-linejoin:miter;stroke-miterlimit:4;stroke-dasharray:none;stroke-dashoffset:0;stroke-opacity:1;color-rendering:auto;image-rendering:auto;shape-rendering:auto;text-rendering:auto;enable-background:accumulate;stop-color:#000000"
     d="m 83.424774,5.8988775 c -3.683586,0.00431 -6.719475,2.8908785 -6.909407,6.5695665 h -0.01732 v 0.35716 7.922443 c -0.03043,0.257933 -0.0091,0.517373 -0.01041,0.777091 0,3.825528 3.063991,6.92673 6.889518,6.926727 3.825526,0 6.926726,-3.101201 6.926726,-6.926727 -0.0011,-0.04836 -0.0027,-0.0967 -0.0048,-0.145029 0.10929,-2.724929 0.05197,-5.73435 0.05197,-8.554505 v -0.35716 H 90.33804 C 90.148019,8.788085 87.109559,5.9008828 83.424297,5.8988775 Z"
     id="path885-3" />
  <g
     inkscape:groupmode="layer"
     id="layer1"
     inkscape:label="fg" />
  <g
     inkscape:groupmode="layer"
     id="layer2"
     inkscape:label="bg" />
</svg>
