<svg xmlns="http://www.w3.org/2000/svg" xmlns:svg="http://www.w3.org/2000/svg" id="svg6" width="364.331" height="364.331" version="1.1" viewBox="0 0 341.56 341.56"><metadata id="metadata12"/><circle style="fill:#34920a;fill-opacity:1;stroke:none;stroke-width:3.21097493;stroke-opacity:1" id="path841" cx="170.78" cy="170.78" r="170.78"/><g id="layer1" transform="matrix(0.78574758,0,0,0.78574758,-566.84332,-447.93735)"><path style="fill:#fff;fill-opacity:1;fill-rule:nonzero;stroke:none" id="path3611" d="m 883.47257,908.5189 c 112.46038,0 173.95623,-93.16765 173.95623,-173.95625 0,-2.64628 -0.054,-5.28062 -0.1726,-7.90305 11.938,-8.63016 22.3145,-19.39999 30.4977,-31.65984 -10.9546,4.86937 -22.7436,8.14741 -35.1108,9.62551 12.6235,-7.56929 22.3145,-19.54304 26.8859,-33.81739 -11.8129,7.00307 -24.8952,12.09297 -38.8239,14.84055 -11.1572,-11.88436 -27.0407,-19.31655 -44.62887,-19.31655 -33.76374,0 -61.14426,27.38052 -61.14426,61.13233 0,4.79784 0.5364,9.46458 1.58538,13.94057 -50.81546,-2.55686 -95.87353,-26.88582 -126.02546,-63.87991 -5.25082,9.03545 -8.27852,19.53111 -8.27852,30.73006 0,21.21186 10.79366,39.93837 27.20766,50.89296 -10.03077,-0.30992 -19.45363,-3.06348 -27.69044,-7.64676 -0.009,0.25652 -0.009,0.50661 -0.009,0.78077 0,29.60957 21.07478,54.3319 49.0513,59.93435 -5.13757,1.40062 -10.54335,2.15158 -16.12196,2.15158 -3.93364,0 -7.76596,-0.38716 -11.49099,-1.1026 7.78383,24.2932 30.35457,41.97073 57.11525,42.46543 -20.92578,16.40207 -47.28712,26.17062 -75.93712,26.17062 -4.92898,0 -9.79834,-0.28036 -14.58427,-0.84634 27.05868,17.34379 59.18936,27.46396 93.72193,27.46396"/></g></svg>