<?xml version="1.0" encoding="UTF-8" standalone="no"?>
<svg
   xmlns:dc="http://purl.org/dc/elements/1.1/"
   xmlns:cc="http://creativecommons.org/ns#"
   xmlns:rdf="http://www.w3.org/1999/02/22-rdf-syntax-ns#"
   xmlns:svg="http://www.w3.org/2000/svg"
   xmlns="http://www.w3.org/2000/svg"
   xmlns:sodipodi="http://sodipodi.sourceforge.net/DTD/sodipodi-0.dtd"
   xmlns:inkscape="http://www.inkscape.org/namespaces/inkscape"
   width="96.395958mm"
   height="96.395958mm"
   viewBox="0 0 341.56048 341.56049"
   version="1.1"
   id="svg6"
   sodipodi:docname="menu_envelope.svg"
   inkscape:version="0.92.4 (5da689c313, 2019-01-14)">
  <metadata
     id="metadata12">
    <rdf:RDF>
      <cc:Work
         rdf:about="">
        <dc:format>image/svg+xml</dc:format>
        <dc:type
           rdf:resource="http://purl.org/dc/dcmitype/StillImage" />
        <dc:title />
      </cc:Work>
    </rdf:RDF>
  </metadata>
  <defs
     id="defs10" />
  <sodipodi:namedview
     pagecolor="#ffffff"
     bordercolor="#666666"
     borderopacity="1"
     objecttolerance="10"
     gridtolerance="10"
     guidetolerance="10"
     inkscape:pageopacity="0"
     inkscape:pageshadow="2"
     inkscape:window-width="1920"
     inkscape:window-height="1053"
     id="namedview8"
     showgrid="false"
     inkscape:zoom="0.95362368"
     inkscape:cx="-39.160596"
     inkscape:cy="-10.168828"
     inkscape:window-x="0"
     inkscape:window-y="27"
     inkscape:window-maximized="1"
     inkscape:current-layer="svg6"
     fit-margin-top="0"
     fit-margin-left="0"
     fit-margin-right="0"
     fit-margin-bottom="0" />
  <circle
     style="fill:#34920a;fill-opacity:1;stroke:none;stroke-width:3.21097493;stroke-opacity:1"
     id="path841"
     cx="170.78024"
     cy="170.78024"
     r="170.78024" />
  <g
     id="g2991"
     transform="matrix(0.12286974,0,0,-0.12286974,60.688957,241.55321)"
     style="fill:#ffffff;fill-opacity:1;stroke:none;stroke-opacity:1">
    <path
       style="fill:#ffffff;fill-opacity:1;stroke:none;stroke-opacity:1"
       inkscape:connector-curvature="0"
       id="path2993"
       d="M 1633.4799,62.520127 V 769.47987 c -21.3333,-24 -44.3333,-46 -69,-66 C 1385.8132,566.14654 1274.3333,484 1169,396 c -34,-28.66667 -61.6667,-51 -83,-67 -21.3333,-16 -50.1667,-32.16667 -86.5,-48.5 C 963.16667,264.16667 929,256 897,256 h -1 -1 c -32,0 -66.16667,8.16667 -102.5,24.5 -36.33333,16.33333 -65.16667,32.5 -86.5,48.5 -21.33333,16 -49,38.33333 -83,67 -105.33333,88 -216.8132,170.14654 -395.47987,307.47987 -24.66667,20 -47.66667,42 -69,66 V 62.520127 c 0,-8.666667 3.16667,-16.166667 9.5,-22.5 6.33333,-6.333333 13.83333,-9.5 22.5,-9.5 H 1601.4799 c 8.6667,0 16.1667,3.166667 22.5,9.5 6.3333,6.333333 9.5,13.833333 9.5,22.5 z m 0,989.959773 v 11 13.5 l -0.5,13 c -0.3334,8.6666 -1.3334,12.8333 -3,12.5 -1.6667,-0.3334 -3.5,2.6666 -5.5,9 -2,6.3333 -5,8.8333 -9,7.5 -4,-1.3334 -8.6667,-0.5 -14,2.5 H 190.52013 c -8.66667,0 -16.16667,-3.1667 -22.5,-9.5 -6.33334,-6.3334 -9.5,-13.8334 -9.5,-22.5 0,-112.00003 49,-176.14657 147,-253.4799 C 434.1868,734.66667 537.33333,659.52013 676,549.52013 c 4,-3.33333 15.66667,-13.16667 35,-29.5 19.33333,-16.33333 34.66667,-28.83333 46,-37.5 11.33333,-8.66667 26.16667,-19.16667 44.5,-31.5 18.33333,-12.33333 35.16667,-21.5 50.5,-27.5 15.33333,-6 29.66667,-9 43,-9 h 1 1 c 13.33333,0 27.66667,3 43,9 15.33333,6 32.16667,15.16667 50.5,27.5 18.3333,12.33333 33.1667,22.83333 44.5,31.5 11.3333,8.66667 26.6667,21.16667 46,37.5 19.3333,16.33333 31,26.16667 35,29.5 138.6667,110 241.8132,185.14654 370.4799,286.47987 36,28.66667 69.5,67.16667 100.5,115.5 31,48.33333 46.5,61.6465 46.5,100.9799 z M 1792,1120 V 32 c 0,-44 -15.6667,-81.666667 -47,-113 -31.3333,-31.33333 -69,-47 -113,-47 H 160 c -44,0 -81.666667,15.66667 -113,47 C 15.666667,-49.666667 0,-12 0,32 v 1088 c 0,44 15.666667,81.6667 47,113 31.333333,31.3333 69,47 113,47 h 1472 c 44,0 81.6667,-15.6667 113,-47 31.3333,-31.3333 47,-69 47,-113 z"
       sodipodi:nodetypes="scccssscssscccsssssssccsssscsssccssssscsssssccsssssssssssssss" />
  </g>
</svg>
