<?xml version="1.0" encoding="UTF-8" standalone="no"?>
<svg
   xmlns:dc="http://purl.org/dc/elements/1.1/"
   xmlns:cc="http://creativecommons.org/ns#"
   xmlns:rdf="http://www.w3.org/1999/02/22-rdf-syntax-ns#"
   xmlns:svg="http://www.w3.org/2000/svg"
   xmlns="http://www.w3.org/2000/svg"
   xmlns:sodipodi="http://sodipodi.sourceforge.net/DTD/sodipodi-0.dtd"
   xmlns:inkscape="http://www.inkscape.org/namespaces/inkscape"
   width="96.395958mm"
   height="96.395958mm"
   viewBox="0 0 341.56048 341.56049"
   version="1.1"
   id="svg6"
   sodipodi:docname="menu_Twitter.svg"
   inkscape:version="0.92.4 (5da689c313, 2019-01-14)">
  <metadata
     id="metadata12">
    <rdf:RDF>
      <cc:Work
         rdf:about="">
        <dc:format>image/svg+xml</dc:format>
        <dc:type
           rdf:resource="http://purl.org/dc/dcmitype/StillImage" />
        <dc:title />
      </cc:Work>
    </rdf:RDF>
  </metadata>
  <defs
     id="defs10" />
  <sodipodi:namedview
     pagecolor="#ffffff"
     bordercolor="#666666"
     borderopacity="1"
     objecttolerance="10"
     gridtolerance="10"
     guidetolerance="10"
     inkscape:pageopacity="0"
     inkscape:pageshadow="2"
     inkscape:window-width="1491"
     inkscape:window-height="947"
     id="namedview8"
     showgrid="false"
     inkscape:zoom="0.95362368"
     inkscape:cx="155.26896"
     inkscape:cy="196.68675"
     inkscape:window-x="272"
     inkscape:window-y="71"
     inkscape:window-maximized="0"
     inkscape:current-layer="svg6"
     fit-margin-top="0"
     fit-margin-left="0"
     fit-margin-right="0"
     fit-margin-bottom="0" />
  <circle
     style="fill:#34920a;fill-opacity:1;stroke:none;stroke-width:3.21097493;stroke-opacity:1"
     id="path841"
     cx="170.78024"
     cy="170.78024"
     r="170.78024" />
  <g
     id="layer1"
     transform="matrix(0.78574758,0,0,0.78574758,-566.84332,-447.93735)">
    <path
       d="m 883.47257,908.5189 c 112.46038,0 173.95623,-93.16765 173.95623,-173.95625 0,-2.64628 -0.054,-5.28062 -0.1726,-7.90305 11.938,-8.63016 22.3145,-19.39999 30.4977,-31.65984 -10.9546,4.86937 -22.7436,8.14741 -35.1108,9.62551 12.6235,-7.56929 22.3145,-19.54304 26.8859,-33.81739 -11.8129,7.00307 -24.8952,12.09297 -38.8239,14.84055 -11.1572,-11.88436 -27.0407,-19.31655 -44.62887,-19.31655 -33.76374,0 -61.14426,27.38052 -61.14426,61.13233 0,4.79784 0.5364,9.46458 1.58538,13.94057 -50.81546,-2.55686 -95.87353,-26.88582 -126.02546,-63.87991 -5.25082,9.03545 -8.27852,19.53111 -8.27852,30.73006 0,21.21186 10.79366,39.93837 27.20766,50.89296 -10.03077,-0.30992 -19.45363,-3.06348 -27.69044,-7.64676 -0.009,0.25652 -0.009,0.50661 -0.009,0.78077 0,29.60957 21.07478,54.3319 49.0513,59.93435 -5.13757,1.40062 -10.54335,2.15158 -16.12196,2.15158 -3.93364,0 -7.76596,-0.38716 -11.49099,-1.1026 7.78383,24.2932 30.35457,41.97073 57.11525,42.46543 -20.92578,16.40207 -47.28712,26.17062 -75.93712,26.17062 -4.92898,0 -9.79834,-0.28036 -14.58427,-0.84634 27.05868,17.34379 59.18936,27.46396 93.72193,27.46396"
       style="fill:#ffffff;fill-opacity:1;fill-rule:nonzero;stroke:none"
       id="path3611"
       inkscape:connector-curvature="0" />
  </g>
</svg>
