<svg xmlns="http://www.w3.org/2000/svg" xmlns:svg="http://www.w3.org/2000/svg" id="svg6" width="364.331" height="364.331" version="1.1" viewBox="0 0 341.56 341.56"><metadata id="metadata12"/><circle style="fill:#34920a;fill-opacity:1;stroke:none;stroke-width:3.21097493;stroke-opacity:1" id="path841" cx="170.78" cy="170.78" r="170.78"/><g id="g845" transform="matrix(0.94548835,0,0,0.94548835,60.225114,60.225113)"><path style="fill:#fff;fill-opacity:1" id="path2" d="m 220.52927,140.01175 c -3.18125,16.36625 -28.4925,34.2775 -57.5625,37.74875 -15.15875,1.80875 -30.08375,3.47125 -45.99875,2.74125 -26.027493,-1.1925 -46.564993,-6.2125 -46.564993,-6.2125 0,2.53375 0.15625,4.94625 0.46875,7.2025 3.38375,25.68625 25.47,27.225 46.391243,27.9425 21.11625,0.7225 39.91875,-5.20625 39.91875,-5.20625 l 0.8675,19.09 c 0,0 -14.77,7.93125 -41.08125,9.39 -14.50875,0.7975 -32.523743,-0.365 -53.506243,-5.91875 -45.5075,-12.045 -53.33375,-60.55375 -54.5312495,-109.77375 -0.365,-14.61375 -0.14,-28.393751 -0.14,-39.918751 0,-50.33 32.9762495,-65.0825 32.9762495,-65.0825 16.6275,-7.6362498 45.15875,-10.8474998 74.819993,-11.08999975 h 0.72875 c 29.66125,0.24249995 58.21125,3.45374995 74.8375,11.08999975 0,0 32.975,14.7525 32.975,65.0825 0,0 0.41375,37.133751 -4.59875,62.915001"/><path style="fill:#34920a;fill-opacity:1" id="path4" d="M 177.50984,81.925509 V 142.86676 H 153.36609 V 83.716759 c 0,-12.46875 -5.24625,-18.7975 -15.74,-18.7975 -11.6025,0 -17.4175,7.5075 -17.4175,22.3525 V 119.64801 H 96.20734 V 87.271759 c 0,-14.845 -5.81625,-22.3525 -17.41875,-22.3525 -10.49375,0 -15.74,6.32875 -15.74,18.7975 V 142.86676 H 38.90484 V 81.925509 c 0,-12.455 3.17125,-22.3525 9.54125,-29.675 6.56875,-7.3225 15.17125,-11.07625 25.85,-11.07625 12.355,0 21.71125,4.74875 27.8975,14.2475 l 6.01375,10.08125 6.015,-10.08125 c 6.185,-9.49875 15.54125,-14.2475 27.8975,-14.2475 10.6775,0 19.28,3.75375 25.85,11.07625 6.36875,7.3225 9.54,17.22 9.54,29.675"/></g></svg>