<svg xmlns="http://www.w3.org/2000/svg" xmlns:svg="http://www.w3.org/2000/svg" id="svg6" width="364.331" height="364.331" version="1.1" viewBox="0 0 341.56 341.56"><metadata id="metadata12"/><circle style="fill:#34920a;fill-opacity:1;stroke:none;stroke-width:3.21097493;stroke-opacity:1" id="path841" cx="170.78" cy="170.78" r="170.78"/><path style="fill:#fff;fill-opacity:1;stroke:none;stroke-width:3.33534455;stroke-opacity:1" id="path841-6" d="m 85.116529,78.165707 c -2.930656,-0.05773 -4.334604,0.39371 -4.334604,0.39371 -9.331342,23.600693 -3.451927,41.025213 -1.683249,45.360233 -10.963715,11.98448 -17.644635,27.27127 -17.644635,45.98978 0,65.67789 40.014549,80.37709 78.072419,84.71213 -4.89264,4.28242 -9.32238,11.83836 -10.87929,22.90741 -9.76441,4.38764 -34.596935,11.95275 -49.885144,-14.2363 0,0 -9.047778,-16.45742 -26.251079,-17.66745 0,0 -16.740905,-0.21003 -1.179224,10.41713 0,0 11.238183,5.27148 19.03498,25.07375 0,0 10.057627,33.33324 57.732697,22.97968 0.0895,14.29929 0.23964,25.0739 0.23964,29.14589 0,1.00912 -0.16483,2.05315 -0.49831,3.05267 14.04664,3.58653 28.47996,5.43763 42.97706,5.51192 14.49959,-0.0577 28.93742,-1.89281 42.99037,-5.46438 -0.33738,-1.01385 -0.50211,-2.07436 -0.50211,-3.10021 0,-5.6187 0.20921,-24.10489 0.20921,-47.01115 0,-15.99333 -5.48205,-26.45337 -11.62679,-31.74589 38.17361,-4.24036 78.25111,-18.72899 78.25111,-84.5752 0,-18.71851 -6.62932,-34.0053 -17.61421,-45.98978 1.75705,-4.33502 7.64034,-21.75954 -1.71367,-45.360233 0,0 -14.3624,-4.608727 -47.08532,17.560943 C 200.03716,92.321964 185.38,90.428138 170.81779,90.353574 156.24483,90.427294 141.57723,92.321964 127.9092,96.12036 105.39763,80.878713 91.56398,78.292727 85.116529,78.165707 Z"/></svg>