<svg xmlns="http://www.w3.org/2000/svg" role="img" viewBox="-72.65 -72.65 3777.80 1207.80"><title>EOSS_logo_white.svg</title><defs><style>.h{fill:#fff}</style></defs><path id="b" d="M2221.02 361.37h-111.51V217.32h110.25v14.28h-93.66v48.72h84.42v14.49h-84.42v52.29h94.92v14.28zm108.57-44.31c-.7 1.96-1.44 4.23-2.2 6.82-.77 2.59-1.58 5.22-2.41 7.88-.84 2.66-1.54 4.97-2.1 6.93h-1.27c-.42-1.68-1.01-3.74-1.78-6.2-.77-2.45-1.58-5.04-2.41-7.77-.84-2.73-1.68-5.28-2.52-7.66l-37.59-99.75h-25.2v144.06h16.17V271.7c0-3.36-.04-7.14-.11-11.34l-.21-12.6c-.07-4.2-.18-7.7-.31-10.5h1.46c.84 2.8 1.68 5.67 2.53 8.61.84 2.94 1.68 5.74 2.52 8.4.84 2.66 1.68 5.11 2.52 7.35l38.43 99.75h13.44l38.64-99.75c.84-2.52 1.71-5.25 2.62-8.19.91-2.94 1.82-5.84 2.73-8.71.91-2.87 1.64-5.36 2.2-7.46h1.47c0 2.24-.04 5.46-.11 9.66s-.18 8.5-.32 12.92c-.14 4.41-.21 8.37-.21 11.87v89.67h16.59V217.32h-24.99l-37.59 99.75zm213.67-13.12c2.45 4.83 3.68 10.95 3.68 18.38 0 9.52-1.93 17.15-5.78 22.89-3.85 5.74-9.06 9.87-15.64 12.39s-14.14 3.78-22.68 3.78h-72.45V217.32h72.45c8.4 0 15.57 1.4 21.53 4.2 5.95 2.8 10.53 6.79 13.75 11.97 3.22 5.18 4.83 11.34 4.83 18.48 0 5.46-.95 10.5-2.84 15.12-1.89 4.62-4.55 8.5-7.98 11.65-3.43 3.15-7.45 5.5-12.08 7.03v.84c4.9 1.12 9.38 3.08 13.44 5.88 4.06 2.8 7.31 6.62 9.76 11.45zm-96.28-23.62h53.34c5.04 0 9.49-1.02 13.34-3.05 3.85-2.03 6.9-4.93 9.13-8.72 2.24-3.78 3.36-8.12 3.36-13.02 0-8.12-2.2-14.14-6.61-18.06-4.41-3.92-10.26-5.88-17.54-5.88h-55.02v48.72zm83.16 40.53c0-6.02-1.05-10.99-3.15-14.91-2.1-3.92-5.18-6.79-9.24-8.61s-9.17-2.73-15.33-2.73h-55.44v52.5h56.91c7.84 0 14.18-2 19.01-5.99s7.24-10.74 7.24-20.26zm157.71 26.25h-94.92v-52.29h84.42v-14.49h-84.42V231.6h93.66v-14.28h-110.25v144.06h111.51V347.1zm82.95 14.28h-51.87V217.32h51.87c15.4 0 28.45 2.48 39.16 7.45 10.71 4.97 18.9 12.74 24.57 23.31 5.67 10.57 8.51 24.33 8.51 41.26s-2.84 30.31-8.51 40.95c-5.67 10.64-13.86 18.48-24.57 23.52-10.71 5.04-23.77 7.56-39.16 7.56zm-.63-14.28c8.54 0 16.24-1.01 23.1-3.05 6.86-2.03 12.74-5.25 17.64-9.66s8.61-10.11 11.13-17.12c2.52-7 3.78-15.47 3.78-25.41v-4.41c0-10.22-1.26-18.86-3.78-25.94-2.52-7.07-6.19-12.81-11.03-17.22-4.83-4.41-10.68-7.63-17.53-9.66-6.86-2.03-14.63-3.04-23.31-3.04h-34.65v115.5h34.65zm155.4 14.28h-51.87V217.32h51.87c15.4 0 28.45 2.48 39.16 7.45 10.71 4.97 18.9 12.74 24.57 23.31 5.67 10.57 8.51 24.33 8.51 41.26s-2.84 30.31-8.51 40.95c-5.67 10.64-13.86 18.48-24.57 23.52-10.71 5.04-23.77 7.56-39.16 7.56zm-.63-14.28c8.54 0 16.24-1.01 23.1-3.05 6.86-2.03 12.74-5.25 17.64-9.66s8.61-10.11 11.13-17.12c2.52-7 3.78-15.47 3.78-25.41v-4.41c0-10.22-1.26-18.86-3.78-25.94-2.52-7.07-6.19-12.81-11.03-17.22-4.83-4.41-10.68-7.63-17.53-9.66-6.86-2.03-14.63-3.04-23.31-3.04h-34.65v115.5h34.65zm215.04 0h-94.92v-52.29h84.42v-14.49h-84.42V231.6h93.66v-14.28h-110.25v144.06h111.51V347.1zm82.95 14.28h-51.87V217.32h51.87c15.4 0 28.45 2.48 39.16 7.45 10.71 4.97 18.9 12.74 24.57 23.31 5.67 10.57 8.51 24.33 8.51 41.26s-2.84 30.31-8.51 40.95c-5.67 10.64-13.86 18.48-24.57 23.52-10.71 5.04-23.77 7.56-39.16 7.56zm-.63-14.28c8.54 0 16.24-1.01 23.1-3.05 6.86-2.03 12.74-5.25 17.64-9.66s8.61-10.11 11.13-17.12c2.52-7 3.78-15.47 3.78-25.41v-4.41c0-10.22-1.26-18.86-3.78-25.94-2.52-7.07-6.19-12.81-11.03-17.22-4.83-4.41-10.68-7.63-17.53-9.66-6.86-2.03-14.63-3.04-23.31-3.04h-34.65v115.5h34.65zm-985.83 152.77c5.67 10.99 8.5 24.82 8.5 41.48s-2.84 30.31-8.5 41.37c-5.67 11.06-13.86 19.36-24.57 24.88-10.71 5.54-23.55 8.3-38.53 8.3s-27.62-2.76-38.33-8.3c-10.71-5.53-18.94-13.82-24.67-24.88-5.74-11.06-8.61-24.85-8.61-41.37s2.87-30.48 8.61-41.48c5.74-10.99 13.96-19.25 24.67-24.78 10.71-5.53 23.48-8.3 38.33-8.3s27.83 2.77 38.53 8.3c10.71 5.53 18.9 13.79 24.57 24.78zm-8.51 39.38c0-10.36-1.29-19.18-3.88-26.46-2.59-7.28-6.26-13.3-11.02-18.06-4.76-4.76-10.5-8.22-17.22-10.39s-14.21-3.25-22.47-3.25-15.72 1.08-22.37 3.25c-6.66 2.17-12.36 5.64-17.12 10.39-4.76 4.76-8.44 10.78-11.03 18.06-2.59 7.28-3.88 16.1-3.88 26.46v4.41c0 10.22 1.29 18.97 3.88 26.25 2.59 7.28 6.26 13.3 11.03 18.06 4.76 4.76 10.46 8.23 17.12 10.39 6.64 2.17 14.1 3.26 22.37 3.26s15.75-1.08 22.47-3.26c6.72-2.17 12.46-5.63 17.22-10.39s8.43-10.78 11.02-18.06c2.59-7.28 3.88-16.03 3.88-26.25v-4.41zm156.76-49.14c3.15 6.44 4.73 13.79 4.73 22.05s-1.82 16.17-5.46 22.89c-3.64 6.72-8.68 11.94-15.12 15.65s-13.86 5.57-22.26 5.57h-54.39v57.12h-16.59V469.33h70.56c9.8 0 17.88 1.85 24.25 5.56 6.37 3.71 11.13 8.79 14.28 15.23zm-12.07 22.26c0-6.02-1.02-11.16-3.05-15.44-2.03-4.27-5.07-7.56-9.13-9.87-4.06-2.31-9.11-3.46-15.12-3.46h-53.13v58.38h53.13c8.12 0 14.7-2.62 19.74-7.88s7.56-12.5 7.56-21.74zm153.71 86.73h-94.92v-52.29h84.42v-14.48h-84.42v-48.72h93.66v-14.28h-110.25v144.06h111.51v-14.28zm133.35 14.28h14.48V469.32h-16.17v113.4h-1.05c-.84-1.39-1.86-2.97-3.05-4.72s-2.38-3.46-3.57-5.14c-1.2-1.68-2.21-3.01-3.05-3.99l-73.71-99.54h-16.17v144.06h16.17V497.47h.84c1.54 2.1 3.36 4.66 5.46 7.66 2.1 3.01 3.64 5.22 4.62 6.62l75.18 101.64zm180.17-1.89c8.68-2.94 15.5-7.56 20.48-13.86 4.97-6.3 7.45-14.42 7.45-24.36 0-6.58-1.37-12.11-4.1-16.59-2.73-4.48-6.44-8.22-11.13-11.23s-9.94-5.53-15.75-7.56c-5.81-2.03-11.79-3.81-17.96-5.36-6.16-1.54-12.15-3.11-17.95-4.73-5.81-1.61-11.03-3.43-15.64-5.46-4.62-2.03-8.33-4.62-11.13-7.77-2.8-3.15-4.2-7.1-4.2-11.87 0-4.06 1.47-7.73 4.41-11.03 2.94-3.29 7.42-5.88 13.44-7.77 6.02-1.89 13.72-2.83 23.1-2.83 6.86 0 12.98 1.02 18.38 3.04 5.39 2.03 9.7 4.83 12.92 8.4 3.22 3.57 4.83 7.95 4.83 13.12v3.57h16.38v-2.52c0-7-1.36-12.98-4.09-17.96-2.73-4.97-6.55-9.1-11.45-12.39-4.9-3.29-10.57-5.7-17.01-7.25-6.44-1.54-13.37-2.31-20.79-2.31-9.8 0-18.27.91-25.41 2.73-7.14 1.82-13.02 4.38-17.64 7.67-4.62 3.29-8.05 7.24-10.29 11.86-2.24 4.62-3.36 9.73-3.36 15.33 0 6.44 1.37 11.87 4.1 16.27 2.73 4.41 6.4 8.09 11.03 11.02 4.62 2.94 9.83 5.39 15.64 7.35 5.81 1.96 11.79 3.71 17.95 5.25 6.16 1.55 12.18 3.15 18.06 4.83 5.88 1.68 11.1 3.6 15.65 5.78 4.55 2.17 8.22 4.93 11.02 8.29 2.8 3.36 4.2 7.63 4.2 12.81 0 4.48-1.02 8.23-3.05 11.24s-4.65 5.46-7.88 7.35c-3.22 1.89-6.76 3.36-10.61 4.41s-7.63 1.75-11.34 2.1c-3.71.35-6.9.53-9.56.53-7.98 0-15.15-1.01-21.52-3.05-6.38-2.03-11.41-5.11-15.12-9.24-3.71-4.12-5.57-9.27-5.57-15.43 0-.7.04-1.54.11-2.52s.11-1.75.11-2.31H2750c-.14.7-.21 1.37-.21 1.99v2c0 8.12 1.61 14.91 4.83 20.37s7.63 9.87 13.23 13.23c5.6 3.36 12.04 5.74 19.32 7.14 7.28 1.39 14.77 2.1 22.46 2.1 11.48 0 21.56-1.47 30.24-4.41zm185.96-111.61c5.67 10.99 8.5 24.82 8.5 41.48s-2.84 30.31-8.5 41.37c-5.67 11.06-13.86 19.36-24.57 24.88-10.71 5.54-23.55 8.3-38.53 8.3s-27.62-2.76-38.33-8.3c-10.71-5.53-18.94-13.82-24.67-24.88-5.74-11.06-8.61-24.85-8.61-41.37s2.87-30.48 8.61-41.48c5.74-10.99 13.96-19.25 24.67-24.78 10.71-5.53 23.48-8.3 38.33-8.3s27.83 2.77 38.53 8.3c10.71 5.53 18.9 13.79 24.57 24.78zm-8.51 39.38c0-10.36-1.29-19.18-3.88-26.46-2.59-7.28-6.26-13.3-11.02-18.06-4.76-4.76-10.5-8.22-17.22-10.39s-14.21-3.25-22.47-3.25-15.72 1.08-22.37 3.25-12.36 5.64-17.12 10.39c-4.76 4.76-8.44 10.78-11.03 18.06-2.59 7.28-3.88 16.1-3.88 26.46v4.41c0 10.22 1.29 18.97 3.88 26.25 2.59 7.28 6.26 13.3 11.03 18.06 4.76 4.76 10.46 8.23 17.12 10.39 6.64 2.17 14.1 3.26 22.37 3.26s15.75-1.08 22.47-3.26c6.72-2.17 12.46-5.63 17.22-10.39s8.43-10.78 11.02-18.06c2.59-7.28 3.88-16.03 3.88-26.25v-4.41zm147.63 22.47c0 13.31-3.74 23.24-11.23 29.82-7.49 6.58-17.89 9.87-31.18 9.87s-23.14-3.29-30.35-9.87c-7.21-6.58-10.82-16.52-10.82-29.82v-92.4h-16.59v89.04c0 13.58 2.31 24.64 6.93 33.18 4.62 8.54 11.24 14.74 19.85 18.58 8.61 3.85 18.93 5.78 30.98 5.78s22.85-1.93 31.61-5.78c8.74-3.84 15.46-10.04 20.16-18.58 4.69-8.54 7.04-19.6 7.04-33.18v-89.04h-16.38v92.4zm146.79-10.49l30.66 62.16h-18.27l-28.77-59.22h-59.43v59.22h-16.59V469.34h75.6c9.52 0 17.39 1.78 23.62 5.35 6.23 3.57 10.92 8.44 14.07 14.6 3.15 6.16 4.73 13.16 4.73 21 0 10.22-2.35 18.87-7.04 25.94-4.69 7.07-10.89 12.07-18.59 15.02zm1.68-19.22c4.9-5.25 7.35-12.5 7.35-21.74 0-5.6-1.05-10.36-3.15-14.28-2.1-3.92-5.19-6.96-9.24-9.13-4.07-2.17-9.11-3.25-15.12-3.25h-57.33v56.28h57.33c8.54 0 15.26-2.62 20.16-7.88zm71.4-25.83c4.2-8.61 10.15-14.94 17.85-19 7.7-4.06 16.73-6.09 27.09-6.09 9.66 0 17.96 1.44 24.88 4.3 6.93 2.87 12.29 7.21 16.07 13.02 3.78 5.81 5.67 13.27 5.67 22.37h16.8c0-12.18-2.7-22.22-8.09-30.13s-12.81-13.86-22.26-17.85-20.41-5.99-32.87-5.99c-21.7 0-38.57 6.2-50.61 18.59-12.05 12.39-18.06 31.05-18.06 55.97 0 16.66 2.62 30.52 7.88 41.58 5.25 11.06 12.95 19.32 23.1 24.78 10.15 5.46 22.58 8.19 37.27 8.19 12.32 0 23.24-1.93 32.76-5.78 9.52-3.84 17.04-9.76 22.58-17.74s8.3-18.13 8.3-30.45h-16.38c0 9.11-1.89 16.56-5.67 22.37-3.78 5.81-9.18 10.15-16.17 13.02-7 2.87-15.33 4.31-24.99 4.31-10.5 0-19.6-1.96-27.3-5.88-7.7-3.91-13.65-10.08-17.85-18.47-4.2-8.4-6.3-19.39-6.3-32.98v-4.41c0-13.86 2.1-25.1 6.3-33.71zm154.56 92.93v-52.29h84.42v-14.48h-84.42v-48.72h93.66v-14.28H3522.8v144.06h111.51v-14.28h-94.92zM2204.96 797.47c-4.69-3.01-9.94-5.53-15.75-7.56-5.81-2.03-11.79-3.81-17.96-5.36-6.16-1.54-12.15-3.12-17.95-4.73-5.81-1.61-11.03-3.43-15.64-5.46-4.62-2.03-8.33-4.62-11.13-7.77-2.8-3.15-4.2-7.1-4.2-11.87 0-4.05 1.47-7.73 4.41-11.02s7.42-5.88 13.44-7.77c6.02-1.89 13.72-2.84 23.1-2.84 6.86 0 12.98 1.01 18.37 3.04 5.39 2.03 9.7 4.83 12.92 8.4 3.22 3.57 4.83 7.95 4.83 13.12v3.57h16.38v-2.52c0-7-1.36-12.98-4.09-17.95s-6.55-9.1-11.45-12.39c-4.9-3.29-10.57-5.7-17.01-7.24s-13.37-2.31-20.79-2.31c-9.8 0-18.27.91-25.41 2.73-7.14 1.82-13.02 4.38-17.64 7.66-4.62 3.29-8.06 7.24-10.29 11.87-2.24 4.62-3.36 9.73-3.36 15.33 0 6.44 1.37 11.87 4.1 16.28 2.73 4.41 6.4 8.08 11.03 11.02 4.62 2.94 9.83 5.39 15.64 7.35 5.81 1.96 11.79 3.71 17.95 5.25s12.18 3.15 18.06 4.83c5.88 1.68 11.1 3.6 15.65 5.78 4.55 2.17 8.22 4.93 11.02 8.29 2.8 3.36 4.2 7.63 4.2 12.81 0 4.48-1.02 8.23-3.05 11.24s-4.65 5.46-7.88 7.35c-3.22 1.89-6.76 3.36-10.61 4.41s-7.63 1.75-11.34 2.1c-3.71.35-6.9.53-9.56.53-7.98 0-15.16-1.01-21.53-3.05-6.37-2.03-11.41-5.11-15.12-9.24-3.71-4.12-5.57-9.27-5.57-15.43 0-.7.04-1.54.11-2.52s.11-1.75.11-2.31h-16.59c-.14.7-.21 1.37-.21 1.99v2c0 8.12 1.61 14.91 4.83 20.37 3.22 5.46 7.63 9.87 13.23 13.23 5.6 3.36 12.04 5.74 19.32 7.14 7.28 1.39 14.77 2.1 22.47 2.1 11.48 0 21.56-1.47 30.24-4.41 8.68-2.94 15.5-7.56 20.48-13.86 4.97-6.3 7.45-14.42 7.45-24.36 0-6.58-1.37-12.11-4.1-16.59-2.73-4.48-6.44-8.22-11.13-11.23zm146.26 16.27c0 13.31-3.74 23.24-11.23 29.82-7.49 6.58-17.89 9.87-31.18 9.87s-23.14-3.29-30.35-9.87c-7.21-6.58-10.82-16.52-10.82-29.82v-92.4h-16.59v89.04c0 13.58 2.31 24.64 6.93 33.18 4.62 8.54 11.24 14.74 19.85 18.58 8.61 3.85 18.93 5.78 30.98 5.78s22.85-1.93 31.61-5.78c8.74-3.84 15.46-10.04 20.16-18.58 4.69-8.54 7.04-19.6 7.04-33.18v-89.04h-16.38v92.4zm131.88 7.35c-.7 1.96-1.44 4.24-2.2 6.83-.77 2.59-1.58 5.21-2.41 7.88s-1.54 4.97-2.1 6.93h-1.27c-.42-1.68-1.01-3.74-1.78-6.19s-1.58-5.04-2.41-7.77c-.84-2.73-1.68-5.29-2.52-7.66l-37.59-99.75h-25.2v144.06h16.17v-89.67c0-3.36-.04-7.14-.11-11.34l-.21-12.6c-.07-4.2-.18-7.7-.31-10.5h1.46c.84 2.8 1.68 5.67 2.53 8.61.84 2.94 1.68 5.74 2.52 8.4.84 2.66 1.68 5.11 2.52 7.35l38.43 99.75h13.44l38.64-99.75c.84-2.52 1.71-5.25 2.62-8.19.91-2.94 1.82-5.84 2.73-8.71.91-2.87 1.64-5.36 2.2-7.45h1.47c0 2.24-.04 5.46-.11 9.66s-.18 8.51-.32 12.91c-.14 4.41-.21 8.37-.21 11.87v89.67h16.59V721.37h-24.99l-37.59 99.75zm178.29 0c-.7 1.96-1.44 4.24-2.2 6.83-.77 2.59-1.58 5.21-2.41 7.88s-1.54 4.97-2.1 6.93h-1.27c-.42-1.68-1.01-3.74-1.78-6.19s-1.58-5.04-2.41-7.77c-.84-2.73-1.68-5.29-2.52-7.66l-37.59-99.75h-25.2v144.06h16.17v-89.67c0-3.36-.04-7.14-.11-11.34l-.21-12.6c-.07-4.2-.18-7.7-.31-10.5h1.46c.84 2.8 1.68 5.67 2.53 8.61.84 2.94 1.68 5.74 2.52 8.4.84 2.66 1.68 5.11 2.52 7.35l38.43 99.75h13.44l38.64-99.75c.84-2.52 1.71-5.25 2.62-8.19.91-2.94 1.82-5.84 2.73-8.71.91-2.87 1.64-5.36 2.2-7.45h1.47c0 2.24-.04 5.46-.11 9.66s-.18 8.51-.32 12.91c-.14 4.41-.21 8.37-.21 11.87v89.67h16.59V721.37h-24.99l-37.59 99.75zm100.8 44.31h16.59V721.34h-16.59V865.4zm38.85-129.57h51.04V865.4h16.59V735.83h51.45v-14.49h-119.07v14.49z" class="h"/><path id="c" d="M1954.63 43.35h4.2v988.28h-4.2z" class="h"/><g id="d"><path id="e" d="M53.09 731.54h303.74v45.7H0V316.25h352.8v45.7H53.09v155.9h270.14v46.37H53.09v167.33zm1256.95-171.7c-15.01-9.63-31.81-17.69-50.4-24.19-18.6-6.49-37.74-12.2-57.45-17.14-19.72-4.93-38.87-9.97-57.45-15.12-18.6-5.14-35.28-10.97-50.06-17.47-14.78-6.49-26.66-14.79-35.62-24.86-8.97-10.08-13.44-22.73-13.44-37.97 0-12.99 4.7-24.75 14.11-35.28 9.41-10.52 23.74-18.82 43.01-24.86 19.25-6.05 43.9-9.07 73.92-9.07 21.94 0 41.55 3.26 58.8 9.75 17.24 6.5 31.02 15.45 41.33 26.88 10.3 11.43 15.45 25.43 15.45 42v11.43h52.42v-8.06c0-22.4-4.36-41.55-13.1-57.46-8.74-15.9-20.95-29.12-36.63-39.65-15.68-10.52-33.83-18.25-54.44-23.19-20.61-4.92-42.79-7.39-66.53-7.39-31.36 0-58.46 2.92-81.31 8.74-22.85 5.83-41.66 14.01-56.45 24.53-14.79 10.53-25.77 23.18-32.93 37.97-7.17 14.78-10.75 31.14-10.75 49.05 0 20.61 4.37 37.97 13.1 52.08 8.74 14.11 20.5 25.87 35.28 35.28 14.78 9.41 31.47 17.26 50.06 23.52 18.59 6.28 37.74 11.87 57.45 16.8 19.71 4.93 38.98 10.08 57.79 15.45 18.82 5.38 35.5 11.54 50.07 18.48 14.55 6.95 26.31 15.79 35.27 26.54 8.96 10.75 13.44 24.42 13.44 40.99 0 14.34-3.26 26.32-9.75 35.95-6.5 9.64-14.9 17.47-25.2 23.52-10.31 6.05-21.62 10.75-33.94 14.11-12.33 3.36-24.42 5.61-36.29 6.72-11.87 1.12-22.07 1.68-30.57 1.68-25.54 0-48.5-3.24-68.88-9.75-20.39-6.49-36.52-16.35-48.38-29.57-11.88-13.21-17.81-29.67-17.81-49.39 0-2.24.11-4.93.34-8.06.22-3.13.34-5.59.34-7.39h-53.09c-.45 2.25-.67 4.37-.67 6.38v6.39c0 25.99 5.14 47.71 15.45 65.18 10.3 17.47 24.41 31.59 42.34 42.34 17.91 10.75 38.53 18.38 61.82 22.85 23.29 4.47 47.26 6.72 71.9 6.72 36.73 0 68.99-4.7 96.77-14.11 27.78-9.4 49.61-24.19 65.52-44.35 15.9-20.16 23.85-46.14 23.85-77.95 0-21.05-4.36-38.75-13.1-53.09-8.74-14.33-20.61-26.31-35.62-35.95zm489.21 35.95c-8.74-14.33-20.61-26.31-35.61-35.95-15.02-9.63-31.82-17.69-50.4-24.19-18.6-6.49-37.75-12.2-57.46-17.14-19.72-4.93-38.87-9.97-57.45-15.12-18.6-5.14-35.28-10.97-50.06-17.47-14.78-6.49-26.66-14.79-35.62-24.86-8.97-10.08-13.44-22.73-13.44-37.97 0-12.99 4.7-24.75 14.11-35.28 9.41-10.52 23.74-18.82 43.01-24.86 19.26-6.05 43.9-9.07 73.92-9.07 21.95 0 41.55 3.26 58.8 9.75 17.24 6.5 31.02 15.45 41.33 26.88 10.3 11.43 15.45 25.43 15.45 42v11.43h52.41v-8.06c0-22.4-4.36-41.55-13.1-57.46-8.74-15.9-20.95-29.12-36.63-39.65-15.68-10.52-33.83-18.25-54.43-23.19-20.61-4.92-42.79-7.39-66.53-7.39-31.36 0-58.46 2.92-81.31 8.74-22.85 5.83-41.66 14.01-56.45 24.53-14.79 10.53-25.77 23.18-32.93 37.97-7.17 14.78-10.75 31.14-10.75 49.05 0 20.61 4.37 37.97 13.1 52.08 8.74 14.11 20.5 25.87 35.28 35.28 14.78 9.41 31.47 17.26 50.06 23.52 18.58 6.28 37.74 11.87 57.45 16.8 19.71 4.93 38.98 10.08 57.79 15.45 18.82 5.38 35.5 11.54 50.07 18.48 14.55 6.95 26.31 15.79 35.28 26.54 8.96 10.75 13.44 24.42 13.44 40.99 0 14.34-3.26 26.32-9.75 35.95-6.5 9.64-14.9 17.47-25.2 23.52-10.31 6.05-21.62 10.75-33.94 14.11-12.33 3.36-24.42 5.61-36.29 6.72-11.87 1.12-22.07 1.68-30.58 1.68-25.54 0-48.5-3.24-68.88-9.75-20.39-6.49-36.52-16.35-48.39-29.57-11.87-13.21-17.81-29.67-17.81-49.39 0-2.24.11-4.93.34-8.06.22-3.13.34-5.59.34-7.39h-53.09c-.45 2.25-.67 4.37-.67 6.38v6.39c0 25.99 5.14 47.71 15.45 65.18 10.3 17.47 24.41 31.59 42.34 42.34 17.92 10.75 38.53 18.38 61.83 22.85 23.29 4.47 47.26 6.72 71.9 6.72 36.73 0 68.99-4.7 96.77-14.11 27.78-9.4 49.61-24.19 65.52-44.35 15.9-20.16 23.85-46.14 23.85-77.95 0-21.05-4.37-38.75-13.1-53.09z" class="h"/><path id="f" d="M516.46 696.04L330.37 929.03c-6.34-1.95-13.07-3.01-20.04-3.01-37.76 0-68.48 30.72-68.48 68.48s30.72 68.47 68.48 68.47 68.48-30.71 68.48-68.47c0-12.36-3.34-23.94-9.1-33.96l186.14-233.05-39.38-31.45zm-206.14 341.74c-23.86 0-43.28-19.42-43.28-43.28s19.42-43.28 43.28-43.28 43.28 19.42 43.28 43.28-19.42 43.28-43.28 43.28zM981.1 829c-7.17 0-14.04 1.25-20.47 3.44L828.22 686.2l-37.36 33.83 132.41 146.24c-3.67 8.03-5.77 16.93-5.77 26.33 0 35.07 28.54 63.6 63.61 63.6s63.61-28.53 63.61-63.6-28.54-63.6-63.61-63.6zm0 102.01c-21.18 0-38.41-17.23-38.41-38.41s17.23-38.41 38.41-38.41 38.41 17.23 38.41 38.41-17.23 38.41-38.41 38.41zm57.83-863.43c-37.76 0-68.48 30.72-68.48 68.48 0 10.88 2.62 21.14 7.16 30.29L790.83 373.12l37.4 33.79L1015 200.15c7.46 2.8 15.5 4.4 23.92 4.4 37.76 0 68.48-30.72 68.48-68.48s-30.72-68.48-68.48-68.48zm0 111.76c-23.86 0-43.28-19.42-43.28-43.28s19.42-43.28 43.28-43.28 43.28 19.42 43.28 43.28-19.42 43.28-43.28 43.28zm-586.17 11.5c0-30.81-25.07-55.88-55.88-55.88S341 160.03 341 190.84s25.07 55.88 55.88 55.88c3.47 0 6.85-.36 10.14-.97l112.92 148.26 40.1-30.54L447.1 215.19c3.59-7.37 5.66-15.61 5.66-24.34zm-86.56 0c0-16.92 13.76-30.68 30.68-30.68s30.68 13.76 30.68 30.68-13.76 30.68-30.68 30.68-30.68-13.76-30.68-30.68zm298.44 661.65l8.71-93.06-50.18-4.7-8.71 93.04c-20.72 8.18-35.43 28.36-35.43 51.95 0 30.81 25.07 55.88 55.88 55.88s55.88-25.07 55.88-55.88c0-19.88-10.47-37.32-26.15-47.22zm-29.73 77.9c-16.92 0-30.68-13.76-30.68-30.68s13.76-30.68 30.68-30.68 30.68 13.76 30.68 30.68-13.76 30.68-30.68 30.68z" class="h"/><path id="g" d="M904.42 546.74c0 130.38-106.08 236.46-236.46 236.46S431.5 677.12 431.5 546.74c0-108.57 73.57-200.22 173.46-227.87v52.81c-71.68 25.87-123.06 94.57-123.06 175.06 0 102.59 83.46 186.06 186.06 186.06s186.06-83.47 186.06-186.06c0-80.49-51.38-149.18-123.06-175.06v-52.81c99.89 27.65 173.46 119.3 173.46 227.87zM693.16 121.98v424.76h-50.4V121.98c-22.57-9.78-38.41-32.26-38.41-58.37C604.35 28.54 632.89 0 667.96 0s63.61 28.54 63.61 63.61c0 26.12-15.84 48.59-38.41 58.37zm13.2-58.37c0-21.18-17.23-38.41-38.41-38.41s-38.41 17.23-38.41 38.41 17.23 38.41 38.41 38.41 38.41-17.23 38.41-38.41z" class="h"/></g></svg>