<?xml version="1.0" encoding="UTF-8"?>
<!-- Generator: Adobe Illustrator 27.0.1, SVG Export Plug-In . SVG Version: 6.00 Build 0)  -->
<svg version="1.1" id="Layer_1" xmlns="http://www.w3.org/2000/svg" xmlns:xlink="http://www.w3.org/1999/xlink" x="0px" y="0px" viewBox="0 0 984.5 382.8" style="enable-background:new 0 0 984.5 382.8;" xml:space="preserve">
<style type="text/css">
	.st0{clip-path:url(#SVGID_00000132090471308929699970000006165458792859906488_);}
	.st1{fill:none;stroke:#75DD31;stroke-width:3;stroke-miterlimit:10;}
	.st2{clip-path:url(#SVGID_00000065068515814627151940000007052011249923645106_);}
	.st3{fill:none;stroke:#FFF200;stroke-width:3;stroke-miterlimit:10;}
	.st4{fill:#121B86;}
	.st5{fill:none;stroke:#6FEEC9;stroke-width:3;stroke-miterlimit:10;}
	.st6{fill:none;stroke:#121B86;stroke-width:3;stroke-miterlimit:10;}
	.st7{display:none;}
	.st8{display:inline;}
	.st9{fill:#6FEEC9;}
	.st10{fill:none;}
	.st11{enable-background:new    ;}
	.st12{fill:#FFFFFF;}
	.st13{fill:#DD324B;}
	.st14{clip-path:url(#SVGID_00000083050356060188775100000007245542849894276741_);}
	.st15{fill:none;stroke:#DD324B;stroke-width:3;stroke-miterlimit:10;}
	.st16{clip-path:url(#SVGID_00000026871549179174295810000000427939145568244405_);}
	.st17{clip-path:url(#SVGID_00000043424061267591470310000008471639077541382048_);}
	.st18{clip-path:url(#SVGID_00000057107864105956378870000016607595651211458197_);}
	.st19{clip-path:url(#SVGID_00000034064845932213805910000010061553026649090477_);}
	.st20{clip-path:url(#SVGID_00000049936510820100627760000000864691926567549090_);}
</style>
<g>
	<g>
		<defs>
			<rect id="SVGID_1_" x="-603.4" y="-9.5" width="421.2" height="401.3"/>
		</defs>
		<clipPath id="SVGID_00000135660642589442603730000006791898754771012757_">
			<use xlink:href="#SVGID_1_" style="overflow:visible;"/>
		</clipPath>
	</g>
	<g>
		<defs>
			<rect id="SVGID_00000037671690877520698510000000983038847278968208_" x="-603.4" y="-9.5" width="421.2" height="401.3"/>
		</defs>
		<clipPath id="SVGID_00000044890574016510880480000015186447548759597213_">
			<use xlink:href="#SVGID_00000037671690877520698510000000983038847278968208_" style="overflow:visible;"/>
		</clipPath>
		<g style="clip-path:url(#SVGID_00000044890574016510880480000015186447548759597213_);">
			<line class="st1" x1="143" y1="-316.9" x2="-425" y2="251.1"/>
			<line class="st1" x1="149.5" y1="-310.1" x2="-418.5" y2="257.9"/>
			<line class="st1" x1="156.3" y1="-303.6" x2="-411.7" y2="264.4"/>
			<line class="st1" x1="162.8" y1="-296.7" x2="-405.2" y2="271.3"/>
			<line class="st1" x1="169.7" y1="-290.2" x2="-398.3" y2="277.8"/>
			<line class="st1" x1="176.2" y1="-283.3" x2="-391.8" y2="284.7"/>
			<line class="st1" x1="183" y1="-276.8" x2="-384.9" y2="291.2"/>
			<line class="st1" x1="189.5" y1="-270" x2="-378.5" y2="298"/>
			<line class="st1" x1="196.4" y1="-263.5" x2="-371.6" y2="304.5"/>
			<line class="st1" x1="202.9" y1="-256.6" x2="-365.1" y2="311.4"/>
			<line class="st1" x1="209.8" y1="-250.1" x2="-358.2" y2="317.9"/>
			<line class="st1" x1="216.3" y1="-243.2" x2="-351.7" y2="324.8"/>
			<line class="st1" x1="223.1" y1="-236.7" x2="-344.9" y2="331.3"/>
			<line class="st1" x1="229.6" y1="-229.9" x2="-338.4" y2="338.1"/>
			<line class="st1" x1="236.5" y1="-223.4" x2="-331.5" y2="344.6"/>
			<line class="st1" x1="243" y1="-216.5" x2="-325" y2="351.5"/>
			<line class="st1" x1="249.9" y1="-210" x2="-318.1" y2="358"/>
			<line class="st1" x1="256.4" y1="-203.1" x2="-311.6" y2="364.9"/>
			<line class="st1" x1="263.2" y1="-196.6" x2="-304.8" y2="371.4"/>
			<line class="st1" x1="269.7" y1="-189.8" x2="-298.3" y2="378.2"/>
			<line class="st1" x1="276.6" y1="-183.3" x2="-291.4" y2="384.7"/>
			<line class="st1" x1="283.1" y1="-176.4" x2="-284.9" y2="391.6"/>
			<line class="st1" x1="290" y1="-169.9" x2="-278" y2="398.1"/>
			<line class="st1" x1="296.5" y1="-163" x2="-271.5" y2="404.9"/>
			<line class="st1" x1="303.3" y1="-156.6" x2="-264.7" y2="411.4"/>
			<line class="st1" x1="309.8" y1="-149.7" x2="-258.2" y2="418.3"/>
			<line class="st1" x1="316.7" y1="-143.2" x2="-251.3" y2="424.8"/>
			<line class="st1" x1="323.2" y1="-136.3" x2="-244.8" y2="431.7"/>
			<line class="st1" x1="330.1" y1="-129.8" x2="-237.9" y2="438.2"/>
			<line class="st1" x1="336.6" y1="-123" x2="-231.4" y2="445"/>
			<line class="st1" x1="343.4" y1="-116.5" x2="-224.6" y2="451.5"/>
			<line class="st1" x1="349.9" y1="-109.6" x2="-218.1" y2="458.4"/>
			<line class="st1" x1="356.8" y1="-103.1" x2="-211.2" y2="464.9"/>
			<line class="st1" x1="363.3" y1="-96.2" x2="-204.7" y2="471.8"/>
			<line class="st1" x1="370.2" y1="-89.7" x2="-197.8" y2="478.3"/>
			<line class="st1" x1="376.7" y1="-82.9" x2="-191.3" y2="485.1"/>
			<line class="st1" x1="383.5" y1="-76.4" x2="-184.5" y2="491.6"/>
			<line class="st1" x1="390" y1="-69.5" x2="-178" y2="498.5"/>
			<line class="st1" x1="396.9" y1="-63" x2="-171.1" y2="505"/>
			<line class="st1" x1="403.4" y1="-56.1" x2="-164.6" y2="511.9"/>
			<line class="st1" x1="410.3" y1="-49.6" x2="-157.7" y2="518.4"/>
			<line class="st1" x1="416.8" y1="-42.8" x2="-151.2" y2="525.2"/>
			<line class="st1" x1="423.6" y1="-36.3" x2="-144.4" y2="531.7"/>
			<line class="st1" x1="430.1" y1="-29.4" x2="-137.9" y2="538.6"/>
			<line class="st1" x1="437" y1="-22.9" x2="-131" y2="545.1"/>
			<line class="st1" x1="443.5" y1="-16" x2="-124.5" y2="552"/>
			<line class="st1" x1="450.4" y1="-9.5" x2="-117.6" y2="558.5"/>
			<line class="st1" x1="456.8" y1="-2.7" x2="-111.1" y2="565.3"/>
			<line class="st1" x1="463.7" y1="3.8" x2="-104.3" y2="571.8"/>
			<line class="st1" x1="470.2" y1="10.7" x2="-97.8" y2="578.7"/>
			<line class="st1" x1="477.1" y1="17.2" x2="-90.9" y2="585.2"/>
			<line class="st1" x1="483.6" y1="24.1" x2="-84.4" y2="592.1"/>
			<line class="st1" x1="490.4" y1="30.6" x2="-77.6" y2="598.6"/>
			<line class="st1" x1="496.9" y1="37.4" x2="-71.1" y2="605.4"/>
			<line class="st1" x1="503.8" y1="43.9" x2="-64.2" y2="611.9"/>
			<line class="st1" x1="510.3" y1="50.8" x2="-57.7" y2="618.8"/>
			<line class="st1" x1="517.2" y1="57.3" x2="-50.8" y2="625.3"/>
			<line class="st1" x1="523.7" y1="64.2" x2="-44.3" y2="632.2"/>
			<line class="st1" x1="530.5" y1="70.7" x2="-37.5" y2="638.7"/>
			<line class="st1" x1="537" y1="77.5" x2="-31" y2="645.5"/>
			<line class="st1" x1="543.9" y1="84" x2="-24.1" y2="652"/>
			<line class="st1" x1="550.4" y1="90.9" x2="-17.6" y2="658.9"/>
			<line class="st1" x1="557.3" y1="97.4" x2="-10.7" y2="665.4"/>
			<line class="st1" x1="563.8" y1="104.3" x2="-4.2" y2="672.3"/>
			<line class="st1" x1="570.6" y1="110.8" x2="2.6" y2="678.7"/>
			<line class="st1" x1="577.1" y1="117.6" x2="9.1" y2="685.6"/>
			<line class="st1" x1="584" y1="124.1" x2="16" y2="692.1"/>
			<line class="st1" x1="590.5" y1="131" x2="22.5" y2="699"/>
			<line class="st1" x1="597.4" y1="137.5" x2="29.4" y2="705.5"/>
			<line class="st1" x1="603.9" y1="144.3" x2="35.9" y2="712.3"/>
			<line class="st1" x1="610.7" y1="150.8" x2="42.7" y2="718.8"/>
			<line class="st1" x1="617.2" y1="157.7" x2="49.2" y2="725.7"/>
			<line class="st1" x1="624.1" y1="164.2" x2="56.1" y2="732.2"/>
			<line class="st1" x1="630.6" y1="171.1" x2="62.6" y2="739.1"/>
			<line class="st1" x1="637.5" y1="177.6" x2="69.5" y2="745.6"/>
			<line class="st1" x1="644" y1="184.4" x2="76" y2="752.4"/>
			<line class="st1" x1="650.8" y1="190.9" x2="82.8" y2="758.9"/>
			<line class="st1" x1="657.3" y1="197.8" x2="89.3" y2="765.8"/>
			<line class="st1" x1="664.2" y1="204.3" x2="96.2" y2="772.3"/>
			<line class="st1" x1="670.7" y1="211.2" x2="102.7" y2="779.2"/>
			<line class="st1" x1="677.6" y1="217.7" x2="109.6" y2="785.7"/>
			<line class="st1" x1="684.1" y1="224.5" x2="116.1" y2="792.5"/>
			<line class="st1" x1="690.9" y1="231" x2="122.9" y2="799"/>
			<line class="st1" x1="697.4" y1="237.9" x2="129.4" y2="805.9"/>
			<line class="st1" x1="704.3" y1="244.4" x2="136.3" y2="812.4"/>
			<line class="st1" x1="710.8" y1="251.3" x2="142.8" y2="819.3"/>
			<line class="st1" x1="717.7" y1="257.8" x2="149.7" y2="825.8"/>
			<line class="st1" x1="724.2" y1="264.6" x2="156.2" y2="832.6"/>
			<line class="st1" x1="731" y1="271.1" x2="163" y2="839.1"/>
			<line class="st1" x1="737.5" y1="278" x2="169.5" y2="846"/>
			<line class="st1" x1="744.4" y1="284.5" x2="176.4" y2="852.5"/>
			<line class="st1" x1="750.9" y1="291.4" x2="182.9" y2="859.4"/>
			<line class="st1" x1="757.7" y1="297.9" x2="189.7" y2="865.9"/>
			<line class="st1" x1="764.2" y1="304.7" x2="196.2" y2="872.7"/>
			<line class="st1" x1="771.1" y1="311.2" x2="203.1" y2="879.2"/>
			<line class="st1" x1="777.6" y1="318.1" x2="209.6" y2="886.1"/>
			<line class="st1" x1="784.5" y1="324.6" x2="216.5" y2="892.6"/>
			<line class="st1" x1="791" y1="331.5" x2="223" y2="899.5"/>
			<line class="st1" x1="797.8" y1="338" x2="229.8" y2="906"/>
			<line class="st1" x1="804.3" y1="344.8" x2="236.3" y2="912.8"/>
			<line class="st1" x1="811.2" y1="351.3" x2="243.2" y2="919.3"/>
			<line class="st1" x1="817.7" y1="358.2" x2="249.7" y2="926.2"/>
			<line class="st1" x1="824.6" y1="364.7" x2="256.6" y2="932.7"/>
			<line class="st1" x1="831.1" y1="371.6" x2="263.1" y2="939.6"/>
			<line class="st1" x1="837.9" y1="378.1" x2="269.9" y2="946.1"/>
		</g>
	</g>
	<g>
		<defs>
			<rect id="SVGID_00000108299058045637613080000014105407176847901581_" x="-603.4" y="-9.5" width="421.2" height="401.3"/>
		</defs>
		<clipPath id="SVGID_00000147192386138301280970000000312270344325989544_">
			<use xlink:href="#SVGID_00000108299058045637613080000014105407176847901581_" style="overflow:visible;"/>
		</clipPath>
		<g style="clip-path:url(#SVGID_00000147192386138301280970000000312270344325989544_);">
			<line class="st3" x1="141.9" y1="818" x2="-426.1" y2="250"/>
			<line class="st3" x1="135" y1="824.5" x2="-433" y2="256.5"/>
			<line class="st3" x1="128.5" y1="831.4" x2="-439.5" y2="263.4"/>
			<line class="st3" x1="121.7" y1="837.9" x2="-446.3" y2="269.9"/>
			<line class="st3" x1="115.2" y1="844.7" x2="-452.8" y2="276.7"/>
			<line class="st3" x1="108.3" y1="851.2" x2="-459.7" y2="283.2"/>
			<line class="st3" x1="101.8" y1="858.1" x2="-466.2" y2="290.1"/>
			<line class="st3" x1="94.9" y1="864.6" x2="-473.1" y2="296.6"/>
			<line class="st3" x1="88.4" y1="871.5" x2="-479.6" y2="303.5"/>
			<line class="st3" x1="81.6" y1="878" x2="-486.4" y2="310"/>
			<line class="st3" x1="75.1" y1="884.8" x2="-492.9" y2="316.8"/>
			<line class="st3" x1="68.2" y1="891.3" x2="-499.8" y2="323.3"/>
			<line class="st3" x1="61.7" y1="898.2" x2="-506.3" y2="330.2"/>
			<line class="st3" x1="54.8" y1="904.7" x2="-513.2" y2="336.7"/>
			<line class="st3" x1="48.3" y1="911.6" x2="-519.7" y2="343.6"/>
			<line class="st3" x1="41.5" y1="918.1" x2="-526.5" y2="350.1"/>
			<line class="st3" x1="35" y1="924.9" x2="-533" y2="356.9"/>
			<line class="st3" x1="28.1" y1="931.4" x2="-539.9" y2="363.4"/>
			<line class="st3" x1="21.6" y1="938.3" x2="-546.4" y2="370.3"/>
			<line class="st3" x1="14.7" y1="944.8" x2="-553.3" y2="376.8"/>
			<line class="st3" x1="8.2" y1="951.7" x2="-559.7" y2="383.7"/>
		</g>
	</g>
</g>
<rect x="-12.1" y="-9" class="st4" width="1010.7" height="400.8"/>
<g>
	<line class="st5" x1="1113.8" y1="102.7" x2="725.2" y2="102.7"/>
	<line class="st5" x1="1113.8" y1="111.8" x2="725.2" y2="111.8"/>
	<line class="st5" x1="1113.8" y1="121" x2="744.9" y2="121"/>
	<line class="st5" x1="1113.8" y1="130.1" x2="744.9" y2="130.1"/>
	<line class="st5" x1="1113.8" y1="139.2" x2="725.2" y2="139.2"/>
	<line class="st5" x1="1113.8" y1="148.3" x2="725.2" y2="148.3"/>
	<line class="st5" x1="1113.8" y1="157.4" x2="725.2" y2="157.4"/>
	<line class="st5" x1="1113.8" y1="166.6" x2="725.2" y2="166.6"/>
</g>
<g>
	<line class="st5" x1="327.9" y1="198.1" x2="-60.7" y2="198.1"/>
	<line class="st5" x1="327.9" y1="207.3" x2="-60.7" y2="207.3"/>
	<line class="st5" x1="327.9" y1="216.4" x2="-60.7" y2="216.4"/>
	<line class="st5" x1="327.9" y1="225.5" x2="-60.7" y2="225.5"/>
	<line class="st5" x1="327.9" y1="234.6" x2="-60.7" y2="234.6"/>
	<line class="st5" x1="338.4" y1="243.8" x2="-60.7" y2="243.8"/>
	<line class="st5" x1="327.9" y1="252.9" x2="-60.7" y2="252.9"/>
	<line class="st5" x1="327.9" y1="262" x2="-60.7" y2="262"/>
</g>
<g>
	<g>
		<defs>
			<rect id="SVGID_00000095302484667738805620000013958154803502485140_" x="1097.7" y="-801.8" width="464.7" height="233.4"/>
		</defs>
		<clipPath id="SVGID_00000059304224537018484820000014239130187557976469_">
			<use xlink:href="#SVGID_00000095302484667738805620000013958154803502485140_" style="overflow:visible;"/>
		</clipPath>
	</g>
	<g>
		
			<rect id="SVGID_00000000222603057644727230000017699717028362653582_" x="1097.7" y="-801.8" class="st6" width="464.7" height="233.4"/>
	</g>
</g>
<g class="st7">
	<g class="st8">
		<circle class="st9" cx="257" cy="326" r="2.9"/>
		<circle class="st9" cx="265.9" cy="326" r="2.9"/>
		<circle class="st9" cx="274.7" cy="326" r="2.9"/>
		<circle class="st9" cx="283.6" cy="326" r="2.9"/>
		<circle class="st9" cx="292.5" cy="326" r="2.9"/>
		<circle class="st9" cx="301.4" cy="326" r="2.9"/>
		<circle class="st9" cx="234.7" cy="333.4" r="2.9"/>
		<circle class="st9" cx="243.6" cy="333.4" r="2.9"/>
		<circle class="st9" cx="252.5" cy="333.4" r="2.9"/>
		<circle class="st9" cx="261.4" cy="333.4" r="2.9"/>
		<circle class="st9" cx="270.3" cy="333.4" r="2.9"/>
		<circle class="st9" cx="279.1" cy="333.4" r="2.9"/>
		<circle class="st9" cx="288" cy="333.4" r="2.9"/>
		<circle class="st9" cx="296.9" cy="333.4" r="2.9"/>
		<circle class="st9" cx="305.8" cy="333.4" r="2.9"/>
		<circle class="st9" cx="314.6" cy="333.4" r="2.9"/>
		<circle class="st9" cx="239.2" cy="341" r="2.9"/>
		<circle class="st9" cx="248.1" cy="341" r="2.9"/>
		<circle class="st9" cx="257" cy="341" r="2.9"/>
		<circle class="st9" cx="265.9" cy="341" r="2.9"/>
		<circle class="st9" cx="274.7" cy="341" r="2.9"/>
		<circle class="st9" cx="283.6" cy="341" r="2.9"/>
		<circle class="st9" cx="292.5" cy="341" r="2.9"/>
		<circle class="st9" cx="301.4" cy="341" r="2.9"/>
		<circle class="st9" cx="310.3" cy="341" r="2.9"/>
		<circle class="st9" cx="319.1" cy="341" r="2.9"/>
		<circle class="st9" cx="328" cy="341" r="2.9"/>
		<circle class="st9" cx="336.9" cy="341" r="2.9"/>
		<circle class="st9" cx="345.8" cy="341" r="2.9"/>
		<circle class="st9" cx="354.6" cy="341" r="2.9"/>
		<circle class="st9" cx="363.5" cy="341" r="2.9"/>
		<circle class="st9" cx="372.4" cy="341" r="2.9"/>
		<circle class="st9" cx="381.3" cy="340.9" r="2.9"/>
		<circle class="st9" cx="261.4" cy="348.5" r="2.9"/>
		<circle class="st9" cx="270.3" cy="348.5" r="2.9"/>
		<circle class="st9" cx="279.1" cy="348.5" r="2.9"/>
		<circle class="st9" cx="288" cy="348.5" r="2.9"/>
		<circle class="st9" cx="296.9" cy="348.5" r="2.9"/>
		<circle class="st9" cx="305.8" cy="348.5" r="2.9"/>
		<circle class="st9" cx="314.6" cy="348.5" r="2.9"/>
		<circle class="st9" cx="323.5" cy="348.5" r="2.9"/>
		<circle class="st9" cx="332.4" cy="348.5" r="2.9"/>
		<circle class="st9" cx="341.3" cy="348.5" r="2.9"/>
		<circle class="st9" cx="350.1" cy="348.5" r="2.9"/>
		<circle class="st9" cx="359" cy="348.5" r="2.9"/>
		<circle class="st9" cx="367.9" cy="348.5" r="2.9"/>
		<circle class="st9" cx="376.8" cy="348.5" r="2.9"/>
		<circle class="st9" cx="385.7" cy="348.5" r="2.9"/>
		<circle class="st9" cx="394.5" cy="348.5" r="2.9"/>
		<circle class="st9" cx="403.4" cy="348.5" r="2.9"/>
		<circle class="st9" cx="412.3" cy="348.5" r="2.9"/>
		<circle class="st9" cx="421.2" cy="348.5" r="2.9"/>
		<circle class="st9" cx="430" cy="348.5" r="2.9"/>
		<circle class="st9" cx="438.9" cy="348.5" r="2.9"/>
		<circle class="st9" cx="447.8" cy="348.5" r="2.9"/>
		<circle class="st9" cx="456.7" cy="348.5" r="2.9"/>
		<circle class="st9" cx="230.4" cy="356.1" r="2.9"/>
		<circle class="st9" cx="239.2" cy="356.1" r="2.9"/>
		<circle class="st9" cx="248.1" cy="356.1" r="2.9"/>
		<circle class="st9" cx="257" cy="356.1" r="2.9"/>
		<circle class="st9" cx="265.9" cy="356.1" r="2.9"/>
		<circle class="st9" cx="274.7" cy="356.1" r="2.9"/>
		<circle class="st9" cx="283.6" cy="356.1" r="2.9"/>
		<circle class="st9" cx="292.5" cy="356.1" r="2.9"/>
		<circle class="st9" cx="301.4" cy="356.1" r="2.9"/>
		<circle class="st9" cx="310.3" cy="356.1" r="2.9"/>
		<circle class="st9" cx="319.1" cy="356.1" r="2.9"/>
		<circle class="st9" cx="328" cy="356.1" r="2.9"/>
		<circle class="st9" cx="336.9" cy="356.1" r="2.9"/>
		<circle class="st9" cx="345.8" cy="356.1" r="2.9"/>
		<circle class="st9" cx="354.6" cy="356.1" r="2.9"/>
		<circle class="st9" cx="363.5" cy="356.1" r="2.9"/>
		<circle class="st9" cx="372.4" cy="356.1" r="2.9"/>
		<circle class="st9" cx="381.3" cy="356.1" r="2.9"/>
		<circle class="st9" cx="390.1" cy="356.1" r="2.9"/>
		<circle class="st9" cx="399" cy="356.1" r="2.9"/>
		<circle class="st9" cx="407.9" cy="356.1" r="2.9"/>
		<circle class="st9" cx="416.8" cy="356.1" r="2.9"/>
		<circle class="st9" cx="425.6" cy="356.1" r="2.9"/>
		<circle class="st9" cx="434.5" cy="356.1" r="2.9"/>
		<circle class="st9" cx="443.4" cy="356.1" r="2.9"/>
		<circle class="st9" cx="452.3" cy="356.1" r="2.9"/>
		<circle class="st9" cx="461.2" cy="356.1" r="2.9"/>
		<circle class="st9" cx="470" cy="356.1" r="2.9"/>
		<circle class="st9" cx="478.9" cy="356.1" r="2.9"/>
		<circle class="st9" cx="487.8" cy="356" r="2.9"/>
		<circle class="st9" cx="243.6" cy="363.6" r="2.9"/>
		<circle class="st9" cx="252.5" cy="363.6" r="2.9"/>
		<circle class="st9" cx="261.4" cy="363.6" r="2.9"/>
		<circle class="st9" cx="270.3" cy="363.6" r="2.9"/>
		<circle class="st9" cx="279.1" cy="363.6" r="2.9"/>
		<circle class="st9" cx="288" cy="363.6" r="2.9"/>
		<circle class="st9" cx="296.9" cy="363.6" r="2.9"/>
		<circle class="st9" cx="305.8" cy="363.6" r="2.9"/>
		<circle class="st9" cx="314.6" cy="363.6" r="2.9"/>
		<circle class="st9" cx="323.5" cy="363.6" r="2.9"/>
		<circle class="st9" cx="332.4" cy="363.6" r="2.9"/>
		<circle class="st9" cx="341.3" cy="363.6" r="2.9"/>
		<circle class="st9" cx="350.1" cy="363.6" r="2.9"/>
		<circle class="st9" cx="359" cy="363.6" r="2.9"/>
		<circle class="st9" cx="367.9" cy="363.6" r="2.9"/>
		<circle class="st9" cx="230.4" cy="371.2" r="2.9"/>
		<circle class="st9" cx="239.2" cy="371.2" r="2.9"/>
		<circle class="st9" cx="248.1" cy="371.2" r="2.9"/>
		<circle class="st9" cx="257" cy="371.2" r="2.9"/>
		<circle class="st9" cx="265.9" cy="371.2" r="2.9"/>
		<circle class="st9" cx="274.7" cy="371.2" r="2.9"/>
		<circle class="st9" cx="283.6" cy="371.2" r="2.9"/>
		<circle class="st9" cx="292.5" cy="371.2" r="2.9"/>
		<circle class="st9" cx="301.4" cy="371.2" r="2.9"/>
		<circle class="st9" cx="310.3" cy="371.2" r="2.9"/>
		<circle class="st9" cx="319.1" cy="371.2" r="2.9"/>
		<circle class="st9" cx="328" cy="371.2" r="2.9"/>
		<circle class="st9" cx="336.9" cy="371.2" r="2.9"/>
		<circle class="st9" cx="345.8" cy="371.2" r="2.9"/>
		<circle class="st9" cx="354.6" cy="371.2" r="2.9"/>
		<circle class="st9" cx="363.5" cy="371.2" r="2.9"/>
		<circle class="st9" cx="372.4" cy="371.2" r="2.9"/>
		<circle class="st9" cx="381.3" cy="371.2" r="2.9"/>
		<circle class="st9" cx="390.1" cy="371.2" r="2.9"/>
		<circle class="st9" cx="399" cy="371.2" r="2.9"/>
		<circle class="st9" cx="407.9" cy="371.2" r="2.9"/>
		<circle class="st9" cx="416.8" cy="371.2" r="2.9"/>
		<circle class="st9" cx="425.7" cy="371.2" r="2.9"/>
		<circle class="st9" cx="434.5" cy="371.2" r="2.9"/>
		<circle class="st9" cx="443.4" cy="371.2" r="2.9"/>
		<circle class="st9" cx="452.3" cy="371.2" r="2.9"/>
		<circle class="st9" cx="461.2" cy="371.2" r="2.9"/>
		<circle class="st9" cx="470" cy="371.2" r="2.9"/>
		<circle class="st9" cx="478.9" cy="371.2" r="2.9"/>
		<circle class="st9" cx="487.8" cy="371.2" r="2.9"/>
		<circle class="st9" cx="279.1" cy="378.8" r="2.9"/>
		<circle class="st9" cx="288" cy="378.8" r="2.9"/>
		<circle class="st9" cx="296.9" cy="378.8" r="2.9"/>
		<circle class="st9" cx="305.8" cy="378.8" r="2.9"/>
		<circle class="st9" cx="314.6" cy="378.8" r="2.9"/>
		<circle class="st9" cx="323.5" cy="378.8" r="2.9"/>
		<circle class="st9" cx="332.4" cy="378.8" r="2.9"/>
		<circle class="st9" cx="341.3" cy="378.8" r="2.9"/>
		<circle class="st9" cx="350.2" cy="378.7" r="2.9"/>
		<circle class="st9" cx="359" cy="378.7" r="2.9"/>
		<circle class="st9" cx="367.9" cy="378.7" r="2.9"/>
		<circle class="st9" cx="376.8" cy="378.7" r="2.9"/>
		<circle class="st9" cx="385.7" cy="378.7" r="2.9"/>
		<circle class="st9" cx="394.5" cy="378.7" r="2.9"/>
		<circle class="st9" cx="403.4" cy="378.7" r="2.9"/>
		<circle class="st9" cx="412.3" cy="378.7" r="2.9"/>
		<circle class="st9" cx="421.2" cy="378.7" r="2.9"/>
		<circle class="st9" cx="430" cy="378.7" r="2.9"/>
		<circle class="st9" cx="438.9" cy="378.7" r="2.9"/>
		<circle class="st9" cx="447.8" cy="378.7" r="2.9"/>
		<circle class="st9" cx="456.7" cy="378.7" r="2.9"/>
		<circle class="st9" cx="465.5" cy="378.7" r="2.9"/>
		<circle class="st9" cx="474.4" cy="378.7" r="2.9"/>
		<circle class="st9" cx="483.3" cy="378.7" r="2.9"/>
		<circle class="st9" cx="492.2" cy="378.7" r="2.9"/>
	</g>
	<g class="st8">
		<circle class="st9" cx="496.2" cy="356.1" r="2.9"/>
		<circle class="st9" cx="505.1" cy="356.1" r="2.9"/>
		
			<ellipse transform="matrix(0.1602 -0.9871 0.9871 0.1602 80.0807 806.3235)" class="st9" cx="513.9" cy="356.1" rx="2.9" ry="2.9"/>
		<circle class="st9" cx="522.8" cy="356.1" r="2.9"/>
		<circle class="st9" cx="496.2" cy="371.2" r="2.9"/>
		<circle class="st9" cx="500.6" cy="378.8" r="2.9"/>
		<circle class="st9" cx="509.4" cy="378.8" r="2.9"/>
		<circle class="st9" cx="518.3" cy="378.8" r="2.9"/>
	</g>
</g>
<g class="st7">
	<g class="st8">
		<circle class="st9" cx="712.8" cy="49.9" r="2.9"/>
		<circle class="st9" cx="703.9" cy="49.9" r="2.9"/>
		<circle class="st9" cx="695.1" cy="49.9" r="2.9"/>
		<circle class="st9" cx="686.2" cy="49.9" r="2.9"/>
		<circle class="st9" cx="677.3" cy="49.9" r="2.9"/>
		<circle class="st9" cx="668.4" cy="49.9" r="2.9"/>
		<circle class="st9" cx="659.5" cy="49.9" r="2.9"/>
		<circle class="st9" cx="712.8" cy="35.4" r="2.9"/>
		<circle class="st9" cx="703.9" cy="35.4" r="2.9"/>
		<circle class="st9" cx="695.1" cy="35.4" r="2.9"/>
		<circle class="st9" cx="686.2" cy="35.4" r="2.9"/>
		<circle class="st9" cx="677.3" cy="35.4" r="2.9"/>
		<circle class="st9" cx="668.4" cy="35.4" r="2.9"/>
		<circle class="st9" cx="659.5" cy="35.4" r="2.9"/>
		<circle class="st9" cx="708.3" cy="42.4" r="2.9"/>
		<circle class="st9" cx="699.4" cy="42.4" r="2.9"/>
		<circle class="st9" cx="690.6" cy="42.4" r="2.9"/>
		<circle class="st9" cx="681.7" cy="42.4" r="2.9"/>
		<circle class="st9" cx="672.8" cy="42.4" r="2.9"/>
		<circle class="st9" cx="663.9" cy="42.4" r="2.9"/>
		<circle class="st9" cx="655.1" cy="42.4" r="2.9"/>
		<circle class="st9" cx="646.2" cy="42.4" r="2.9"/>
		<circle class="st9" cx="637.3" cy="42.4" r="2.9"/>
		<circle class="st9" cx="699.4" cy="27.3" r="2.9"/>
		<circle class="st9" cx="690.6" cy="27.3" r="2.9"/>
		<circle class="st9" cx="681.7" cy="27.3" r="2.9"/>
		<circle class="st9" cx="672.8" cy="27.3" r="2.9"/>
		<circle class="st9" cx="663.9" cy="27.3" r="2.9"/>
		<circle class="st9" cx="655.1" cy="27.3" r="2.9"/>
		<circle class="st9" cx="646.2" cy="27.3" r="2.9"/>
		<circle class="st9" cx="637.3" cy="27.3" r="2.9"/>
		<circle class="st9" cx="628.4" cy="27.3" r="2.9"/>
		<circle class="st9" cx="721.7" cy="19.7" r="2.9"/>
		<circle class="st9" cx="712.8" cy="19.7" r="2.9"/>
		<circle class="st9" cx="703.9" cy="19.7" r="2.9"/>
		<circle class="st9" cx="695.1" cy="19.7" r="2.9"/>
		<circle class="st9" cx="686.2" cy="19.7" r="2.9"/>
		<circle class="st9" cx="677.3" cy="19.7" r="2.9"/>
		<circle class="st9" cx="668.4" cy="19.7" r="2.9"/>
		<circle class="st9" cx="659.5" cy="19.7" r="2.9"/>
		<circle class="st9" cx="650.7" cy="19.7" r="2.9"/>
		<circle class="st9" cx="650.7" cy="35.4" r="2.9"/>
		<circle class="st9" cx="743.8" cy="12.1" r="2.9"/>
		<circle class="st9" cx="734.9" cy="12.1" r="2.9"/>
		<circle class="st9" cx="726.1" cy="12.1" r="2.9"/>
		<circle class="st9" cx="717.2" cy="12.1" r="2.9"/>
		<circle class="st9" cx="708.3" cy="12.1" r="2.9"/>
		<circle class="st9" cx="699.4" cy="12.1" r="2.9"/>
		<circle class="st9" cx="690.6" cy="12.1" r="2.9"/>
		<circle class="st9" cx="681.7" cy="12.1" r="2.9"/>
		<circle class="st9" cx="672.8" cy="12.1" r="2.9"/>
		<circle class="st9" cx="663.9" cy="12.1" r="2.9"/>
		<circle class="st9" cx="655.1" cy="12.1" r="2.9"/>
		<circle class="st9" cx="646.2" cy="12.1" r="2.9"/>
		<circle class="st9" cx="637.3" cy="12.1" r="2.9"/>
		<circle class="st9" cx="628.4" cy="12.1" r="2.9"/>
		<circle class="st9" cx="739.4" cy="4.6" r="2.9"/>
		<circle class="st9" cx="730.6" cy="4.6" r="2.9"/>
		<circle class="st9" cx="721.7" cy="4.6" r="2.9"/>
		<circle class="st9" cx="712.8" cy="4.6" r="2.9"/>
		<circle class="st9" cx="703.9" cy="4.6" r="2.9"/>
		<circle class="st9" cx="695.1" cy="4.6" r="2.9"/>
	</g>
	<g class="st8">
		<circle class="st9" cx="641.8" cy="35.4" r="2.9"/>
		<circle class="st9" cx="632.9" cy="35.4" r="2.9"/>
		<circle class="st9" cx="624" cy="35.4" r="2.9"/>
		<circle class="st9" cx="620" cy="12.1" r="2.9"/>
		<circle class="st9" cx="611.2" cy="12.1" r="2.9"/>
	</g>
</g>
<rect x="-12.1" y="-9" class="st10" width="1010.6" height="408"/>
<g>
	<g class="st11">
		<path class="st4" d="M220,101h22.2v49.6h28.5v16.9H220V101z"/>
	</g>
	<g class="st11">
		<path class="st5" d="M220,101h22.2v49.6h28.5v16.9H220V101z"/>
	</g>
	<g class="st11">
		<path class="st4" d="M278.4,101h22.2v66.6h-22.2V101z"/>
	</g>
	<g class="st11">
		<path class="st5" d="M278.4,101h22.2v66.6h-22.2V101z"/>
	</g>
	<g class="st11">
		<path class="st4" d="M307.7,101h18.7l21.9,30.7V101h22.2v66.6h-18.9L329.9,137v30.6h-22.2V101z"/>
		<path class="st4" d="M393.8,165.5c-4.9-2.1-8.7-5.1-11.4-9.2c-2.8-4.1-4.1-9-4.1-14.7V101h22.2v38c0,7.2,3.4,10.7,10.1,10.7    c6.8,0,10.1-3.6,10.1-10.7v-38H443v40.6c0,5.7-1.4,10.6-4.1,14.7c-2.8,4.1-6.6,7.1-11.4,9.2c-4.9,2.1-10.5,3.1-16.8,3.1    C404.3,168.6,398.7,167.6,393.8,165.5z"/>
		<path class="st4" d="M471.2,133.9L447.5,101h23.1l12.2,17.5l12.3-17.5h23.1l-23.7,32.9l24.6,33.7h-23.5l-12.9-18.1L470,167.6    h-23.5L471.2,133.9z"/>
	</g>
	<g class="st11">
		<path class="st5" d="M307.7,101h18.7l21.9,30.7V101h22.2v66.6h-18.9L329.9,137v30.6h-22.2V101z"/>
		<path class="st5" d="M393.8,165.5c-4.9-2.1-8.7-5.1-11.4-9.2c-2.8-4.1-4.1-9-4.1-14.7V101h22.2v38c0,7.2,3.4,10.7,10.1,10.7    c6.8,0,10.1-3.6,10.1-10.7v-38H443v40.6c0,5.7-1.4,10.6-4.1,14.7c-2.8,4.1-6.6,7.1-11.4,9.2c-4.9,2.1-10.5,3.1-16.8,3.1    C404.3,168.6,398.7,167.6,393.8,165.5z"/>
		<path class="st5" d="M471.2,133.9L447.5,101h23.1l12.2,17.5l12.3-17.5h23.1l-23.7,32.9l24.6,33.7h-23.5l-12.9-18.1L470,167.6    h-23.5L471.2,133.9z"/>
	</g>
	<g class="st11">
		<path class="st4" d="M588,101h23.3l25.6,66.6h-23.1l-5.2-13.2h-17.9l-5.1,13.2h-23.1L588,101z M605.8,138.8l-6.3-16.1l-6.2,16.1    H605.8z"/>
	</g>
	<g class="st11">
		<path class="st5" d="M588,101h23.3l25.6,66.6h-23.1l-5.2-13.2h-17.9l-5.1,13.2h-23.1L588,101z M605.8,138.8l-6.3-16.1l-6.2,16.1    H605.8z"/>
	</g>
	<g class="st11">
		<path class="st4" d="M641.7,101h35.9c5.4,0,9.9,1.1,13.6,3.4c3.7,2.2,6.4,5.3,8.3,9c1.8,3.8,2.7,8.1,2.7,12.8s-1,9-3.1,12.8    c-2.1,3.8-5,6.8-8.8,8.9c-3.8,2.2-8.2,3.3-13.1,3.3h-13.2v16.3h-22.2V101z M672,134c2.4,0,4.3-0.7,5.6-2.1c1.3-1.4,2-3.3,2-5.7    c0-2.5-0.6-4.5-1.8-5.9c-1.2-1.4-3-2.1-5.4-2.1h-8.5V134H672z"/>
	</g>
	<g class="st11">
		<path class="st5" d="M641.7,101h35.9c5.4,0,9.9,1.1,13.6,3.4c3.7,2.2,6.4,5.3,8.3,9c1.8,3.8,2.7,8.1,2.7,12.8s-1,9-3.1,12.8    c-2.1,3.8-5,6.8-8.8,8.9c-3.8,2.2-8.2,3.3-13.1,3.3h-13.2v16.3h-22.2V101z M672,134c2.4,0,4.3-0.7,5.6-2.1c1.3-1.4,2-3.3,2-5.7    c0-2.5-0.6-4.5-1.8-5.9c-1.2-1.4-3-2.1-5.4-2.1h-8.5V134H672z"/>
	</g>
	<g class="st11">
		<path class="st4" d="M706,101h35.9c5.4,0,9.9,1.1,13.6,3.4c3.7,2.2,6.4,5.3,8.3,9c1.8,3.8,2.7,8.1,2.7,12.8s-1,9-3.1,12.8    s-5,6.8-8.8,8.9c-3.8,2.2-8.2,3.3-13.1,3.3h-13.2v16.3H706V101z M736.3,134c2.4,0,4.3-0.7,5.6-2.1c1.3-1.4,2-3.3,2-5.7    c0-2.5-0.6-4.5-1.8-5.9c-1.2-1.4-3-2.1-5.4-2.1h-8.5V134H736.3z"/>
	</g>
	<g class="st11">
		<path class="st5" d="M706,101h35.9c5.4,0,9.9,1.1,13.6,3.4c3.7,2.2,6.4,5.3,8.3,9c1.8,3.8,2.7,8.1,2.7,12.8s-1,9-3.1,12.8    s-5,6.8-8.8,8.9c-3.8,2.2-8.2,3.3-13.1,3.3h-13.2v16.3H706V101z M736.3,134c2.4,0,4.3-0.7,5.6-2.1c1.3-1.4,2-3.3,2-5.7    c0-2.5-0.6-4.5-1.8-5.9c-1.2-1.4-3-2.1-5.4-2.1h-8.5V134H736.3z"/>
	</g>
	<g class="st11">
		<path class="st4" d="M314.9,264c-4.2-0.8-7.7-1.8-10.6-3.2v-17.4c3.2,1.5,6.8,2.8,10.7,3.7c3.9,1,7.5,1.4,10.6,1.4    c2.9,0,5-0.3,6.5-0.9c1.4-0.6,2.1-1.6,2.1-3c0-1.3-0.7-2.3-2-3c-1.3-0.7-3.8-1.7-7.3-2.8c-1-0.3-2.3-0.7-3.9-1.2    c-4.5-1.5-8-3.2-10.4-4.9c-2.5-1.8-4.3-3.9-5.4-6.4c-1.1-2.5-1.7-5.6-1.7-9.3c0-13.6,9.5-20.5,28.4-20.5c3.4,0,7.1,0.3,11.2,0.9    c4.1,0.6,7.5,1.3,10.2,2.2v17.5c-6.4-2.5-12.3-3.8-17.7-3.8c-3,0-5.3,0.2-7,0.7c-1.7,0.5-2.5,1.4-2.5,2.8c0,0.9,0.4,1.6,1.1,2.2    c0.7,0.6,1.8,1,3.1,1.4c1.3,0.4,3.7,1.1,7.1,2c5.3,1.4,9.4,3.2,12.2,5.3c2.8,2.1,4.8,4.4,5.8,7.1c1,2.7,1.5,6,1.5,9.8    c0,6.3-2.5,11.4-7.4,15c-4.9,3.7-12.1,5.5-21.5,5.5C323.5,265.1,319.1,264.7,314.9,264z"/>
	</g>
	<g class="st11">
		<path class="st5" d="M314.9,264c-4.2-0.8-7.7-1.8-10.6-3.2v-17.4c3.2,1.5,6.8,2.8,10.7,3.7c3.9,1,7.5,1.4,10.6,1.4    c2.9,0,5-0.3,6.5-0.9c1.4-0.6,2.1-1.6,2.1-3c0-1.3-0.7-2.3-2-3c-1.3-0.7-3.8-1.7-7.3-2.8c-1-0.3-2.3-0.7-3.9-1.2    c-4.5-1.5-8-3.2-10.4-4.9c-2.5-1.8-4.3-3.9-5.4-6.4c-1.1-2.5-1.7-5.6-1.7-9.3c0-13.6,9.5-20.5,28.4-20.5c3.4,0,7.1,0.3,11.2,0.9    c4.1,0.6,7.5,1.3,10.2,2.2v17.5c-6.4-2.5-12.3-3.8-17.7-3.8c-3,0-5.3,0.2-7,0.7c-1.7,0.5-2.5,1.4-2.5,2.8c0,0.9,0.4,1.6,1.1,2.2    c0.7,0.6,1.8,1,3.1,1.4c1.3,0.4,3.7,1.1,7.1,2c5.3,1.4,9.4,3.2,12.2,5.3c2.8,2.1,4.8,4.4,5.8,7.1c1,2.7,1.5,6,1.5,9.8    c0,6.3-2.5,11.4-7.4,15c-4.9,3.7-12.1,5.5-21.5,5.5C323.5,265.1,319.1,264.7,314.9,264z"/>
	</g>
	<g class="st11">
		<path class="st4" d="M378.3,262c-4.9-2.1-8.7-5.1-11.4-9.2c-2.8-4.1-4.1-9-4.1-14.7v-40.6H385v38c0,7.2,3.4,10.7,10.1,10.7    c6.8,0,10.1-3.6,10.1-10.7v-38h22.2v40.6c0,5.7-1.4,10.6-4.1,14.7c-2.8,4.1-6.6,7.1-11.4,9.2c-4.9,2.1-10.5,3.1-16.8,3.1    C388.8,265.1,383.2,264.1,378.3,262z"/>
	</g>
	<g class="st11">
		<path class="st5" d="M378.3,262c-4.9-2.1-8.7-5.1-11.4-9.2c-2.8-4.1-4.1-9-4.1-14.7v-40.6H385v38c0,7.2,3.4,10.7,10.1,10.7    c6.8,0,10.1-3.6,10.1-10.7v-38h22.2v40.6c0,5.7-1.4,10.6-4.1,14.7c-2.8,4.1-6.6,7.1-11.4,9.2c-4.9,2.1-10.5,3.1-16.8,3.1    C388.8,265.1,383.2,264.1,378.3,262z"/>
	</g>
	<g class="st11">
		<path class="st4" d="M434.6,197.5h21.3l15.1,30.7l14.9-30.7h21.3v66.6h-22.2v-28.3l-8.3,16.9h-11.6l-8.3-16.9v28.3h-22.2V197.5z"/>
	</g>
	<g class="st11">
		<path class="st5" d="M434.6,197.5h21.3l15.1,30.7l14.9-30.7h21.3v66.6h-22.2v-28.3l-8.3,16.9h-11.6l-8.3-16.9v28.3h-22.2V197.5z"/>
	</g>
	<g class="st11">
		<path class="st4" d="M514.4,197.5h21.3l15.1,30.7l14.9-30.7h21.3v66.6h-22.2v-28.3l-8.3,16.9h-11.6l-8.3-16.9v28.3h-22.2V197.5z"/>
	</g>
	<g class="st11">
		<path class="st5" d="M514.4,197.5h21.3l15.1,30.7l14.9-30.7h21.3v66.6h-22.2v-28.3l-8.3,16.9h-11.6l-8.3-16.9v28.3h-22.2V197.5z"/>
	</g>
	<g class="st11">
		<path class="st4" d="M594.6,197.5h22.2v66.6h-22.2V197.5z"/>
	</g>
	<g class="st11">
		<path class="st5" d="M594.6,197.5h22.2v66.6h-22.2V197.5z"/>
	</g>
	<g class="st11">
		<path class="st4" d="M640.6,213.8h-17.8v-16.2h57.9v16.2h-17.9v50.3h-22.2V213.8z"/>
	</g>
	<g class="st11">
		<path class="st5" d="M640.6,213.8h-17.8v-16.2h57.9v16.2h-17.9v50.3h-22.2V213.8z"/>
	</g>
</g>
<g class="st11">
	<path class="st12" d="M320.4,310.7l-0.9-3.1h-4.7l-0.9,3.1H311l4.5-12.9h3.3l4.6,12.9H320.4z M318.9,305.3   c-0.9-2.8-1.3-4.3-1.5-4.7s-0.2-0.7-0.2-0.9c-0.2,0.8-0.7,2.6-1.7,5.6H318.9z"/>
	<path class="st12" d="M330.2,310.8c-1.2,0-2.1-0.4-2.7-1.3h-0.1c0.1,0.8,0.1,1.3,0.1,1.4v4h-2.7v-14.2h2.2l0.4,1.3h0.1   c0.6-1,1.6-1.5,2.8-1.5c1.2,0,2.1,0.4,2.7,1.3s1,2.1,1,3.7c0,1-0.2,2-0.5,2.7s-0.7,1.4-1.3,1.8S331,310.8,330.2,310.8z    M329.4,302.8c-0.7,0-1.1,0.2-1.5,0.6c-0.3,0.4-0.5,1.1-0.5,2v0.3c0,1.1,0.2,1.8,0.5,2.3s0.8,0.7,1.5,0.7c1.2,0,1.8-1,1.8-3   c0-1-0.1-1.7-0.4-2.2C330.5,303,330,302.8,329.4,302.8z"/>
	<path class="st12" d="M341.7,300.7c0.4,0,0.7,0,0.9,0.1l-0.2,2.5c-0.2-0.1-0.5-0.1-0.8-0.1c-0.9,0-1.5,0.2-2,0.7s-0.7,1.1-0.7,1.8   v5h-2.7v-9.8h2l0.4,1.7h0.1c0.3-0.6,0.7-1,1.2-1.3C340.5,300.8,341.1,300.7,341.7,300.7z"/>
	<path class="st12" d="M344.2,298.3c0-0.9,0.5-1.3,1.5-1.3s1.5,0.4,1.5,1.3c0,0.4-0.1,0.7-0.4,1s-0.6,0.3-1.1,0.3   C344.7,299.6,344.2,299.2,344.2,298.3z M347,310.7h-2.7v-9.8h2.7V310.7z"/>
	<path class="st12" d="M352.5,310.7h-2.7V297h2.7V310.7z"/>
	<path class="st12" d="M368.3,310.7h-9v-1.9l3.2-3.3c1-1,1.6-1.7,1.9-2c0.3-0.4,0.5-0.7,0.6-1s0.2-0.7,0.2-1c0-0.5-0.1-0.9-0.4-1.2   s-0.7-0.4-1.1-0.4c-0.5,0-1,0.1-1.5,0.3s-1,0.6-1.5,1l-1.5-1.7c0.6-0.5,1.2-0.9,1.6-1.1s0.9-0.4,1.4-0.5s1-0.2,1.7-0.2   c0.8,0,1.5,0.1,2.1,0.4s1.1,0.7,1.4,1.2s0.5,1.1,0.5,1.8c0,0.6-0.1,1.1-0.3,1.7c-0.2,0.5-0.5,1.1-1,1.6s-1.2,1.3-2.3,2.3l-1.7,1.6   v0.1h5.6V310.7z"/>
	<path class="st12" d="M376.3,310.7h-2.7v-7.4l0-1.2l0-1.3c-0.5,0.5-0.8,0.7-0.9,0.9l-1.5,1.2l-1.3-1.6l4.1-3.3h2.2V310.7z"/>
	<path class="st12" d="M379.9,306.8v-2h7.6v2H379.9z"/>
	<path class="st12" d="M397.9,310.7h-9v-1.9l3.2-3.3c1-1,1.6-1.7,1.9-2c0.3-0.4,0.5-0.7,0.6-1s0.2-0.7,0.2-1c0-0.5-0.1-0.9-0.4-1.2   s-0.7-0.4-1.1-0.4c-0.5,0-1,0.1-1.5,0.3s-1,0.6-1.5,1l-1.5-1.7c0.6-0.5,1.2-0.9,1.6-1.1s0.9-0.4,1.4-0.5s1-0.2,1.7-0.2   c0.8,0,1.5,0.1,2.1,0.4s1.1,0.7,1.4,1.2s0.5,1.1,0.5,1.8c0,0.6-0.1,1.1-0.3,1.7c-0.2,0.5-0.5,1.1-1,1.6s-1.2,1.3-2.3,2.3l-1.7,1.6   v0.1h5.6V310.7z"/>
	<path class="st12" d="M407.6,300.7c0,0.8-0.2,1.5-0.7,2s-1.2,0.9-2,1.2v0.1c1,0.1,1.8,0.4,2.4,0.9c0.5,0.5,0.8,1.2,0.8,2   c0,1.2-0.4,2.2-1.3,2.9c-0.9,0.7-2.2,1-3.8,1c-1.4,0-2.6-0.2-3.7-0.7v-2.3c0.5,0.3,1,0.5,1.6,0.6s1.2,0.2,1.8,0.2   c0.9,0,1.6-0.2,2-0.5s0.6-0.8,0.6-1.5c0-0.6-0.2-1-0.7-1.3s-1.3-0.4-2.4-0.4h-1V303h1c1,0,1.7-0.1,2.2-0.4s0.7-0.7,0.7-1.3   c0-1-0.6-1.5-1.8-1.5c-0.4,0-0.9,0.1-1.3,0.2s-0.9,0.4-1.5,0.7l-1.3-1.9c1.2-0.8,2.6-1.3,4.2-1.3c1.3,0,2.4,0.3,3.2,0.8   S407.6,299.7,407.6,300.7z"/>
	<path class="st12" d="M412.7,308.8c-0.3,1.2-0.8,2.6-1.5,4.2h-1.9c0.4-1.6,0.7-3,0.9-4.4h2.5L412.7,308.8z"/>
	<path class="st12" d="M428.3,310.7h-9v-1.9l3.2-3.3c1-1,1.6-1.7,1.9-2c0.3-0.4,0.5-0.7,0.6-1s0.2-0.7,0.2-1c0-0.5-0.1-0.9-0.4-1.2   s-0.7-0.4-1.1-0.4c-0.5,0-1,0.1-1.5,0.3s-1,0.6-1.5,1l-1.5-1.7c0.6-0.5,1.2-0.9,1.6-1.1s0.9-0.4,1.4-0.5s1-0.2,1.7-0.2   c0.8,0,1.5,0.1,2.1,0.4s1.1,0.7,1.4,1.2s0.5,1.1,0.5,1.8c0,0.6-0.1,1.1-0.3,1.7c-0.2,0.5-0.5,1.1-1,1.6s-1.2,1.3-2.3,2.3l-1.7,1.6   v0.1h5.6V310.7z"/>
	<path class="st12" d="M438.5,304.2c0,2.2-0.4,3.9-1.1,5s-1.9,1.6-3.4,1.6c-1.5,0-2.6-0.6-3.4-1.7s-1.1-2.8-1.1-4.9   c0-2.3,0.4-3.9,1.1-5c0.7-1.1,1.9-1.6,3.4-1.6c1.5,0,2.6,0.6,3.4,1.7S438.5,302.1,438.5,304.2z M432.2,304.2c0,1.6,0.1,2.7,0.4,3.4   c0.3,0.7,0.7,1,1.4,1c0.6,0,1.1-0.3,1.4-1s0.4-1.8,0.4-3.4c0-1.6-0.1-2.7-0.4-3.4c-0.3-0.7-0.7-1-1.4-1c-0.6,0-1.1,0.3-1.4,1   C432.4,301.5,432.2,302.7,432.2,304.2z"/>
	<path class="st12" d="M448.9,310.7h-9v-1.9l3.2-3.3c1-1,1.6-1.7,1.9-2c0.3-0.4,0.5-0.7,0.6-1s0.2-0.7,0.2-1c0-0.5-0.1-0.9-0.4-1.2   s-0.7-0.4-1.1-0.4c-0.5,0-1,0.1-1.5,0.3s-1,0.6-1.5,1l-1.5-1.7c0.6-0.5,1.2-0.9,1.6-1.1s0.9-0.4,1.4-0.5s1-0.2,1.7-0.2   c0.8,0,1.5,0.1,2.1,0.4s1.1,0.7,1.4,1.2s0.5,1.1,0.5,1.8c0,0.6-0.1,1.1-0.3,1.7c-0.2,0.5-0.5,1.1-1,1.6s-1.2,1.3-2.3,2.3l-1.7,1.6   v0.1h5.6V310.7z"/>
	<path class="st12" d="M458.6,300.7c0,0.8-0.2,1.5-0.7,2s-1.2,0.9-2,1.2v0.1c1,0.1,1.8,0.4,2.4,0.9c0.5,0.5,0.8,1.2,0.8,2   c0,1.2-0.4,2.2-1.3,2.9c-0.9,0.7-2.2,1-3.8,1c-1.4,0-2.6-0.2-3.7-0.7v-2.3c0.5,0.3,1,0.5,1.6,0.6s1.2,0.2,1.8,0.2   c0.9,0,1.6-0.2,2-0.5s0.6-0.8,0.6-1.5c0-0.6-0.2-1-0.7-1.3s-1.3-0.4-2.4-0.4h-1V303h1c1,0,1.7-0.1,2.2-0.4s0.7-0.7,0.7-1.3   c0-1-0.6-1.5-1.8-1.5c-0.4,0-0.9,0.1-1.3,0.2s-0.9,0.4-1.5,0.7l-1.3-1.9c1.2-0.8,2.6-1.3,4.2-1.3c1.3,0,2.4,0.3,3.2,0.8   S458.6,299.7,458.6,300.7z"/>
	<path class="st13" d="M473.1,297.1h1.9v17.7h-1.9V297.1z"/>
	<path class="st12" d="M489.9,297.8h4c1.8,0,3.1,0.3,4,0.8c0.8,0.5,1.2,1.3,1.2,2.5c0,0.8-0.2,1.4-0.5,1.9s-0.8,0.8-1.4,0.9v0.1   c0.8,0.2,1.4,0.5,1.8,1s0.5,1.2,0.5,2c0,1.2-0.4,2.1-1.3,2.7s-2,1-3.4,1h-4.8V297.8z M492.7,302.9h1.6c0.7,0,1.3-0.1,1.6-0.3   s0.5-0.6,0.5-1.1c0-0.5-0.2-0.8-0.5-1.1c-0.4-0.2-0.9-0.3-1.7-0.3h-1.4V302.9z M492.7,305.1v3.3h1.8c0.8,0,1.3-0.1,1.7-0.4   s0.5-0.7,0.5-1.3c0-1.1-0.8-1.6-2.3-1.6H492.7z"/>
	<path class="st12" d="M507.3,300.7c0.4,0,0.7,0,0.9,0.1l-0.2,2.5c-0.2-0.1-0.5-0.1-0.8-0.1c-0.9,0-1.5,0.2-2,0.7s-0.7,1.1-0.7,1.8   v5h-2.7v-9.8h2l0.4,1.7h0.1c0.3-0.6,0.7-1,1.2-1.3C506.1,300.8,506.7,300.7,507.3,300.7z"/>
	<path class="st12" d="M519.1,310.7h-2.7v-5.7c0-0.7-0.1-1.2-0.4-1.6s-0.7-0.5-1.2-0.5c-0.8,0-1.3,0.3-1.6,0.8   c-0.3,0.5-0.5,1.3-0.5,2.5v4.6H510v-9.8h2l0.4,1.3h0.1c0.3-0.5,0.7-0.8,1.2-1.1c0.5-0.2,1.1-0.4,1.8-0.4c1.1,0,2,0.3,2.6,0.9   c0.6,0.6,0.9,1.5,0.9,2.7V310.7z"/>
	<path class="st12" d="M530.8,305.7c0,1.6-0.4,2.9-1.3,3.8s-2,1.4-3.5,1.4c-0.9,0-1.8-0.2-2.5-0.6c-0.7-0.4-1.3-1-1.7-1.8   s-0.6-1.7-0.6-2.7c0-1.6,0.4-2.9,1.3-3.7s2-1.3,3.5-1.3c0.9,0,1.8,0.2,2.5,0.6s1.3,1,1.7,1.8S530.8,304.7,530.8,305.7z M524,305.7   c0,1,0.2,1.7,0.5,2.2s0.8,0.7,1.6,0.7c0.7,0,1.2-0.2,1.5-0.7c0.3-0.5,0.5-1.2,0.5-2.2c0-1-0.2-1.7-0.5-2.2s-0.8-0.7-1.6-0.7   c-0.7,0-1.2,0.2-1.5,0.7C524.1,304,524,304.8,524,305.7z"/>
	<path class="st12" d="M535.6,308.8c-0.3,1.2-0.8,2.6-1.5,4.2h-1.9c0.4-1.6,0.7-3,0.9-4.4h2.5L535.6,308.8z"/>
	<path class="st12" d="M548.5,299.9c-1,0-1.8,0.4-2.4,1.2c-0.6,0.8-0.8,1.8-0.8,3.2c0,2.9,1.1,4.3,3.2,4.3c0.9,0,2-0.2,3.3-0.7v2.3   c-1.1,0.4-2.2,0.7-3.5,0.7c-1.9,0-3.3-0.6-4.3-1.7c-1-1.1-1.5-2.8-1.5-4.9c0-1.3,0.2-2.5,0.7-3.5s1.2-1.8,2.1-2.3   c0.9-0.5,2-0.8,3.2-0.8c1.2,0,2.5,0.3,3.8,0.9l-0.9,2.2c-0.5-0.2-1-0.4-1.5-0.6S549,299.9,548.5,299.9z"/>
	<path class="st12" d="M561.2,310.7h-7.8v-1.6l4.6-6.2h-4.3v-2h7.3v1.7l-4.4,6h4.6V310.7z"/>
	<path class="st12" d="M567.6,310.8c-1.6,0-2.8-0.4-3.7-1.3s-1.3-2.1-1.3-3.7c0-1.6,0.4-2.9,1.2-3.8c0.8-0.9,2-1.3,3.4-1.3   c1.4,0,2.5,0.4,3.2,1.2s1.2,1.9,1.2,3.3v1.3h-6.3c0,0.8,0.3,1.4,0.7,1.8s1,0.6,1.8,0.6c0.6,0,1.2-0.1,1.7-0.2s1.1-0.3,1.7-0.6v2.1   c-0.5,0.2-1,0.4-1.5,0.5C569,310.8,568.3,310.8,567.6,310.8z M567.2,302.6c-0.6,0-1,0.2-1.3,0.5c-0.3,0.4-0.5,0.9-0.6,1.5h3.8   c0-0.7-0.2-1.2-0.5-1.5C568.2,302.8,567.8,302.6,567.2,302.6z"/>
	<path class="st12" d="M577.7,310.8c-3.1,0-4.6-1.7-4.6-5c0-1.7,0.4-2.9,1.2-3.8s2-1.3,3.6-1.3c1.1,0,2.2,0.2,3.1,0.7l-0.8,2.1   c-0.4-0.2-0.8-0.3-1.2-0.4s-0.7-0.2-1.1-0.2c-1.4,0-2.1,1-2.1,3c0,1.9,0.7,2.9,2.1,2.9c0.5,0,1-0.1,1.4-0.2s0.9-0.4,1.3-0.6v2.3   c-0.4,0.3-0.9,0.5-1.3,0.6S578.4,310.8,577.7,310.8z"/>
	<path class="st12" d="M592.1,310.7h-2.7v-5.7c0-1.4-0.5-2.1-1.6-2.1c-0.8,0-1.3,0.3-1.6,0.8s-0.5,1.3-0.5,2.5v4.6H583V297h2.7v2.8   c0,0.2,0,0.7-0.1,1.5l-0.1,0.8h0.1c0.6-1,1.5-1.4,2.8-1.4c1.2,0,2,0.3,2.6,0.9s0.9,1.5,0.9,2.7V310.7z"/>
	<path class="st12" d="M602.4,305.7v4.9h-2.7v-12.8h3.7c1.7,0,3,0.3,3.9,1c0.8,0.6,1.3,1.6,1.3,2.9c0,0.8-0.2,1.4-0.6,2   c-0.4,0.6-1,1-1.8,1.4c1.9,2.9,3.2,4.8,3.8,5.6h-3l-3.1-4.9H602.4z M602.4,303.5h0.9c0.9,0,1.5-0.1,1.9-0.4s0.6-0.7,0.6-1.4   c0-0.6-0.2-1-0.6-1.3s-1.1-0.4-1.9-0.4h-0.8V303.5z"/>
	<path class="st12" d="M615.8,310.8c-1.6,0-2.8-0.4-3.7-1.3s-1.3-2.1-1.3-3.7c0-1.6,0.4-2.9,1.2-3.8c0.8-0.9,2-1.3,3.4-1.3   c1.4,0,2.5,0.4,3.2,1.2s1.2,1.9,1.2,3.3v1.3h-6.3c0,0.8,0.3,1.4,0.7,1.8s1,0.6,1.8,0.6c0.6,0,1.2-0.1,1.7-0.2s1.1-0.3,1.7-0.6v2.1   c-0.5,0.2-1,0.4-1.5,0.5C617.3,310.8,616.6,310.8,615.8,310.8z M615.5,302.6c-0.6,0-1,0.2-1.3,0.5c-0.3,0.4-0.5,0.9-0.6,1.5h3.8   c0-0.7-0.2-1.2-0.5-1.5C616.5,302.8,616,302.6,615.5,302.6z"/>
	<path class="st12" d="M627.4,310.8c-1.2,0-2.1-0.4-2.7-1.3h-0.1c0.1,0.8,0.1,1.3,0.1,1.4v4H622v-14.2h2.2l0.4,1.3h0.1   c0.6-1,1.6-1.5,2.8-1.5c1.2,0,2.1,0.4,2.7,1.3s1,2.1,1,3.7c0,1-0.2,2-0.5,2.7s-0.7,1.4-1.3,1.8S628.2,310.8,627.4,310.8z    M626.6,302.8c-0.7,0-1.1,0.2-1.5,0.6c-0.3,0.4-0.5,1.1-0.5,2v0.3c0,1.1,0.2,1.8,0.5,2.3s0.8,0.7,1.5,0.7c1.2,0,1.8-1,1.8-3   c0-1-0.1-1.7-0.4-2.2C627.7,303,627.3,302.8,626.6,302.8z"/>
	<path class="st12" d="M640.4,310.7l-0.4-1.3h-0.1c-0.3,0.5-0.7,0.8-1.2,1.1c-0.5,0.2-1.1,0.4-1.8,0.4c-1.2,0-2-0.3-2.6-0.9   c-0.6-0.6-0.9-1.5-0.9-2.7v-6.4h2.7v5.7c0,0.7,0.1,1.2,0.4,1.6c0.3,0.4,0.7,0.5,1.2,0.5c0.8,0,1.3-0.3,1.6-0.8   c0.3-0.5,0.5-1.3,0.5-2.5v-4.6h2.7v9.8H640.4z"/>
	<path class="st12" d="M650.7,300.7c1.2,0,2.1,0.5,2.7,1.4c0.7,0.9,1,2.1,1,3.7c0,1.6-0.3,2.9-1,3.8s-1.6,1.3-2.8,1.3   c-1.2,0-2.1-0.4-2.7-1.3h-0.2l-0.4,1.1h-2V297h2.7v3.2c0,0.4,0,1.1-0.1,1.9h0.1C648.6,301.1,649.5,300.7,650.7,300.7z M649.9,302.8   c-0.7,0-1.1,0.2-1.5,0.6c-0.3,0.4-0.5,1.1-0.5,2v0.3c0,1.1,0.2,1.8,0.5,2.3s0.8,0.7,1.5,0.7c0.6,0,1-0.3,1.3-0.8   c0.3-0.5,0.5-1.2,0.5-2.2s-0.2-1.7-0.5-2.2C650.9,303,650.4,302.8,649.9,302.8z"/>
	<path class="st12" d="M659.3,310.7h-2.7V297h2.7V310.7z"/>
	<path class="st12" d="M662,298.3c0-0.9,0.5-1.3,1.5-1.3s1.5,0.4,1.5,1.3c0,0.4-0.1,0.7-0.4,1s-0.6,0.3-1.1,0.3   C662.5,299.6,662,299.2,662,298.3z M664.8,310.7h-2.7v-9.8h2.7V310.7z"/>
	<path class="st12" d="M671.6,310.8c-3.1,0-4.6-1.7-4.6-5c0-1.7,0.4-2.9,1.2-3.8s2-1.3,3.6-1.3c1.1,0,2.2,0.2,3.1,0.7l-0.8,2.1   c-0.4-0.2-0.8-0.3-1.2-0.4s-0.7-0.2-1.1-0.2c-1.4,0-2.1,1-2.1,3c0,1.9,0.7,2.9,2.1,2.9c0.5,0,1-0.1,1.4-0.2s0.9-0.4,1.3-0.6v2.3   c-0.4,0.3-0.9,0.5-1.3,0.6S672.3,310.8,671.6,310.8z"/>
</g>
<g>
	<g>
		<defs>
			<rect id="SVGID_00000079450697919210906960000000525455223913398949_" x="579.9" y="-9.5" width="421.2" height="401.3"/>
		</defs>
		<clipPath id="SVGID_00000069366054980046869900000008905790900544119943_">
			<use xlink:href="#SVGID_00000079450697919210906960000000525455223913398949_" style="overflow:visible;"/>
		</clipPath>
		<g style="clip-path:url(#SVGID_00000069366054980046869900000008905790900544119943_);">
			<line class="st15" x1="1006.6" y1="2.4" x2="438.6" y2="-565.6"/>
			<line class="st15" x1="1000.1" y1="9.3" x2="432.1" y2="-558.7"/>
			<line class="st15" x1="993.3" y1="15.8" x2="425.3" y2="-552.2"/>
			<line class="st15" x1="986.8" y1="22.6" x2="418.8" y2="-545.4"/>
			<line class="st15" x1="979.9" y1="29.1" x2="411.9" y2="-538.9"/>
			<line class="st15" x1="973.4" y1="36" x2="405.4" y2="-532"/>
			<line class="st15" x1="966.6" y1="42.5" x2="398.6" y2="-525.5"/>
			<line class="st15" x1="960.1" y1="49.4" x2="392.1" y2="-518.6"/>
			<line class="st15" x1="953.2" y1="55.9" x2="385.2" y2="-512.1"/>
			<line class="st15" x1="946.7" y1="62.7" x2="378.7" y2="-505.3"/>
			<line class="st15" x1="939.8" y1="69.2" x2="371.8" y2="-498.8"/>
			<line class="st15" x1="933.3" y1="76.1" x2="365.3" y2="-491.9"/>
			<line class="st15" x1="926.5" y1="82.6" x2="358.5" y2="-485.4"/>
			<line class="st15" x1="920" y1="89.5" x2="352" y2="-478.5"/>
			<line class="st15" x1="913.1" y1="96" x2="345.1" y2="-472"/>
			<line class="st15" x1="906.6" y1="102.8" x2="338.6" y2="-465.2"/>
			<line class="st15" x1="899.7" y1="109.3" x2="331.7" y2="-458.7"/>
			<line class="st15" x1="893.2" y1="116.2" x2="325.2" y2="-451.8"/>
			<line class="st15" x1="886.4" y1="122.7" x2="318.4" y2="-445.3"/>
			<line class="st15" x1="879.9" y1="129.6" x2="311.9" y2="-438.4"/>
			<line class="st15" x1="873" y1="136" x2="305" y2="-432"/>
			<line class="st15" x1="866.5" y1="142.9" x2="298.5" y2="-425.1"/>
			<line class="st15" x1="859.6" y1="149.4" x2="291.6" y2="-418.6"/>
		</g>
	</g>
	<g>
		<defs>
			<rect id="SVGID_00000093150989252742349070000011794572568819041176_" x="579.9" y="-9.5" width="421.2" height="401.3"/>
		</defs>
		<clipPath id="SVGID_00000127742132407267183610000006006513670560000944_">
			<use xlink:href="#SVGID_00000093150989252742349070000011794572568819041176_" style="overflow:visible;"/>
		</clipPath>
		<g style="clip-path:url(#SVGID_00000127742132407267183610000006006513670560000944_);">
			<line class="st1" x1="1326.2" y1="-316.9" x2="758.2" y2="251.1"/>
			<line class="st1" x1="1332.7" y1="-310.1" x2="764.7" y2="257.9"/>
			<line class="st1" x1="1339.6" y1="-303.6" x2="771.6" y2="264.4"/>
			<line class="st1" x1="1346.1" y1="-296.7" x2="778.1" y2="271.3"/>
			<line class="st1" x1="1352.9" y1="-290.2" x2="784.9" y2="277.8"/>
			<line class="st1" x1="1359.4" y1="-283.3" x2="791.4" y2="284.7"/>
			<line class="st1" x1="1366.3" y1="-276.8" x2="798.3" y2="291.2"/>
			<line class="st1" x1="1372.8" y1="-270" x2="804.8" y2="298"/>
			<line class="st1" x1="1379.7" y1="-263.5" x2="811.7" y2="304.5"/>
			<line class="st1" x1="1386.2" y1="-256.6" x2="818.2" y2="311.4"/>
			<line class="st1" x1="1393" y1="-250.1" x2="825" y2="317.9"/>
			<line class="st1" x1="1399.5" y1="-243.2" x2="831.5" y2="324.8"/>
			<line class="st1" x1="1406.4" y1="-236.7" x2="838.4" y2="331.3"/>
			<line class="st1" x1="1412.9" y1="-229.9" x2="844.9" y2="338.1"/>
			<line class="st1" x1="1419.8" y1="-223.4" x2="851.8" y2="344.6"/>
			<line class="st1" x1="1426.3" y1="-216.5" x2="858.3" y2="351.5"/>
			<line class="st1" x1="1433.1" y1="-210" x2="865.1" y2="358"/>
			<line class="st1" x1="1439.6" y1="-203.1" x2="871.6" y2="364.9"/>
			<line class="st1" x1="1446.5" y1="-196.6" x2="878.5" y2="371.4"/>
			<line class="st1" x1="1453" y1="-189.8" x2="885" y2="378.2"/>
			<line class="st1" x1="1459.9" y1="-183.3" x2="891.9" y2="384.7"/>
			<line class="st1" x1="1466.4" y1="-176.4" x2="898.4" y2="391.6"/>
			<line class="st1" x1="1473.2" y1="-169.9" x2="905.2" y2="398.1"/>
			<line class="st1" x1="1479.7" y1="-163" x2="911.7" y2="404.9"/>
			<line class="st1" x1="1486.6" y1="-156.6" x2="918.6" y2="411.4"/>
			<line class="st1" x1="1493.1" y1="-149.7" x2="925.1" y2="418.3"/>
			<line class="st1" x1="1500" y1="-143.2" x2="932" y2="424.8"/>
			<line class="st1" x1="1506.5" y1="-136.3" x2="938.5" y2="431.7"/>
			<line class="st1" x1="1513.3" y1="-129.8" x2="945.3" y2="438.2"/>
			<line class="st1" x1="1519.8" y1="-123" x2="951.8" y2="445"/>
			<line class="st1" x1="1526.7" y1="-116.5" x2="958.7" y2="451.5"/>
			<line class="st1" x1="1533.2" y1="-109.6" x2="965.2" y2="458.4"/>
			<line class="st1" x1="1540.1" y1="-103.1" x2="972.1" y2="464.9"/>
			<line class="st1" x1="1546.6" y1="-96.2" x2="978.6" y2="471.8"/>
			<line class="st1" x1="1553.4" y1="-89.7" x2="985.4" y2="478.3"/>
		</g>
	</g>
	<g>
		<defs>
			<rect id="SVGID_00000112604949824829068240000001269531070090438579_" x="579.9" y="-9.5" width="421.2" height="401.3"/>
		</defs>
		<clipPath id="SVGID_00000116920775352657006510000007462709340374690181_">
			<use xlink:href="#SVGID_00000112604949824829068240000001269531070090438579_" style="overflow:visible;"/>
		</clipPath>
		<g style="clip-path:url(#SVGID_00000116920775352657006510000007462709340374690181_);">
			<line class="st3" x1="1325.2" y1="818" x2="757.2" y2="250"/>
			<line class="st3" x1="1318.3" y1="824.5" x2="750.3" y2="256.5"/>
			<line class="st3" x1="1311.8" y1="831.4" x2="743.8" y2="263.4"/>
			<line class="st3" x1="1304.9" y1="837.9" x2="736.9" y2="269.9"/>
			<line class="st3" x1="1298.4" y1="844.7" x2="730.4" y2="276.7"/>
			<line class="st3" x1="1291.6" y1="851.2" x2="723.6" y2="283.2"/>
			<line class="st3" x1="1285.1" y1="858.1" x2="717.1" y2="290.1"/>
			<line class="st3" x1="1278.2" y1="864.6" x2="710.2" y2="296.6"/>
			<line class="st3" x1="1271.7" y1="871.5" x2="703.7" y2="303.5"/>
			<line class="st3" x1="1264.8" y1="878" x2="696.8" y2="310"/>
			<line class="st3" x1="1258.3" y1="884.8" x2="690.3" y2="316.8"/>
			<line class="st3" x1="1251.5" y1="891.3" x2="683.5" y2="323.3"/>
			<line class="st3" x1="1245" y1="898.2" x2="677" y2="330.2"/>
			<line class="st3" x1="1238.1" y1="904.7" x2="670.1" y2="336.7"/>
			<line class="st3" x1="1231.6" y1="911.6" x2="663.6" y2="343.6"/>
			<line class="st3" x1="1224.7" y1="918.1" x2="656.7" y2="350.1"/>
			<line class="st3" x1="1218.2" y1="924.9" x2="650.2" y2="356.9"/>
			<line class="st3" x1="1211.4" y1="931.4" x2="643.4" y2="363.4"/>
			<line class="st3" x1="1204.9" y1="938.3" x2="636.9" y2="370.3"/>
			<line class="st3" x1="1198" y1="944.8" x2="630" y2="376.8"/>
			<line class="st3" x1="1191.5" y1="951.7" x2="623.5" y2="383.7"/>
		</g>
	</g>
</g>
<g>
	<g>
		<defs>
			<rect id="SVGID_00000176021582072542544110000012596262922306548671_" x="-13.4" y="-9.6" width="395.1" height="401.3"/>
		</defs>
		<clipPath id="SVGID_00000052811576134740962580000005844349625752121220_">
			<use xlink:href="#SVGID_00000176021582072542544110000012596262922306548671_" style="overflow:visible;"/>
		</clipPath>
		<g style="clip-path:url(#SVGID_00000052811576134740962580000005844349625752121220_);">
			<line class="st15" x1="-73.1" y1="383.7" x2="494.9" y2="951.7"/>
			<line class="st15" x1="-66.6" y1="376.9" x2="501.4" y2="944.9"/>
			<line class="st15" x1="-59.8" y1="370.4" x2="508.2" y2="938.4"/>
			<line class="st15" x1="-53.3" y1="363.5" x2="514.7" y2="931.5"/>
			<line class="st15" x1="-46.4" y1="357" x2="521.6" y2="925"/>
			<line class="st15" x1="-39.9" y1="350.1" x2="528.1" y2="918.1"/>
			<line class="st15" x1="-33" y1="343.6" x2="535" y2="911.6"/>
			<line class="st15" x1="-26.5" y1="336.8" x2="541.5" y2="904.8"/>
			<line class="st15" x1="-19.7" y1="330.3" x2="548.3" y2="898.3"/>
			<line class="st15" x1="-13.2" y1="323.4" x2="554.8" y2="891.4"/>
			<line class="st15" x1="-6.3" y1="316.9" x2="561.7" y2="884.9"/>
			<line class="st15" x1="0.2" y1="310.1" x2="568.2" y2="878.1"/>
			<line class="st15" x1="7.1" y1="303.6" x2="575.1" y2="871.6"/>
			<line class="st15" x1="13.6" y1="296.7" x2="581.6" y2="864.7"/>
			<line class="st15" x1="20.4" y1="290.2" x2="588.4" y2="858.2"/>
			<line class="st15" x1="26.9" y1="283.3" x2="594.9" y2="851.3"/>
			<line class="st15" x1="33.8" y1="276.8" x2="601.8" y2="844.8"/>
			<line class="st15" x1="40.3" y1="270" x2="608.3" y2="838"/>
			<line class="st15" x1="47.2" y1="263.5" x2="615.2" y2="831.5"/>
			<line class="st15" x1="53.7" y1="256.6" x2="621.7" y2="824.6"/>
			<line class="st15" x1="60.5" y1="250.1" x2="628.5" y2="818.1"/>
			<line class="st15" x1="67" y1="243.2" x2="635" y2="811.2"/>
			<line class="st15" x1="73.9" y1="236.7" x2="641.9" y2="804.7"/>
			<line class="st15" x1="80.4" y1="229.9" x2="648.4" y2="797.9"/>
			<line class="st15" x1="87.3" y1="223.4" x2="655.3" y2="791.4"/>
			<line class="st15" x1="93.8" y1="216.5" x2="661.8" y2="784.5"/>
			<line class="st15" x1="100.6" y1="210" x2="668.6" y2="778"/>
			<line class="st15" x1="107.1" y1="203.1" x2="675.1" y2="771.1"/>
			<line class="st15" x1="114" y1="196.6" x2="682" y2="764.6"/>
		</g>
	</g>
	<g>
		<defs>
			<rect id="SVGID_00000167387631634170655280000008668968280084043180_" x="-13.4" y="-9.6" width="395.1" height="401.3"/>
		</defs>
		<clipPath id="SVGID_00000068665448329987935520000011357121978328950415_">
			<use xlink:href="#SVGID_00000167387631634170655280000008668968280084043180_" style="overflow:visible;"/>
		</clipPath>
		<g style="clip-path:url(#SVGID_00000068665448329987935520000011357121978328950415_);">
			<line class="st3" x1="-388.6" y1="699.2" x2="179.4" y2="131.2"/>
			<line class="st3" x1="-395.1" y1="692.3" x2="172.9" y2="124.3"/>
			<line class="st3" x1="-401.9" y1="685.8" x2="166.1" y2="117.8"/>
			<line class="st3" x1="-408.4" y1="678.9" x2="159.6" y2="110.9"/>
			<line class="st3" x1="-415.3" y1="672.4" x2="152.7" y2="104.4"/>
			<line class="st3" x1="-421.8" y1="665.6" x2="146.2" y2="97.6"/>
			<line class="st3" x1="-428.7" y1="659.1" x2="139.3" y2="91.1"/>
			<line class="st3" x1="-435.2" y1="652.2" x2="132.8" y2="84.2"/>
			<line class="st3" x1="-442" y1="645.7" x2="126" y2="77.7"/>
			<line class="st3" x1="-448.5" y1="638.8" x2="119.5" y2="70.8"/>
			<line class="st3" x1="-455.4" y1="632.3" x2="112.6" y2="64.3"/>
			<line class="st3" x1="-461.9" y1="625.5" x2="106.1" y2="57.5"/>
			<line class="st3" x1="-468.8" y1="619" x2="99.2" y2="51"/>
			<line class="st3" x1="-475.3" y1="612.1" x2="92.7" y2="44.1"/>
			<line class="st3" x1="-482.1" y1="605.6" x2="85.9" y2="37.6"/>
			<line class="st3" x1="-488.6" y1="598.7" x2="79.4" y2="30.7"/>
			<line class="st3" x1="-495.5" y1="592.2" x2="72.5" y2="24.2"/>
			<line class="st3" x1="-502" y1="585.4" x2="66" y2="17.4"/>
			<line class="st3" x1="-508.9" y1="578.9" x2="59.1" y2="10.9"/>
			<line class="st3" x1="-515.4" y1="572" x2="52.6" y2="4"/>
			<line class="st3" x1="-522.2" y1="565.5" x2="45.8" y2="-2.5"/>
			<line class="st3" x1="-528.7" y1="558.6" x2="39.3" y2="-9.3"/>
			<line class="st3" x1="-535.6" y1="552.2" x2="32.4" y2="-15.8"/>
			<line class="st3" x1="-542.1" y1="545.3" x2="25.9" y2="-22.7"/>
			<line class="st3" x1="-548.9" y1="538.8" x2="19" y2="-29.2"/>
			<line class="st3" x1="-555.4" y1="531.9" x2="12.6" y2="-36.1"/>
			<line class="st3" x1="-562.3" y1="525.4" x2="5.7" y2="-42.6"/>
			<line class="st3" x1="-568.8" y1="518.6" x2="-0.8" y2="-49.4"/>
		</g>
	</g>
	<g>
		<defs>
			<rect id="SVGID_00000072960615139775428570000000706835589460839059_" x="-13.4" y="-9.6" width="395.1" height="401.3"/>
		</defs>
		<clipPath id="SVGID_00000036963259917873572300000003076980468171932575_">
			<use xlink:href="#SVGID_00000072960615139775428570000000706835589460839059_" style="overflow:visible;"/>
		</clipPath>
		<g style="clip-path:url(#SVGID_00000036963259917873572300000003076980468171932575_);">
			<line class="st1" x1="-400.2" y1="-449.6" x2="167.8" y2="118.4"/>
			<line class="st1" x1="-393.4" y1="-456.1" x2="174.6" y2="111.9"/>
			<line class="st1" x1="-386.9" y1="-463" x2="181.1" y2="105"/>
			<line class="st1" x1="-380" y1="-469.5" x2="188" y2="98.5"/>
			<line class="st1" x1="-373.5" y1="-476.4" x2="194.5" y2="91.6"/>
			<line class="st1" x1="-366.6" y1="-482.8" x2="201.4" y2="85.2"/>
			<line class="st1" x1="-360.1" y1="-489.7" x2="207.9" y2="78.3"/>
			<line class="st1" x1="-353.3" y1="-496.2" x2="214.7" y2="71.8"/>
			<line class="st1" x1="-346.8" y1="-503.1" x2="221.2" y2="64.9"/>
			<line class="st1" x1="-339.9" y1="-509.6" x2="228.1" y2="58.4"/>
			<line class="st1" x1="-333.4" y1="-516.4" x2="234.6" y2="51.6"/>
			<line class="st1" x1="-326.5" y1="-522.9" x2="241.5" y2="45.1"/>
			<line class="st1" x1="-320" y1="-529.8" x2="247.9" y2="38.2"/>
			<line class="st1" x1="-313.2" y1="-536.3" x2="254.8" y2="31.7"/>
			<line class="st1" x1="-306.7" y1="-543.2" x2="261.3" y2="24.8"/>
			<line class="st1" x1="-299.8" y1="-549.7" x2="268.2" y2="18.3"/>
			<line class="st1" x1="-293.3" y1="-556.5" x2="274.7" y2="11.5"/>
			<line class="st1" x1="-286.5" y1="-563" x2="281.5" y2="5"/>
		</g>
	</g>
</g>
</svg>