<svg xmlns="http://www.w3.org/2000/svg" xmlns:xlink="http://www.w3.org/1999/xlink" viewBox="0 0 650 188">
  <defs>
    <clipPath clipPathUnits="userSpaceOnUse" id="clip">
      <ellipse rx="16.950386" ry="17.350386" cx="84.035004" cy="34.077648"/>
    </clipPath>
  </defs>
  <g fill="black">
    <path d="m 197.53149,175.03436 c 0.48013,-0.35847 1.24468,-1.37408 1.69901,-2.25691 0.69804,-1.35642 0.82615,-2.08755 0.82678,-4.71813 6.4e-4,-2.20471 -0.17086,-3.50921 -0.58733,-4.47102 -2.08935,-4.82522 -7.35006,-5.03571 -9.80459,-0.3923 -0.62888,1.18968 -0.74714,1.96965 -0.75443,4.97573 -0.007,3.16638 0.084,3.72655 0.81947,5.01088 0.45547,0.79527 1.21618,1.70023 1.69046,2.01098 1.83043,1.19933 4.37996,1.13291 6.11063,-0.15923 z m -11.96776,11.58429 c -0.1245,-0.12448 -0.22635,-6.69407 -0.22635,-14.59909 v -14.37275 h 1.69757 1.69757 v 1.22781 1.22779 l 1.33881,-1.20952 c 4.53757,-4.09943 11.82998,-1.14943 13.29039,5.37639 0.58454,2.612 0.25014,7.08357 -0.69116,9.24202 -2.15958,4.95203 -8.1064,7.0335 -12.08424,4.22965 l -1.51429,-1.06736 v 5.08571 5.0857 h -1.64099 c -0.90254,0 -1.74284,-0.10189 -1.86731,-0.22635 z"/>
    <path d="m 471.47977,175.01031 c 0.55148,-0.39267 1.26629,-1.26943 1.58846,-1.94835 1.32378,-2.78977 1.22392,-8.24885 -0.19292,-10.54134 -2.35263,-3.8066 -7.01455,-3.47156 -9.22449,0.66296 -0.64937,1.21481 -0.76083,1.94537 -0.76083,4.98815 0,3.01984 0.1138,3.7776 0.7444,4.95598 1.61123,3.01112 5.08863,3.84558 7.84538,1.8826 z m -11.91266,11.624 c -0.13309,-0.13311 -0.242,-6.70973 -0.242,-14.61475 v -14.37275 h 1.69758 1.69757 v 1.22781 1.22779 l 1.33401,-1.20521 c 2.05998,-1.86108 4.36841,-2.32651 7.24502,-1.46078 4.37727,1.31736 6.62262,5.39745 6.27969,11.4111 -0.27152,4.7633 -2.00945,7.7147 -5.52206,9.37814 -2.80868,1.33003 -6.76209,0.82779 -8.31811,-1.0567 -0.45886,-0.55573 -0.52606,-0.11564 -0.67903,4.44475 l -0.16979,5.06154 -1.54043,0.10053 c -0.84726,0.0553 -1.64935,-0.008 -1.78245,-0.14147 z"/>
    <path d="m 165.824,164.87321 c -0.53888,-2.87246 -2.23621,-4.51408 -4.93543,-4.77346 -2.14278,-0.20588 -3.81322,0.38992 -5.05342,1.80243 -1.00372,1.14318 -1.87479,3.38895 -1.53053,3.94597 0.0973,0.15758 2.78232,0.2865 5.96656,0.2865 h 5.78946 z m -9.34531,13.4994 c -3.83233,-1.31636 -6.11125,-5.14899 -6.11125,-10.27778 0,-4.71102 1.93567,-8.32327 5.36163,-10.00565 1.62383,-0.79741 2.35063,-0.94756 4.48426,-0.92645 2.95102,0.0292 4.43328,0.5691 6.37269,2.32126 1.71577,1.5501 2.78398,4.02048 3.03544,7.01997 l 0.19675,2.3468 h -7.9042 -7.90421 l 0.21706,1.6127 c 0.2551,1.89518 1.62836,4.02576 3.17821,4.93091 1.51018,0.882 4.49831,0.85605 5.96727,-0.0518 0.61094,-0.3776 1.4585,-1.3052 1.88349,-2.06135 0.81124,-1.44341 1.29316,-1.59039 3.54129,-1.08003 l 0.94474,0.21448 -0.89049,1.78297 c -0.48976,0.98063 -1.44962,2.24547 -2.13302,2.81073 -2.42572,2.00641 -6.70753,2.57647 -10.23966,1.36323 z"/>
    <path d="m 227.55228,175.4787 c 1.81478,-0.86712 2.84824,-2.591 3.13992,-5.23762 l 0.23965,-2.1746 -0.81371,0.22067 c -0.44754,0.12136 -2.52809,0.54358 -4.62343,0.93827 -4.45954,0.84002 -5.52692,1.52286 -5.52692,3.53586 0,0.67476 0.16482,1.53478 0.36625,1.91117 0.88812,1.65945 4.57151,2.07088 7.21824,0.80625 z m -7.41472,3.10725 c -1.77573,-0.69485 -2.46744,-1.20874 -3.15842,-2.34646 -1.54795,-2.54878 -1.19354,-5.38376 0.92526,-7.40141 1.46265,-1.39284 2.66504,-1.80613 7.32586,-2.51811 4.93541,-0.75393 5.41369,-0.92283 5.53628,-1.9552 0.0572,-0.48194 -0.12825,-1.43223 -0.41217,-2.11175 -0.63989,-1.53144 -2.14518,-2.22962 -4.80725,-2.22962 -2.60004,0 -4.02407,0.73631 -4.89215,2.52954 -0.73738,1.52324 -0.75146,1.52759 -3.28705,1.01618 -0.68127,-0.13742 -0.70535,-0.23702 -0.34388,-1.42234 0.56374,-1.84869 2.78257,-3.92845 4.82227,-4.52009 0.92751,-0.26903 2.98503,-0.4859 4.57224,-0.48191 2.38422,0.006 3.1779,0.1535 4.56581,0.84878 3.00872,1.50722 3.04286,1.6177 3.28324,10.62675 0.12136,4.54853 0.3721,8.27285 0.59414,8.82529 0.2113,0.52567 0.38419,1.03018 0.38419,1.12117 0,0.091 -0.79915,0.1192 -1.77588,0.0627 -1.63636,-0.0946 -1.80199,-0.18265 -2.10833,-1.12117 -0.18285,-0.5602 -0.3737,-1.0791 -0.42408,-1.15311 -0.0504,-0.0739 -0.68031,0.25503 -1.39983,0.73119 -2.73398,1.80925 -6.90737,2.475 -9.40025,1.49952 z"/>
    <path d="m 244.90944,178.49589 c -1.97627,-0.70169 -3.78109,-2.32447 -4.81808,-4.33213 -0.75829,-1.46809 -0.92548,-2.29849 -1.04374,-5.18413 -0.23623,-5.76439 1.22608,-9.06251 4.79154,-10.80693 3.80226,-1.86027 8.20428,-1.38311 10.75296,1.16559 1.18617,1.18615 2.41663,3.81998 1.98588,4.25074 -0.0914,0.0914 -0.84155,0.255 -1.66711,0.36364 -1.49411,0.19664 -1.50354,0.19127 -2.06394,-1.17287 -0.80916,-1.96967 -2.32247,-2.82641 -4.72171,-2.67311 -2.37094,0.1515 -3.72404,1.0659 -4.77864,3.22934 -0.65202,1.3376 -0.78506,2.15659 -0.78548,4.8357 -3.4e-4,2.80391 0.10942,3.42111 0.84071,4.72313 0.98699,1.75728 2.17669,2.72125 3.76878,3.05372 2.85694,0.59664 5.4438,-0.93132 6.17059,-3.64472 0.36985,-1.38081 0.45328,-1.45793 1.37708,-1.27317 0.54084,0.10816 1.26982,0.19667 1.61995,0.19667 1.41051,0 0.21958,3.46705 -1.89706,5.52271 -2.2027,2.13924 -6.30665,2.89093 -9.53173,1.74582 z"/>
    <path d="m 274.52934,164.72099 c -0.22071,-1.64554 -1.02636,-2.85186 -2.64714,-3.96355 -1.54272,-1.05817 -4.70138,-0.93905 -6.35679,0.2397 -1.23971,0.88276 -2.43934,2.9852 -2.43934,4.2751 v 0.8623 h 5.81642 5.81645 l -0.1896,-1.41353 z m -9.18888,13.78076 c -2.27355,-0.72553 -4.67338,-3.16582 -5.50396,-5.59676 -0.85098,-2.49063 -0.85207,-6.97297 -0.002,-9.45982 1.66374,-4.86896 6.83587,-7.45727 11.93885,-5.97464 1.56731,0.45538 2.39063,0.96686 3.7536,2.33195 1.97459,1.97759 2.83761,4.18035 2.83761,7.24247 v 1.80571 h -7.85221 -7.85223 l 0.22479,1.44293 c 0.52823,3.39084 3.10853,5.7652 6.26521,5.7652 2.17621,0 3.6479,-0.82593 4.74315,-2.66193 l 0.90638,-1.5194 1.69142,0.20629 c 0.93028,0.11347 1.74134,0.25622 1.80234,0.31724 0.26255,0.26255 -0.95262,2.54324 -1.97619,3.70903 -1.71247,1.95038 -3.44213,2.68593 -6.61027,2.81104 -1.79099,0.0707 -3.27812,-0.0721 -4.36613,-0.41929 z"/>
    <path d="m 360.86609,165.35771 c 0,-1.14502 -1.39157,-3.66759 -2.4474,-4.43665 -1.30501,-0.95054 -4.2376,-1.14069 -5.84301,-0.37888 -1.63415,0.77546 -2.92841,2.50527 -3.15863,4.22159 l -0.18387,1.37077 h 5.81642 5.81649 z m -9.44779,13.03153 c -2.22864,-0.76971 -4.17045,-2.60409 -5.2066,-4.9187 -0.64702,-1.44524 -0.77772,-2.32893 -0.78488,-5.30607 -0.008,-3.35951 0.0574,-3.70667 1.1055,-5.8351 1.27619,-2.59241 3.00076,-4.0769 5.6502,-4.86369 6.32637,-1.87872 11.84108,2.18406 12.34295,9.09324 l 0.16647,2.29172 h -7.89914 -7.89913 l 0.1825,1.3606 c 0.26717,1.99198 1.31141,3.77198 2.85085,4.85978 1.10453,0.78043 1.71447,0.95792 3.29204,0.95792 2.42701,0 3.84732,-0.78041 4.90855,-2.6971 0.82907,-1.49726 1.29784,-1.64724 3.53458,-1.13077 l 0.92886,0.21447 -0.80013,1.72162 c -1.93047,4.15372 -7.30713,6.0015 -12.37262,4.25208 z"/>
    <path d="m 397.03303,164.87311 c -0.5389,-2.87247 -2.23621,-4.5141 -4.93546,-4.77346 -2.1428,-0.20589 -3.81321,0.38991 -5.05343,1.80241 -1.00369,1.14318 -1.8748,3.38896 -1.53052,3.94598 0.0974,0.15758 2.78234,0.2865 5.96651,0.2865 h 5.7895 z m -9.28673,13.51614 c -3.65019,-1.26066 -5.8119,-4.55848 -6.09901,-9.30456 -0.31828,-5.26005 1.553,-9.16022 5.27086,-10.98589 1.64504,-0.80779 2.36461,-0.95735 4.50417,-0.93619 2.95103,0.0292 4.43326,0.56912 6.37271,2.32127 1.71576,1.55009 2.78398,4.02049 3.03544,7.01998 l 0.19671,2.3468 h -7.90421 -7.90416 l 0.21705,1.61268 c 0.25511,1.89519 1.62835,4.02577 3.17816,4.93092 1.51021,0.882 4.49832,0.85604 5.96732,-0.0518 0.61092,-0.37759 1.4585,-1.30519 1.88347,-2.06134 0.81127,-1.44343 1.29314,-1.59039 3.54128,-1.08002 l 0.94477,0.21445 -0.89048,1.783 c -0.48981,0.98062 -1.44963,2.24547 -2.13303,2.81073 -2.41128,1.99444 -6.71341,2.57756 -10.18105,1.37997 z"/>
    <path d="m 431.13799,165.37063 c -0.013,-1.30606 -1.22068,-3.51104 -2.3729,-4.33151 -2.17208,-1.54664 -5.79425,-1.23991 -7.59866,0.64349 -0.91172,0.9516 -2.04225,3.86092 -1.65203,4.25116 0.11042,0.11042 2.77257,0.20077 5.91595,0.20077 5.70268,0 5.71513,-0.002 5.70764,-0.76391 z m -9.44029,13.01862 c -2.22474,-0.76836 -4.16596,-2.59958 -5.21396,-4.91869 -0.65863,-1.45736 -0.78391,-2.30399 -0.78488,-5.30607 0,-3.36542 0.0644,-3.70539 1.13358,-5.87726 1.31876,-2.67878 2.92606,-4.03145 5.77411,-4.85941 2.04668,-0.59497 4.71678,-0.44999 6.65912,0.36156 3.09604,1.2936 5.24302,4.6927 5.53921,8.76955 l 0.16646,2.29173 h -7.85442 -7.85442 v 0.79811 c 0,2.09361 1.67033,4.93049 3.44273,5.84701 0.56707,0.29325 1.86027,0.53317 2.87387,0.53317 2.28235,0 3.76659,-0.8432 4.83709,-2.74784 0.81129,-1.44342 1.29315,-1.59039 3.54136,-1.08002 l 0.9447,0.21446 -0.89047,1.78299 c -0.48982,0.98063 -1.44964,2.24547 -2.13304,2.81074 -2.41129,1.99443 -6.7134,2.57756 -10.18104,1.37997 z"/>
    <path d="m 496.49195,165.03112 c -0.65041,-3.07171 -2.86961,-5.00783 -5.74001,-5.00783 -2.54394,0 -4.76503,1.60876 -5.57754,4.03994 -0.72049,2.15564 -0.94776,2.07131 5.58275,2.07131 h 5.96847 z m -8.86339,13.6352 c -2.18536,-0.63338 -4.29989,-2.41312 -5.3786,-4.52713 -0.90351,-1.77062 -1.03966,-2.41991 -1.13887,-5.43222 -0.0948,-2.8776 0.006,-3.73846 0.63517,-5.41783 1.54356,-4.12112 4.45333,-6.10485 8.9839,-6.12462 2.38606,-0.0106 2.94054,0.11099 4.56284,0.99908 2.98309,1.633 4.55449,4.31711 4.98447,8.51435 l 0.22258,2.17272 h -7.83564 c -4.30961,0 -7.90273,0.11458 -7.98466,0.25463 -0.0818,0.14004 0.0417,0.99296 0.27414,1.89535 0.96967,3.76055 3.8666,5.63916 7.54744,4.89444 1.06456,-0.21539 1.73929,-0.64899 2.63126,-1.69107 0.65974,-0.77078 1.19955,-1.62437 1.19955,-1.89687 0,-0.39675 0.34734,-0.4543 1.7436,-0.28895 0.95897,0.11358 1.83379,0.2967 1.94409,0.40693 0.11021,0.11025 -0.24677,1.05449 -0.7933,2.09836 -1.05902,2.02272 -2.96915,3.53919 -5.25927,4.17542 -1.46098,0.40588 -4.88658,0.38826 -6.3387,-0.0325 z"/>
    <path d="m 522.54219,178.67142 c -0.95226,-0.12708 -1.77917,-0.51349 -2.37661,-1.1105 l -0.91627,-0.91561 -0.10704,-8.14125 -0.10708,-8.14125 h -1.33591 c -1.32866,0 -1.33583,-0.007 -1.33583,-1.33756 0,-1.30055 0.0352,-1.34048 1.2732,-1.44293 l 1.27314,-0.1054 0.0988,-2.61067 0.0989,-2.61066 1.67223,-1.02896 1.67229,-1.02896 0.0964,3.63963 0.0962,3.63962 1.78245,0.10264 1.78245,0.10265 v 1.34032 1.3403 h -1.86732 -1.86729 v 6.96004 c 0,6.61569 0.0352,6.99528 0.71226,7.67233 0.51446,0.51448 1.02527,0.67575 1.83921,0.58073 1.01458,-0.11846 1.14657,-0.033 1.32476,0.85796 0.39028,1.95153 0.28248,2.18337 -1.07525,2.31192 -0.70028,0.0662 -1.93034,0.0329 -2.73353,-0.0743 z"/>
    <path d="m 533.25575,178.49331 c -1.98379,-0.61004 -3.71884,-2.28738 -4.51064,-4.36063 -0.32816,-0.85939 -0.53367,-1.62553 -0.45663,-1.70256 0.0769,-0.0771 0.93936,-0.24609 1.91631,-0.37569 1.66291,-0.22059 1.77632,-0.18916 1.77632,0.49211 0,0.40027 0.50617,1.28015 1.12492,1.95528 0.85202,0.92973 1.49039,1.28067 2.63128,1.44658 2.54522,0.37016 4.37616,-0.0575 5.46542,-1.27659 2.13317,-2.38745 1.02154,-3.61327 -4.80797,-5.3019 -2.33412,-0.67612 -4.62587,-1.50374 -5.09268,-1.83917 -2.35849,-1.69459 -3.08028,-4.82116 -1.65332,-7.16194 1.40851,-2.31051 3.23149,-3.1536 6.91579,-3.19838 3.29035,-0.0399 5.4696,0.69797 6.91168,2.34042 0.86538,0.98563 1.70612,3.08125 1.35383,3.37477 -0.0644,0.0537 -0.8176,0.18918 -1.67373,0.30105 -1.51195,0.19758 -1.57243,0.17018 -2.10918,-0.95536 -0.79661,-1.6705 -2.2486,-2.31045 -4.86422,-2.14389 -1.67066,0.10638 -2.33223,0.3144 -3.0026,0.94413 -1.86195,1.74924 -0.80671,3.33739 2.93937,4.42382 5.31677,1.54195 6.87264,2.16271 7.98732,3.18674 3.22173,2.95961 1.35501,8.47129 -3.34145,9.866 -2.18895,0.65003 -5.36817,0.64379 -7.50982,-0.0148 z"/>
    <path d="m 609.62962,164.72101 c -0.3622,-2.70023 -2.65649,-4.6977 -5.39575,-4.6977 -3.07742,0 -5.46478,1.97258 -5.94132,4.90905 l -0.19506,1.20221 h 5.86087 5.86087 l -0.18961,-1.41354 z m -9.18889,13.78076 c -2.27233,-0.72514 -4.67287,-3.16551 -5.50533,-5.59675 -0.8268,-2.41445 -0.83611,-6.94731 -0.0195,-9.37473 2.19496,-6.523 10.5093,-8.64475 15.51769,-3.95999 1.92609,1.80166 2.89276,4.02372 3.07715,7.07353 l 0.12318,2.03708 -7.93028,0.0913 -7.93031,0.0913 0.22833,1.26684 c 0.34246,1.90022 1.48347,4.06446 2.53917,4.81619 2.03293,1.44752 5.23053,1.49036 7.12533,0.0955 0.48129,-0.35431 1.18065,-1.21623 1.55406,-1.9154 0.67637,-1.26616 0.68583,-1.27035 2.3705,-1.05377 0.93029,0.11957 1.74131,0.26733 1.80232,0.32835 0.0613,0.061 -0.13493,0.70037 -0.43547,1.42079 -0.68939,1.65287 -2.32381,3.37033 -4.07686,4.28411 -1.79619,0.93628 -6.11245,1.13873 -8.44024,0.39588 z"/>
    <path d="m 632.47723,165.35772 c 0,-1.145 -1.39156,-3.66758 -2.44739,-4.43665 -1.30502,-0.95053 -4.2376,-1.14068 -5.84302,-0.37887 -1.63417,0.77546 -2.92842,2.50527 -3.15862,4.22161 l -0.18387,1.37076 h 5.81641 5.81649 z m -9.19776,13.15092 c -2.12984,-0.65611 -4.44741,-2.77933 -5.43232,-4.97688 -0.68236,-1.52251 -0.8041,-2.33681 -0.80144,-5.36013 0.006,-3.10449 0.11517,-3.80632 0.8704,-5.43428 2.12547,-4.58189 6.78452,-6.69678 11.64197,-5.2847 3.82553,1.11211 6.21981,4.36348 6.56395,8.91362 l 0.18785,2.48439 h -7.90124 -7.90116 l 0.22213,1.38921 c 0.57625,3.6037 2.87301,5.78908 6.08411,5.78908 2.74331,0 4.58905,-1.21078 5.44439,-3.57148 0.20153,-0.5563 0.45533,-0.60734 2.00124,-0.40225 0.97377,0.12916 1.82169,0.28611 1.88431,0.34873 0.32505,0.32499 -1.77826,3.6503 -2.89087,4.57045 -2.3478,1.94178 -6.55124,2.58842 -9.97332,1.53424 z"/>
    <path d="m 645.00012,178.67456 c -1.53216,-0.25568 -2.56922,-0.8492 -3.0896,-1.76822 -0.29989,-0.52948 -0.4644,-3.12221 -0.54887,-8.64982 l -0.12057,-7.8937 h -1.15658 c -1.1229,0 -1.15653,-0.0394 -1.15653,-1.35806 0,-1.32269 0.0306,-1.35805 1.17458,-1.35805 h 1.17457 l 0.0987,-2.73475 0.0987,-2.73476 1.78244,-1.02792 1.78243,-1.02791 v 3.76267 3.76267 h 1.69758 1.69758 v 1.35805 1.35806 h -1.69758 -1.69758 v 7.10555 c 0,8.00491 0.098,8.35432 2.27214,8.10051 0.93916,-0.10964 1.16833,-0.008 1.2818,0.56343 0.0759,0.38331 0.22317,1.10177 0.32713,1.59658 0.17898,0.85217 0.11088,0.90592 -1.29099,1.01854 -0.81395,0.0654 -1.99714,0.0325 -2.62918,-0.0728 z"/>
    <path d="m 111.66285,165.79514 v -12.90151 h -4.75319 -4.7532 v -1.69757 -1.69757 h 11.54348 11.54347 v 1.69757 1.69757 h -4.92296 -4.92294 v 12.90151 12.90152 h -1.86734 -1.86732 z"/>
    <path d="m 128.97806,164.09757 v -14.59909 h 1.69757 1.69757 v 5.06975 5.06973 l 1.69489,-1.14055 c 4.26449,-2.8698 10.34335,-1.25742 11.51333,3.05381 0.21525,0.79317 0.36934,4.64151 0.37044,9.25174 l 0.002,7.89371 h -1.67022 -1.67021 l -0.11223,-7.90955 c -0.12529,-8.82985 -0.24972,-9.34076 -2.50433,-10.2828 -1.61678,-0.67553 -2.83019,-0.60045 -4.5731,0.28299 -2.67915,1.35798 -2.86406,2.00901 -2.98932,10.52493 l -0.10863,7.38442 h -1.67382 -1.67383 z"/>
    <path d="m 208.0848,164.09757 v -14.59909 h 1.69757 1.69758 v 14.59909 14.5991 h -1.69758 -1.69757 z"/>
    <path d="m 295.06476,168.53818 c -1.71601,-5.60369 -3.12001,-10.35465 -3.12001,-10.55769 0,-0.23157 0.65538,-0.33091 1.75833,-0.26654 l 1.75833,0.10265 2.21868,8.09886 c 1.49211,5.4466 2.29982,7.8927 2.46642,7.46931 0.13626,-0.34625 1.14242,-3.99074 2.23593,-8.09886 l 1.9882,-7.4693 1.88346,-0.10033 1.88351,-0.10032 1.74142,6.7208 c 0.95777,3.69643 1.84055,7.21733 1.96168,7.8242 0.12114,0.60689 0.32047,1.10343 0.44296,1.10343 0.17971,0 3.07508,-9.30886 4.49581,-14.45423 0.31063,-1.12504 0.3767,-1.1634 2.00283,-1.1634 0.9249,0 1.68161,0.1018 1.68161,0.22627 0,0.21604 -1.05561,3.62414 -4.7935,15.47624 l -1.68643,5.34734 h -1.85273 c -1.01901,0 -1.85275,-0.069 -1.85275,-0.15329 0,-0.2839 -4.06165,-15.56499 -4.16444,-15.66776 -0.0559,-0.0559 -1.02756,3.44271 -2.15916,7.77479 l -2.05749,7.8765 -1.85631,0.0999 -1.85634,0.0999 z"/>
    <path d="m 323.85906,164.09757 v -14.59909 h 1.69757 1.69757 v 5.1138 5.11379 l 1.44294,-1.01717 c 3.73421,-2.63239 9.16578,-2.00234 11.22072,1.30157 0.71109,1.14331 0.75222,1.62275 0.85291,9.94371 l 0.10572,8.74248 h -1.71844 -1.71844 l -0.019,-7.38442 c -0.0126,-4.80092 -0.16097,-7.78904 -0.4244,-8.54092 -1.26422,-3.6079 -6.94567,-3.51089 -8.86678,0.15141 -0.63764,1.21556 -0.71579,2.03698 -0.81436,8.55926 l -0.10905,7.21468 h -1.67339 -1.67343 v -14.5991 z"/>
    <path d="m 369.0144,168.18948 v -10.54267 h 1.69758 1.69758 v 1.44294 1.44293 l 0.67467,-1.10652 c 0.75196,-1.23333 2.52835,-2.45616 3.56671,-2.45521 0.80209,6.5e-4 2.8824,0.56649 3.46464,0.94228 0.63575,0.41024 -0.57214,3.54874 -1.25666,3.26517 -0.28071,-0.1163 -1.12151,-0.28587 -1.86846,-0.37682 -1.54624,-0.18828 -2.98584,0.68972 -3.66806,2.23717 -0.23536,0.53372 -0.46271,3.80668 -0.56882,8.18862 l -0.17682,7.29955 -1.78246,0.10264 -1.78245,0.10263 v -10.54266 z"/>
    <path d="m 437.25671,178.42508 c 0,-0.14936 0.65739,-1.18064 1.46085,-2.29171 0.80352,-1.11107 2.47588,-3.48166 3.71648,-5.26797 l 2.25557,-3.24784 -3.3769,-4.80322 c -1.85733,-2.64177 -3.37697,-4.88519 -3.37697,-4.98537 0,-0.10021 0.95507,-0.18216 2.12241,-0.18216 h 2.12249 l 2.15539,3.39514 c 1.18553,1.86733 2.26914,3.39514 2.40809,3.39514 0.13889,0 1.29061,-1.46432 2.55924,-3.25404 1.2687,-1.78971 2.49478,-3.3262 2.72467,-3.41441 0.22988,-0.0882 1.20828,-0.11353 2.17417,-0.0562 l 1.7561,0.10412 -3.54396,4.79544 -3.54397,4.79545 3.55309,5.05045 c 4.83327,6.87005 4.62345,6.24001 2.07555,6.23225 l -2.13394,-0.006 -2.67813,-4.06766 c -1.4729,-2.23721 -2.77153,-4.06475 -2.88585,-4.06116 -0.11427,0.003 -1.41289,1.83694 -2.88585,4.07416 l -2.67813,4.06765 h -1.99017 c -1.09461,0 -1.99023,-0.12221 -1.99023,-0.27158 z"/>
    <path d="m 504.02,168.17173 v -10.52492 h 1.52786 1.52778 l 0.0111,1.44294 c 0.0106,1.35599 0.041,1.40201 0.5157,0.7639 1.19916,-1.61274 2.26783,-2.5096 3.24661,-2.72458 1.17387,-0.25781 4.018,0.4161 4.24425,1.00567 0.0806,0.21032 -0.0668,0.98867 -0.32785,1.72967 -0.49315,1.40003 -0.45112,1.38525 -2.68641,0.94457 -1.58586,-0.31265 -2.97534,0.51445 -3.77196,2.24529 -0.6383,1.38686 -0.72713,2.3045 -0.83271,8.59749 l -0.11831,7.04491 h -1.66785 -1.66794 v -10.52493 z"/>
    <path d="m 561.40565,178.47032 c -0.12449,-0.12448 -0.22637,-4.8607 -0.22637,-10.52493 v -10.29858 h 1.69758 1.69758 v 1.25181 1.25182 l 0.93368,-0.87355 c 1.6433,-1.53748 3.14221,-2.1156 5.51706,-2.12791 2.52033,-0.013 4.13618,0.72302 5.26534,2.39858 l 0.68417,1.01528 0.79473,-0.95961 c 2.50892,-3.02941 7.92775,-3.41412 10.44815,-0.74174 1.54974,1.64325 1.82042,3.45906 1.82042,12.21283 v 7.62234 h -1.86735 -1.86732 v -8.14297 -8.14298 l -0.93367,-1.03568 c -1.97589,-2.19187 -5.79419,-1.39995 -7.19424,1.49208 -0.63893,1.31985 -0.69943,2.06863 -0.69943,8.65495 v 7.21009 l -1.78245,-0.10264 -1.78242,-0.10265 -0.1698,-8.14832 c -0.11823,-5.67395 -0.30028,-8.37666 -0.59964,-8.90028 -1.0632,-1.85943 -5.0084,-1.70568 -6.66204,0.25962 -1.33898,1.59123 -1.56176,3.05203 -1.56379,10.25335 v 6.70539 h -1.64101 c -0.90251,0 -1.74279,-0.1019 -1.86729,-0.22634 z"/>
    <path d="M 52.430977,139.22818 37.148623,53.481722 1.1369644,59.456626 0.08290102,53.872546 18.603365,27.514181 90.528113,14.715662 c 0.409097,-0.06889 0.730759,0.133439 0.763905,0.326193 l 4.683868,27.69226 -23.173459,4.303462 15.010209,86.361653 -35.021729,6.25335 c -0.121712,0.0217 -0.309044,-0.18707 -0.35993,-0.4244 z"/>
    <path d="m 475.1125,133.53624 c -18.11369,-0.96326 -29.49056,-5.26257 -36.57047,-13.81993 -3.86731,-4.67442 -6.0557,-8.5103 -7.99554,-14.01512 -1.69771,-4.81774 -3.12258,-12.562471 -2.31105,-12.561637 l 33.68033,-1.89768 c 0.25576,0.09813 0.46498,0.540741 0.46498,0.983551 0,1.530537 1.35689,6.102556 2.54301,8.568586 3.00708,6.252 9.63419,10.00927 17.62752,9.994 5.75273,-0.011 9.77263,-1.38431 12.73637,-4.35111 5.55889,-5.56468 4.04401,-13.646043 -3.2723,-17.456395 -3.4978,-1.821678 -6.35459,-2.734356 -16.11021,-5.146764 -22.04716,-5.451928 -32.92235,-11.143612 -38.9579,-20.38906 -3.25243,-4.982181 -4.63122,-10.022297 -4.55463,-16.649145 0.0844,-7.300522 2.50416,-13.640067 7.56047,-19.807229 2.64874,-3.230699 8.3904,-7.213802 13.51292,-9.374214 12.39751,-5.228609 35.44385,-6.010048 50.52758,-1.713255 3.99304,1.137467 10.62856,4.465647 13.37962,6.710766 4.72545,3.856512 8.30859,9.282833 10.34861,15.672104 0.97065,3.040182 2.36834,9.371574 2.11257,9.569939 l -32.97064,1.771869 c -0.87627,-0.103934 -1.01164,-0.313327 -1.55321,-2.402486 -2.03774,-7.860855 -6.83601,-11.694972 -15.44481,-12.341206 -8.1167,-0.609304 -14.1108,3.121876 -14.16196,8.815449 -0.0196,2.188701 0.61788,3.473184 2.58224,5.202257 1.93021,1.699072 5.74949,3.029805 13.95633,4.862714 23.9172,5.341675 35.14064,9.982591 42.60895,17.618882 4.49817,4.599262 7.17103,9.965808 8.36666,16.798398 0.74925,4.281358 0.46044,10.406286 -0.70602,14.975316 -1.02057,3.99757 -3.82019,9.83799 -6.27403,13.08862 -3.64635,4.83036 -9.31566,9.42323 -14.90681,12.07646 -8.76863,4.16107 -21.52209,5.99787 -36.21858,5.21632 z"/>
    <path d="m 227.26734,104.53764 c 6.08631,-1.08225 10.00145,-3.94235 12.58233,-9.191627 2.37061,-4.821568 3.25305,-10.624028 3.24846,-21.360008 -0.007,-17.573269 -3.23692,-25.807313 -11.65403,-29.714709 -4.52142,-2.098936 -6.81638,-2.489487 -15.63534,-2.66081 L 208,41.46 v 31.999 31.998 l 8.14828,-0.18804 c 5.06998,-0.11818 9.1978,-0.38968 11.11906,-0.73132 z M 172,73.445197 V 15 h 31.24673 c 32.74883,0 33.41625,0.315325 40.14754,1.890245 17.24519,4.034853 29.20242,16.805815 33.72166,36.016542 1.76516,7.503443 2.08972,10.79155 2.07779,21.049862 -0.0119,10.267487 -0.44508,14.892684 -2.00495,21.409873 -2.02414,8.456858 -6.2873,16.200348 -12.2956,22.333428 -5.88784,6.0101 -11.68268,9.28522 -20.18534,11.40833 C 234.42469,131.67593 235.49396,132 202.05844,132 H 172 Z"/>
    <path d="M 552.01243,15 H 648 v 25 h -60 v 19 h 56 v 23 h -56 v 23.362 h 62 L 650.132,132 h -98.11957 z"/>
    <path d="m 109,77 h 47 v 25 h -47 z"/>
  </g>
  <g transform="matrix(3.7795276,0,0,3.7795276,35.628126,-53.397907)">
    <g clip-path="url(#clip)">
      <ellipse id="path1805-3-6" fill="#f8f400" cx="84.035004" cy="34.077648" rx="16.950386" ry="17.350386"/>
      <circle fill="#ffa800" cx="84.035004" cy="40.968376" r="16.866259"/>
      <circle fill="#ff0000" cx="84.035004" cy="46.990623" r="16.866259"/>
    </g>
    <g stroke="black" clip-path="url(#clip)">
      <path fill="white" stroke-width="1.25" stroke-linejoin="round" d="m 74.804687,51.715 2.645834,-13.444426 4.134114,0.115755 -0.23151,-2.215886 5.27513,-4e-6 -0.06615,2.232422 4.117578,-0.148822 2.66237,13.460961 z"/>
      <circle fill="black" stroke="none" cx="81.947001" cy="44.089169" r="0.77499998"/>
      <circle fill="black" stroke="none" cx="81.947001" cy="47.594898" r="0.77499998"/>
      <path stroke-width="0.86163783" stroke-linecap="round" d="M 84.037544,38.983938 V 51.090557"/>
      <path fill="none" stroke-width="0.6" stroke-linejoin="round" d="m 87.563247,41.023 h 1.420057 v 2.297 l -0.70973,0.648 h -1.40211 L 86.1315,43.32 86.14319,41.023 Z"/>
      <path stroke-width="1.25" stroke-linecap="round" d="m 77.632421,38.584766 3.894336,-0.09095"/>
      <path stroke-width="1.25" stroke-linecap="round" d="m 90.477115,38.572364 -3.894336,-0.09095"/>
    </g>
    <g stroke="black" transform="translate(49.979317)">
      <ellipse fill="white" stroke-width="1.2984184" cx="34.055687" cy="29.517065" rx="7.6871347" ry="7.5676885"/>
      <circle fill="black" stroke="none" cx="30.461689" cy="30.465454" r="1.1"/>
      <circle fill="black" stroke="none" cx="37.680828" cy="30.465454" r="1.1"/>
      <ellipse fill="none" stroke-width="0.6055336" cx="30.444149" cy="30.411587" rx="2.3147728" ry="2.2264657"/>
      <ellipse fill="none" stroke-width="0.6055336" cx="37.679825" cy="30.411587" rx="2.3147728" ry="2.2264657"/>
      <path stroke-width="0.71251303" d="m 32.510677,29.431837 h 3.075781"/>
      <path fill="black" stroke="none" d="m 33.027344,32.927915 a 0.365234,0.45000856 0 1 0 0,0.900017 h 1.980468 a 0.365234,0.45000856 0 1 0 0,-0.900017 z"/>
    </g>
    <ellipse rx="16.950386" ry="17.350386" cx="84.035004" cy="34.077648" fill="none" stroke="black" stroke-width="1.3"/>
  </g>
</svg>
